G04 Layer_Physical_Order=2*
G04 Layer_Color=11436288*
%FSLAX23Y23*%
%MOIN*%
G70*
G01*
G75*
%ADD18C,0.060*%
%ADD23C,0.010*%
%ADD24C,0.061*%
%ADD25C,0.059*%
%ADD26R,0.059X0.059*%
%ADD27R,0.061X0.061*%
%ADD28C,0.026*%
%ADD29C,0.024*%
%ADD30C,0.158*%
%ADD31C,0.050*%
G36*
X1905Y1967D02*
X1920Y1963D01*
X1934Y1956D01*
X1946Y1946D01*
X1956Y1934D01*
X1963Y1920D01*
X1967Y1905D01*
X1969Y1890D01*
X1969Y1890D01*
X1969Y1890D01*
Y1884D01*
X1969Y79D01*
X1967Y63D01*
X1963Y48D01*
X1956Y35D01*
X1946Y23D01*
X1934Y13D01*
X1920Y6D01*
X1905Y1D01*
X1890Y-0D01*
X1890Y-0D01*
Y-0D01*
X79D01*
X79Y-0D01*
Y-0D01*
X78Y-0D01*
X63Y1D01*
X48Y6D01*
X35Y13D01*
X23Y23D01*
X13Y35D01*
X6Y48D01*
X1Y63D01*
X-0Y78D01*
X-0Y79D01*
X-0D01*
X-0Y1890D01*
X1Y1905D01*
X6Y1920D01*
X13Y1934D01*
X23Y1946D01*
X35Y1956D01*
X48Y1963D01*
X63Y1967D01*
X74Y1968D01*
X79Y1969D01*
X79Y1969D01*
X84D01*
X89Y1969D01*
X1890Y1969D01*
X1905Y1967D01*
D02*
G37*
%LPC*%
G36*
X1760Y575D02*
Y540D01*
X1795D01*
X1794Y546D01*
X1790Y555D01*
X1784Y564D01*
X1775Y570D01*
X1766Y574D01*
X1760Y575D01*
D02*
G37*
G36*
X890Y651D02*
X881Y650D01*
X872Y646D01*
X865Y640D01*
X859Y633D01*
X855Y624D01*
X854Y615D01*
X855Y606D01*
X859Y597D01*
X865Y590D01*
X872Y584D01*
X881Y580D01*
X890Y579D01*
X899Y580D01*
X908Y584D01*
X915Y590D01*
X921Y597D01*
X925Y606D01*
X926Y615D01*
X925Y624D01*
X921Y633D01*
X915Y640D01*
X908Y646D01*
X899Y650D01*
X890Y651D01*
D02*
G37*
G36*
X990D02*
X981Y650D01*
X972Y646D01*
X965Y640D01*
X959Y633D01*
X955Y624D01*
X954Y615D01*
X955Y606D01*
X959Y597D01*
X965Y590D01*
X972Y584D01*
X981Y580D01*
X990Y579D01*
X999Y580D01*
X1008Y584D01*
X1015Y590D01*
X1021Y597D01*
X1025Y606D01*
X1026Y615D01*
X1025Y624D01*
X1021Y633D01*
X1015Y640D01*
X1008Y646D01*
X999Y650D01*
X990Y651D01*
D02*
G37*
G36*
X1750Y575D02*
X1744Y574D01*
X1735Y570D01*
X1726Y564D01*
X1720Y555D01*
X1716Y546D01*
X1715Y540D01*
X1750D01*
Y575D01*
D02*
G37*
G36*
X1795Y530D02*
X1760D01*
Y495D01*
X1766Y496D01*
X1775Y500D01*
X1784Y506D01*
X1790Y515D01*
X1794Y524D01*
X1795Y530D01*
D02*
G37*
G36*
X210Y575D02*
X204Y574D01*
X195Y570D01*
X186Y564D01*
X180Y555D01*
X176Y546D01*
X175Y540D01*
X210D01*
Y575D01*
D02*
G37*
G36*
X220D02*
Y540D01*
X255D01*
X254Y546D01*
X250Y555D01*
X244Y564D01*
X235Y570D01*
X226Y574D01*
X220Y575D01*
D02*
G37*
G36*
X1126Y651D02*
X1054D01*
Y579D01*
X1126D01*
Y651D01*
D02*
G37*
G36*
X890Y772D02*
X881Y771D01*
X872Y767D01*
X865Y761D01*
X859Y754D01*
X855Y745D01*
X854Y736D01*
X855Y727D01*
X859Y718D01*
X865Y711D01*
X872Y705D01*
X881Y701D01*
X890Y700D01*
X899Y701D01*
X908Y705D01*
X915Y711D01*
X921Y718D01*
X925Y727D01*
X926Y736D01*
X925Y745D01*
X921Y754D01*
X915Y761D01*
X908Y767D01*
X899Y771D01*
X890Y772D01*
D02*
G37*
G36*
X990D02*
X981Y771D01*
X972Y767D01*
X965Y761D01*
X959Y754D01*
X955Y745D01*
X954Y736D01*
X955Y727D01*
X959Y718D01*
X965Y711D01*
X972Y705D01*
X981Y701D01*
X990Y700D01*
X999Y701D01*
X1008Y705D01*
X1015Y711D01*
X1021Y718D01*
X1025Y727D01*
X1026Y736D01*
X1025Y745D01*
X1021Y754D01*
X1015Y761D01*
X1008Y767D01*
X999Y771D01*
X990Y772D01*
D02*
G37*
G36*
X1126Y772D02*
X1055D01*
Y701D01*
X1126D01*
Y772D01*
D02*
G37*
G36*
X1755Y772D02*
X1745Y771D01*
X1737Y767D01*
X1729Y761D01*
X1723Y753D01*
X1719Y745D01*
X1718Y735D01*
X1719Y725D01*
X1723Y717D01*
X1729Y709D01*
X1737Y703D01*
X1745Y699D01*
X1755Y698D01*
X1765Y699D01*
X1773Y703D01*
X1781Y709D01*
X1787Y717D01*
X1791Y725D01*
X1792Y735D01*
X1791Y745D01*
X1787Y753D01*
X1781Y761D01*
X1773Y767D01*
X1765Y771D01*
X1755Y772D01*
D02*
G37*
G36*
X215Y672D02*
X205Y671D01*
X197Y667D01*
X189Y661D01*
X183Y653D01*
X179Y645D01*
X178Y635D01*
X179Y625D01*
X183Y617D01*
X189Y609D01*
X197Y603D01*
X205Y599D01*
X215Y598D01*
X225Y599D01*
X233Y603D01*
X241Y609D01*
X247Y617D01*
X251Y625D01*
X252Y635D01*
X251Y645D01*
X247Y653D01*
X241Y661D01*
X233Y667D01*
X225Y671D01*
X215Y672D01*
D02*
G37*
G36*
X1755D02*
X1745Y671D01*
X1737Y667D01*
X1729Y661D01*
X1723Y653D01*
X1719Y645D01*
X1718Y635D01*
X1719Y625D01*
X1723Y617D01*
X1729Y609D01*
X1737Y603D01*
X1745Y599D01*
X1755Y598D01*
X1765Y599D01*
X1773Y603D01*
X1781Y609D01*
X1787Y617D01*
X1791Y625D01*
X1792Y635D01*
X1791Y645D01*
X1787Y653D01*
X1781Y661D01*
X1773Y667D01*
X1765Y671D01*
X1755Y672D01*
D02*
G37*
G36*
X215Y772D02*
X205Y771D01*
X197Y767D01*
X189Y761D01*
X183Y753D01*
X179Y745D01*
X178Y735D01*
X179Y725D01*
X183Y717D01*
X189Y709D01*
X197Y703D01*
X205Y699D01*
X215Y698D01*
X225Y699D01*
X233Y703D01*
X241Y709D01*
X247Y717D01*
X251Y725D01*
X252Y735D01*
X251Y745D01*
X247Y753D01*
X241Y761D01*
X233Y767D01*
X225Y771D01*
X215Y772D01*
D02*
G37*
G36*
X210Y276D02*
X174D01*
Y240D01*
X210D01*
Y276D01*
D02*
G37*
G36*
X256D02*
X220D01*
Y240D01*
X256D01*
Y276D01*
D02*
G37*
G36*
X1750D02*
X1714D01*
Y240D01*
X1750D01*
Y276D01*
D02*
G37*
G36*
X1796Y230D02*
X1760D01*
Y194D01*
X1796D01*
Y230D01*
D02*
G37*
G36*
X210D02*
X174D01*
Y194D01*
X210D01*
Y230D01*
D02*
G37*
G36*
X256D02*
X220D01*
Y194D01*
X256D01*
Y230D01*
D02*
G37*
G36*
X1750D02*
X1714D01*
Y194D01*
X1750D01*
Y230D01*
D02*
G37*
G36*
X1796Y276D02*
X1760D01*
Y240D01*
X1796D01*
Y276D01*
D02*
G37*
G36*
X210Y530D02*
X175D01*
X176Y524D01*
X180Y515D01*
X186Y506D01*
X195Y500D01*
X204Y496D01*
X210Y495D01*
Y530D01*
D02*
G37*
G36*
X255D02*
X220D01*
Y495D01*
X226Y496D01*
X235Y500D01*
X244Y506D01*
X250Y515D01*
X254Y524D01*
X255Y530D01*
D02*
G37*
G36*
X1750D02*
X1715D01*
X1716Y524D01*
X1720Y515D01*
X1726Y506D01*
X1735Y500D01*
X1744Y496D01*
X1750Y495D01*
Y530D01*
D02*
G37*
G36*
X1755Y472D02*
X1745Y471D01*
X1737Y467D01*
X1729Y461D01*
X1723Y453D01*
X1719Y445D01*
X1718Y435D01*
X1719Y425D01*
X1723Y417D01*
X1729Y409D01*
X1737Y403D01*
X1745Y399D01*
X1755Y398D01*
X1765Y399D01*
X1773Y403D01*
X1781Y409D01*
X1787Y417D01*
X1791Y425D01*
X1792Y435D01*
X1791Y445D01*
X1787Y453D01*
X1781Y461D01*
X1773Y467D01*
X1765Y471D01*
X1755Y472D01*
D02*
G37*
G36*
X215Y372D02*
X205Y371D01*
X197Y367D01*
X189Y361D01*
X183Y353D01*
X179Y345D01*
X178Y335D01*
X179Y325D01*
X183Y317D01*
X189Y309D01*
X197Y303D01*
X205Y299D01*
X215Y298D01*
X225Y299D01*
X233Y303D01*
X241Y309D01*
X247Y317D01*
X251Y325D01*
X252Y335D01*
X251Y345D01*
X247Y353D01*
X241Y361D01*
X233Y367D01*
X225Y371D01*
X215Y372D01*
D02*
G37*
G36*
X1755D02*
X1745Y371D01*
X1737Y367D01*
X1729Y361D01*
X1723Y353D01*
X1719Y345D01*
X1718Y335D01*
X1719Y325D01*
X1723Y317D01*
X1729Y309D01*
X1737Y303D01*
X1745Y299D01*
X1755Y298D01*
X1765Y299D01*
X1773Y303D01*
X1781Y309D01*
X1787Y317D01*
X1791Y325D01*
X1792Y335D01*
X1791Y345D01*
X1787Y353D01*
X1781Y361D01*
X1773Y367D01*
X1765Y371D01*
X1755Y372D01*
D02*
G37*
G36*
X215Y472D02*
X205Y471D01*
X197Y467D01*
X189Y461D01*
X183Y453D01*
X179Y445D01*
X178Y435D01*
X179Y425D01*
X183Y417D01*
X189Y409D01*
X197Y403D01*
X205Y399D01*
X215Y398D01*
X225Y399D01*
X233Y403D01*
X241Y409D01*
X247Y417D01*
X251Y425D01*
X252Y435D01*
X251Y445D01*
X247Y453D01*
X241Y461D01*
X233Y467D01*
X225Y471D01*
X215Y472D01*
D02*
G37*
G36*
X210Y830D02*
X175D01*
X176Y824D01*
X180Y815D01*
X186Y806D01*
X195Y800D01*
X204Y796D01*
X210Y795D01*
Y830D01*
D02*
G37*
G36*
X1755Y1372D02*
X1745Y1371D01*
X1737Y1367D01*
X1729Y1361D01*
X1723Y1353D01*
X1719Y1345D01*
X1718Y1335D01*
X1719Y1325D01*
X1723Y1317D01*
X1729Y1309D01*
X1737Y1303D01*
X1745Y1299D01*
X1755Y1298D01*
X1765Y1299D01*
X1773Y1303D01*
X1781Y1309D01*
X1787Y1317D01*
X1791Y1325D01*
X1792Y1335D01*
X1791Y1345D01*
X1787Y1353D01*
X1781Y1361D01*
X1773Y1367D01*
X1765Y1371D01*
X1755Y1372D01*
D02*
G37*
G36*
X210Y1430D02*
X175D01*
X176Y1424D01*
X180Y1415D01*
X186Y1406D01*
X195Y1400D01*
X204Y1396D01*
X210Y1395D01*
Y1430D01*
D02*
G37*
G36*
X255D02*
X220D01*
Y1395D01*
X226Y1396D01*
X235Y1400D01*
X244Y1406D01*
X250Y1415D01*
X254Y1424D01*
X255Y1430D01*
D02*
G37*
G36*
X215Y1372D02*
X205Y1371D01*
X197Y1367D01*
X189Y1361D01*
X183Y1353D01*
X179Y1345D01*
X178Y1335D01*
X179Y1325D01*
X183Y1317D01*
X189Y1309D01*
X197Y1303D01*
X205Y1299D01*
X215Y1298D01*
X225Y1299D01*
X233Y1303D01*
X241Y1309D01*
X247Y1317D01*
X251Y1325D01*
X252Y1335D01*
X251Y1345D01*
X247Y1353D01*
X241Y1361D01*
X233Y1367D01*
X225Y1371D01*
X215Y1372D01*
D02*
G37*
G36*
X1760Y1175D02*
Y1140D01*
X1795D01*
X1794Y1146D01*
X1790Y1155D01*
X1784Y1164D01*
X1775Y1170D01*
X1766Y1174D01*
X1760Y1175D01*
D02*
G37*
G36*
X215Y1272D02*
X205Y1271D01*
X197Y1267D01*
X189Y1261D01*
X183Y1253D01*
X179Y1245D01*
X178Y1235D01*
X179Y1225D01*
X183Y1217D01*
X189Y1209D01*
X197Y1203D01*
X205Y1199D01*
X215Y1198D01*
X225Y1199D01*
X233Y1203D01*
X241Y1209D01*
X247Y1217D01*
X251Y1225D01*
X252Y1235D01*
X251Y1245D01*
X247Y1253D01*
X241Y1261D01*
X233Y1267D01*
X225Y1271D01*
X215Y1272D01*
D02*
G37*
G36*
X1755D02*
X1745Y1271D01*
X1737Y1267D01*
X1729Y1261D01*
X1723Y1253D01*
X1719Y1245D01*
X1718Y1235D01*
X1719Y1225D01*
X1723Y1217D01*
X1729Y1209D01*
X1737Y1203D01*
X1745Y1199D01*
X1755Y1198D01*
X1765Y1199D01*
X1773Y1203D01*
X1781Y1209D01*
X1787Y1217D01*
X1791Y1225D01*
X1792Y1235D01*
X1791Y1245D01*
X1787Y1253D01*
X1781Y1261D01*
X1773Y1267D01*
X1765Y1271D01*
X1755Y1272D01*
D02*
G37*
G36*
X1750Y1430D02*
X1715D01*
X1716Y1424D01*
X1720Y1415D01*
X1726Y1406D01*
X1735Y1400D01*
X1744Y1396D01*
X1750Y1395D01*
Y1430D01*
D02*
G37*
G36*
X1760Y1475D02*
Y1440D01*
X1795D01*
X1794Y1446D01*
X1790Y1455D01*
X1784Y1464D01*
X1775Y1470D01*
X1766Y1474D01*
X1760Y1475D01*
D02*
G37*
G36*
X215Y1772D02*
X205Y1771D01*
X197Y1767D01*
X189Y1761D01*
X183Y1753D01*
X179Y1745D01*
X178Y1735D01*
X179Y1731D01*
Y1639D01*
X178Y1635D01*
X179Y1631D01*
Y1539D01*
X178Y1535D01*
X179Y1525D01*
X183Y1517D01*
X189Y1509D01*
X197Y1503D01*
X205Y1499D01*
X215Y1498D01*
X225Y1499D01*
X233Y1503D01*
X241Y1509D01*
X247Y1517D01*
X251Y1525D01*
X252Y1535D01*
X251Y1539D01*
Y1631D01*
X252Y1635D01*
X251Y1639D01*
Y1731D01*
X252Y1735D01*
X251Y1745D01*
X247Y1753D01*
X241Y1761D01*
X233Y1767D01*
X225Y1771D01*
X215Y1772D01*
D02*
G37*
G36*
X1755D02*
X1745Y1771D01*
X1737Y1767D01*
X1729Y1761D01*
X1723Y1753D01*
X1719Y1745D01*
X1718Y1735D01*
X1719Y1731D01*
Y1639D01*
X1718Y1635D01*
X1719Y1631D01*
Y1539D01*
X1718Y1535D01*
X1719Y1525D01*
X1723Y1517D01*
X1729Y1509D01*
X1737Y1503D01*
X1745Y1499D01*
X1755Y1498D01*
X1765Y1499D01*
X1773Y1503D01*
X1781Y1509D01*
X1787Y1517D01*
X1791Y1525D01*
X1792Y1535D01*
X1791Y1539D01*
Y1631D01*
X1792Y1635D01*
X1791Y1639D01*
Y1731D01*
X1792Y1735D01*
X1791Y1745D01*
X1787Y1753D01*
X1781Y1761D01*
X1773Y1767D01*
X1765Y1771D01*
X1755Y1772D01*
D02*
G37*
G36*
X1750Y1475D02*
X1744Y1474D01*
X1735Y1470D01*
X1726Y1464D01*
X1720Y1455D01*
X1716Y1446D01*
X1715Y1440D01*
X1750D01*
Y1475D01*
D02*
G37*
G36*
X1795Y1430D02*
X1760D01*
Y1395D01*
X1766Y1396D01*
X1775Y1400D01*
X1784Y1406D01*
X1790Y1415D01*
X1794Y1424D01*
X1795Y1430D01*
D02*
G37*
G36*
X210Y1475D02*
X204Y1474D01*
X195Y1470D01*
X186Y1464D01*
X180Y1455D01*
X176Y1446D01*
X175Y1440D01*
X210D01*
Y1475D01*
D02*
G37*
G36*
X220D02*
Y1440D01*
X255D01*
X254Y1446D01*
X250Y1455D01*
X244Y1464D01*
X235Y1470D01*
X226Y1474D01*
X220Y1475D01*
D02*
G37*
G36*
Y875D02*
Y840D01*
X255D01*
X254Y846D01*
X250Y855D01*
X244Y864D01*
X235Y870D01*
X226Y874D01*
X220Y875D01*
D02*
G37*
G36*
X1750D02*
X1744Y874D01*
X1735Y870D01*
X1726Y864D01*
X1720Y855D01*
X1716Y846D01*
X1715Y840D01*
X1750D01*
Y875D01*
D02*
G37*
G36*
X1760D02*
Y840D01*
X1795D01*
X1794Y846D01*
X1790Y855D01*
X1784Y864D01*
X1775Y870D01*
X1766Y874D01*
X1760Y875D01*
D02*
G37*
G36*
X210D02*
X204Y874D01*
X195Y870D01*
X186Y864D01*
X180Y855D01*
X176Y846D01*
X175Y840D01*
X210D01*
Y875D01*
D02*
G37*
G36*
X255Y830D02*
X220D01*
Y795D01*
X226Y796D01*
X235Y800D01*
X244Y806D01*
X250Y815D01*
X254Y824D01*
X255Y830D01*
D02*
G37*
G36*
X1750D02*
X1715D01*
X1716Y824D01*
X1720Y815D01*
X1726Y806D01*
X1735Y800D01*
X1744Y796D01*
X1750Y795D01*
Y830D01*
D02*
G37*
G36*
X1795D02*
X1760D01*
Y795D01*
X1766Y796D01*
X1775Y800D01*
X1784Y806D01*
X1790Y815D01*
X1794Y824D01*
X1795Y830D01*
D02*
G37*
G36*
X215Y972D02*
X205Y971D01*
X197Y967D01*
X189Y961D01*
X183Y953D01*
X179Y945D01*
X178Y935D01*
X179Y925D01*
X183Y917D01*
X189Y909D01*
X197Y903D01*
X205Y899D01*
X215Y898D01*
X225Y899D01*
X233Y903D01*
X241Y909D01*
X247Y917D01*
X251Y925D01*
X252Y935D01*
X251Y945D01*
X247Y953D01*
X241Y961D01*
X233Y967D01*
X225Y971D01*
X215Y972D01*
D02*
G37*
G36*
X1795Y1130D02*
X1760D01*
Y1095D01*
X1766Y1096D01*
X1775Y1100D01*
X1784Y1106D01*
X1790Y1115D01*
X1794Y1124D01*
X1795Y1130D01*
D02*
G37*
G36*
X215Y1172D02*
X205Y1171D01*
X197Y1167D01*
X189Y1161D01*
X183Y1153D01*
X179Y1145D01*
X178Y1135D01*
X179Y1125D01*
X183Y1117D01*
X189Y1109D01*
X197Y1103D01*
X205Y1099D01*
X215Y1098D01*
X225Y1099D01*
X233Y1103D01*
X241Y1109D01*
X247Y1117D01*
X251Y1125D01*
X252Y1135D01*
X251Y1145D01*
X247Y1153D01*
X241Y1161D01*
X233Y1167D01*
X225Y1171D01*
X215Y1172D01*
D02*
G37*
G36*
X1750Y1175D02*
X1744Y1174D01*
X1735Y1170D01*
X1726Y1164D01*
X1720Y1155D01*
X1716Y1146D01*
X1715Y1140D01*
X1750D01*
Y1175D01*
D02*
G37*
G36*
Y1130D02*
X1715D01*
X1716Y1124D01*
X1720Y1115D01*
X1726Y1106D01*
X1735Y1100D01*
X1744Y1096D01*
X1750Y1095D01*
Y1130D01*
D02*
G37*
G36*
X1755Y972D02*
X1745Y971D01*
X1737Y967D01*
X1729Y961D01*
X1723Y953D01*
X1719Y945D01*
X1718Y935D01*
X1719Y925D01*
X1723Y917D01*
X1729Y909D01*
X1737Y903D01*
X1745Y899D01*
X1755Y898D01*
X1765Y899D01*
X1773Y903D01*
X1781Y909D01*
X1787Y917D01*
X1791Y925D01*
X1792Y935D01*
X1791Y945D01*
X1787Y953D01*
X1781Y961D01*
X1773Y967D01*
X1765Y971D01*
X1755Y972D01*
D02*
G37*
G36*
X215Y1072D02*
X205Y1071D01*
X197Y1067D01*
X189Y1061D01*
X183Y1053D01*
X179Y1045D01*
X178Y1035D01*
X179Y1025D01*
X183Y1017D01*
X189Y1009D01*
X197Y1003D01*
X205Y999D01*
X215Y998D01*
X225Y999D01*
X233Y1003D01*
X241Y1009D01*
X247Y1017D01*
X251Y1025D01*
X252Y1035D01*
X251Y1045D01*
X247Y1053D01*
X241Y1061D01*
X233Y1067D01*
X225Y1071D01*
X215Y1072D01*
D02*
G37*
G36*
X1755D02*
X1745Y1071D01*
X1737Y1067D01*
X1729Y1061D01*
X1723Y1053D01*
X1719Y1045D01*
X1718Y1035D01*
X1719Y1025D01*
X1723Y1017D01*
X1729Y1009D01*
X1737Y1003D01*
X1745Y999D01*
X1755Y998D01*
X1765Y999D01*
X1773Y1003D01*
X1781Y1009D01*
X1787Y1017D01*
X1791Y1025D01*
X1792Y1035D01*
X1791Y1045D01*
X1787Y1053D01*
X1781Y1061D01*
X1773Y1067D01*
X1765Y1071D01*
X1755Y1072D01*
D02*
G37*
%LPD*%
D18*
X215Y1535D02*
Y1635D01*
Y1735D01*
X1755Y1535D02*
Y1635D01*
Y1735D01*
D23*
X79Y1969D02*
G03*
X-0Y1890I-0J-79D01*
G01*
X1969D02*
G03*
X1890Y1969I-79J0D01*
G01*
X1891Y0D02*
G03*
X1969Y77I0J77D01*
G01*
X-0Y79D02*
G03*
X79Y-0I79J-0D01*
G01*
Y1969D02*
X1890D01*
X0Y79D02*
Y1890D01*
X1969Y77D02*
Y1890D01*
X79Y0D02*
X1891D01*
D24*
X215Y635D02*
D03*
Y735D02*
D03*
X1755Y335D02*
D03*
Y435D02*
D03*
Y535D02*
D03*
Y635D02*
D03*
Y735D02*
D03*
Y835D02*
D03*
Y935D02*
D03*
Y1035D02*
D03*
Y1135D02*
D03*
Y1435D02*
D03*
Y1535D02*
D03*
Y1635D02*
D03*
Y1735D02*
D03*
Y1335D02*
D03*
Y1235D02*
D03*
X215Y335D02*
D03*
Y435D02*
D03*
Y535D02*
D03*
Y835D02*
D03*
Y935D02*
D03*
Y1035D02*
D03*
Y1135D02*
D03*
Y1235D02*
D03*
Y1335D02*
D03*
Y1435D02*
D03*
Y1535D02*
D03*
Y1635D02*
D03*
Y1735D02*
D03*
D25*
X890Y615D02*
D03*
X890Y736D02*
D03*
X990D02*
D03*
X990Y615D02*
D03*
D26*
X1090D02*
D03*
X1090Y736D02*
D03*
D27*
X1755Y235D02*
D03*
X215D02*
D03*
D28*
X1210Y630D02*
D03*
X1260D02*
D03*
X1310D02*
D03*
X1360D02*
D03*
X1410D02*
D03*
X1460D02*
D03*
X1510D02*
D03*
X1560D02*
D03*
X1610D02*
D03*
X1660D02*
D03*
X1210Y725D02*
D03*
X1260D02*
D03*
X1310D02*
D03*
X1360D02*
D03*
X1410D02*
D03*
X1460D02*
D03*
X1510D02*
D03*
X1560D02*
D03*
X1610D02*
D03*
X1660D02*
D03*
X310Y630D02*
D03*
X360D02*
D03*
X410D02*
D03*
X460D02*
D03*
X510D02*
D03*
X560D02*
D03*
X610D02*
D03*
X660D02*
D03*
X710D02*
D03*
X760D02*
D03*
Y725D02*
D03*
X710D02*
D03*
X660D02*
D03*
X610D02*
D03*
X560D02*
D03*
X510D02*
D03*
X460D02*
D03*
X410D02*
D03*
X360D02*
D03*
X310D02*
D03*
D29*
X1255Y1390D02*
D03*
Y1440D02*
D03*
Y1490D02*
D03*
Y1540D02*
D03*
Y1590D02*
D03*
X1280Y1415D02*
D03*
Y1465D02*
D03*
Y1515D02*
D03*
Y1565D02*
D03*
Y1615D02*
D03*
X1255Y1640D02*
D03*
X1230Y1615D02*
D03*
X1180D02*
D03*
X1130D02*
D03*
X1205Y1640D02*
D03*
X1080Y1615D02*
D03*
X1030D02*
D03*
X980D02*
D03*
X955Y1590D02*
D03*
Y1540D02*
D03*
Y1490D02*
D03*
Y1440D02*
D03*
Y1390D02*
D03*
X930Y1415D02*
D03*
Y1465D02*
D03*
X1055Y1640D02*
D03*
X1005D02*
D03*
X1155D02*
D03*
X1105D02*
D03*
X955D02*
D03*
X930Y1615D02*
D03*
Y1565D02*
D03*
Y1515D02*
D03*
D30*
X79Y1890D02*
D03*
X79Y79D02*
D03*
X1890D02*
D03*
X1890Y1890D02*
D03*
D31*
X244Y59D02*
D03*
X429D02*
D03*
X614D02*
D03*
X799D02*
D03*
X984D02*
D03*
X1169D02*
D03*
X1354D02*
D03*
X1539D02*
D03*
X1724D02*
D03*
X1909Y244D02*
D03*
Y429D02*
D03*
Y614D02*
D03*
Y799D02*
D03*
Y984D02*
D03*
Y1169D02*
D03*
Y1354D02*
D03*
Y1539D02*
D03*
Y1724D02*
D03*
X1724Y1909D02*
D03*
X1539D02*
D03*
X1354D02*
D03*
X1169D02*
D03*
X984D02*
D03*
X799D02*
D03*
X614D02*
D03*
X429D02*
D03*
X244D02*
D03*
X59Y1724D02*
D03*
Y1539D02*
D03*
Y1354D02*
D03*
Y1169D02*
D03*
Y984D02*
D03*
Y799D02*
D03*
Y614D02*
D03*
Y429D02*
D03*
Y244D02*
D03*
M02*
