G04 Layer_Color=20142*
%FSLAX23Y23*%
%MOIN*%
G70*
G01*
G75*
%ADD23C,0.010*%
%ADD30C,0.158*%
%ADD35R,0.050X0.095*%
%ADD36R,0.048X0.050*%
%ADD37R,0.068X0.088*%
%ADD38R,0.039X0.039*%
%ADD39R,0.036X0.041*%
%ADD40R,0.065X0.057*%
%ADD41C,0.069*%
%ADD42C,0.067*%
%ADD43R,0.067X0.067*%
%ADD44R,0.069X0.069*%
%ADD45C,0.058*%
G36*
X1890Y1969D02*
X1890Y1890D01*
X1969D01*
X1969Y79D01*
X1890D01*
Y-0D01*
X79Y-0D01*
Y79D01*
X-0Y79D01*
X-0Y1890D01*
X79Y1890D01*
X79Y1969D01*
X1890Y1969D01*
D02*
G37*
%LPC*%
G36*
X1850Y118D02*
X1850Y118D01*
X1850D01*
Y118D01*
D02*
G37*
G36*
X118Y1850D02*
D01*
Y1794D01*
D01*
Y1791D01*
D01*
X118Y174D01*
X119Y166D01*
X122Y154D01*
X128Y144D01*
X135Y135D01*
X144Y128D01*
X154Y122D01*
X166Y119D01*
X174Y118D01*
X177D01*
D01*
X1794Y118D01*
X1803Y119D01*
X1814Y122D01*
X1824Y128D01*
X1833Y135D01*
X1841Y144D01*
X1846Y154D01*
X1850Y166D01*
X1850Y174D01*
X1850Y1794D01*
X1850Y1803D01*
X1846Y1814D01*
X1841Y1824D01*
X1833Y1833D01*
X1824Y1841D01*
X1814Y1846D01*
X1803Y1850D01*
X1794Y1850D01*
X174Y1850D01*
X166Y1850D01*
X154Y1846D01*
X144Y1841D01*
X135Y1833D01*
X128Y1824D01*
X122Y1814D01*
X119Y1803D01*
X118Y1794D01*
Y1850D01*
D02*
G37*
G36*
X118Y118D02*
Y118D01*
X174D01*
D01*
X118D01*
X118Y118D01*
D02*
G37*
%LPD*%
D23*
X79Y1969D02*
G03*
X-0Y1890I-0J-79D01*
G01*
X1969D02*
G03*
X1890Y1969I-79J0D01*
G01*
X1891Y0D02*
G03*
X1969Y77I0J77D01*
G01*
X-0Y79D02*
G03*
X79Y-0I79J-0D01*
G01*
Y1969D02*
X1890D01*
X0Y79D02*
Y1890D01*
X1969Y77D02*
Y1890D01*
X79Y0D02*
X1891D01*
D30*
X79Y1890D02*
D03*
X79Y79D02*
D03*
X1890D02*
D03*
X1890Y1890D02*
D03*
D35*
X1164Y1532D02*
D03*
X1047D02*
D03*
D36*
X1106Y1471D02*
D03*
D37*
X936Y885D02*
D03*
X1073D02*
D03*
X825D02*
D03*
X1172D02*
D03*
X1188Y1369D02*
D03*
X1109D02*
D03*
D38*
X309Y1825D02*
D03*
X371D02*
D03*
X1661D02*
D03*
X1599D02*
D03*
D39*
X373Y1775D02*
D03*
X327D02*
D03*
X1597D02*
D03*
X1643D02*
D03*
D40*
X694Y818D02*
D03*
Y885D02*
D03*
X1515Y1592D02*
D03*
Y1658D02*
D03*
D41*
X215Y635D02*
D03*
Y735D02*
D03*
X1755Y335D02*
D03*
Y435D02*
D03*
Y535D02*
D03*
Y635D02*
D03*
Y735D02*
D03*
Y835D02*
D03*
Y935D02*
D03*
Y1035D02*
D03*
Y1135D02*
D03*
Y1435D02*
D03*
Y1535D02*
D03*
Y1635D02*
D03*
Y1735D02*
D03*
Y1335D02*
D03*
Y1235D02*
D03*
X215Y335D02*
D03*
Y435D02*
D03*
Y535D02*
D03*
Y835D02*
D03*
Y935D02*
D03*
Y1035D02*
D03*
Y1135D02*
D03*
Y1235D02*
D03*
Y1335D02*
D03*
Y1435D02*
D03*
Y1535D02*
D03*
Y1635D02*
D03*
Y1735D02*
D03*
D42*
X890Y615D02*
D03*
X890Y736D02*
D03*
X990D02*
D03*
X990Y615D02*
D03*
D43*
X1090D02*
D03*
X1090Y736D02*
D03*
D44*
X1755Y235D02*
D03*
X215D02*
D03*
D45*
X244Y59D02*
D03*
X429D02*
D03*
X614D02*
D03*
X799D02*
D03*
X984D02*
D03*
X1169D02*
D03*
X1354D02*
D03*
X1539D02*
D03*
X1724D02*
D03*
X1909Y244D02*
D03*
Y429D02*
D03*
Y614D02*
D03*
Y799D02*
D03*
Y984D02*
D03*
Y1169D02*
D03*
Y1354D02*
D03*
Y1539D02*
D03*
Y1724D02*
D03*
X1724Y1909D02*
D03*
X1539D02*
D03*
X1354D02*
D03*
X1169D02*
D03*
X984D02*
D03*
X799D02*
D03*
X614D02*
D03*
X429D02*
D03*
X244D02*
D03*
X59Y1724D02*
D03*
Y1539D02*
D03*
Y1354D02*
D03*
Y1169D02*
D03*
Y984D02*
D03*
Y799D02*
D03*
Y614D02*
D03*
Y429D02*
D03*
Y244D02*
D03*
M02*
