M48
;Layer_Color=6321
;FILE_FORMAT=2:3
INCH,LZ
;TYPE=PLATED
T1F00S00C0.013
T2F00S00C0.014
T3F00S00C0.035
T4F00S00C0.041
T5F00S00C0.080
%
T01
X0093Y01515
Y01565
Y01615
X00955Y0164
X01005
X01055
X01105
X01155
T02
X00799Y00059
X00984
X01169
X01354
X01539
X01724
X01909Y00244
Y00429
Y00614
Y00799
Y00984
Y01169
Y01354
X01255Y0139
X00955
X0076Y00725
X0071
X0066
Y0063
X0071
X0076
X0121
X0126
X0131
X0136
X0141
X0146
X0151
X0156
X0161
X0166
Y00725
X0161
X0156
X0151
X0146
X0141
X0136
X0131
X0126
X0121
X0061
X0056
X0051
X0046
X0041
X0036
X0031
Y0063
X0036
X0041
X0046
X0051
X0056
X0061
X00059Y00614
Y00799
Y00984
Y01169
Y01354
Y00429
Y00244
X00244Y00059
X00429
X00614
Y01909
X00429
X00244
X00059Y01724
Y01539
X00955Y0154
Y0159
X0098Y01615
X0103
X0108
X0113
X0118
X0123
X01255Y0159
Y0154
Y0149
Y0144
X0128Y01415
Y01465
Y01515
Y01565
Y01615
X01255Y0164
X01205
X01169Y01909
X00984
X00799
X01354
X01539
X01724
X01909Y01724
Y01539
X00955Y0149
Y0144
X0093Y01415
Y01465
T03
X0089Y00615
X0099
X0109
X0109Y00736
X0099
X0089
T04
X01755Y00235
Y00335
Y00435
Y00535
Y00635
Y00735
Y00835
Y00935
Y01035
Y01135
Y01235
Y01335
X00215
Y01235
Y01135
Y01035
Y00935
Y00835
Y00735
Y00635
Y00535
Y00435
Y00335
Y00235
Y01435
Y01535
Y01635
Y01735
X01755
Y01635
Y01535
Y01435
T05
X0189Y00079
X00079
X00079Y0189
X0189Y0189
M30
