M48
;Layer_Color=6321
;FILE_FORMAT=2:3
INCH,LZ
;TYPE=PLATED
T3F00S00C0.030
%
G90
G05
T03
G00X0058Y00047
M15
G01X00532
M16
G00X00502Y00145
M15
G01X00453
M16
G00X00502Y00366
M15
G01X00453
M16
G00X0058Y00291
M15
G01X00532
M16
G00X0058Y00511
M15
G01X00532
M16
G00X01005Y00511
M15
G01X00957
M16
G00X01005Y00291
M15
G01X00957
M16
G00X00927Y00366
M15
G01X00878
M16
G00X00927Y00145
M15
G01X00878
M16
G00X01005Y00047
M15
G01X00957
M16
G00X0143Y00047
M15
G01X01382
M16
G00X01352Y00145
M15
G01X01303
M16
G00X01352Y00366
M15
G01X01303
M16
G00X0143Y00291
M15
G01X01382
M16
G00X0143Y00511
M15
G01X01382
M16
M17
M30
