M48
;Layer_Color=6321
;FILE_FORMAT=2:3
INCH,LZ
;TYPE=PLATED
T1F00S00C0.013
T2F00S00C0.014
T4F00S00C0.035
T5F00S00C0.038
T6F00S00C0.041
T7F00S00C0.080
%
T01
X0126Y0076
T02
X00244Y00059
X00059Y00244
Y00429
X01909
Y00244
X01724Y00059
X01909Y00614
Y00799
Y00984
Y01169
Y01354
Y01539
Y01724
X01724Y01909
X01539
X01354
X01169
X00984
X00799
X00614
X00429
X00244
X00059Y01724
Y01539
Y01354
Y01169
Y00984
Y00799
Y00614
T04
X0057Y00735
X0067
X0077
X0087
X0097
Y01035
Y01115
X0087
Y01035
X0077
Y01115
X0067
Y01035
X0057
Y01115
Y01415
Y01495
X0067
Y01415
X0077
Y01495
X0087
Y01415
X0097
Y01495
Y01795
X0087
X0077
X0067
X0057
T05
X01355Y00985
Y01085
Y01185
T06
X00215Y00235
Y00335
Y00435
Y00535
X01755
Y00435
Y00335
Y00235
Y00635
Y00735
Y00835
Y00935
Y01035
Y01135
Y01235
Y01335
Y01435
Y01535
Y01635
Y01735
X00215
Y01635
Y01535
Y01435
Y01335
Y01235
Y01135
Y01035
Y00935
Y00835
Y00735
Y00635
T07
X00079Y00079
X0189
X0189Y0189
X00079Y0189
M30
