G04 Layer_Color=8150272*
%FSLAX23Y23*%
%MOIN*%
G70*
G01*
G75*
%ADD29C,0.158*%
G04:AMPARAMS|DCode=46|XSize=108mil|YSize=58mil|CornerRadius=29mil|HoleSize=0mil|Usage=FLASHONLY|Rotation=180.000|XOffset=0mil|YOffset=0mil|HoleType=Round|Shape=RoundedRectangle|*
%AMROUNDEDRECTD46*
21,1,0.108,0.000,0,0,180.0*
21,1,0.050,0.058,0,0,180.0*
1,1,0.058,-0.025,0.000*
1,1,0.058,0.025,0.000*
1,1,0.058,0.025,0.000*
1,1,0.058,-0.025,0.000*
%
%ADD46ROUNDEDRECTD46*%
%ADD47P,0.076X8X292.5*%
%ADD48R,0.070X0.070*%
%ADD49R,0.069X0.069*%
%ADD50C,0.069*%
%ADD51C,0.067*%
%ADD52C,0.058*%
G36*
X1890Y1969D02*
X1890Y1890D01*
X1968D01*
X1968Y79D01*
X1889D01*
Y-0D01*
X1643Y-0D01*
Y118D01*
X1796Y118D01*
X1803Y119D01*
X1814Y122D01*
X1824Y128D01*
X1833Y135D01*
X1841Y144D01*
X1846Y154D01*
X1849Y166D01*
X1850Y174D01*
X1850Y1794D01*
X1849Y1803D01*
X1846Y1814D01*
X1841Y1824D01*
X1833Y1833D01*
X1824Y1841D01*
X1814Y1846D01*
X1803Y1850D01*
X1794Y1850D01*
X174Y1850D01*
X165Y1850D01*
X154Y1846D01*
X144Y1841D01*
X135Y1833D01*
X128Y1824D01*
X122Y1814D01*
X119Y1803D01*
X118Y1794D01*
X118Y177D01*
X118D01*
Y174D01*
X119Y166D01*
X122Y154D01*
X128Y144D01*
X135Y135D01*
X144Y128D01*
X154Y122D01*
X165Y119D01*
X174Y118D01*
X325Y118D01*
Y-0D01*
X79Y-0D01*
Y79D01*
X-0Y79D01*
X-0Y1890D01*
X79Y1890D01*
X79Y1969D01*
X1890Y1969D01*
D02*
G37*
%LPC*%
G36*
X118Y174D02*
Y118D01*
X118D01*
X118Y118D01*
Y174D01*
X118Y174D01*
D02*
G37*
G36*
X118Y1850D02*
Y1850D01*
X118Y1850D01*
X118D01*
D02*
G37*
%LPD*%
D29*
X79Y1890D02*
D03*
X79Y79D02*
D03*
X1890D02*
D03*
X1890Y1890D02*
D03*
D46*
X1406Y47D02*
D03*
X1327Y366D02*
D03*
X1406Y511D02*
D03*
Y291D02*
D03*
X1327Y145D02*
D03*
X981Y47D02*
D03*
X902Y366D02*
D03*
X981Y511D02*
D03*
Y291D02*
D03*
X902Y145D02*
D03*
X556Y47D02*
D03*
X477Y366D02*
D03*
X556Y511D02*
D03*
Y291D02*
D03*
X477Y145D02*
D03*
D47*
X1355Y985D02*
D03*
Y1085D02*
D03*
D48*
Y1185D02*
D03*
D49*
X1755Y235D02*
D03*
X215D02*
D03*
D50*
X1755Y335D02*
D03*
Y435D02*
D03*
Y535D02*
D03*
Y635D02*
D03*
Y735D02*
D03*
Y835D02*
D03*
Y935D02*
D03*
Y1035D02*
D03*
Y1135D02*
D03*
Y1235D02*
D03*
Y1335D02*
D03*
Y1435D02*
D03*
Y1535D02*
D03*
Y1635D02*
D03*
Y1735D02*
D03*
X215Y335D02*
D03*
Y435D02*
D03*
Y535D02*
D03*
Y635D02*
D03*
Y735D02*
D03*
Y835D02*
D03*
Y935D02*
D03*
Y1035D02*
D03*
Y1135D02*
D03*
Y1235D02*
D03*
Y1335D02*
D03*
Y1435D02*
D03*
Y1535D02*
D03*
Y1635D02*
D03*
Y1735D02*
D03*
D51*
X970Y1035D02*
D03*
X870D02*
D03*
X770D02*
D03*
X670D02*
D03*
X570D02*
D03*
X970Y735D02*
D03*
X870D02*
D03*
X770D02*
D03*
X670D02*
D03*
X570D02*
D03*
X970Y1415D02*
D03*
X870D02*
D03*
X770D02*
D03*
X670D02*
D03*
X570D02*
D03*
X970Y1115D02*
D03*
X870D02*
D03*
X770D02*
D03*
X670D02*
D03*
X570D02*
D03*
X970Y1795D02*
D03*
X870D02*
D03*
X770D02*
D03*
X670D02*
D03*
X570D02*
D03*
X970Y1495D02*
D03*
X870D02*
D03*
X770D02*
D03*
X670D02*
D03*
X570D02*
D03*
D52*
X244Y59D02*
D03*
X1724D02*
D03*
X1909Y244D02*
D03*
Y429D02*
D03*
Y614D02*
D03*
Y799D02*
D03*
Y984D02*
D03*
Y1169D02*
D03*
Y1354D02*
D03*
Y1539D02*
D03*
Y1724D02*
D03*
X1724Y1909D02*
D03*
X1539D02*
D03*
X1354D02*
D03*
X1169D02*
D03*
X984D02*
D03*
X799D02*
D03*
X614D02*
D03*
X429D02*
D03*
X244D02*
D03*
X59Y1724D02*
D03*
Y1539D02*
D03*
Y1354D02*
D03*
Y1169D02*
D03*
Y984D02*
D03*
Y799D02*
D03*
Y614D02*
D03*
Y429D02*
D03*
Y244D02*
D03*
M02*
