G04 Layer_Physical_Order=2*
G04 Layer_Color=11436288*
%FSLAX23Y23*%
%MOIN*%
G70*
G01*
G75*
%ADD18C,0.008*%
%ADD19C,0.060*%
%ADD20C,0.020*%
%ADD22C,0.006*%
G04:AMPARAMS|DCode=23|XSize=100mil|YSize=50mil|CornerRadius=25mil|HoleSize=0mil|Usage=FLASHONLY|Rotation=180.000|XOffset=0mil|YOffset=0mil|HoleType=Round|Shape=RoundedRectangle|*
%AMROUNDEDRECTD23*
21,1,0.100,0.000,0,0,180.0*
21,1,0.050,0.050,0,0,180.0*
1,1,0.050,-0.025,0.000*
1,1,0.050,0.025,0.000*
1,1,0.050,0.025,0.000*
1,1,0.050,-0.025,0.000*
%
%ADD23ROUNDEDRECTD23*%
%ADD24P,0.067X8X292.5*%
%ADD25R,0.062X0.062*%
%ADD26R,0.061X0.061*%
%ADD27C,0.061*%
%ADD28C,0.059*%
%ADD29C,0.158*%
%ADD30C,0.050*%
%ADD31C,0.027*%
G36*
X1837Y1969D02*
X1889Y1969D01*
X1948Y1929D01*
X1968Y1890D01*
X1968Y1839D01*
X1968Y1839D01*
X1969Y132D01*
X1968Y132D01*
X1968Y79D01*
X1929Y20D01*
X1889Y0D01*
X1791Y0D01*
Y0D01*
X1771D01*
Y-0D01*
X1643D01*
Y0D01*
X325D01*
Y0D01*
X196D01*
Y0D01*
X177D01*
Y0D01*
X78Y0D01*
X19Y39D01*
X-0Y79D01*
X-0Y177D01*
X-0D01*
X-0Y197D01*
X-0D01*
Y1672D01*
X-1Y1836D01*
X-0Y1836D01*
X-0Y1890D01*
X39Y1949D01*
X78Y1969D01*
X130Y1969D01*
X130Y1969D01*
X1836Y1969D01*
X1837Y1969D01*
D02*
G37*
%LPC*%
G36*
X1750Y530D02*
X1715D01*
X1715Y524D01*
X1719Y515D01*
X1726Y506D01*
X1734Y500D01*
X1744Y496D01*
X1750Y495D01*
Y530D01*
D02*
G37*
G36*
X255D02*
X220D01*
Y495D01*
X225Y496D01*
X235Y500D01*
X244Y506D01*
X250Y515D01*
X254Y524D01*
X255Y530D01*
D02*
G37*
G36*
X1795D02*
X1760D01*
Y495D01*
X1765Y496D01*
X1775Y500D01*
X1784Y506D01*
X1790Y515D01*
X1794Y524D01*
X1795Y530D01*
D02*
G37*
G36*
X220Y575D02*
Y540D01*
X255D01*
X254Y546D01*
X250Y555D01*
X244Y564D01*
X235Y570D01*
X225Y575D01*
X220Y575D01*
D02*
G37*
G36*
X210D02*
X204Y575D01*
X194Y570D01*
X186Y564D01*
X179Y555D01*
X175Y546D01*
X175Y540D01*
X210D01*
Y575D01*
D02*
G37*
G36*
Y530D02*
X175D01*
X175Y524D01*
X179Y515D01*
X186Y506D01*
X194Y500D01*
X204Y496D01*
X210Y495D01*
Y530D01*
D02*
G37*
G36*
X1755Y472D02*
X1745Y471D01*
X1736Y467D01*
X1729Y461D01*
X1723Y453D01*
X1719Y445D01*
X1718Y435D01*
X1719Y425D01*
X1723Y417D01*
X1729Y409D01*
X1736Y403D01*
X1745Y399D01*
X1755Y398D01*
X1764Y399D01*
X1773Y403D01*
X1781Y409D01*
X1787Y417D01*
X1790Y425D01*
X1792Y435D01*
X1790Y445D01*
X1787Y453D01*
X1781Y461D01*
X1773Y467D01*
X1764Y471D01*
X1755Y472D01*
D02*
G37*
G36*
X215D02*
X205Y471D01*
X196Y467D01*
X189Y461D01*
X183Y453D01*
X179Y445D01*
X178Y435D01*
X179Y425D01*
X183Y417D01*
X189Y409D01*
X196Y403D01*
X205Y399D01*
X215Y398D01*
X224Y399D01*
X233Y403D01*
X241Y409D01*
X247Y417D01*
X250Y425D01*
X252Y435D01*
X250Y445D01*
X247Y453D01*
X241Y461D01*
X233Y467D01*
X224Y471D01*
X215Y472D01*
D02*
G37*
G36*
X581Y542D02*
X531D01*
X523Y541D01*
X515Y538D01*
X509Y533D01*
X504Y527D01*
X501Y519D01*
X500Y511D01*
X501Y503D01*
X504Y496D01*
X509Y489D01*
X515Y484D01*
X523Y481D01*
X531Y480D01*
X581D01*
X589Y481D01*
X597Y484D01*
X603Y489D01*
X608Y496D01*
X611Y503D01*
X612Y511D01*
X611Y519D01*
X608Y527D01*
X603Y533D01*
X597Y538D01*
X589Y541D01*
X581Y542D01*
D02*
G37*
G36*
X1431D02*
X1381D01*
X1373Y541D01*
X1365Y538D01*
X1359Y533D01*
X1354Y527D01*
X1351Y519D01*
X1350Y511D01*
X1351Y503D01*
X1354Y496D01*
X1359Y489D01*
X1365Y484D01*
X1373Y481D01*
X1381Y480D01*
X1431D01*
X1439Y481D01*
X1447Y484D01*
X1453Y489D01*
X1458Y496D01*
X1461Y503D01*
X1462Y511D01*
X1461Y519D01*
X1458Y527D01*
X1453Y533D01*
X1447Y538D01*
X1439Y541D01*
X1431Y542D01*
D02*
G37*
G36*
X1006D02*
X956D01*
X948Y541D01*
X940Y538D01*
X934Y533D01*
X929Y527D01*
X926Y519D01*
X925Y511D01*
X926Y503D01*
X929Y496D01*
X934Y489D01*
X940Y484D01*
X948Y481D01*
X956Y480D01*
X1006D01*
X1014Y481D01*
X1022Y484D01*
X1028Y489D01*
X1033Y496D01*
X1036Y503D01*
X1037Y511D01*
X1036Y519D01*
X1033Y527D01*
X1028Y533D01*
X1022Y538D01*
X1014Y541D01*
X1006Y542D01*
D02*
G37*
G36*
X670Y771D02*
X661Y770D01*
X652Y766D01*
X645Y760D01*
X639Y753D01*
X636Y744D01*
X635Y735D01*
X636Y726D01*
X639Y717D01*
X645Y710D01*
X652Y704D01*
X661Y700D01*
X670Y699D01*
X680Y700D01*
X688Y704D01*
X696Y710D01*
X701Y717D01*
X705Y726D01*
X706Y735D01*
X705Y744D01*
X701Y753D01*
X696Y760D01*
X688Y766D01*
X680Y770D01*
X670Y771D01*
D02*
G37*
G36*
X570D02*
X561Y770D01*
X552Y766D01*
X545Y760D01*
X539Y753D01*
X536Y744D01*
X535Y735D01*
X536Y726D01*
X539Y717D01*
X545Y710D01*
X552Y704D01*
X561Y700D01*
X570Y699D01*
X580Y700D01*
X588Y704D01*
X596Y710D01*
X601Y717D01*
X605Y726D01*
X606Y735D01*
X605Y744D01*
X601Y753D01*
X596Y760D01*
X588Y766D01*
X580Y770D01*
X570Y771D01*
D02*
G37*
G36*
X770D02*
X761Y770D01*
X752Y766D01*
X745Y760D01*
X739Y753D01*
X736Y744D01*
X735Y735D01*
X736Y726D01*
X739Y717D01*
X745Y710D01*
X752Y704D01*
X761Y700D01*
X770Y699D01*
X780Y700D01*
X788Y704D01*
X796Y710D01*
X801Y717D01*
X805Y726D01*
X806Y735D01*
X805Y744D01*
X801Y753D01*
X796Y760D01*
X788Y766D01*
X780Y770D01*
X770Y771D01*
D02*
G37*
G36*
X255Y830D02*
X220D01*
Y795D01*
X225Y796D01*
X235Y800D01*
X244Y806D01*
X250Y815D01*
X254Y824D01*
X255Y830D01*
D02*
G37*
G36*
X210D02*
X175D01*
X175Y824D01*
X179Y815D01*
X186Y806D01*
X194Y800D01*
X204Y796D01*
X210Y795D01*
Y830D01*
D02*
G37*
G36*
X1755Y772D02*
X1745Y771D01*
X1736Y767D01*
X1729Y761D01*
X1723Y753D01*
X1719Y745D01*
X1718Y735D01*
X1719Y725D01*
X1723Y717D01*
X1729Y709D01*
X1736Y703D01*
X1745Y699D01*
X1755Y698D01*
X1764Y699D01*
X1773Y703D01*
X1781Y709D01*
X1787Y717D01*
X1790Y725D01*
X1792Y735D01*
X1790Y745D01*
X1787Y753D01*
X1781Y761D01*
X1773Y767D01*
X1764Y771D01*
X1755Y772D01*
D02*
G37*
G36*
X1760Y575D02*
Y540D01*
X1795D01*
X1794Y546D01*
X1790Y555D01*
X1784Y564D01*
X1775Y570D01*
X1765Y575D01*
X1760Y575D01*
D02*
G37*
G36*
X1750D02*
X1744Y575D01*
X1734Y570D01*
X1726Y564D01*
X1719Y555D01*
X1715Y546D01*
X1715Y540D01*
X1750D01*
Y575D01*
D02*
G37*
G36*
X215Y672D02*
X205Y671D01*
X196Y667D01*
X189Y661D01*
X183Y653D01*
X179Y645D01*
X178Y635D01*
X179Y625D01*
X183Y617D01*
X189Y609D01*
X196Y603D01*
X205Y599D01*
X215Y598D01*
X224Y599D01*
X233Y603D01*
X241Y609D01*
X247Y617D01*
X250Y625D01*
X252Y635D01*
X250Y645D01*
X247Y653D01*
X241Y661D01*
X233Y667D01*
X224Y671D01*
X215Y672D01*
D02*
G37*
G36*
Y772D02*
X205Y771D01*
X196Y767D01*
X189Y761D01*
X183Y753D01*
X179Y745D01*
X178Y735D01*
X179Y725D01*
X183Y717D01*
X189Y709D01*
X196Y703D01*
X205Y699D01*
X215Y698D01*
X224Y699D01*
X233Y703D01*
X241Y709D01*
X247Y717D01*
X250Y725D01*
X252Y735D01*
X250Y745D01*
X247Y753D01*
X241Y761D01*
X233Y767D01*
X224Y771D01*
X215Y772D01*
D02*
G37*
G36*
X1755Y672D02*
X1745Y671D01*
X1736Y667D01*
X1729Y661D01*
X1723Y653D01*
X1719Y645D01*
X1718Y635D01*
X1719Y625D01*
X1723Y617D01*
X1729Y609D01*
X1736Y603D01*
X1745Y599D01*
X1755Y598D01*
X1764Y599D01*
X1773Y603D01*
X1781Y609D01*
X1787Y617D01*
X1790Y625D01*
X1792Y635D01*
X1790Y645D01*
X1787Y653D01*
X1781Y661D01*
X1773Y667D01*
X1764Y671D01*
X1755Y672D01*
D02*
G37*
G36*
X255Y230D02*
X220D01*
Y195D01*
X255D01*
Y230D01*
D02*
G37*
G36*
X210D02*
X174D01*
Y195D01*
X210D01*
Y230D01*
D02*
G37*
G36*
X1750D02*
X1714D01*
Y195D01*
X1750D01*
Y230D01*
D02*
G37*
G36*
X210Y276D02*
X174D01*
Y240D01*
X210D01*
Y276D01*
D02*
G37*
G36*
X1795Y230D02*
X1760D01*
Y195D01*
X1795D01*
Y230D01*
D02*
G37*
G36*
X1352Y176D02*
X1302D01*
X1294Y175D01*
X1287Y172D01*
X1280Y167D01*
X1275Y161D01*
X1272Y153D01*
X1271Y145D01*
X1272Y137D01*
X1275Y129D01*
X1280Y123D01*
X1287Y118D01*
X1294Y115D01*
X1302Y114D01*
X1352D01*
X1360Y115D01*
X1368Y118D01*
X1374Y123D01*
X1379Y129D01*
X1383Y137D01*
X1384Y145D01*
X1383Y153D01*
X1379Y161D01*
X1374Y167D01*
X1368Y172D01*
X1360Y175D01*
X1352Y176D01*
D02*
G37*
G36*
X1006Y78D02*
X956D01*
X948Y77D01*
X940Y74D01*
X934Y69D01*
X929Y62D01*
X926Y55D01*
X925Y47D01*
X926Y39D01*
X929Y31D01*
X934Y25D01*
X940Y20D01*
X948Y16D01*
X956Y15D01*
X1006D01*
X1014Y16D01*
X1022Y20D01*
X1028Y25D01*
X1033Y31D01*
X1036Y39D01*
X1037Y47D01*
X1036Y55D01*
X1033Y62D01*
X1028Y69D01*
X1022Y74D01*
X1014Y77D01*
X1006Y78D01*
D02*
G37*
G36*
X581D02*
X531D01*
X523Y77D01*
X515Y74D01*
X509Y69D01*
X504Y62D01*
X501Y55D01*
X500Y47D01*
X501Y39D01*
X504Y31D01*
X509Y25D01*
X515Y20D01*
X523Y16D01*
X531Y15D01*
X581D01*
X589Y16D01*
X597Y20D01*
X603Y25D01*
X608Y31D01*
X611Y39D01*
X612Y47D01*
X611Y55D01*
X608Y62D01*
X603Y69D01*
X597Y74D01*
X589Y77D01*
X581Y78D01*
D02*
G37*
G36*
X1431D02*
X1381D01*
X1373Y77D01*
X1365Y74D01*
X1359Y69D01*
X1354Y62D01*
X1351Y55D01*
X1350Y47D01*
X1351Y39D01*
X1354Y31D01*
X1359Y25D01*
X1365Y20D01*
X1373Y16D01*
X1381Y15D01*
X1431D01*
X1439Y16D01*
X1447Y20D01*
X1453Y25D01*
X1458Y31D01*
X1461Y39D01*
X1462Y47D01*
X1461Y55D01*
X1458Y62D01*
X1453Y69D01*
X1447Y74D01*
X1439Y77D01*
X1431Y78D01*
D02*
G37*
G36*
X927Y176D02*
X877D01*
X869Y175D01*
X862Y172D01*
X855Y167D01*
X850Y161D01*
X847Y153D01*
X846Y145D01*
X847Y137D01*
X850Y129D01*
X855Y123D01*
X862Y118D01*
X869Y115D01*
X877Y114D01*
X927D01*
X935Y115D01*
X943Y118D01*
X949Y123D01*
X954Y129D01*
X958Y137D01*
X959Y145D01*
X958Y153D01*
X954Y161D01*
X949Y167D01*
X943Y172D01*
X935Y175D01*
X927Y176D01*
D02*
G37*
G36*
X502D02*
X452D01*
X444Y175D01*
X437Y172D01*
X430Y167D01*
X425Y161D01*
X422Y153D01*
X421Y145D01*
X422Y137D01*
X425Y129D01*
X430Y123D01*
X437Y118D01*
X444Y115D01*
X452Y114D01*
X502D01*
X510Y115D01*
X518Y118D01*
X524Y123D01*
X529Y129D01*
X533Y137D01*
X534Y145D01*
X533Y153D01*
X529Y161D01*
X524Y167D01*
X518Y172D01*
X510Y175D01*
X502Y176D01*
D02*
G37*
G36*
X1755Y372D02*
X1745Y371D01*
X1736Y367D01*
X1729Y361D01*
X1723Y353D01*
X1719Y345D01*
X1718Y335D01*
X1719Y325D01*
X1723Y317D01*
X1729Y309D01*
X1736Y303D01*
X1745Y299D01*
X1755Y298D01*
X1764Y299D01*
X1773Y303D01*
X1781Y309D01*
X1787Y317D01*
X1790Y325D01*
X1792Y335D01*
X1790Y345D01*
X1787Y353D01*
X1781Y361D01*
X1773Y367D01*
X1764Y371D01*
X1755Y372D01*
D02*
G37*
G36*
X215D02*
X205Y371D01*
X196Y367D01*
X189Y361D01*
X183Y353D01*
X179Y345D01*
X178Y335D01*
X179Y325D01*
X183Y317D01*
X189Y309D01*
X196Y303D01*
X205Y299D01*
X215Y298D01*
X224Y299D01*
X233Y303D01*
X241Y309D01*
X247Y317D01*
X250Y325D01*
X252Y335D01*
X250Y345D01*
X247Y353D01*
X241Y361D01*
X233Y367D01*
X224Y371D01*
X215Y372D01*
D02*
G37*
G36*
X502Y397D02*
X452D01*
X444Y396D01*
X437Y393D01*
X430Y388D01*
X425Y381D01*
X422Y374D01*
X421Y366D01*
X422Y357D01*
X425Y350D01*
X430Y343D01*
X437Y338D01*
X444Y335D01*
X452Y334D01*
X502D01*
X510Y335D01*
X518Y338D01*
X524Y343D01*
X529Y350D01*
X533Y357D01*
X534Y366D01*
X533Y374D01*
X529Y381D01*
X524Y388D01*
X518Y393D01*
X510Y396D01*
X502Y397D01*
D02*
G37*
G36*
X1352D02*
X1302D01*
X1294Y396D01*
X1287Y393D01*
X1280Y388D01*
X1275Y381D01*
X1272Y374D01*
X1271Y366D01*
X1272Y357D01*
X1275Y350D01*
X1280Y343D01*
X1287Y338D01*
X1294Y335D01*
X1302Y334D01*
X1352D01*
X1360Y335D01*
X1368Y338D01*
X1374Y343D01*
X1379Y350D01*
X1383Y357D01*
X1384Y366D01*
X1383Y374D01*
X1379Y381D01*
X1374Y388D01*
X1368Y393D01*
X1360Y396D01*
X1352Y397D01*
D02*
G37*
G36*
X927D02*
X877D01*
X869Y396D01*
X862Y393D01*
X855Y388D01*
X850Y381D01*
X847Y374D01*
X846Y366D01*
X847Y357D01*
X850Y350D01*
X855Y343D01*
X862Y338D01*
X869Y335D01*
X877Y334D01*
X927D01*
X935Y335D01*
X943Y338D01*
X949Y343D01*
X954Y350D01*
X958Y357D01*
X959Y366D01*
X958Y374D01*
X954Y381D01*
X949Y388D01*
X943Y393D01*
X935Y396D01*
X927Y397D01*
D02*
G37*
G36*
X1431Y322D02*
X1381D01*
X1373Y321D01*
X1365Y318D01*
X1359Y313D01*
X1354Y306D01*
X1351Y299D01*
X1350Y291D01*
X1351Y283D01*
X1354Y275D01*
X1359Y269D01*
X1365Y264D01*
X1373Y261D01*
X1381Y259D01*
X1431D01*
X1439Y261D01*
X1447Y264D01*
X1453Y269D01*
X1458Y275D01*
X1461Y283D01*
X1462Y291D01*
X1461Y299D01*
X1458Y306D01*
X1453Y313D01*
X1447Y318D01*
X1439Y321D01*
X1431Y322D01*
D02*
G37*
G36*
X1750Y276D02*
X1714D01*
Y240D01*
X1750D01*
Y276D01*
D02*
G37*
G36*
X255D02*
X220D01*
Y240D01*
X255D01*
Y276D01*
D02*
G37*
G36*
X1795D02*
X1760D01*
Y240D01*
X1795D01*
Y276D01*
D02*
G37*
G36*
X1006Y322D02*
X956D01*
X948Y321D01*
X940Y318D01*
X934Y313D01*
X929Y306D01*
X926Y299D01*
X925Y291D01*
X926Y283D01*
X929Y275D01*
X934Y269D01*
X940Y264D01*
X948Y261D01*
X956Y259D01*
X1006D01*
X1014Y261D01*
X1022Y264D01*
X1028Y269D01*
X1033Y275D01*
X1036Y283D01*
X1037Y291D01*
X1036Y299D01*
X1033Y306D01*
X1028Y313D01*
X1022Y318D01*
X1014Y321D01*
X1006Y322D01*
D02*
G37*
G36*
X581D02*
X531D01*
X523Y321D01*
X515Y318D01*
X509Y313D01*
X504Y306D01*
X501Y299D01*
X500Y291D01*
X501Y283D01*
X504Y275D01*
X509Y269D01*
X515Y264D01*
X523Y261D01*
X531Y259D01*
X581D01*
X589Y261D01*
X597Y264D01*
X603Y269D01*
X608Y275D01*
X611Y283D01*
X612Y291D01*
X611Y299D01*
X608Y306D01*
X603Y313D01*
X597Y318D01*
X589Y321D01*
X581Y322D01*
D02*
G37*
G36*
X1750Y830D02*
X1715D01*
X1715Y824D01*
X1719Y815D01*
X1726Y806D01*
X1734Y800D01*
X1744Y796D01*
X1750Y795D01*
Y830D01*
D02*
G37*
G36*
X765Y1454D02*
X760Y1454D01*
X750Y1450D01*
X742Y1443D01*
X736Y1435D01*
X732Y1425D01*
X731Y1420D01*
X765D01*
Y1454D01*
D02*
G37*
G36*
X1795Y1430D02*
X1760D01*
Y1395D01*
X1765Y1396D01*
X1775Y1400D01*
X1784Y1406D01*
X1790Y1415D01*
X1794Y1424D01*
X1795Y1430D01*
D02*
G37*
G36*
X775Y1454D02*
Y1420D01*
X810D01*
X809Y1425D01*
X805Y1435D01*
X799Y1443D01*
X790Y1450D01*
X781Y1454D01*
X775Y1454D01*
D02*
G37*
G36*
X220Y1475D02*
Y1440D01*
X255D01*
X254Y1446D01*
X250Y1455D01*
X244Y1464D01*
X235Y1470D01*
X225Y1474D01*
X220Y1475D01*
D02*
G37*
G36*
X210D02*
X204Y1474D01*
X194Y1470D01*
X186Y1464D01*
X179Y1455D01*
X175Y1446D01*
X175Y1440D01*
X210D01*
Y1475D01*
D02*
G37*
G36*
X1750Y1430D02*
X1715D01*
X1715Y1424D01*
X1719Y1415D01*
X1726Y1406D01*
X1734Y1400D01*
X1744Y1396D01*
X1750Y1395D01*
Y1430D01*
D02*
G37*
G36*
X810Y1410D02*
X775D01*
Y1376D01*
X781Y1376D01*
X790Y1380D01*
X799Y1387D01*
X805Y1395D01*
X809Y1405D01*
X810Y1410D01*
D02*
G37*
G36*
X765D02*
X731D01*
X732Y1405D01*
X736Y1395D01*
X742Y1387D01*
X750Y1380D01*
X760Y1376D01*
X765Y1376D01*
Y1410D01*
D02*
G37*
G36*
X570Y1451D02*
X561Y1450D01*
X552Y1446D01*
X545Y1440D01*
X539Y1433D01*
X536Y1424D01*
X535Y1415D01*
X536Y1406D01*
X539Y1397D01*
X545Y1390D01*
X552Y1384D01*
X561Y1380D01*
X570Y1379D01*
X580Y1380D01*
X588Y1384D01*
X596Y1390D01*
X601Y1397D01*
X605Y1406D01*
X606Y1415D01*
X605Y1424D01*
X601Y1433D01*
X596Y1440D01*
X588Y1446D01*
X580Y1450D01*
X570Y1451D01*
D02*
G37*
G36*
X255Y1430D02*
X220D01*
Y1395D01*
X225Y1396D01*
X235Y1400D01*
X244Y1406D01*
X250Y1415D01*
X254Y1424D01*
X255Y1430D01*
D02*
G37*
G36*
X210D02*
X175D01*
X175Y1424D01*
X179Y1415D01*
X186Y1406D01*
X194Y1400D01*
X204Y1396D01*
X210Y1395D01*
Y1430D01*
D02*
G37*
G36*
X1755Y1772D02*
X1745Y1771D01*
X1736Y1767D01*
X1729Y1761D01*
X1723Y1753D01*
X1719Y1745D01*
X1718Y1735D01*
X1719Y1725D01*
X1723Y1717D01*
X1729Y1709D01*
X1736Y1703D01*
X1745Y1699D01*
X1755Y1698D01*
X1764Y1699D01*
X1773Y1703D01*
X1781Y1709D01*
X1787Y1717D01*
X1790Y1725D01*
X1792Y1735D01*
X1790Y1745D01*
X1787Y1753D01*
X1781Y1761D01*
X1773Y1767D01*
X1764Y1771D01*
X1755Y1772D01*
D02*
G37*
G36*
Y1672D02*
X1745Y1671D01*
X1736Y1667D01*
X1729Y1661D01*
X1723Y1653D01*
X1719Y1645D01*
X1718Y1635D01*
X1719Y1625D01*
X1723Y1617D01*
X1729Y1609D01*
X1736Y1603D01*
X1745Y1599D01*
X1755Y1598D01*
X1764Y1599D01*
X1773Y1603D01*
X1781Y1609D01*
X1787Y1617D01*
X1790Y1625D01*
X1792Y1635D01*
X1790Y1645D01*
X1787Y1653D01*
X1781Y1661D01*
X1773Y1667D01*
X1764Y1671D01*
X1755Y1672D01*
D02*
G37*
G36*
X870Y1831D02*
X861Y1830D01*
X852Y1826D01*
X845Y1820D01*
X839Y1813D01*
X836Y1804D01*
X835Y1795D01*
X836Y1786D01*
X839Y1777D01*
X845Y1770D01*
X852Y1764D01*
X861Y1760D01*
X870Y1759D01*
X880Y1760D01*
X888Y1764D01*
X896Y1770D01*
X901Y1777D01*
X905Y1786D01*
X906Y1795D01*
X905Y1804D01*
X901Y1813D01*
X896Y1820D01*
X888Y1826D01*
X880Y1830D01*
X870Y1831D01*
D02*
G37*
G36*
X730Y1844D02*
X640D01*
X636Y1843D01*
X634Y1841D01*
X614Y1821D01*
X612Y1819D01*
X611Y1815D01*
Y1798D01*
X606Y1798D01*
X605Y1804D01*
X601Y1813D01*
X596Y1820D01*
X588Y1826D01*
X580Y1830D01*
X570Y1831D01*
X561Y1830D01*
X552Y1826D01*
X545Y1820D01*
X539Y1813D01*
X536Y1804D01*
X535Y1795D01*
X536Y1786D01*
X539Y1777D01*
X545Y1770D01*
X552Y1764D01*
X561Y1760D01*
X570Y1759D01*
X580Y1760D01*
X588Y1764D01*
X596Y1770D01*
X601Y1777D01*
X605Y1786D01*
X606Y1792D01*
X611Y1792D01*
Y1604D01*
X598Y1591D01*
X355D01*
X352Y1590D01*
X349Y1588D01*
X317Y1556D01*
X315Y1553D01*
X314Y1550D01*
Y1357D01*
X301Y1344D01*
X250D01*
X250Y1345D01*
X247Y1353D01*
X241Y1361D01*
X233Y1367D01*
X224Y1371D01*
X215Y1372D01*
X205Y1371D01*
X196Y1367D01*
X189Y1361D01*
X183Y1353D01*
X179Y1345D01*
X178Y1335D01*
X179Y1325D01*
X183Y1317D01*
X189Y1309D01*
X196Y1303D01*
X205Y1299D01*
X215Y1298D01*
X224Y1299D01*
X233Y1303D01*
X241Y1309D01*
X247Y1317D01*
X250Y1325D01*
X250Y1326D01*
X305D01*
X309Y1327D01*
X312Y1329D01*
X321Y1338D01*
X326Y1336D01*
Y1259D01*
X311Y1244D01*
X250D01*
X250Y1245D01*
X247Y1253D01*
X241Y1261D01*
X233Y1267D01*
X224Y1271D01*
X215Y1272D01*
X205Y1271D01*
X196Y1267D01*
X189Y1261D01*
X183Y1253D01*
X179Y1245D01*
X178Y1235D01*
X179Y1225D01*
X183Y1217D01*
X189Y1209D01*
X196Y1203D01*
X205Y1199D01*
X215Y1198D01*
X224Y1199D01*
X233Y1203D01*
X241Y1209D01*
X247Y1217D01*
X250Y1225D01*
X250Y1226D01*
X315D01*
X319Y1227D01*
X322Y1229D01*
X341Y1249D01*
X343Y1251D01*
X344Y1255D01*
Y1541D01*
X364Y1561D01*
X741D01*
X761Y1541D01*
Y1530D01*
X761Y1530D01*
X752Y1526D01*
X745Y1520D01*
X739Y1513D01*
X736Y1504D01*
X735Y1495D01*
X736Y1486D01*
X739Y1477D01*
X745Y1470D01*
X752Y1464D01*
X761Y1460D01*
X768Y1460D01*
Y1459D01*
X770D01*
X770Y1459D01*
X771Y1459D01*
X773D01*
Y1460D01*
X780Y1460D01*
X788Y1464D01*
X796Y1470D01*
X801Y1477D01*
X805Y1486D01*
X806Y1495D01*
X805Y1504D01*
X801Y1513D01*
X796Y1520D01*
X788Y1526D01*
X780Y1530D01*
X780Y1530D01*
Y1545D01*
X779Y1548D01*
X777Y1551D01*
X751Y1576D01*
X749Y1578D01*
X745Y1579D01*
X619D01*
X617Y1584D01*
X626Y1594D01*
X628Y1596D01*
X629Y1597D01*
X629Y1600D01*
Y1811D01*
X640Y1822D01*
X644Y1819D01*
X639Y1813D01*
X636Y1804D01*
X635Y1795D01*
X636Y1786D01*
X639Y1777D01*
X645Y1770D01*
X652Y1764D01*
X661Y1760D01*
X661Y1760D01*
Y1755D01*
X662Y1751D01*
X664Y1748D01*
X684Y1729D01*
X686Y1727D01*
X687Y1726D01*
X690Y1726D01*
X891D01*
X906Y1711D01*
Y1515D01*
X904Y1514D01*
X901Y1514D01*
X896Y1520D01*
X888Y1526D01*
X880Y1530D01*
X870Y1531D01*
X861Y1530D01*
X852Y1526D01*
X845Y1520D01*
X839Y1513D01*
X836Y1504D01*
X835Y1495D01*
X836Y1486D01*
X839Y1477D01*
X845Y1470D01*
X852Y1464D01*
X861Y1460D01*
X870Y1459D01*
X880Y1460D01*
X888Y1464D01*
X896Y1470D01*
X901Y1476D01*
X904Y1476D01*
X906Y1475D01*
Y1435D01*
X904Y1434D01*
X901Y1434D01*
X896Y1440D01*
X888Y1446D01*
X880Y1450D01*
X870Y1451D01*
X861Y1450D01*
X852Y1446D01*
X845Y1440D01*
X839Y1433D01*
X836Y1424D01*
X835Y1415D01*
X836Y1406D01*
X839Y1397D01*
X845Y1390D01*
X852Y1384D01*
X861Y1380D01*
X870Y1379D01*
X880Y1380D01*
X888Y1384D01*
X896Y1390D01*
X901Y1396D01*
X904Y1396D01*
X906Y1395D01*
Y1135D01*
X904Y1134D01*
X901Y1134D01*
X896Y1140D01*
X888Y1146D01*
X880Y1150D01*
X880Y1150D01*
Y1255D01*
X879Y1258D01*
X877Y1261D01*
X856Y1281D01*
X854Y1283D01*
X850Y1284D01*
X694D01*
X680Y1298D01*
Y1380D01*
X680Y1380D01*
X688Y1384D01*
X696Y1390D01*
X701Y1397D01*
X705Y1406D01*
X706Y1415D01*
X705Y1424D01*
X701Y1433D01*
X696Y1440D01*
X688Y1446D01*
X680Y1450D01*
X670Y1451D01*
X661Y1450D01*
X652Y1446D01*
X645Y1440D01*
X639Y1433D01*
X639Y1432D01*
X634Y1433D01*
Y1446D01*
X652Y1464D01*
X652Y1464D01*
X661Y1460D01*
X670Y1459D01*
X680Y1460D01*
X688Y1464D01*
X696Y1470D01*
X701Y1477D01*
X705Y1486D01*
X706Y1495D01*
X705Y1504D01*
X701Y1513D01*
X696Y1520D01*
X688Y1526D01*
X680Y1530D01*
X670Y1531D01*
X661Y1530D01*
X652Y1526D01*
X645Y1520D01*
X639Y1513D01*
X636Y1504D01*
X635Y1495D01*
X636Y1486D01*
X639Y1477D01*
X639Y1477D01*
X619Y1456D01*
X617Y1453D01*
X616Y1450D01*
Y875D01*
X617Y871D01*
X619Y869D01*
X644Y844D01*
X646Y842D01*
X647Y841D01*
X650Y841D01*
X841D01*
X861Y821D01*
Y770D01*
X861Y770D01*
X852Y766D01*
X845Y760D01*
X839Y753D01*
X836Y744D01*
X835Y735D01*
X836Y726D01*
X839Y717D01*
X845Y710D01*
X852Y704D01*
X861Y700D01*
X870Y699D01*
X880Y700D01*
X888Y704D01*
X896Y710D01*
X901Y717D01*
X905Y726D01*
X906Y735D01*
X905Y744D01*
X901Y753D01*
X896Y760D01*
X888Y766D01*
X880Y770D01*
X880Y770D01*
Y825D01*
X879Y828D01*
X877Y831D01*
X851Y856D01*
X849Y858D01*
X845Y859D01*
X654D01*
X634Y879D01*
Y1017D01*
X639Y1018D01*
X639Y1017D01*
X645Y1010D01*
X652Y1004D01*
X661Y1000D01*
X670Y999D01*
X680Y1000D01*
X688Y1004D01*
X696Y1010D01*
X701Y1017D01*
X705Y1026D01*
X706Y1035D01*
X705Y1044D01*
X701Y1053D01*
X696Y1060D01*
X688Y1066D01*
X680Y1070D01*
X670Y1071D01*
X661Y1070D01*
X652Y1066D01*
X645Y1060D01*
X639Y1053D01*
X639Y1052D01*
X634Y1053D01*
Y1097D01*
X639Y1098D01*
X639Y1097D01*
X645Y1090D01*
X652Y1084D01*
X661Y1080D01*
X670Y1079D01*
X680Y1080D01*
X688Y1084D01*
X696Y1090D01*
X701Y1097D01*
X705Y1106D01*
X706Y1115D01*
X705Y1124D01*
X701Y1133D01*
X696Y1140D01*
X688Y1146D01*
X680Y1150D01*
X670Y1151D01*
X661Y1150D01*
X652Y1146D01*
X645Y1140D01*
X639Y1133D01*
X639Y1132D01*
X634Y1133D01*
Y1397D01*
X639Y1398D01*
X639Y1397D01*
X645Y1390D01*
X652Y1384D01*
X661Y1380D01*
X661Y1380D01*
Y1295D01*
X662Y1291D01*
X664Y1288D01*
X684Y1269D01*
X686Y1267D01*
X687Y1266D01*
X690Y1266D01*
X846D01*
X861Y1251D01*
Y1150D01*
X861Y1150D01*
X852Y1146D01*
X845Y1140D01*
X839Y1133D01*
X836Y1124D01*
X835Y1115D01*
X836Y1106D01*
X839Y1097D01*
X845Y1090D01*
X852Y1084D01*
X861Y1080D01*
X870Y1079D01*
X880Y1080D01*
X888Y1084D01*
X896Y1090D01*
X901Y1096D01*
X904Y1096D01*
X906Y1095D01*
Y1083D01*
X888Y1066D01*
X888Y1066D01*
X880Y1070D01*
X870Y1071D01*
X861Y1070D01*
X852Y1066D01*
X845Y1060D01*
X839Y1053D01*
X836Y1044D01*
X835Y1035D01*
X836Y1026D01*
X839Y1017D01*
X845Y1010D01*
X852Y1004D01*
X861Y1000D01*
X870Y999D01*
X880Y1000D01*
X888Y1004D01*
X896Y1010D01*
X901Y1017D01*
X905Y1026D01*
X906Y1035D01*
X905Y1044D01*
X901Y1053D01*
X901Y1053D01*
X921Y1073D01*
X923Y1076D01*
X924Y1080D01*
Y1715D01*
X923Y1719D01*
X921Y1721D01*
X901Y1741D01*
X899Y1743D01*
X895Y1744D01*
X694D01*
X682Y1756D01*
X683Y1762D01*
X688Y1764D01*
X696Y1770D01*
X701Y1777D01*
X705Y1786D01*
X706Y1795D01*
X705Y1804D01*
X701Y1813D01*
X696Y1820D01*
X695Y1821D01*
X696Y1826D01*
X727D01*
X739Y1813D01*
X739Y1813D01*
X736Y1804D01*
X735Y1795D01*
X736Y1786D01*
X739Y1777D01*
X745Y1770D01*
X752Y1764D01*
X761Y1760D01*
X770Y1759D01*
X780Y1760D01*
X788Y1764D01*
X796Y1770D01*
X801Y1777D01*
X805Y1786D01*
X806Y1795D01*
X805Y1804D01*
X801Y1813D01*
X796Y1820D01*
X788Y1826D01*
X780Y1830D01*
X770Y1831D01*
X761Y1830D01*
X752Y1826D01*
X752Y1826D01*
X737Y1841D01*
X734Y1843D01*
X730Y1844D01*
D02*
G37*
G36*
X970Y1831D02*
X961Y1830D01*
X952Y1826D01*
X945Y1820D01*
X939Y1813D01*
X936Y1804D01*
X935Y1795D01*
X936Y1786D01*
X939Y1777D01*
X945Y1770D01*
X952Y1764D01*
X961Y1760D01*
X970Y1759D01*
X980Y1760D01*
X988Y1764D01*
X996Y1770D01*
X1001Y1777D01*
X1005Y1786D01*
X1006Y1795D01*
X1005Y1804D01*
X1001Y1813D01*
X996Y1820D01*
X988Y1826D01*
X980Y1830D01*
X970Y1831D01*
D02*
G37*
G36*
X1755Y1572D02*
X1745Y1571D01*
X1736Y1567D01*
X1729Y1561D01*
X1723Y1553D01*
X1719Y1545D01*
X1718Y1535D01*
X1719Y1525D01*
X1723Y1517D01*
X1729Y1509D01*
X1736Y1503D01*
X1745Y1499D01*
X1755Y1498D01*
X1764Y1499D01*
X1773Y1503D01*
X1781Y1509D01*
X1787Y1517D01*
X1790Y1525D01*
X1792Y1535D01*
X1790Y1545D01*
X1787Y1553D01*
X1781Y1561D01*
X1773Y1567D01*
X1764Y1571D01*
X1755Y1572D01*
D02*
G37*
G36*
X1760Y1475D02*
Y1440D01*
X1795D01*
X1794Y1446D01*
X1790Y1455D01*
X1784Y1464D01*
X1775Y1470D01*
X1765Y1474D01*
X1760Y1475D01*
D02*
G37*
G36*
X1750D02*
X1744Y1474D01*
X1734Y1470D01*
X1726Y1464D01*
X1719Y1455D01*
X1715Y1446D01*
X1715Y1440D01*
X1750D01*
Y1475D01*
D02*
G37*
G36*
X970Y1531D02*
X961Y1530D01*
X952Y1526D01*
X945Y1520D01*
X939Y1513D01*
X936Y1504D01*
X935Y1495D01*
X936Y1486D01*
X939Y1477D01*
X945Y1470D01*
X952Y1464D01*
X961Y1460D01*
X970Y1459D01*
X980Y1460D01*
X981Y1461D01*
X996Y1447D01*
X992Y1443D01*
X988Y1446D01*
X980Y1450D01*
X970Y1451D01*
X961Y1450D01*
X952Y1446D01*
X945Y1440D01*
X939Y1433D01*
X936Y1424D01*
X935Y1415D01*
X936Y1406D01*
X939Y1397D01*
X945Y1390D01*
X952Y1384D01*
X961Y1380D01*
X970Y1379D01*
X980Y1380D01*
X988Y1384D01*
X996Y1390D01*
X1001Y1397D01*
X1005Y1406D01*
X1006Y1415D01*
X1005Y1424D01*
X1001Y1433D01*
X998Y1437D01*
X1002Y1440D01*
X1014Y1429D01*
Y1215D01*
Y1177D01*
X985Y1148D01*
X980Y1150D01*
X970Y1151D01*
X961Y1150D01*
X952Y1146D01*
X945Y1140D01*
X939Y1133D01*
X936Y1124D01*
X935Y1115D01*
X936Y1106D01*
X939Y1097D01*
X945Y1090D01*
X952Y1084D01*
X961Y1080D01*
X970Y1079D01*
X980Y1080D01*
X988Y1084D01*
X996Y1090D01*
X1001Y1097D01*
X1005Y1106D01*
X1006Y1115D01*
X1005Y1122D01*
X1009Y1126D01*
X1014Y1124D01*
Y801D01*
X981Y769D01*
X980Y770D01*
X970Y771D01*
X961Y770D01*
X952Y766D01*
X945Y760D01*
X939Y753D01*
X936Y744D01*
X935Y735D01*
X936Y726D01*
X939Y717D01*
X945Y710D01*
X952Y704D01*
X961Y700D01*
X970Y699D01*
X980Y700D01*
X988Y704D01*
X996Y710D01*
X1001Y717D01*
X1005Y726D01*
X1006Y735D01*
X1005Y744D01*
X1004Y746D01*
X1042Y783D01*
X1045Y788D01*
X1046Y795D01*
Y1169D01*
X1049Y1171D01*
X1051Y1172D01*
X1054Y1170D01*
X1060Y1169D01*
X1318D01*
Y1148D01*
X1392D01*
Y1222D01*
X1318D01*
Y1201D01*
X1067D01*
X1046Y1222D01*
Y1435D01*
X1045Y1442D01*
X1042Y1447D01*
X1004Y1484D01*
X1005Y1486D01*
X1006Y1495D01*
X1005Y1504D01*
X1001Y1513D01*
X996Y1520D01*
X988Y1526D01*
X980Y1530D01*
X970Y1531D01*
D02*
G37*
G36*
X215Y1772D02*
X205Y1771D01*
X196Y1767D01*
X189Y1761D01*
X183Y1753D01*
X179Y1745D01*
X178Y1735D01*
X179Y1731D01*
Y1639D01*
X178Y1635D01*
X179Y1631D01*
Y1539D01*
X178Y1535D01*
X179Y1525D01*
X183Y1517D01*
X189Y1509D01*
X196Y1503D01*
X205Y1499D01*
X215Y1498D01*
X224Y1499D01*
X233Y1503D01*
X241Y1509D01*
X247Y1517D01*
X250Y1525D01*
X252Y1535D01*
X251Y1539D01*
Y1631D01*
X252Y1635D01*
X251Y1639D01*
Y1731D01*
X252Y1735D01*
X250Y1745D01*
X247Y1753D01*
X241Y1761D01*
X233Y1767D01*
X224Y1771D01*
X215Y1772D01*
D02*
G37*
G36*
X570Y1531D02*
X561Y1530D01*
X552Y1526D01*
X545Y1520D01*
X539Y1513D01*
X536Y1504D01*
X535Y1495D01*
X536Y1486D01*
X539Y1477D01*
X545Y1470D01*
X552Y1464D01*
X561Y1460D01*
X570Y1459D01*
X580Y1460D01*
X588Y1464D01*
X596Y1470D01*
X601Y1477D01*
X605Y1486D01*
X606Y1495D01*
X605Y1504D01*
X601Y1513D01*
X596Y1520D01*
X588Y1526D01*
X580Y1530D01*
X570Y1531D01*
D02*
G37*
G36*
X1755Y1072D02*
X1745Y1071D01*
X1736Y1067D01*
X1729Y1061D01*
X1723Y1053D01*
X1719Y1045D01*
X1718Y1035D01*
X1719Y1025D01*
X1723Y1017D01*
X1701Y995D01*
X1392D01*
Y1003D01*
X1373Y1022D01*
X1337D01*
X1318Y1003D01*
Y966D01*
X1337Y948D01*
X1373D01*
X1392Y966D01*
Y975D01*
X1705D01*
X1709Y976D01*
X1712Y978D01*
X1737Y1003D01*
X1745Y999D01*
X1755Y998D01*
X1764Y999D01*
X1773Y1003D01*
X1781Y1009D01*
X1787Y1017D01*
X1790Y1025D01*
X1792Y1035D01*
X1790Y1045D01*
X1787Y1053D01*
X1781Y1061D01*
X1773Y1067D01*
X1764Y1071D01*
X1755Y1072D01*
D02*
G37*
G36*
Y972D02*
X1745Y971D01*
X1736Y967D01*
X1729Y961D01*
X1723Y953D01*
X1719Y945D01*
X1719Y944D01*
X1435D01*
X1432Y944D01*
X1432Y944D01*
X1429Y942D01*
X1266Y779D01*
X1260Y780D01*
X1252Y778D01*
X1246Y774D01*
X1242Y768D01*
X1240Y760D01*
X1242Y752D01*
X1246Y746D01*
X1252Y742D01*
X1260Y740D01*
X1268Y742D01*
X1274Y746D01*
X1278Y752D01*
X1280Y760D01*
X1279Y766D01*
X1439Y926D01*
X1719D01*
X1719Y925D01*
X1723Y917D01*
X1729Y909D01*
X1736Y903D01*
X1745Y899D01*
X1755Y898D01*
X1764Y899D01*
X1773Y903D01*
X1781Y909D01*
X1787Y917D01*
X1790Y925D01*
X1792Y935D01*
X1790Y945D01*
X1787Y953D01*
X1781Y961D01*
X1773Y967D01*
X1764Y971D01*
X1755Y972D01*
D02*
G37*
G36*
X215Y1072D02*
X205Y1071D01*
X196Y1067D01*
X189Y1061D01*
X183Y1053D01*
X179Y1045D01*
X178Y1035D01*
X179Y1025D01*
X183Y1017D01*
X189Y1009D01*
X196Y1003D01*
X205Y999D01*
X215Y998D01*
X224Y999D01*
X233Y1003D01*
X241Y1009D01*
X247Y1017D01*
X250Y1025D01*
X252Y1035D01*
X250Y1045D01*
X247Y1053D01*
X241Y1061D01*
X233Y1067D01*
X224Y1071D01*
X215Y1072D01*
D02*
G37*
G36*
X770Y1071D02*
X761Y1070D01*
X752Y1066D01*
X745Y1060D01*
X739Y1053D01*
X736Y1044D01*
X735Y1035D01*
X736Y1026D01*
X739Y1017D01*
X745Y1010D01*
X752Y1004D01*
X761Y1000D01*
X770Y999D01*
X780Y1000D01*
X788Y1004D01*
X796Y1010D01*
X801Y1017D01*
X805Y1026D01*
X806Y1035D01*
X805Y1044D01*
X801Y1053D01*
X796Y1060D01*
X788Y1066D01*
X780Y1070D01*
X770Y1071D01*
D02*
G37*
G36*
X570D02*
X561Y1070D01*
X552Y1066D01*
X545Y1060D01*
X539Y1053D01*
X536Y1044D01*
X535Y1035D01*
X536Y1026D01*
X539Y1017D01*
X545Y1010D01*
X552Y1004D01*
X561Y1000D01*
X570Y999D01*
X580Y1000D01*
X588Y1004D01*
X596Y1010D01*
X601Y1017D01*
X605Y1026D01*
X606Y1035D01*
X605Y1044D01*
X601Y1053D01*
X596Y1060D01*
X588Y1066D01*
X580Y1070D01*
X570Y1071D01*
D02*
G37*
G36*
X215Y972D02*
X205Y971D01*
X196Y967D01*
X189Y961D01*
X183Y953D01*
X179Y945D01*
X178Y935D01*
X179Y925D01*
X183Y917D01*
X189Y909D01*
X196Y903D01*
X205Y899D01*
X215Y898D01*
X224Y899D01*
X233Y903D01*
X241Y909D01*
X247Y917D01*
X250Y925D01*
X252Y935D01*
X250Y945D01*
X247Y953D01*
X241Y961D01*
X233Y967D01*
X224Y971D01*
X215Y972D01*
D02*
G37*
G36*
X210Y875D02*
X204Y874D01*
X194Y870D01*
X186Y864D01*
X179Y855D01*
X175Y846D01*
X175Y840D01*
X210D01*
Y875D01*
D02*
G37*
G36*
X1795Y830D02*
X1760D01*
Y795D01*
X1765Y796D01*
X1775Y800D01*
X1784Y806D01*
X1790Y815D01*
X1794Y824D01*
X1795Y830D01*
D02*
G37*
G36*
X220Y875D02*
Y840D01*
X255D01*
X254Y846D01*
X250Y855D01*
X244Y864D01*
X235Y870D01*
X225Y874D01*
X220Y875D01*
D02*
G37*
G36*
X1760D02*
Y840D01*
X1795D01*
X1794Y846D01*
X1790Y855D01*
X1784Y864D01*
X1775Y870D01*
X1765Y874D01*
X1760Y875D01*
D02*
G37*
G36*
X1750D02*
X1744Y874D01*
X1734Y870D01*
X1726Y864D01*
X1719Y855D01*
X1715Y846D01*
X1715Y840D01*
X1750D01*
Y875D01*
D02*
G37*
G36*
Y1175D02*
X1744Y1174D01*
X1734Y1170D01*
X1726Y1164D01*
X1719Y1155D01*
X1715Y1146D01*
X1715Y1140D01*
X1750D01*
Y1175D01*
D02*
G37*
G36*
X215Y1172D02*
X205Y1171D01*
X196Y1167D01*
X189Y1161D01*
X183Y1153D01*
X179Y1145D01*
X178Y1135D01*
X179Y1125D01*
X183Y1117D01*
X189Y1109D01*
X196Y1103D01*
X205Y1099D01*
X215Y1098D01*
X224Y1099D01*
X233Y1103D01*
X241Y1109D01*
X247Y1117D01*
X250Y1125D01*
X252Y1135D01*
X250Y1145D01*
X247Y1153D01*
X241Y1161D01*
X233Y1167D01*
X224Y1171D01*
X215Y1172D01*
D02*
G37*
G36*
X1760Y1175D02*
Y1140D01*
X1795D01*
X1794Y1146D01*
X1790Y1155D01*
X1784Y1164D01*
X1775Y1170D01*
X1765Y1174D01*
X1760Y1175D01*
D02*
G37*
G36*
X1755Y1372D02*
X1745Y1371D01*
X1736Y1367D01*
X1729Y1361D01*
X1723Y1353D01*
X1719Y1345D01*
X1718Y1335D01*
X1719Y1325D01*
X1723Y1317D01*
X1729Y1309D01*
X1736Y1303D01*
X1745Y1299D01*
X1755Y1298D01*
X1764Y1299D01*
X1773Y1303D01*
X1781Y1309D01*
X1787Y1317D01*
X1790Y1325D01*
X1792Y1335D01*
X1790Y1345D01*
X1787Y1353D01*
X1781Y1361D01*
X1773Y1367D01*
X1764Y1371D01*
X1755Y1372D01*
D02*
G37*
G36*
Y1272D02*
X1745Y1271D01*
X1736Y1267D01*
X1729Y1261D01*
X1723Y1253D01*
X1719Y1245D01*
X1718Y1235D01*
X1719Y1225D01*
X1723Y1217D01*
X1729Y1209D01*
X1736Y1203D01*
X1745Y1199D01*
X1755Y1198D01*
X1764Y1199D01*
X1773Y1203D01*
X1781Y1209D01*
X1787Y1217D01*
X1790Y1225D01*
X1792Y1235D01*
X1790Y1245D01*
X1787Y1253D01*
X1781Y1261D01*
X1773Y1267D01*
X1764Y1271D01*
X1755Y1272D01*
D02*
G37*
G36*
X1795Y1130D02*
X1760D01*
Y1095D01*
X1765Y1096D01*
X1775Y1100D01*
X1784Y1106D01*
X1790Y1115D01*
X1794Y1124D01*
X1795Y1130D01*
D02*
G37*
G36*
X1373Y1122D02*
X1337D01*
X1318Y1104D01*
Y1066D01*
X1337Y1048D01*
X1373D01*
X1392Y1066D01*
Y1104D01*
X1373Y1122D01*
D02*
G37*
G36*
X970Y1071D02*
X961Y1070D01*
X952Y1066D01*
X945Y1060D01*
X939Y1053D01*
X936Y1044D01*
X935Y1035D01*
X936Y1026D01*
X939Y1017D01*
X945Y1010D01*
X952Y1004D01*
X961Y1000D01*
X970Y999D01*
X980Y1000D01*
X988Y1004D01*
X996Y1010D01*
X1001Y1017D01*
X1005Y1026D01*
X1006Y1035D01*
X1005Y1044D01*
X1001Y1053D01*
X996Y1060D01*
X988Y1066D01*
X980Y1070D01*
X970Y1071D01*
D02*
G37*
G36*
X570Y1151D02*
X561Y1150D01*
X552Y1146D01*
X545Y1140D01*
X539Y1133D01*
X536Y1124D01*
X535Y1115D01*
X536Y1106D01*
X539Y1097D01*
X545Y1090D01*
X552Y1084D01*
X561Y1080D01*
X570Y1079D01*
X580Y1080D01*
X588Y1084D01*
X596Y1090D01*
X601Y1097D01*
X605Y1106D01*
X606Y1115D01*
X605Y1124D01*
X601Y1133D01*
X596Y1140D01*
X588Y1146D01*
X580Y1150D01*
X570Y1151D01*
D02*
G37*
G36*
X1750Y1130D02*
X1715D01*
X1715Y1124D01*
X1719Y1115D01*
X1726Y1106D01*
X1734Y1100D01*
X1744Y1096D01*
X1750Y1095D01*
Y1130D01*
D02*
G37*
G36*
X770Y1151D02*
X761Y1150D01*
X752Y1146D01*
X745Y1140D01*
X739Y1133D01*
X736Y1124D01*
X735Y1115D01*
X736Y1106D01*
X739Y1097D01*
X745Y1090D01*
X752Y1084D01*
X761Y1080D01*
X770Y1079D01*
X780Y1080D01*
X788Y1084D01*
X796Y1090D01*
X801Y1097D01*
X805Y1106D01*
X806Y1115D01*
X805Y1124D01*
X801Y1133D01*
X796Y1140D01*
X788Y1146D01*
X780Y1150D01*
X770Y1151D01*
D02*
G37*
%LPD*%
D18*
X1705Y985D02*
X1755Y1035D01*
X1355Y985D02*
X1705D01*
D19*
X215Y1535D02*
Y1635D01*
Y1735D01*
D20*
X970Y1495D02*
X1030Y1435D01*
X970Y1115D02*
X975D01*
X1030Y1170D01*
Y795D02*
Y1170D01*
X970Y735D02*
X1030Y795D01*
X1060Y1185D02*
X1355D01*
X1030Y1215D02*
X1060Y1185D01*
X1030Y1170D02*
Y1215D01*
Y1435D01*
D22*
X1435Y935D02*
X1755D01*
X1260Y760D02*
X1435Y935D01*
X215Y1235D02*
X315D01*
X335Y1255D01*
X745Y1570D02*
X770Y1545D01*
Y1495D02*
Y1545D01*
X335Y1255D02*
Y1545D01*
X360Y1570D01*
X745D01*
X670Y1295D02*
Y1415D01*
Y1295D02*
X690Y1275D01*
X850D01*
X870Y1255D01*
Y1115D02*
Y1255D01*
X670Y1755D02*
Y1795D01*
Y1755D02*
X690Y1735D01*
X870Y1035D02*
X915Y1080D01*
X690Y1735D02*
X895D01*
X915Y1715D01*
X625Y1450D02*
X670Y1495D01*
X625Y875D02*
Y1450D01*
Y875D02*
X650Y850D01*
X845D01*
X870Y825D01*
Y735D02*
Y825D01*
X915Y1080D02*
Y1715D01*
X730Y1835D02*
X770Y1795D01*
X640Y1835D02*
X730D01*
X620Y1815D02*
X640Y1835D01*
X215Y1335D02*
X305D01*
X323Y1353D01*
Y1550D01*
X620Y1600D02*
Y1815D01*
X323Y1550D02*
X355Y1582D01*
X602D01*
X620Y1600D01*
D23*
X1406Y47D02*
D03*
X1327Y366D02*
D03*
X1406Y511D02*
D03*
Y291D02*
D03*
X1327Y145D02*
D03*
X981Y47D02*
D03*
X902Y366D02*
D03*
X981Y511D02*
D03*
Y291D02*
D03*
X902Y145D02*
D03*
X556Y47D02*
D03*
X477Y366D02*
D03*
X556Y511D02*
D03*
Y291D02*
D03*
X477Y145D02*
D03*
D24*
X1355Y985D02*
D03*
Y1085D02*
D03*
D25*
Y1185D02*
D03*
D26*
X1755Y235D02*
D03*
X215D02*
D03*
D27*
X1755Y335D02*
D03*
Y435D02*
D03*
Y535D02*
D03*
Y635D02*
D03*
Y735D02*
D03*
Y835D02*
D03*
Y935D02*
D03*
Y1035D02*
D03*
Y1135D02*
D03*
Y1235D02*
D03*
Y1335D02*
D03*
Y1435D02*
D03*
Y1535D02*
D03*
Y1635D02*
D03*
Y1735D02*
D03*
X215Y335D02*
D03*
Y435D02*
D03*
Y535D02*
D03*
Y635D02*
D03*
Y735D02*
D03*
Y835D02*
D03*
Y935D02*
D03*
Y1035D02*
D03*
Y1135D02*
D03*
Y1235D02*
D03*
Y1335D02*
D03*
Y1435D02*
D03*
Y1535D02*
D03*
Y1635D02*
D03*
Y1735D02*
D03*
D28*
X970Y1035D02*
D03*
X870D02*
D03*
X770D02*
D03*
X670D02*
D03*
X570D02*
D03*
X970Y735D02*
D03*
X870D02*
D03*
X770D02*
D03*
X670D02*
D03*
X570D02*
D03*
X970Y1415D02*
D03*
X870D02*
D03*
X770D02*
D03*
X670D02*
D03*
X570D02*
D03*
X970Y1115D02*
D03*
X870D02*
D03*
X770D02*
D03*
X670D02*
D03*
X570D02*
D03*
X970Y1795D02*
D03*
X870D02*
D03*
X770D02*
D03*
X670D02*
D03*
X570D02*
D03*
X970Y1495D02*
D03*
X870D02*
D03*
X770D02*
D03*
X670D02*
D03*
X570D02*
D03*
D29*
X79Y1890D02*
D03*
X79Y79D02*
D03*
X1890D02*
D03*
X1890Y1890D02*
D03*
D30*
X244Y59D02*
D03*
X1724D02*
D03*
X1909Y244D02*
D03*
Y429D02*
D03*
Y614D02*
D03*
Y799D02*
D03*
Y984D02*
D03*
Y1169D02*
D03*
Y1354D02*
D03*
Y1539D02*
D03*
Y1724D02*
D03*
X1724Y1909D02*
D03*
X1539D02*
D03*
X1354D02*
D03*
X1169D02*
D03*
X984D02*
D03*
X799D02*
D03*
X614D02*
D03*
X429D02*
D03*
X244D02*
D03*
X59Y1724D02*
D03*
Y1539D02*
D03*
Y1354D02*
D03*
Y1169D02*
D03*
Y984D02*
D03*
Y799D02*
D03*
Y614D02*
D03*
Y429D02*
D03*
Y244D02*
D03*
D31*
X1260Y760D02*
D03*
M02*
