G04 Layer_Physical_Order=1*
G04 Layer_Color=25308*
%FSLAX23Y23*%
%MOIN*%
G70*
G01*
G75*
%ADD10R,0.028X0.033*%
%ADD11R,0.031X0.031*%
%ADD12R,0.022X0.051*%
%ADD13R,0.031X0.035*%
%ADD14R,0.033X0.028*%
%ADD15R,0.026X0.053*%
%ADD16R,0.035X0.031*%
%ADD17R,0.030X0.033*%
%ADD18C,0.008*%
%ADD19C,0.060*%
%ADD20C,0.020*%
%ADD21C,0.010*%
%ADD22C,0.006*%
G04:AMPARAMS|DCode=23|XSize=100mil|YSize=50mil|CornerRadius=25mil|HoleSize=0mil|Usage=FLASHONLY|Rotation=180.000|XOffset=0mil|YOffset=0mil|HoleType=Round|Shape=RoundedRectangle|*
%AMROUNDEDRECTD23*
21,1,0.100,0.000,0,0,180.0*
21,1,0.050,0.050,0,0,180.0*
1,1,0.050,-0.025,0.000*
1,1,0.050,0.025,0.000*
1,1,0.050,0.025,0.000*
1,1,0.050,-0.025,0.000*
%
%ADD23ROUNDEDRECTD23*%
%ADD24P,0.067X8X292.5*%
%ADD25R,0.062X0.062*%
%ADD26R,0.061X0.061*%
%ADD27C,0.061*%
%ADD28C,0.059*%
%ADD29C,0.158*%
%ADD30C,0.050*%
%ADD31C,0.027*%
G36*
X1837Y1969D02*
X1889Y1969D01*
X1929Y1949D01*
X1968Y1890D01*
X1968Y1839D01*
X1968Y1839D01*
X1969Y132D01*
X1968Y132D01*
X1968Y79D01*
X1948Y39D01*
X1889Y0D01*
X1791Y0D01*
Y0D01*
X1771D01*
Y-0D01*
X1643D01*
Y0D01*
X325D01*
Y0D01*
X196D01*
Y0D01*
X177D01*
Y0D01*
X78Y0D01*
X39Y20D01*
X-0Y79D01*
X-0Y177D01*
X-0D01*
X-0Y197D01*
X-0D01*
Y1672D01*
X-1Y1836D01*
X-0Y1836D01*
X-0Y1890D01*
X19Y1929D01*
X78Y1969D01*
X130Y1969D01*
X130Y1969D01*
X1836Y1969D01*
X1837Y1969D01*
D02*
G37*
%LPC*%
G36*
X1283Y722D02*
X1262D01*
Y699D01*
X1283D01*
Y722D01*
D02*
G37*
G36*
X570Y771D02*
X561Y770D01*
X552Y766D01*
X545Y760D01*
X539Y753D01*
X536Y744D01*
X535Y735D01*
X536Y726D01*
X539Y717D01*
X545Y710D01*
X552Y704D01*
X561Y700D01*
X570Y699D01*
X580Y700D01*
X588Y704D01*
X596Y710D01*
X601Y717D01*
X605Y726D01*
X606Y735D01*
X605Y744D01*
X601Y753D01*
X596Y760D01*
X588Y766D01*
X580Y770D01*
X570Y771D01*
D02*
G37*
G36*
X1755Y772D02*
X1745Y771D01*
X1736Y767D01*
X1729Y761D01*
X1723Y753D01*
X1719Y745D01*
X1718Y735D01*
X1719Y725D01*
X1723Y717D01*
X1729Y709D01*
X1736Y703D01*
X1745Y699D01*
X1755Y698D01*
X1764Y699D01*
X1773Y703D01*
X1781Y709D01*
X1787Y717D01*
X1790Y725D01*
X1792Y735D01*
X1790Y745D01*
X1787Y753D01*
X1781Y761D01*
X1773Y767D01*
X1764Y771D01*
X1755Y772D01*
D02*
G37*
G36*
X210Y830D02*
X175D01*
X175Y824D01*
X179Y815D01*
X186Y806D01*
X194Y800D01*
X204Y796D01*
X210Y795D01*
Y830D01*
D02*
G37*
G36*
X1337Y783D02*
X1298D01*
Y769D01*
X1277D01*
X1274Y774D01*
X1268Y778D01*
X1260Y780D01*
X1252Y778D01*
X1246Y774D01*
X1242Y768D01*
X1240Y760D01*
X1242Y752D01*
X1246Y746D01*
X1252Y742D01*
X1260Y740D01*
X1268Y742D01*
X1274Y746D01*
X1277Y751D01*
X1298D01*
Y737D01*
X1337D01*
Y783D01*
D02*
G37*
G36*
X1313Y722D02*
X1293D01*
Y699D01*
X1313D01*
Y722D01*
D02*
G37*
G36*
X215Y772D02*
X205Y771D01*
X196Y767D01*
X189Y761D01*
X183Y753D01*
X179Y745D01*
X178Y735D01*
X179Y725D01*
X183Y717D01*
X189Y709D01*
X196Y703D01*
X205Y699D01*
X215Y698D01*
X224Y699D01*
X233Y703D01*
X241Y709D01*
X247Y717D01*
X250Y725D01*
X252Y735D01*
X250Y745D01*
X247Y753D01*
X241Y761D01*
X233Y767D01*
X224Y771D01*
X215Y772D01*
D02*
G37*
G36*
X1755Y672D02*
X1745Y671D01*
X1736Y667D01*
X1729Y661D01*
X1723Y653D01*
X1719Y645D01*
X1718Y635D01*
X1719Y625D01*
X1723Y617D01*
X1729Y609D01*
X1736Y603D01*
X1745Y599D01*
X1755Y598D01*
X1764Y599D01*
X1773Y603D01*
X1781Y609D01*
X1787Y617D01*
X1790Y625D01*
X1792Y635D01*
X1790Y645D01*
X1787Y653D01*
X1781Y661D01*
X1773Y667D01*
X1764Y671D01*
X1755Y672D01*
D02*
G37*
G36*
X215D02*
X205Y671D01*
X196Y667D01*
X189Y661D01*
X183Y653D01*
X179Y645D01*
X178Y635D01*
X179Y625D01*
X183Y617D01*
X189Y609D01*
X196Y603D01*
X205Y599D01*
X215Y598D01*
X224Y599D01*
X233Y603D01*
X241Y609D01*
X247Y617D01*
X250Y625D01*
X252Y635D01*
X250Y645D01*
X247Y653D01*
X241Y661D01*
X233Y667D01*
X224Y671D01*
X215Y672D01*
D02*
G37*
G36*
X1760Y575D02*
Y540D01*
X1795D01*
X1794Y546D01*
X1790Y555D01*
X1784Y564D01*
X1775Y570D01*
X1765Y575D01*
X1760Y575D01*
D02*
G37*
G36*
X1382Y783D02*
X1343D01*
Y737D01*
X1353D01*
Y718D01*
X1341D01*
Y671D01*
X1384D01*
Y718D01*
X1372D01*
Y737D01*
X1382D01*
Y783D01*
D02*
G37*
G36*
X1313Y689D02*
X1293D01*
Y667D01*
X1313D01*
Y689D01*
D02*
G37*
G36*
X1283D02*
X1262D01*
Y667D01*
X1283D01*
Y689D01*
D02*
G37*
G36*
X255Y830D02*
X220D01*
Y795D01*
X225Y796D01*
X235Y800D01*
X244Y806D01*
X250Y815D01*
X254Y824D01*
X255Y830D01*
D02*
G37*
G36*
X1373Y1022D02*
X1337D01*
X1318Y1003D01*
Y966D01*
X1337Y948D01*
X1373D01*
X1392Y966D01*
Y1003D01*
X1373Y1022D01*
D02*
G37*
G36*
X215Y972D02*
X205Y971D01*
X196Y967D01*
X189Y961D01*
X183Y953D01*
X179Y945D01*
X178Y935D01*
X179Y925D01*
X183Y917D01*
X189Y909D01*
X196Y903D01*
X205Y899D01*
X215Y898D01*
X224Y899D01*
X233Y903D01*
X241Y909D01*
X247Y917D01*
X250Y925D01*
X250Y926D01*
X280D01*
Y912D01*
X321D01*
Y958D01*
X280D01*
Y944D01*
X250D01*
X250Y945D01*
X247Y953D01*
X241Y961D01*
X233Y967D01*
X224Y971D01*
X215Y972D01*
D02*
G37*
G36*
X1755D02*
X1745Y971D01*
X1736Y967D01*
X1729Y961D01*
X1723Y953D01*
X1719Y945D01*
X1718Y935D01*
X1719Y925D01*
X1723Y917D01*
X1729Y909D01*
X1736Y903D01*
X1745Y899D01*
X1755Y898D01*
X1764Y899D01*
X1773Y903D01*
X1781Y909D01*
X1787Y917D01*
X1790Y925D01*
X1792Y935D01*
X1790Y945D01*
X1787Y953D01*
X1781Y961D01*
X1773Y967D01*
X1764Y971D01*
X1755Y972D01*
D02*
G37*
G36*
Y1072D02*
X1745Y1071D01*
X1736Y1067D01*
X1729Y1061D01*
X1723Y1053D01*
X1719Y1045D01*
X1718Y1035D01*
X1719Y1025D01*
X1723Y1017D01*
X1729Y1009D01*
X1736Y1003D01*
X1745Y999D01*
X1755Y998D01*
X1764Y999D01*
X1773Y1003D01*
X1781Y1009D01*
X1787Y1017D01*
X1790Y1025D01*
X1792Y1035D01*
X1790Y1045D01*
X1787Y1053D01*
X1781Y1061D01*
X1773Y1067D01*
X1764Y1071D01*
X1755Y1072D01*
D02*
G37*
G36*
X1192Y1002D02*
X1169D01*
Y982D01*
X1192D01*
Y1002D01*
D02*
G37*
G36*
X1159D02*
X1137D01*
Y982D01*
X1159D01*
Y1002D01*
D02*
G37*
G36*
X471Y905D02*
X453D01*
Y883D01*
X471D01*
Y905D01*
D02*
G37*
G36*
X210Y875D02*
X204Y874D01*
X194Y870D01*
X186Y864D01*
X179Y855D01*
X175Y846D01*
X175Y840D01*
X210D01*
Y875D01*
D02*
G37*
G36*
X1795Y830D02*
X1760D01*
Y795D01*
X1765Y796D01*
X1775Y800D01*
X1784Y806D01*
X1790Y815D01*
X1794Y824D01*
X1795Y830D01*
D02*
G37*
G36*
X1750D02*
X1715D01*
X1715Y824D01*
X1719Y815D01*
X1726Y806D01*
X1734Y800D01*
X1744Y796D01*
X1750Y795D01*
Y830D01*
D02*
G37*
G36*
X1760Y875D02*
Y840D01*
X1795D01*
X1794Y846D01*
X1790Y855D01*
X1784Y864D01*
X1775Y870D01*
X1765Y874D01*
X1760Y875D01*
D02*
G37*
G36*
X1750D02*
X1744Y874D01*
X1734Y870D01*
X1726Y864D01*
X1719Y855D01*
X1715Y846D01*
X1715Y840D01*
X1750D01*
Y875D01*
D02*
G37*
G36*
X220D02*
Y840D01*
X255D01*
X254Y846D01*
X250Y855D01*
X244Y864D01*
X235Y870D01*
X225Y874D01*
X220Y875D01*
D02*
G37*
G36*
X1750Y575D02*
X1744Y575D01*
X1734Y570D01*
X1726Y564D01*
X1719Y555D01*
X1715Y546D01*
X1715Y540D01*
X1750D01*
Y575D01*
D02*
G37*
G36*
X255Y276D02*
X220D01*
Y240D01*
X255D01*
Y276D01*
D02*
G37*
G36*
X210D02*
X174D01*
Y240D01*
X210D01*
Y276D01*
D02*
G37*
G36*
X1795Y230D02*
X1760D01*
Y195D01*
X1795D01*
Y230D01*
D02*
G37*
G36*
X581Y322D02*
X531D01*
X523Y321D01*
X515Y318D01*
X509Y313D01*
X504Y306D01*
X501Y299D01*
X500Y291D01*
X501Y283D01*
X504Y275D01*
X509Y269D01*
X515Y264D01*
X523Y261D01*
X531Y259D01*
X581D01*
X589Y261D01*
X597Y264D01*
X603Y269D01*
X608Y275D01*
X611Y283D01*
X612Y291D01*
X611Y299D01*
X608Y306D01*
X603Y313D01*
X597Y318D01*
X589Y321D01*
X581Y322D01*
D02*
G37*
G36*
X1795Y276D02*
X1760D01*
Y240D01*
X1795D01*
Y276D01*
D02*
G37*
G36*
X1750D02*
X1714D01*
Y240D01*
X1750D01*
Y276D01*
D02*
G37*
G36*
Y230D02*
X1714D01*
Y195D01*
X1750D01*
Y230D01*
D02*
G37*
G36*
X1149Y622D02*
X1116D01*
Y558D01*
X1123D01*
Y131D01*
X1048Y56D01*
X1036D01*
X1033Y62D01*
X1028Y69D01*
X1022Y74D01*
X1014Y77D01*
X1006Y78D01*
X956D01*
X948Y77D01*
X940Y74D01*
X934Y69D01*
X929Y62D01*
X926Y55D01*
X925Y47D01*
X926Y39D01*
X929Y31D01*
X934Y25D01*
X940Y20D01*
X948Y16D01*
X956Y15D01*
X1006D01*
X1014Y16D01*
X1022Y20D01*
X1028Y25D01*
X1033Y31D01*
X1036Y37D01*
X1052D01*
X1055Y38D01*
X1058Y40D01*
X1139Y121D01*
X1141Y124D01*
X1142Y127D01*
Y558D01*
X1149D01*
Y622D01*
D02*
G37*
G36*
X724D02*
X691D01*
Y558D01*
X698D01*
Y131D01*
X623Y56D01*
X611D01*
X608Y62D01*
X603Y69D01*
X597Y74D01*
X589Y77D01*
X581Y78D01*
X531D01*
X523Y77D01*
X515Y74D01*
X509Y69D01*
X504Y62D01*
X501Y55D01*
X500Y47D01*
X501Y39D01*
X504Y31D01*
X509Y25D01*
X515Y20D01*
X523Y16D01*
X531Y15D01*
X581D01*
X589Y16D01*
X597Y20D01*
X603Y25D01*
X608Y31D01*
X611Y37D01*
X627D01*
X630Y38D01*
X633Y40D01*
X714Y121D01*
X716Y124D01*
X717Y127D01*
Y558D01*
X724D01*
Y622D01*
D02*
G37*
G36*
X1431Y78D02*
X1381D01*
X1373Y77D01*
X1365Y74D01*
X1359Y69D01*
X1354Y62D01*
X1351Y55D01*
X1350Y47D01*
X1351Y39D01*
X1354Y31D01*
X1359Y25D01*
X1365Y20D01*
X1373Y16D01*
X1381Y15D01*
X1431D01*
X1439Y16D01*
X1447Y20D01*
X1453Y25D01*
X1458Y31D01*
X1461Y39D01*
X1462Y47D01*
X1461Y55D01*
X1458Y62D01*
X1453Y69D01*
X1447Y74D01*
X1439Y77D01*
X1431Y78D01*
D02*
G37*
G36*
X255Y230D02*
X220D01*
Y195D01*
X255D01*
Y230D01*
D02*
G37*
G36*
X210D02*
X174D01*
Y195D01*
X210D01*
Y230D01*
D02*
G37*
G36*
X1243Y632D02*
X1197D01*
Y593D01*
X1204D01*
Y252D01*
X1205Y246D01*
X1208Y241D01*
X1280Y169D01*
X1280Y167D01*
X1275Y161D01*
X1272Y153D01*
X1271Y145D01*
X1272Y137D01*
X1275Y129D01*
X1280Y123D01*
X1287Y118D01*
X1294Y115D01*
X1302Y114D01*
X1352D01*
X1360Y115D01*
X1368Y118D01*
X1374Y123D01*
X1379Y129D01*
X1383Y137D01*
X1384Y145D01*
X1383Y153D01*
X1379Y161D01*
X1374Y167D01*
X1368Y172D01*
X1360Y175D01*
X1352Y176D01*
X1319D01*
X1236Y259D01*
Y593D01*
X1243D01*
Y632D01*
D02*
G37*
G36*
X1006Y322D02*
X956D01*
X948Y321D01*
X940Y318D01*
X934Y313D01*
X929Y306D01*
X926Y299D01*
X925Y291D01*
X926Y283D01*
X929Y275D01*
X934Y269D01*
X940Y264D01*
X948Y261D01*
X956Y259D01*
X1006D01*
X1014Y261D01*
X1022Y264D01*
X1028Y269D01*
X1033Y275D01*
X1036Y283D01*
X1037Y291D01*
X1036Y299D01*
X1033Y306D01*
X1028Y313D01*
X1022Y318D01*
X1014Y321D01*
X1006Y322D01*
D02*
G37*
G36*
X1750Y530D02*
X1715D01*
X1715Y524D01*
X1719Y515D01*
X1726Y506D01*
X1734Y500D01*
X1744Y496D01*
X1750Y495D01*
Y530D01*
D02*
G37*
G36*
X255D02*
X220D01*
Y495D01*
X225Y496D01*
X235Y500D01*
X244Y506D01*
X250Y515D01*
X254Y524D01*
X255Y530D01*
D02*
G37*
G36*
X210D02*
X175D01*
X175Y524D01*
X179Y515D01*
X186Y506D01*
X194Y500D01*
X204Y496D01*
X210Y495D01*
Y530D01*
D02*
G37*
G36*
X220Y575D02*
Y540D01*
X255D01*
X254Y546D01*
X250Y555D01*
X244Y564D01*
X235Y570D01*
X225Y575D01*
X220Y575D01*
D02*
G37*
G36*
X210D02*
X204Y575D01*
X194Y570D01*
X186Y564D01*
X179Y555D01*
X175Y546D01*
X175Y540D01*
X210D01*
Y575D01*
D02*
G37*
G36*
X1795Y530D02*
X1760D01*
Y495D01*
X1765Y496D01*
X1775Y500D01*
X1784Y506D01*
X1790Y515D01*
X1794Y524D01*
X1795Y530D01*
D02*
G37*
G36*
X1431Y542D02*
X1381D01*
X1373Y541D01*
X1365Y538D01*
X1359Y533D01*
X1354Y527D01*
X1351Y519D01*
X1350Y511D01*
X1351Y503D01*
X1354Y496D01*
X1359Y489D01*
X1365Y484D01*
X1373Y481D01*
X1381Y480D01*
X1431D01*
X1439Y481D01*
X1447Y484D01*
X1453Y489D01*
X1458Y496D01*
X1461Y503D01*
X1462Y511D01*
X1461Y519D01*
X1458Y527D01*
X1453Y533D01*
X1447Y538D01*
X1439Y541D01*
X1431Y542D01*
D02*
G37*
G36*
X1755Y372D02*
X1745Y371D01*
X1736Y367D01*
X1729Y361D01*
X1723Y353D01*
X1719Y345D01*
X1718Y335D01*
X1719Y325D01*
X1723Y317D01*
X1729Y309D01*
X1736Y303D01*
X1745Y299D01*
X1755Y298D01*
X1764Y299D01*
X1773Y303D01*
X1781Y309D01*
X1787Y317D01*
X1790Y325D01*
X1792Y335D01*
X1790Y345D01*
X1787Y353D01*
X1781Y361D01*
X1773Y367D01*
X1764Y371D01*
X1755Y372D01*
D02*
G37*
G36*
X215D02*
X205Y371D01*
X196Y367D01*
X189Y361D01*
X183Y353D01*
X179Y345D01*
X178Y335D01*
X179Y325D01*
X183Y317D01*
X189Y309D01*
X196Y303D01*
X205Y299D01*
X215Y298D01*
X224Y299D01*
X233Y303D01*
X241Y309D01*
X247Y317D01*
X250Y325D01*
X252Y335D01*
X250Y345D01*
X247Y353D01*
X241Y361D01*
X233Y367D01*
X224Y371D01*
X215Y372D01*
D02*
G37*
G36*
X1431Y322D02*
X1381D01*
X1373Y321D01*
X1365Y318D01*
X1359Y313D01*
X1354Y306D01*
X1351Y299D01*
X1350Y291D01*
X1351Y283D01*
X1354Y275D01*
X1359Y269D01*
X1365Y264D01*
X1373Y261D01*
X1381Y259D01*
X1431D01*
X1439Y261D01*
X1447Y264D01*
X1453Y269D01*
X1458Y275D01*
X1461Y283D01*
X1462Y291D01*
X1461Y299D01*
X1458Y306D01*
X1453Y313D01*
X1447Y318D01*
X1439Y321D01*
X1431Y322D01*
D02*
G37*
G36*
X1755Y472D02*
X1745Y471D01*
X1736Y467D01*
X1729Y461D01*
X1723Y453D01*
X1719Y445D01*
X1718Y435D01*
X1719Y425D01*
X1723Y417D01*
X1729Y409D01*
X1736Y403D01*
X1745Y399D01*
X1755Y398D01*
X1764Y399D01*
X1773Y403D01*
X1781Y409D01*
X1787Y417D01*
X1790Y425D01*
X1792Y435D01*
X1790Y445D01*
X1787Y453D01*
X1781Y461D01*
X1773Y467D01*
X1764Y471D01*
X1755Y472D01*
D02*
G37*
G36*
X215D02*
X205Y471D01*
X196Y467D01*
X189Y461D01*
X183Y453D01*
X179Y445D01*
X178Y435D01*
X179Y425D01*
X183Y417D01*
X189Y409D01*
X196Y403D01*
X205Y399D01*
X215Y398D01*
X224Y399D01*
X233Y403D01*
X241Y409D01*
X247Y417D01*
X250Y425D01*
X252Y435D01*
X250Y445D01*
X247Y453D01*
X241Y461D01*
X233Y467D01*
X224Y471D01*
X215Y472D01*
D02*
G37*
G36*
X1347Y639D02*
X1303D01*
Y592D01*
X1309D01*
Y397D01*
X1302D01*
X1294Y396D01*
X1287Y393D01*
X1280Y388D01*
X1275Y381D01*
X1272Y374D01*
X1271Y366D01*
X1272Y357D01*
X1275Y350D01*
X1280Y343D01*
X1287Y338D01*
X1294Y335D01*
X1302Y334D01*
X1352D01*
X1360Y335D01*
X1368Y338D01*
X1374Y343D01*
X1379Y350D01*
X1383Y357D01*
X1384Y366D01*
X1383Y374D01*
X1379Y381D01*
X1374Y388D01*
X1368Y393D01*
X1360Y396D01*
X1352Y397D01*
X1341D01*
Y592D01*
X1347D01*
Y639D01*
D02*
G37*
G36*
X215Y1072D02*
X205Y1071D01*
X196Y1067D01*
X189Y1061D01*
X183Y1053D01*
X179Y1045D01*
X178Y1035D01*
X179Y1025D01*
X183Y1017D01*
X189Y1009D01*
X196Y1003D01*
X205Y999D01*
X215Y998D01*
X224Y999D01*
X233Y1003D01*
X241Y1009D01*
X247Y1017D01*
X250Y1025D01*
X250Y1026D01*
X280D01*
Y1012D01*
X321D01*
Y1058D01*
X280D01*
Y1044D01*
X250D01*
X250Y1045D01*
X247Y1053D01*
X241Y1061D01*
X233Y1067D01*
X224Y1071D01*
X215Y1072D01*
D02*
G37*
G36*
X1760Y1475D02*
Y1440D01*
X1795D01*
X1794Y1446D01*
X1790Y1455D01*
X1784Y1464D01*
X1775Y1470D01*
X1765Y1474D01*
X1760Y1475D01*
D02*
G37*
G36*
X1750D02*
X1744Y1474D01*
X1734Y1470D01*
X1726Y1464D01*
X1719Y1455D01*
X1715Y1446D01*
X1715Y1440D01*
X1750D01*
Y1475D01*
D02*
G37*
G36*
X220D02*
Y1440D01*
X255D01*
X254Y1446D01*
X250Y1455D01*
X244Y1464D01*
X235Y1470D01*
X225Y1474D01*
X220Y1475D01*
D02*
G37*
G36*
X770Y1531D02*
X761Y1530D01*
X752Y1526D01*
X745Y1520D01*
X739Y1513D01*
X736Y1504D01*
X735Y1495D01*
X736Y1486D01*
X739Y1477D01*
X745Y1470D01*
X752Y1464D01*
X761Y1460D01*
X768Y1460D01*
Y1459D01*
X770D01*
X770Y1459D01*
X771Y1459D01*
X773D01*
Y1460D01*
X780Y1460D01*
X788Y1464D01*
X796Y1470D01*
X801Y1477D01*
X805Y1486D01*
X806Y1495D01*
X805Y1504D01*
X801Y1513D01*
X796Y1520D01*
X788Y1526D01*
X780Y1530D01*
X770Y1531D01*
D02*
G37*
G36*
X870D02*
X861Y1530D01*
X852Y1526D01*
X845Y1520D01*
X839Y1513D01*
X836Y1504D01*
X835Y1495D01*
X836Y1486D01*
X839Y1477D01*
X845Y1470D01*
X852Y1464D01*
X861Y1460D01*
X870Y1459D01*
X880Y1460D01*
X888Y1464D01*
X896Y1470D01*
X901Y1477D01*
X905Y1486D01*
X906Y1495D01*
X905Y1504D01*
X901Y1513D01*
X896Y1520D01*
X888Y1526D01*
X880Y1530D01*
X870Y1531D01*
D02*
G37*
G36*
X670D02*
X661Y1530D01*
X652Y1526D01*
X645Y1520D01*
X639Y1513D01*
X636Y1504D01*
X635Y1495D01*
X636Y1486D01*
X639Y1477D01*
X645Y1470D01*
X652Y1464D01*
X661Y1460D01*
X670Y1459D01*
X680Y1460D01*
X688Y1464D01*
X696Y1470D01*
X701Y1477D01*
X705Y1486D01*
X706Y1495D01*
X705Y1504D01*
X701Y1513D01*
X696Y1520D01*
X688Y1526D01*
X680Y1530D01*
X670Y1531D01*
D02*
G37*
G36*
X570D02*
X561Y1530D01*
X552Y1526D01*
X545Y1520D01*
X539Y1513D01*
X536Y1504D01*
X535Y1495D01*
X536Y1486D01*
X539Y1477D01*
X545Y1470D01*
X552Y1464D01*
X561Y1460D01*
X570Y1459D01*
X580Y1460D01*
X588Y1464D01*
X596Y1470D01*
X601Y1477D01*
X605Y1486D01*
X606Y1495D01*
X605Y1504D01*
X601Y1513D01*
X596Y1520D01*
X588Y1526D01*
X580Y1530D01*
X570Y1531D01*
D02*
G37*
G36*
X1750Y1430D02*
X1715D01*
X1715Y1424D01*
X1719Y1415D01*
X1726Y1406D01*
X1734Y1400D01*
X1744Y1396D01*
X1750Y1395D01*
Y1430D01*
D02*
G37*
G36*
X255D02*
X220D01*
Y1395D01*
X225Y1396D01*
X235Y1400D01*
X244Y1406D01*
X250Y1415D01*
X254Y1424D01*
X255Y1430D01*
D02*
G37*
G36*
X210D02*
X175D01*
X175Y1424D01*
X179Y1415D01*
X186Y1406D01*
X194Y1400D01*
X204Y1396D01*
X210Y1395D01*
Y1430D01*
D02*
G37*
G36*
X1795D02*
X1760D01*
Y1395D01*
X1765Y1396D01*
X1775Y1400D01*
X1784Y1406D01*
X1790Y1415D01*
X1794Y1424D01*
X1795Y1430D01*
D02*
G37*
G36*
X210Y1475D02*
X204Y1474D01*
X194Y1470D01*
X186Y1464D01*
X179Y1455D01*
X175Y1446D01*
X175Y1440D01*
X210D01*
Y1475D01*
D02*
G37*
G36*
X775Y1454D02*
Y1420D01*
X810D01*
X809Y1425D01*
X805Y1435D01*
X799Y1443D01*
X790Y1450D01*
X781Y1454D01*
X775Y1454D01*
D02*
G37*
G36*
X765D02*
X760Y1454D01*
X750Y1450D01*
X742Y1443D01*
X736Y1435D01*
X732Y1425D01*
X731Y1420D01*
X765D01*
Y1454D01*
D02*
G37*
G36*
X1755Y1572D02*
X1745Y1571D01*
X1736Y1567D01*
X1729Y1561D01*
X1723Y1553D01*
X1719Y1545D01*
X1718Y1535D01*
X1719Y1525D01*
X1723Y1517D01*
X1729Y1509D01*
X1736Y1503D01*
X1745Y1499D01*
X1755Y1498D01*
X1764Y1499D01*
X1773Y1503D01*
X1781Y1509D01*
X1787Y1517D01*
X1790Y1525D01*
X1792Y1535D01*
X1790Y1545D01*
X1787Y1553D01*
X1781Y1561D01*
X1773Y1567D01*
X1764Y1571D01*
X1755Y1572D01*
D02*
G37*
G36*
X870Y1831D02*
X861Y1830D01*
X852Y1826D01*
X845Y1820D01*
X839Y1813D01*
X836Y1804D01*
X835Y1795D01*
X836Y1786D01*
X839Y1777D01*
X845Y1770D01*
X852Y1764D01*
X861Y1760D01*
X870Y1759D01*
X880Y1760D01*
X888Y1764D01*
X896Y1770D01*
X901Y1777D01*
X905Y1786D01*
X906Y1795D01*
X905Y1804D01*
X901Y1813D01*
X896Y1820D01*
X888Y1826D01*
X880Y1830D01*
X870Y1831D01*
D02*
G37*
G36*
X770D02*
X761Y1830D01*
X752Y1826D01*
X745Y1820D01*
X739Y1813D01*
X736Y1804D01*
X735Y1795D01*
X736Y1786D01*
X739Y1777D01*
X745Y1770D01*
X752Y1764D01*
X761Y1760D01*
X770Y1759D01*
X780Y1760D01*
X788Y1764D01*
X796Y1770D01*
X801Y1777D01*
X805Y1786D01*
X806Y1795D01*
X805Y1804D01*
X801Y1813D01*
X796Y1820D01*
X788Y1826D01*
X780Y1830D01*
X770Y1831D01*
D02*
G37*
G36*
X670D02*
X661Y1830D01*
X652Y1826D01*
X645Y1820D01*
X639Y1813D01*
X636Y1804D01*
X635Y1795D01*
X636Y1786D01*
X639Y1777D01*
X645Y1770D01*
X652Y1764D01*
X661Y1760D01*
X670Y1759D01*
X680Y1760D01*
X688Y1764D01*
X696Y1770D01*
X701Y1777D01*
X705Y1786D01*
X706Y1795D01*
X705Y1804D01*
X701Y1813D01*
X696Y1820D01*
X688Y1826D01*
X680Y1830D01*
X670Y1831D01*
D02*
G37*
G36*
X1159Y1793D02*
X1137D01*
Y1772D01*
X1159D01*
Y1793D01*
D02*
G37*
G36*
X1683Y1847D02*
X1640D01*
Y1807D01*
X1640Y1803D01*
X1635Y1802D01*
X1628D01*
X1624Y1802D01*
X1620Y1805D01*
X1620Y1807D01*
Y1807D01*
Y1847D01*
X1577D01*
Y1803D01*
X1588D01*
Y1798D01*
X1577D01*
Y1752D01*
X1614D01*
X1616Y1752D01*
X1616Y1752D01*
X1617Y1752D01*
X1619Y1748D01*
X1619D01*
X1619Y1748D01*
X1619Y1748D01*
X1619Y1748D01*
X1619D01*
X1619D01*
X1619Y1748D01*
X1619Y1748D01*
X1619D01*
X1619D01*
X1619D01*
X1619D01*
X1619D01*
D01*
X1624Y1748D01*
X1638D01*
Y1775D01*
X1643D01*
Y1780D01*
X1666D01*
Y1798D01*
Y1799D01*
X1671Y1801D01*
X1722Y1750D01*
X1719Y1745D01*
X1718Y1735D01*
X1719Y1725D01*
X1723Y1717D01*
X1729Y1709D01*
X1736Y1703D01*
X1745Y1699D01*
X1755Y1698D01*
X1764Y1699D01*
X1773Y1703D01*
X1781Y1709D01*
X1787Y1717D01*
X1790Y1725D01*
X1792Y1735D01*
X1790Y1745D01*
X1787Y1753D01*
X1781Y1761D01*
X1773Y1767D01*
X1764Y1771D01*
X1755Y1772D01*
X1745Y1771D01*
X1736Y1767D01*
X1735Y1766D01*
X1683Y1818D01*
Y1847D01*
D02*
G37*
G36*
X393D02*
X350D01*
Y1807D01*
X350Y1807D01*
Y1805D01*
X346Y1802D01*
X342Y1802D01*
X334D01*
X330Y1803D01*
X330Y1807D01*
Y1847D01*
X287D01*
Y1818D01*
X235Y1766D01*
X233Y1767D01*
X224Y1771D01*
X215Y1772D01*
X205Y1771D01*
X196Y1767D01*
X189Y1761D01*
X183Y1753D01*
X179Y1745D01*
X178Y1735D01*
X179Y1731D01*
Y1639D01*
X178Y1635D01*
X179Y1631D01*
Y1539D01*
X178Y1535D01*
X179Y1525D01*
X183Y1517D01*
X189Y1509D01*
X196Y1503D01*
X205Y1499D01*
X215Y1498D01*
X224Y1499D01*
X233Y1503D01*
X241Y1509D01*
X247Y1517D01*
X250Y1525D01*
X252Y1535D01*
X251Y1539D01*
Y1619D01*
X824D01*
X936Y1506D01*
X936Y1504D01*
X935Y1495D01*
X936Y1486D01*
X939Y1477D01*
X945Y1470D01*
X952Y1464D01*
X961Y1460D01*
X970Y1459D01*
X980Y1460D01*
X988Y1464D01*
X996Y1470D01*
X1001Y1477D01*
X1005Y1486D01*
X1006Y1495D01*
X1005Y1501D01*
X1009Y1506D01*
X1010Y1506D01*
X1106D01*
Y1490D01*
X1144D01*
Y1555D01*
X1106D01*
Y1539D01*
X998D01*
X992Y1538D01*
X987Y1534D01*
X981Y1529D01*
X980Y1530D01*
X970Y1531D01*
X961Y1530D01*
X960Y1529D01*
X842Y1647D01*
X837Y1650D01*
X830Y1651D01*
X251D01*
Y1731D01*
X252Y1735D01*
X250Y1745D01*
X248Y1750D01*
X298Y1801D01*
X303Y1799D01*
Y1798D01*
Y1780D01*
X327D01*
Y1775D01*
X332D01*
Y1748D01*
X350D01*
X350Y1748D01*
Y1748D01*
X350D01*
X351D01*
X353Y1752D01*
X353Y1752D01*
X353Y1752D01*
X353Y1752D01*
X356Y1752D01*
X392D01*
Y1798D01*
X382D01*
Y1803D01*
X393D01*
Y1847D01*
D02*
G37*
G36*
X1192Y1793D02*
X1169D01*
Y1772D01*
X1192D01*
Y1793D01*
D02*
G37*
G36*
X1159Y1762D02*
X1137D01*
Y1742D01*
X1159D01*
Y1762D01*
D02*
G37*
G36*
X1755Y1672D02*
X1745Y1671D01*
X1736Y1667D01*
X1729Y1661D01*
X1723Y1653D01*
X1719Y1645D01*
X1718Y1635D01*
X1719Y1625D01*
X1723Y1617D01*
X1729Y1609D01*
X1736Y1603D01*
X1745Y1599D01*
X1755Y1598D01*
X1764Y1599D01*
X1773Y1603D01*
X1781Y1609D01*
X1787Y1617D01*
X1790Y1625D01*
X1792Y1635D01*
X1790Y1645D01*
X1787Y1653D01*
X1781Y1661D01*
X1773Y1667D01*
X1764Y1671D01*
X1755Y1672D01*
D02*
G37*
G36*
X970Y1831D02*
X961Y1830D01*
X952Y1826D01*
X945Y1820D01*
X939Y1813D01*
X936Y1804D01*
X935Y1795D01*
X936Y1786D01*
X939Y1777D01*
X945Y1770D01*
X952Y1764D01*
X961Y1760D01*
X970Y1759D01*
X980Y1760D01*
X981Y1761D01*
X1024Y1718D01*
X1029Y1715D01*
X1035Y1714D01*
X1062D01*
Y1708D01*
X1069D01*
Y1657D01*
X1071Y1650D01*
X1074Y1645D01*
X1106Y1613D01*
Y1585D01*
X1144D01*
Y1650D01*
X1115D01*
X1102Y1663D01*
Y1708D01*
X1109D01*
Y1752D01*
X1062D01*
Y1746D01*
X1042D01*
X1004Y1784D01*
X1005Y1786D01*
X1006Y1795D01*
X1005Y1804D01*
X1001Y1813D01*
X996Y1820D01*
X988Y1826D01*
X980Y1830D01*
X970Y1831D01*
D02*
G37*
G36*
X1192Y1762D02*
X1169D01*
Y1742D01*
X1192D01*
Y1762D01*
D02*
G37*
G36*
X570Y1831D02*
X561Y1830D01*
X552Y1826D01*
X545Y1820D01*
X539Y1813D01*
X536Y1804D01*
X535Y1795D01*
X536Y1786D01*
X539Y1777D01*
X545Y1770D01*
X552Y1764D01*
X561Y1760D01*
X570Y1759D01*
X580Y1760D01*
X588Y1764D01*
X596Y1770D01*
X601Y1777D01*
X605Y1786D01*
X606Y1795D01*
X605Y1804D01*
X601Y1813D01*
X596Y1820D01*
X588Y1826D01*
X580Y1830D01*
X570Y1831D01*
D02*
G37*
G36*
X1666Y1770D02*
X1648D01*
Y1748D01*
X1666D01*
Y1770D01*
D02*
G37*
G36*
X322D02*
X303D01*
Y1748D01*
X322D01*
Y1770D01*
D02*
G37*
G36*
X448Y1177D02*
X402D01*
Y1167D01*
X383D01*
Y1177D01*
X337D01*
Y1158D01*
X324Y1144D01*
X250D01*
X250Y1145D01*
X247Y1153D01*
X241Y1161D01*
X233Y1167D01*
X224Y1171D01*
X215Y1172D01*
X205Y1171D01*
X196Y1167D01*
X189Y1161D01*
X183Y1153D01*
X179Y1145D01*
X178Y1135D01*
X179Y1125D01*
X183Y1117D01*
X189Y1109D01*
X196Y1103D01*
X205Y1099D01*
X215Y1098D01*
X224Y1099D01*
X233Y1103D01*
X241Y1109D01*
X247Y1117D01*
X250Y1125D01*
X250Y1126D01*
X328D01*
X331Y1127D01*
X334Y1129D01*
X343Y1138D01*
X383D01*
Y1148D01*
X402D01*
Y1138D01*
X448D01*
Y1148D01*
X547D01*
X549Y1143D01*
X545Y1140D01*
X539Y1133D01*
X536Y1124D01*
X535Y1115D01*
X536Y1106D01*
X539Y1097D01*
X545Y1090D01*
X546Y1089D01*
X544Y1084D01*
X525D01*
X521Y1083D01*
X519Y1081D01*
X506Y1069D01*
X467D01*
Y1083D01*
X428D01*
Y1044D01*
X424Y1041D01*
X422Y1043D01*
Y1083D01*
X383D01*
Y1044D01*
X370D01*
Y1058D01*
X329D01*
Y1012D01*
X370D01*
Y1026D01*
X379D01*
X383Y1022D01*
Y988D01*
X383Y987D01*
Y985D01*
Y983D01*
X383Y982D01*
Y944D01*
X370D01*
Y958D01*
X329D01*
Y912D01*
X370D01*
Y926D01*
X383D01*
Y887D01*
X419D01*
X421Y887D01*
X422Y887D01*
X422Y887D01*
X424Y883D01*
X424D01*
X424Y883D01*
X424Y883D01*
X424Y883D01*
X424D01*
X424D01*
X424Y883D01*
X424Y883D01*
X424D01*
X425D01*
X425D01*
X425D01*
X425D01*
D01*
X429Y883D01*
X443D01*
Y910D01*
X448D01*
Y915D01*
X471D01*
Y930D01*
X471Y935D01*
Y935D01*
Y935D01*
Y935D01*
Y935D01*
Y935D01*
X471Y935D01*
X471Y935D01*
Y935D01*
Y936D01*
Y937D01*
Y937D01*
X470Y938D01*
X469Y938D01*
X467Y939D01*
X467Y942D01*
Y951D01*
X651D01*
X661Y941D01*
Y770D01*
X661Y770D01*
X652Y766D01*
X645Y760D01*
X639Y753D01*
X636Y744D01*
X635Y735D01*
X636Y726D01*
X639Y717D01*
X645Y710D01*
X652Y704D01*
X661Y700D01*
X670Y699D01*
X680Y700D01*
X688Y704D01*
X696Y710D01*
X701Y717D01*
X705Y726D01*
X706Y735D01*
X705Y744D01*
X701Y753D01*
X696Y760D01*
X688Y766D01*
X680Y770D01*
X680Y770D01*
Y945D01*
X679Y948D01*
X679Y948D01*
X677Y951D01*
X661Y966D01*
X659Y968D01*
X655Y969D01*
X471D01*
X467Y973D01*
Y978D01*
X467Y981D01*
X469Y982D01*
X470Y983D01*
X471Y983D01*
Y983D01*
X471Y984D01*
Y984D01*
Y985D01*
Y985D01*
Y985D01*
X471Y985D01*
X471Y985D01*
Y985D01*
Y985D01*
Y985D01*
Y985D01*
X471Y990D01*
Y1005D01*
X448D01*
Y1015D01*
X471D01*
Y1030D01*
X471Y1035D01*
Y1035D01*
Y1035D01*
Y1035D01*
Y1035D01*
Y1035D01*
X471Y1035D01*
X471Y1035D01*
Y1035D01*
Y1036D01*
Y1037D01*
Y1037D01*
X470Y1038D01*
X469Y1038D01*
X467Y1039D01*
X467Y1042D01*
Y1051D01*
X510D01*
X514Y1052D01*
X516Y1054D01*
X529Y1066D01*
X544D01*
X546Y1061D01*
X545Y1060D01*
X539Y1053D01*
X536Y1044D01*
X535Y1035D01*
X536Y1026D01*
X539Y1017D01*
X545Y1010D01*
X552Y1004D01*
X561Y1000D01*
X570Y999D01*
X580Y1000D01*
X588Y1004D01*
X596Y1010D01*
X601Y1017D01*
X605Y1026D01*
X606Y1035D01*
X605Y1044D01*
X601Y1053D01*
X596Y1060D01*
X595Y1061D01*
X596Y1066D01*
X627D01*
X639Y1053D01*
X639Y1053D01*
X636Y1044D01*
X635Y1035D01*
X636Y1026D01*
X639Y1017D01*
X645Y1010D01*
X652Y1004D01*
X661Y1000D01*
X670Y999D01*
X680Y1000D01*
X688Y1004D01*
X696Y1010D01*
X701Y1017D01*
X705Y1026D01*
X706Y1035D01*
X705Y1044D01*
X701Y1053D01*
X696Y1060D01*
X688Y1066D01*
X680Y1070D01*
X670Y1071D01*
X661Y1070D01*
X652Y1066D01*
X652Y1066D01*
X637Y1081D01*
X634Y1083D01*
X630Y1084D01*
X596D01*
X595Y1089D01*
X596Y1090D01*
X601Y1097D01*
X605Y1106D01*
X606Y1115D01*
X605Y1124D01*
X601Y1133D01*
X596Y1140D01*
X592Y1143D01*
X594Y1148D01*
X624D01*
X639Y1133D01*
X639Y1133D01*
X636Y1124D01*
X635Y1115D01*
X636Y1106D01*
X639Y1097D01*
X645Y1090D01*
X652Y1084D01*
X661Y1080D01*
X670Y1079D01*
X680Y1080D01*
X688Y1084D01*
X696Y1090D01*
X701Y1097D01*
X705Y1106D01*
X706Y1115D01*
X705Y1124D01*
X701Y1133D01*
X696Y1140D01*
X688Y1146D01*
X680Y1150D01*
X670Y1151D01*
X661Y1150D01*
X652Y1146D01*
X652Y1146D01*
X635Y1164D01*
X632Y1166D01*
X628Y1167D01*
X448D01*
Y1177D01*
D02*
G37*
G36*
X1144Y1175D02*
X1106D01*
Y1159D01*
X998D01*
X992Y1158D01*
X987Y1154D01*
X981Y1149D01*
X980Y1150D01*
X970Y1151D01*
X961Y1150D01*
X952Y1146D01*
X945Y1140D01*
X940Y1133D01*
X937Y1133D01*
X934Y1133D01*
X933Y1134D01*
X901Y1166D01*
X899Y1168D01*
X895Y1169D01*
X815D01*
X812Y1168D01*
X809Y1166D01*
X788Y1146D01*
X788Y1146D01*
X780Y1150D01*
X770Y1151D01*
X761Y1150D01*
X752Y1146D01*
X745Y1140D01*
X739Y1133D01*
X736Y1124D01*
X735Y1115D01*
X736Y1106D01*
X739Y1097D01*
X745Y1090D01*
X752Y1084D01*
X761Y1080D01*
X770Y1079D01*
X780Y1080D01*
X788Y1084D01*
X796Y1090D01*
X801Y1097D01*
X805Y1106D01*
X806Y1115D01*
X805Y1124D01*
X801Y1133D01*
X801Y1133D01*
X819Y1151D01*
X850D01*
X852Y1146D01*
X852Y1146D01*
X845Y1140D01*
X839Y1133D01*
X836Y1124D01*
X835Y1115D01*
X836Y1106D01*
X839Y1097D01*
X839Y1097D01*
X821Y1078D01*
X819Y1075D01*
X818Y1072D01*
Y1007D01*
X813Y1005D01*
X801Y1017D01*
X801Y1017D01*
X805Y1026D01*
X806Y1035D01*
X805Y1044D01*
X801Y1053D01*
X796Y1060D01*
X788Y1066D01*
X780Y1070D01*
X770Y1071D01*
X761Y1070D01*
X752Y1066D01*
X745Y1060D01*
X739Y1053D01*
X736Y1044D01*
X735Y1035D01*
X736Y1026D01*
X739Y1017D01*
X745Y1010D01*
X752Y1004D01*
X761Y1000D01*
X770Y999D01*
X780Y1000D01*
X788Y1004D01*
X788Y1004D01*
X806Y987D01*
Y755D01*
X804Y754D01*
X801Y754D01*
X796Y760D01*
X788Y766D01*
X780Y770D01*
X770Y771D01*
X761Y770D01*
X752Y766D01*
X745Y760D01*
X739Y753D01*
X736Y744D01*
X735Y735D01*
X736Y726D01*
X739Y717D01*
X745Y710D01*
X752Y704D01*
X761Y700D01*
X761Y700D01*
Y694D01*
X745Y678D01*
X434D01*
X431Y678D01*
X430Y677D01*
X428Y675D01*
X406Y654D01*
X404Y651D01*
X403Y648D01*
Y622D01*
X396D01*
Y558D01*
X429D01*
Y622D01*
X422D01*
Y644D01*
X438Y660D01*
X525D01*
X527Y655D01*
X516Y644D01*
X514Y641D01*
X513Y638D01*
Y625D01*
X511Y623D01*
X508Y622D01*
X506D01*
X505D01*
X504D01*
X501Y622D01*
X471D01*
Y558D01*
X478D01*
Y397D01*
X452D01*
X444Y396D01*
X437Y393D01*
X430Y388D01*
X425Y381D01*
X422Y374D01*
X421Y366D01*
X422Y357D01*
X425Y350D01*
X430Y343D01*
X437Y338D01*
X444Y335D01*
X452Y334D01*
X502D01*
X510Y335D01*
X518Y338D01*
X524Y343D01*
X529Y350D01*
X533Y357D01*
X534Y366D01*
X533Y374D01*
X529Y381D01*
X524Y388D01*
X518Y393D01*
X510Y396D01*
X502Y397D01*
X497D01*
Y500D01*
X502Y501D01*
X504Y496D01*
X509Y489D01*
X515Y484D01*
X523Y481D01*
X531Y480D01*
X581D01*
X589Y481D01*
X597Y484D01*
X603Y489D01*
X608Y496D01*
X611Y503D01*
X612Y511D01*
X611Y519D01*
X608Y527D01*
X612Y530D01*
X621Y521D01*
Y229D01*
X546Y154D01*
X532D01*
X529Y161D01*
X524Y167D01*
X518Y172D01*
X510Y175D01*
X502Y176D01*
X452D01*
X444Y175D01*
X437Y172D01*
X430Y167D01*
X425Y161D01*
X422Y153D01*
X421Y145D01*
X422Y137D01*
X425Y129D01*
X430Y123D01*
X437Y118D01*
X444Y115D01*
X452Y114D01*
X502D01*
X510Y115D01*
X518Y118D01*
X524Y123D01*
X529Y129D01*
X532Y136D01*
X550D01*
X554Y137D01*
X557Y139D01*
X636Y219D01*
X638Y221D01*
X639Y225D01*
Y525D01*
X639Y528D01*
X638Y529D01*
X636Y531D01*
X614Y554D01*
X617Y558D01*
X619Y558D01*
X649D01*
Y622D01*
X640D01*
X640Y627D01*
X649Y636D01*
X800D01*
X804Y637D01*
X806Y639D01*
X833Y666D01*
X835Y668D01*
X836Y672D01*
Y713D01*
X841Y715D01*
X845Y710D01*
X852Y704D01*
X861Y700D01*
X861Y700D01*
Y674D01*
X831Y644D01*
X829Y641D01*
X828Y638D01*
Y622D01*
X821D01*
Y558D01*
X854D01*
Y622D01*
X847D01*
Y634D01*
X877Y664D01*
X879Y667D01*
X880Y670D01*
Y700D01*
X880Y700D01*
X888Y704D01*
X896Y710D01*
X901Y716D01*
X904Y716D01*
X906Y715D01*
Y670D01*
X907Y666D01*
X909Y664D01*
X938Y634D01*
Y625D01*
X936Y623D01*
X933Y622D01*
X931D01*
X930D01*
X929D01*
X926Y622D01*
X896D01*
Y558D01*
X903D01*
Y397D01*
X877D01*
X869Y396D01*
X862Y393D01*
X855Y388D01*
X850Y381D01*
X847Y374D01*
X846Y366D01*
X847Y357D01*
X850Y350D01*
X855Y343D01*
X862Y338D01*
X869Y335D01*
X877Y334D01*
X927D01*
X935Y335D01*
X943Y338D01*
X949Y343D01*
X954Y350D01*
X958Y357D01*
X959Y366D01*
X958Y374D01*
X954Y381D01*
X949Y388D01*
X943Y393D01*
X935Y396D01*
X927Y397D01*
X922D01*
Y500D01*
X927Y501D01*
X929Y496D01*
X934Y489D01*
X940Y484D01*
X948Y481D01*
X956Y480D01*
X1006D01*
X1014Y481D01*
X1022Y484D01*
X1028Y489D01*
X1033Y496D01*
X1036Y503D01*
X1037Y511D01*
X1036Y519D01*
X1033Y527D01*
X1037Y530D01*
X1046Y521D01*
Y229D01*
X971Y154D01*
X957D01*
X954Y161D01*
X949Y167D01*
X943Y172D01*
X935Y175D01*
X927Y176D01*
X877D01*
X869Y175D01*
X862Y172D01*
X855Y167D01*
X850Y161D01*
X847Y153D01*
X846Y145D01*
X847Y137D01*
X850Y129D01*
X855Y123D01*
X862Y118D01*
X869Y115D01*
X877Y114D01*
X927D01*
X935Y115D01*
X943Y118D01*
X949Y123D01*
X954Y129D01*
X957Y136D01*
X975D01*
X979Y137D01*
X982Y139D01*
X1061Y219D01*
X1063Y221D01*
X1064Y225D01*
Y525D01*
X1064Y528D01*
X1063Y529D01*
X1061Y531D01*
X1039Y554D01*
X1042Y558D01*
X1044Y558D01*
X1074D01*
Y622D01*
X1067D01*
Y637D01*
X1066Y641D01*
X1064Y644D01*
X1046Y661D01*
X1044Y663D01*
X1040Y664D01*
X951D01*
X936Y679D01*
Y713D01*
X941Y715D01*
X945Y710D01*
X952Y704D01*
X961Y700D01*
X970Y699D01*
X980Y700D01*
X988Y704D01*
X996Y710D01*
X1001Y717D01*
X1005Y726D01*
X1006Y735D01*
X1005Y741D01*
X1009Y746D01*
X1010Y746D01*
X1106D01*
Y730D01*
X1124D01*
X1197Y657D01*
Y638D01*
X1243D01*
Y677D01*
X1223D01*
X1144Y757D01*
Y795D01*
X1106D01*
Y779D01*
X998D01*
X992Y778D01*
X987Y774D01*
X981Y769D01*
X980Y770D01*
X970Y771D01*
X961Y770D01*
X952Y766D01*
X945Y760D01*
X941Y755D01*
X936Y757D01*
Y1013D01*
X941Y1015D01*
X945Y1010D01*
X952Y1004D01*
X961Y1000D01*
X970Y999D01*
X980Y1000D01*
X981Y1001D01*
X1024Y958D01*
X1029Y955D01*
X1035Y954D01*
X1062D01*
Y948D01*
X1069D01*
Y897D01*
X1071Y890D01*
X1074Y885D01*
X1106Y853D01*
Y825D01*
X1144D01*
Y890D01*
X1115D01*
X1102Y903D01*
Y948D01*
X1109D01*
Y992D01*
X1062D01*
Y986D01*
X1042D01*
X1004Y1024D01*
X1005Y1026D01*
X1006Y1035D01*
X1005Y1044D01*
X1001Y1053D01*
X996Y1060D01*
X988Y1066D01*
X980Y1070D01*
X970Y1071D01*
X961Y1070D01*
X952Y1066D01*
X945Y1060D01*
X941Y1055D01*
X936Y1057D01*
Y1093D01*
X941Y1095D01*
X945Y1090D01*
X952Y1084D01*
X961Y1080D01*
X970Y1079D01*
X980Y1080D01*
X988Y1084D01*
X996Y1090D01*
X1001Y1097D01*
X1005Y1106D01*
X1006Y1115D01*
X1005Y1121D01*
X1009Y1126D01*
X1010Y1126D01*
X1106D01*
Y1110D01*
X1144D01*
Y1175D01*
D02*
G37*
G36*
X1392Y1222D02*
X1318D01*
Y1148D01*
X1392D01*
Y1222D01*
D02*
G37*
G36*
X215Y1272D02*
X205Y1271D01*
X196Y1267D01*
X189Y1261D01*
X183Y1253D01*
X179Y1245D01*
X178Y1235D01*
X179Y1225D01*
X183Y1217D01*
X189Y1209D01*
X196Y1203D01*
X205Y1199D01*
X215Y1198D01*
X224Y1199D01*
X233Y1203D01*
X241Y1209D01*
X247Y1217D01*
X250Y1225D01*
X250Y1226D01*
X324D01*
X337Y1212D01*
Y1183D01*
X383D01*
Y1222D01*
X353D01*
X334Y1242D01*
X331Y1244D01*
X328Y1244D01*
X250D01*
X250Y1245D01*
X247Y1253D01*
X241Y1261D01*
X233Y1267D01*
X224Y1271D01*
X215Y1272D01*
D02*
G37*
G36*
X970Y1451D02*
X961Y1450D01*
X952Y1446D01*
X945Y1440D01*
X939Y1433D01*
X936Y1424D01*
X935Y1415D01*
X936Y1406D01*
X939Y1397D01*
X945Y1390D01*
X952Y1384D01*
X961Y1380D01*
X970Y1379D01*
X980Y1380D01*
X981Y1381D01*
X1024Y1338D01*
X1029Y1335D01*
X1035Y1334D01*
X1062D01*
Y1328D01*
X1069D01*
Y1277D01*
X1071Y1270D01*
X1074Y1265D01*
X1106Y1233D01*
Y1205D01*
X1144D01*
Y1270D01*
X1115D01*
X1102Y1283D01*
Y1328D01*
X1109D01*
Y1372D01*
X1062D01*
Y1366D01*
X1042D01*
X1004Y1404D01*
X1005Y1406D01*
X1006Y1415D01*
X1005Y1424D01*
X1001Y1433D01*
X996Y1440D01*
X988Y1446D01*
X980Y1450D01*
X970Y1451D01*
D02*
G37*
G36*
X1755Y1272D02*
X1745Y1271D01*
X1736Y1267D01*
X1729Y1261D01*
X1723Y1253D01*
X1719Y1245D01*
X1718Y1235D01*
X1719Y1225D01*
X1723Y1217D01*
X1729Y1209D01*
X1736Y1203D01*
X1745Y1199D01*
X1755Y1198D01*
X1764Y1199D01*
X1773Y1203D01*
X1781Y1209D01*
X1787Y1217D01*
X1790Y1225D01*
X1792Y1235D01*
X1790Y1245D01*
X1787Y1253D01*
X1781Y1261D01*
X1773Y1267D01*
X1764Y1271D01*
X1755Y1272D01*
D02*
G37*
G36*
X215Y1372D02*
X205Y1371D01*
X196Y1367D01*
X189Y1361D01*
X183Y1353D01*
X179Y1345D01*
X178Y1335D01*
X179Y1325D01*
X183Y1317D01*
X189Y1309D01*
X196Y1303D01*
X205Y1299D01*
X215Y1298D01*
X224Y1299D01*
X233Y1303D01*
X241Y1309D01*
X247Y1317D01*
X250Y1325D01*
X250Y1326D01*
X406D01*
X416Y1316D01*
Y1222D01*
X402D01*
Y1183D01*
X448D01*
Y1222D01*
X434D01*
Y1320D01*
X433Y1324D01*
X431Y1326D01*
X416Y1342D01*
X413Y1344D01*
X410Y1344D01*
X250D01*
X250Y1345D01*
X247Y1353D01*
X241Y1361D01*
X233Y1367D01*
X224Y1371D01*
X215Y1372D01*
D02*
G37*
G36*
X1373Y1122D02*
X1337D01*
X1318Y1104D01*
Y1094D01*
X1287D01*
Y1108D01*
X1248D01*
Y1062D01*
X1287D01*
Y1076D01*
X1318D01*
Y1066D01*
X1337Y1048D01*
X1373D01*
X1392Y1066D01*
Y1104D01*
X1373Y1122D01*
D02*
G37*
G36*
X1192Y1033D02*
X1169D01*
Y1012D01*
X1192D01*
Y1033D01*
D02*
G37*
G36*
X1159D02*
X1137D01*
Y1012D01*
X1159D01*
Y1033D01*
D02*
G37*
G36*
X1750Y1130D02*
X1715D01*
X1715Y1124D01*
X1719Y1115D01*
X1726Y1106D01*
X1734Y1100D01*
X1744Y1096D01*
X1750Y1095D01*
Y1130D01*
D02*
G37*
G36*
X1760Y1175D02*
Y1140D01*
X1795D01*
X1794Y1146D01*
X1790Y1155D01*
X1784Y1164D01*
X1775Y1170D01*
X1765Y1174D01*
X1760Y1175D01*
D02*
G37*
G36*
X1750D02*
X1744Y1174D01*
X1734Y1170D01*
X1726Y1164D01*
X1719Y1155D01*
X1715Y1146D01*
X1715Y1140D01*
X1750D01*
Y1175D01*
D02*
G37*
G36*
X1795Y1130D02*
X1760D01*
Y1095D01*
X1765Y1096D01*
X1775Y1100D01*
X1784Y1106D01*
X1790Y1115D01*
X1794Y1124D01*
X1795Y1130D01*
D02*
G37*
G36*
X670Y1451D02*
X661Y1450D01*
X652Y1446D01*
X645Y1440D01*
X639Y1433D01*
X636Y1424D01*
X635Y1415D01*
X636Y1406D01*
X639Y1397D01*
X645Y1390D01*
X652Y1384D01*
X661Y1380D01*
X670Y1379D01*
X680Y1380D01*
X688Y1384D01*
X696Y1390D01*
X701Y1397D01*
X705Y1406D01*
X706Y1415D01*
X705Y1424D01*
X701Y1433D01*
X696Y1440D01*
X688Y1446D01*
X680Y1450D01*
X670Y1451D01*
D02*
G37*
G36*
X570D02*
X561Y1450D01*
X552Y1446D01*
X545Y1440D01*
X539Y1433D01*
X536Y1424D01*
X535Y1415D01*
X536Y1406D01*
X539Y1397D01*
X545Y1390D01*
X552Y1384D01*
X561Y1380D01*
X570Y1379D01*
X580Y1380D01*
X588Y1384D01*
X596Y1390D01*
X601Y1397D01*
X605Y1406D01*
X606Y1415D01*
X605Y1424D01*
X601Y1433D01*
X596Y1440D01*
X588Y1446D01*
X580Y1450D01*
X570Y1451D01*
D02*
G37*
G36*
X810Y1410D02*
X775D01*
Y1376D01*
X781Y1376D01*
X790Y1380D01*
X799Y1387D01*
X805Y1395D01*
X809Y1405D01*
X810Y1410D01*
D02*
G37*
G36*
X1192Y1413D02*
X1169D01*
Y1392D01*
X1192D01*
Y1413D01*
D02*
G37*
G36*
X1159D02*
X1137D01*
Y1392D01*
X1159D01*
Y1413D01*
D02*
G37*
G36*
X870Y1451D02*
X861Y1450D01*
X852Y1446D01*
X845Y1440D01*
X839Y1433D01*
X836Y1424D01*
X835Y1415D01*
X836Y1406D01*
X839Y1397D01*
X845Y1390D01*
X852Y1384D01*
X861Y1380D01*
X870Y1379D01*
X880Y1380D01*
X888Y1384D01*
X896Y1390D01*
X901Y1397D01*
X905Y1406D01*
X906Y1415D01*
X905Y1424D01*
X901Y1433D01*
X896Y1440D01*
X888Y1446D01*
X880Y1450D01*
X870Y1451D01*
D02*
G37*
G36*
X1188Y1714D02*
X1141D01*
Y1671D01*
X1188D01*
Y1683D01*
X1194D01*
X1211Y1666D01*
Y1319D01*
X1206Y1317D01*
X1204Y1319D01*
X1201Y1321D01*
X1197Y1322D01*
X1188D01*
Y1334D01*
X1141D01*
Y1291D01*
X1188D01*
Y1303D01*
X1194D01*
X1211Y1286D01*
Y1108D01*
X1203D01*
Y1062D01*
X1211D01*
Y959D01*
X1194Y942D01*
X1188D01*
Y954D01*
X1141D01*
Y911D01*
X1188D01*
Y923D01*
X1197D01*
X1201Y924D01*
X1204Y926D01*
X1226Y949D01*
X1228Y952D01*
X1229Y955D01*
Y1062D01*
X1242D01*
Y1108D01*
X1229D01*
Y1290D01*
Y1670D01*
X1228Y1674D01*
X1226Y1676D01*
X1204Y1699D01*
X1201Y1701D01*
X1197Y1702D01*
X1188D01*
Y1714D01*
D02*
G37*
G36*
X1755Y1372D02*
X1745Y1371D01*
X1736Y1367D01*
X1729Y1361D01*
X1723Y1353D01*
X1719Y1345D01*
X1718Y1335D01*
X1719Y1325D01*
X1723Y1317D01*
X1729Y1309D01*
X1736Y1303D01*
X1745Y1299D01*
X1755Y1298D01*
X1764Y1299D01*
X1773Y1303D01*
X1781Y1309D01*
X1787Y1317D01*
X1790Y1325D01*
X1792Y1335D01*
X1790Y1345D01*
X1787Y1353D01*
X1781Y1361D01*
X1773Y1367D01*
X1764Y1371D01*
X1755Y1372D01*
D02*
G37*
G36*
X1159Y1382D02*
X1137D01*
Y1362D01*
X1159D01*
Y1382D01*
D02*
G37*
G36*
X765Y1410D02*
X731D01*
X732Y1405D01*
X736Y1395D01*
X742Y1387D01*
X750Y1380D01*
X760Y1376D01*
X765Y1376D01*
Y1410D01*
D02*
G37*
G36*
X1192Y1382D02*
X1169D01*
Y1362D01*
X1192D01*
Y1382D01*
D02*
G37*
%LPD*%
G36*
X845Y1010D02*
X852Y1004D01*
X861Y1000D01*
X870Y999D01*
X880Y1000D01*
X888Y1004D01*
X888Y1004D01*
X906Y987D01*
Y755D01*
X904Y754D01*
X901Y754D01*
X896Y760D01*
X888Y766D01*
X880Y770D01*
X870Y771D01*
X861Y770D01*
X852Y766D01*
X845Y760D01*
X841Y755D01*
X836Y757D01*
Y1013D01*
X841Y1015D01*
X845Y1010D01*
D02*
G37*
G36*
X918Y1124D02*
Y1007D01*
X913Y1005D01*
X901Y1017D01*
X901Y1017D01*
X905Y1026D01*
X906Y1035D01*
X905Y1044D01*
X901Y1053D01*
X896Y1060D01*
X888Y1066D01*
X880Y1070D01*
X870Y1071D01*
X861Y1070D01*
X852Y1066D01*
X845Y1060D01*
X841Y1055D01*
X836Y1057D01*
Y1068D01*
X852Y1084D01*
X852Y1084D01*
X861Y1080D01*
X870Y1079D01*
X880Y1080D01*
X888Y1084D01*
X896Y1090D01*
X901Y1097D01*
X905Y1106D01*
X906Y1115D01*
X905Y1124D01*
X901Y1133D01*
X899Y1136D01*
X903Y1139D01*
X918Y1124D01*
D02*
G37*
G36*
X630Y643D02*
X623Y636D01*
X621Y633D01*
X621Y630D01*
Y626D01*
X616Y622D01*
X615D01*
X614D01*
X611Y622D01*
X581D01*
Y558D01*
X588D01*
Y558D01*
X589Y554D01*
X591Y551D01*
X600Y542D01*
X597Y538D01*
X589Y541D01*
X581Y542D01*
X531D01*
X523Y541D01*
X515Y538D01*
X509Y533D01*
X504Y527D01*
X502Y521D01*
X497Y522D01*
Y555D01*
X499Y557D01*
X502Y558D01*
X504D01*
X505D01*
X506D01*
X509Y558D01*
X539D01*
Y622D01*
X532D01*
Y634D01*
X546Y648D01*
X628D01*
X630Y643D01*
D02*
G37*
G36*
X1048Y634D02*
Y625D01*
X1046Y623D01*
X1043Y622D01*
X1041D01*
X1040D01*
X1039D01*
X1036Y622D01*
X1006D01*
Y558D01*
X1013D01*
Y558D01*
X1014Y554D01*
X1016Y551D01*
X1025Y542D01*
X1022Y538D01*
X1014Y541D01*
X1006Y542D01*
X956D01*
X948Y541D01*
X940Y538D01*
X934Y533D01*
X929Y527D01*
X927Y521D01*
X922Y522D01*
Y555D01*
X924Y557D01*
X927Y558D01*
X929D01*
X930D01*
X931D01*
X934Y558D01*
X964D01*
Y622D01*
X957D01*
Y637D01*
X956Y641D01*
X959Y646D01*
X1036D01*
X1048Y634D01*
D02*
G37*
D10*
X1597Y1775D02*
D03*
X1643D02*
D03*
X373D02*
D03*
X327D02*
D03*
X1268Y1085D02*
D03*
X1222D02*
D03*
X1363Y760D02*
D03*
X1317D02*
D03*
X402Y910D02*
D03*
X448D02*
D03*
Y960D02*
D03*
X402D02*
D03*
Y1010D02*
D03*
X448D02*
D03*
Y1060D02*
D03*
X402D02*
D03*
D11*
X1661Y1825D02*
D03*
X1598D02*
D03*
X308D02*
D03*
X371D02*
D03*
D12*
X1058Y590D02*
D03*
X1132D02*
D03*
X948D02*
D03*
X1022D02*
D03*
X838D02*
D03*
X912D02*
D03*
X633D02*
D03*
X707D02*
D03*
X523D02*
D03*
X597D02*
D03*
X413D02*
D03*
X487D02*
D03*
D13*
X1362Y694D02*
D03*
X1288D02*
D03*
X1325Y616D02*
D03*
D14*
X1220Y658D02*
D03*
Y612D02*
D03*
X360Y1157D02*
D03*
Y1203D02*
D03*
X425Y1157D02*
D03*
Y1203D02*
D03*
D15*
X1125Y763D02*
D03*
Y857D02*
D03*
Y1143D02*
D03*
Y1237D02*
D03*
Y1523D02*
D03*
Y1617D02*
D03*
D16*
X1164Y933D02*
D03*
Y1007D02*
D03*
X1086Y970D02*
D03*
X1164Y1313D02*
D03*
Y1387D02*
D03*
X1086Y1350D02*
D03*
X1164Y1693D02*
D03*
Y1767D02*
D03*
X1086Y1730D02*
D03*
D17*
X350Y1035D02*
D03*
X300D02*
D03*
X350Y935D02*
D03*
X300D02*
D03*
D18*
X1661Y1825D02*
X1751Y1735D01*
X1598Y1776D02*
Y1825D01*
X218Y1735D02*
X308Y1825D01*
X215Y1735D02*
X218D01*
X371Y1776D02*
X373Y1775D01*
X371Y1776D02*
Y1825D01*
D19*
X215Y1535D02*
Y1635D01*
Y1735D01*
D20*
X1751D02*
X1755D01*
X970Y1495D02*
X998Y1523D01*
X1125D01*
X970Y1795D02*
X1035Y1730D01*
X1086D01*
X970Y1115D02*
X998Y1143D01*
X1125D01*
X970Y1415D02*
X1035Y1350D01*
X1086D01*
Y1657D02*
Y1730D01*
Y1657D02*
X1125Y1617D01*
X1086Y1277D02*
Y1350D01*
Y1277D02*
X1125Y1237D01*
X1086Y897D02*
Y970D01*
Y897D02*
X1125Y857D01*
X970Y1035D02*
X1035Y970D01*
X1086D01*
X970Y735D02*
X998Y763D01*
X1125D01*
X215Y1635D02*
X830D01*
X970Y1495D01*
X1362Y694D02*
X1363Y695D01*
X1325Y368D02*
Y616D01*
Y368D02*
X1327Y366D01*
X1125Y753D02*
Y763D01*
Y753D02*
X1220Y658D01*
Y252D02*
Y612D01*
Y252D02*
X1327Y145D01*
D21*
X465Y378D02*
X477Y366D01*
X902D02*
X912Y376D01*
X630Y593D02*
X633Y590D01*
X477Y366D02*
X487Y376D01*
D22*
X912D02*
Y590D01*
X597Y558D02*
Y590D01*
X1022Y558D02*
Y590D01*
X477Y145D02*
X550D01*
X630Y225D01*
X902Y145D02*
X975D01*
X1055Y225D01*
X556Y47D02*
X627D01*
X707Y127D01*
Y590D01*
X981Y47D02*
X1052D01*
X1132Y127D01*
Y590D01*
X350Y1157D02*
X628D01*
X670Y1115D01*
X215Y1335D02*
X410D01*
X425Y1320D01*
Y1203D02*
Y1320D01*
X215Y1135D02*
X328D01*
X350Y1157D01*
X215Y1235D02*
X328D01*
X360Y1203D01*
X630Y225D02*
Y525D01*
X597Y558D02*
X630Y525D01*
X838Y590D02*
Y638D01*
X870Y670D01*
Y735D01*
X487Y376D02*
Y590D01*
X1055Y225D02*
Y525D01*
X1022Y558D02*
X1055Y525D01*
X870Y1035D02*
X915Y990D01*
X795Y657D02*
X815Y677D01*
Y990D01*
X770Y1035D02*
X815Y990D01*
X800Y645D02*
X827Y672D01*
Y1072D01*
X870Y1115D01*
X1040Y655D02*
X1058Y637D01*
Y590D02*
Y637D01*
X770Y1115D02*
X815Y1160D01*
X895D01*
X927Y1128D01*
X413Y590D02*
Y648D01*
X523Y590D02*
Y638D01*
X542Y657D01*
X795D01*
X630Y593D02*
Y630D01*
X645Y645D01*
X800D01*
X770Y690D02*
Y735D01*
X434Y669D02*
X749D01*
X770Y690D01*
X413Y648D02*
X434Y669D01*
X915Y670D02*
Y990D01*
Y670D02*
X948Y637D01*
Y590D02*
Y637D01*
X927Y675D02*
Y1128D01*
Y675D02*
X947Y655D01*
X1040D01*
X215Y1035D02*
X300D01*
X300Y1035D01*
X215Y935D02*
X300D01*
X215Y935D02*
X215Y935D01*
X350Y1035D02*
X402D01*
Y1010D02*
Y1035D01*
Y1060D01*
X350Y935D02*
X402D01*
Y910D02*
Y935D01*
Y960D01*
X448Y1060D02*
X510D01*
X525Y1075D01*
X630D01*
X670Y1035D01*
X448Y960D02*
X655D01*
X670Y945D01*
Y735D02*
Y945D01*
X1164Y1693D02*
X1197D01*
X1220Y1670D01*
X1164Y1313D02*
X1197D01*
X1220Y1290D01*
Y1670D01*
X1164Y933D02*
X1197D01*
X1220Y955D01*
Y1290D01*
X1268Y1085D02*
X1355D01*
X1363Y695D02*
Y760D01*
X1260D02*
X1317D01*
D23*
X1406Y47D02*
D03*
X1327Y366D02*
D03*
X1406Y511D02*
D03*
Y291D02*
D03*
X1327Y145D02*
D03*
X981Y47D02*
D03*
X902Y366D02*
D03*
X981Y511D02*
D03*
Y291D02*
D03*
X902Y145D02*
D03*
X556Y47D02*
D03*
X477Y366D02*
D03*
X556Y511D02*
D03*
Y291D02*
D03*
X477Y145D02*
D03*
D24*
X1355Y985D02*
D03*
Y1085D02*
D03*
D25*
Y1185D02*
D03*
D26*
X1755Y235D02*
D03*
X215D02*
D03*
D27*
X1755Y335D02*
D03*
Y435D02*
D03*
Y535D02*
D03*
Y635D02*
D03*
Y735D02*
D03*
Y835D02*
D03*
Y935D02*
D03*
Y1035D02*
D03*
Y1135D02*
D03*
Y1235D02*
D03*
Y1335D02*
D03*
Y1435D02*
D03*
Y1535D02*
D03*
Y1635D02*
D03*
Y1735D02*
D03*
X215Y335D02*
D03*
Y435D02*
D03*
Y535D02*
D03*
Y635D02*
D03*
Y735D02*
D03*
Y835D02*
D03*
Y935D02*
D03*
Y1035D02*
D03*
Y1135D02*
D03*
Y1235D02*
D03*
Y1335D02*
D03*
Y1435D02*
D03*
Y1535D02*
D03*
Y1635D02*
D03*
Y1735D02*
D03*
D28*
X970Y1035D02*
D03*
X870D02*
D03*
X770D02*
D03*
X670D02*
D03*
X570D02*
D03*
X970Y735D02*
D03*
X870D02*
D03*
X770D02*
D03*
X670D02*
D03*
X570D02*
D03*
X970Y1415D02*
D03*
X870D02*
D03*
X770D02*
D03*
X670D02*
D03*
X570D02*
D03*
X970Y1115D02*
D03*
X870D02*
D03*
X770D02*
D03*
X670D02*
D03*
X570D02*
D03*
X970Y1795D02*
D03*
X870D02*
D03*
X770D02*
D03*
X670D02*
D03*
X570D02*
D03*
X970Y1495D02*
D03*
X870D02*
D03*
X770D02*
D03*
X670D02*
D03*
X570D02*
D03*
D29*
X79Y1890D02*
D03*
X79Y79D02*
D03*
X1890D02*
D03*
X1890Y1890D02*
D03*
D30*
X244Y59D02*
D03*
X1724D02*
D03*
X1909Y244D02*
D03*
Y429D02*
D03*
Y614D02*
D03*
Y799D02*
D03*
Y984D02*
D03*
Y1169D02*
D03*
Y1354D02*
D03*
Y1539D02*
D03*
Y1724D02*
D03*
X1724Y1909D02*
D03*
X1539D02*
D03*
X1354D02*
D03*
X1169D02*
D03*
X984D02*
D03*
X799D02*
D03*
X614D02*
D03*
X429D02*
D03*
X244D02*
D03*
X59Y1724D02*
D03*
Y1539D02*
D03*
Y1354D02*
D03*
Y1169D02*
D03*
Y984D02*
D03*
Y799D02*
D03*
Y614D02*
D03*
Y429D02*
D03*
Y244D02*
D03*
D31*
X1260Y760D02*
D03*
M02*
