M48
;Layer_Color=6321
;FILE_FORMAT=2:3
INCH,LZ
;TYPE=PLATED
T1F00S00C0.014
T2F00S00C0.028
T4F00S00C0.041
T5F00S00C0.080
%
T01
X00244Y00059
X00429
X00059Y00244
Y00429
X00614Y00059
X00799
X00984
X01169
X01354
X01539
X01724
X01909Y00244
Y00429
Y00614
Y00799
Y00984
Y01169
Y01354
Y01539
Y01724
X01724Y01909
X01539
X01354
X01169
X00984
X00799
X00614
X0065Y0147
X0071Y013
Y0127
X00745
Y013
X0078
Y0127
X00815
Y013
X0085
Y0127
X00985Y01355
X01Y0139
Y0142
Y0145
Y0148
X0103
Y0145
Y0142
Y0139
Y0136
X01187Y01337
X0128Y0135
Y0132
Y0129
X01495Y0134
Y01375
Y0141
Y01445
X0129Y00955
Y0092
Y00885
X01145
Y0092
Y00955
X00825Y01025
X007
X00059Y00984
Y01169
Y01354
Y01539
Y01724
X00244Y01909
X00429
X00059Y00799
Y00614
T02
X00755Y00698
Y0084
T04
X00215Y00235
Y00335
Y00435
Y00535
X01755
Y00435
Y00335
Y00235
Y00635
Y00735
Y00835
Y00935
Y01035
Y01135
Y01235
Y01335
Y01435
Y01535
Y01635
Y01735
X00215
Y01635
Y01535
Y01435
Y01335
Y01235
Y01135
Y01035
Y00935
Y00835
Y00735
Y00635
T05
X00079Y00079
X0189
X0189Y0189
X00079
X-10866Y02756
M30
