G04 Layer_Color=8150272*
%FSLAX23Y23*%
%MOIN*%
G70*
G01*
G75*
%ADD35C,0.158*%
%ADD53C,0.063*%
%ADD54R,0.069X0.069*%
%ADD55C,0.069*%
%ADD56O,0.087X0.146*%
%ADD57O,0.146X0.087*%
%ADD58O,0.165X0.087*%
%ADD60C,0.100*%
%ADD61C,0.058*%
G36*
X1890Y1969D02*
X1890Y1890D01*
X1969D01*
X1969Y79D01*
X1890D01*
Y-0D01*
X79Y-0D01*
Y79D01*
X-0Y79D01*
X-0Y1890D01*
X79Y1890D01*
X79Y1969D01*
X1890Y1969D01*
D02*
G37*
%LPC*%
G36*
X174Y1850D02*
X166Y1850D01*
X154Y1846D01*
X144Y1841D01*
X135Y1833D01*
X128Y1824D01*
X122Y1814D01*
X119Y1803D01*
X118Y1794D01*
X118Y177D01*
X118D01*
Y174D01*
X119Y166D01*
X122Y154D01*
X128Y144D01*
X135Y135D01*
X144Y128D01*
X154Y122D01*
X166Y119D01*
X174Y118D01*
X1791Y118D01*
Y118D01*
X1794D01*
X1803Y119D01*
X1814Y122D01*
X1824Y128D01*
X1833Y135D01*
X1841Y144D01*
X1846Y154D01*
X1850Y166D01*
X1850Y174D01*
X1850Y1794D01*
X1850Y1803D01*
X1846Y1814D01*
X1841Y1824D01*
X1833Y1833D01*
X1824Y1841D01*
X1814Y1846D01*
X1803Y1850D01*
X1794Y1850D01*
X174Y1850D01*
D02*
G37*
G36*
X1850Y118D02*
X1794D01*
X1794Y118D01*
X1850D01*
Y118D01*
D02*
G37*
G36*
X118Y1850D02*
Y1850D01*
X118Y1850D01*
X118D01*
D02*
G37*
G36*
X118Y174D02*
Y118D01*
X118D01*
X118Y118D01*
Y174D01*
X118Y174D01*
D02*
G37*
%LPD*%
D35*
X79Y79D02*
D03*
X1890D02*
D03*
X1890Y1890D02*
D03*
X79D02*
D03*
D53*
X755Y698D02*
D03*
Y840D02*
D03*
D54*
X1755Y235D02*
D03*
X215D02*
D03*
D55*
X1755Y335D02*
D03*
Y435D02*
D03*
Y535D02*
D03*
Y635D02*
D03*
Y735D02*
D03*
Y835D02*
D03*
Y935D02*
D03*
Y1035D02*
D03*
Y1135D02*
D03*
Y1235D02*
D03*
Y1335D02*
D03*
Y1435D02*
D03*
Y1535D02*
D03*
Y1635D02*
D03*
Y1735D02*
D03*
X215Y335D02*
D03*
Y435D02*
D03*
Y535D02*
D03*
Y635D02*
D03*
Y735D02*
D03*
Y835D02*
D03*
Y935D02*
D03*
Y1035D02*
D03*
Y1135D02*
D03*
Y1235D02*
D03*
Y1335D02*
D03*
Y1435D02*
D03*
Y1535D02*
D03*
Y1635D02*
D03*
Y1735D02*
D03*
D56*
X1174Y432D02*
D03*
D57*
X985Y294D02*
D03*
D58*
Y530D02*
D03*
D60*
X-10866Y2756D02*
D03*
D61*
X244Y59D02*
D03*
X429D02*
D03*
X614D02*
D03*
X799D02*
D03*
X984D02*
D03*
X1169D02*
D03*
X1354D02*
D03*
X1539D02*
D03*
X1724D02*
D03*
X1909Y244D02*
D03*
Y429D02*
D03*
Y614D02*
D03*
Y799D02*
D03*
Y984D02*
D03*
Y1169D02*
D03*
Y1354D02*
D03*
Y1539D02*
D03*
Y1724D02*
D03*
X1724Y1909D02*
D03*
X1539D02*
D03*
X1354D02*
D03*
X1169D02*
D03*
X984D02*
D03*
X799D02*
D03*
X614D02*
D03*
X429D02*
D03*
X244D02*
D03*
X59Y1724D02*
D03*
Y1539D02*
D03*
Y1354D02*
D03*
Y1169D02*
D03*
Y984D02*
D03*
Y799D02*
D03*
Y614D02*
D03*
Y429D02*
D03*
Y244D02*
D03*
M02*
