G04 Layer_Color=13813960*
%FSLAX23Y23*%
%MOIN*%
G70*
G01*
G75*
%ADD45C,0.010*%
%ADD46C,0.024*%
%ADD47C,0.008*%
G36*
X1144Y1051D02*
X1145Y1051D01*
X1146Y1051D01*
X1147Y1050D01*
X1147Y1050D01*
X1148Y1050D01*
X1148Y1050D01*
X1148Y1050D01*
X1149Y1050D01*
X1149Y1050D01*
X1149Y1050D01*
X1149Y1050D01*
X1149Y1049D01*
X1150Y1049D01*
X1151Y1048D01*
X1152Y1047D01*
X1152Y1047D01*
X1153Y1046D01*
X1153Y1046D01*
X1153Y1045D01*
X1153Y1045D01*
X1153Y1045D01*
X1153Y1045D01*
X1153Y1045D01*
X1154Y1044D01*
X1154Y1043D01*
X1155Y1041D01*
X1155Y1040D01*
X1155Y1040D01*
X1155Y1039D01*
X1155Y1039D01*
Y1039D01*
X1155Y1038D01*
Y1038D01*
Y1038D01*
Y1038D01*
X1155Y1037D01*
X1155Y1035D01*
X1155Y1034D01*
X1154Y1034D01*
X1154Y1033D01*
X1154Y1033D01*
X1154Y1032D01*
X1154Y1032D01*
X1154Y1032D01*
X1154Y1031D01*
X1154Y1031D01*
X1154Y1031D01*
Y1031D01*
X1153Y1030D01*
X1152Y1029D01*
X1152Y1028D01*
X1151Y1028D01*
X1151Y1027D01*
X1151Y1027D01*
X1151Y1027D01*
X1150Y1027D01*
X1150Y1027D01*
X1150Y1026D01*
X1150Y1026D01*
X1150Y1026D01*
X1150Y1026D01*
X1149Y1026D01*
X1149Y1026D01*
X1148Y1025D01*
X1146Y1025D01*
X1145Y1025D01*
X1145Y1025D01*
X1144Y1025D01*
X1144Y1025D01*
X1144D01*
X1143Y1025D01*
X1143D01*
X1142Y1025D01*
X1142Y1025D01*
X1141Y1025D01*
X1140Y1025D01*
X1140Y1025D01*
X1139Y1025D01*
X1139Y1025D01*
X1138Y1026D01*
X1138Y1026D01*
X1137Y1026D01*
X1137Y1026D01*
X1137Y1026D01*
X1137Y1027D01*
X1136Y1027D01*
X1136Y1027D01*
X1136Y1027D01*
X1136Y1027D01*
X1135Y1028D01*
X1135Y1028D01*
X1134Y1029D01*
X1134Y1030D01*
X1133Y1031D01*
X1133Y1031D01*
X1133Y1032D01*
X1133Y1032D01*
X1133Y1032D01*
X1132Y1033D01*
X1132Y1033D01*
X1132Y1033D01*
Y1033D01*
X1136Y1034D01*
X1136Y1033D01*
X1136Y1033D01*
X1136Y1032D01*
X1136Y1032D01*
X1137Y1031D01*
X1137Y1031D01*
X1137Y1031D01*
X1137Y1030D01*
X1138Y1030D01*
X1138Y1030D01*
X1138Y1030D01*
X1138Y1029D01*
X1138Y1029D01*
X1138Y1029D01*
X1138Y1029D01*
X1138Y1029D01*
X1139Y1029D01*
X1139Y1029D01*
X1140Y1028D01*
X1141Y1028D01*
X1142Y1028D01*
X1142Y1028D01*
X1143Y1027D01*
X1143D01*
X1143Y1027D01*
X1143D01*
X1144Y1027D01*
X1145Y1028D01*
X1146Y1028D01*
X1146Y1028D01*
X1147Y1028D01*
X1147Y1028D01*
X1147Y1028D01*
X1147Y1029D01*
X1148Y1029D01*
X1148Y1029D01*
X1148D01*
X1148Y1029D01*
X1149Y1030D01*
X1149Y1030D01*
X1150Y1031D01*
X1150Y1031D01*
X1150Y1032D01*
X1150Y1032D01*
X1151Y1032D01*
X1151Y1032D01*
Y1032D01*
X1151Y1033D01*
X1151Y1034D01*
X1151Y1035D01*
X1151Y1036D01*
X1151Y1036D01*
X1151Y1037D01*
Y1037D01*
X1152Y1037D01*
Y1038D01*
Y1038D01*
Y1038D01*
Y1038D01*
X1151Y1039D01*
X1151Y1040D01*
X1151Y1041D01*
X1151Y1041D01*
X1151Y1042D01*
X1151Y1042D01*
X1151Y1043D01*
X1151Y1043D01*
X1151Y1043D01*
X1151Y1043D01*
Y1043D01*
X1150Y1044D01*
X1150Y1045D01*
X1150Y1045D01*
X1149Y1046D01*
X1149Y1046D01*
X1148Y1046D01*
X1148Y1047D01*
X1148Y1047D01*
X1148D01*
X1147Y1047D01*
X1146Y1048D01*
X1146Y1048D01*
X1145Y1048D01*
X1144Y1048D01*
X1144Y1048D01*
X1143D01*
X1143Y1048D01*
X1143D01*
X1142Y1048D01*
X1141Y1048D01*
X1141Y1048D01*
X1140Y1048D01*
X1139Y1047D01*
X1139Y1047D01*
X1139Y1047D01*
X1139Y1047D01*
X1138Y1046D01*
X1138Y1046D01*
X1137Y1045D01*
X1137Y1044D01*
X1137Y1044D01*
X1136Y1043D01*
X1136Y1043D01*
X1136Y1043D01*
X1136Y1043D01*
X1136Y1043D01*
Y1043D01*
X1133Y1044D01*
X1133Y1044D01*
X1133Y1045D01*
X1134Y1045D01*
X1134Y1046D01*
X1134Y1046D01*
X1134Y1047D01*
X1135Y1047D01*
X1135Y1048D01*
X1135Y1048D01*
X1136Y1048D01*
X1136Y1049D01*
X1136Y1049D01*
X1136Y1049D01*
X1136Y1049D01*
X1136Y1049D01*
X1136Y1049D01*
X1137Y1049D01*
X1137Y1050D01*
X1138Y1050D01*
X1139Y1050D01*
X1140Y1051D01*
X1141Y1051D01*
X1141Y1051D01*
X1142Y1051D01*
X1142Y1051D01*
X1142Y1051D01*
X1143Y1051D01*
X1143D01*
X1144Y1051D01*
D02*
G37*
G36*
X1123Y1051D02*
X1124Y1050D01*
X1124Y1050D01*
X1125Y1050D01*
X1125Y1050D01*
X1126Y1050D01*
X1126Y1049D01*
X1126Y1049D01*
X1126Y1049D01*
X1126Y1049D01*
X1126Y1049D01*
X1127Y1049D01*
X1127Y1048D01*
X1128Y1047D01*
X1128Y1047D01*
X1129Y1046D01*
X1129Y1045D01*
X1129Y1045D01*
X1129Y1045D01*
X1129Y1044D01*
X1129Y1044D01*
X1129Y1044D01*
Y1044D01*
X1126Y1044D01*
X1126Y1044D01*
X1126Y1045D01*
X1125Y1046D01*
X1125Y1046D01*
X1125Y1046D01*
X1125Y1047D01*
X1124Y1047D01*
X1124Y1047D01*
X1124Y1047D01*
X1123Y1048D01*
X1123Y1048D01*
X1122Y1048D01*
X1122Y1048D01*
X1122Y1048D01*
X1121D01*
X1121Y1048D01*
X1120Y1048D01*
X1120Y1048D01*
X1119Y1048D01*
X1119Y1047D01*
X1119Y1047D01*
X1118Y1047D01*
X1118Y1047D01*
X1118Y1047D01*
X1118Y1046D01*
X1117Y1046D01*
X1117Y1045D01*
X1117Y1045D01*
X1117Y1044D01*
Y1044D01*
Y1044D01*
Y1044D01*
Y1044D01*
X1117Y1043D01*
X1117Y1043D01*
X1118Y1042D01*
X1118Y1042D01*
X1118Y1041D01*
X1119Y1041D01*
X1119Y1041D01*
X1119Y1041D01*
X1119D01*
X1119Y1041D01*
X1120Y1040D01*
X1121Y1040D01*
X1121Y1040D01*
X1122Y1040D01*
X1122Y1040D01*
X1123D01*
X1123Y1040D01*
X1123D01*
X1123Y1037D01*
X1123Y1037D01*
X1122Y1037D01*
X1122Y1037D01*
X1122Y1037D01*
X1121Y1037D01*
X1121D01*
X1120Y1037D01*
X1120Y1037D01*
X1119Y1037D01*
X1118Y1037D01*
X1118Y1037D01*
X1118Y1036D01*
X1118Y1036D01*
X1117Y1036D01*
X1117Y1036D01*
X1117Y1035D01*
X1116Y1034D01*
X1116Y1034D01*
X1116Y1033D01*
X1116Y1033D01*
X1116Y1033D01*
Y1033D01*
Y1033D01*
Y1032D01*
X1116Y1032D01*
X1116Y1031D01*
X1116Y1030D01*
X1117Y1030D01*
X1117Y1029D01*
X1117Y1029D01*
X1117Y1029D01*
X1118Y1029D01*
X1118Y1028D01*
X1119Y1028D01*
X1119Y1028D01*
X1120Y1027D01*
X1121Y1027D01*
X1121Y1027D01*
X1121Y1027D01*
X1121D01*
X1122Y1027D01*
X1123Y1027D01*
X1123Y1028D01*
X1124Y1028D01*
X1124Y1028D01*
X1124Y1028D01*
X1124Y1028D01*
X1124Y1028D01*
X1125Y1029D01*
X1125Y1029D01*
X1126Y1030D01*
X1126Y1031D01*
X1126Y1031D01*
X1126Y1032D01*
X1126Y1032D01*
X1126Y1032D01*
X1126Y1032D01*
X1126Y1032D01*
Y1032D01*
X1129Y1032D01*
X1129Y1031D01*
X1129Y1031D01*
X1129Y1030D01*
X1129Y1029D01*
X1128Y1028D01*
X1128Y1028D01*
X1128Y1028D01*
X1128Y1027D01*
X1127Y1027D01*
X1127Y1027D01*
X1127Y1027D01*
X1127Y1027D01*
X1127Y1027D01*
X1127Y1027D01*
X1126Y1026D01*
X1126Y1026D01*
X1126Y1026D01*
X1125Y1025D01*
X1124Y1025D01*
X1123Y1025D01*
X1123Y1025D01*
X1123Y1025D01*
X1122Y1025D01*
X1122Y1025D01*
X1122Y1025D01*
X1121D01*
X1121Y1025D01*
X1120Y1025D01*
X1119Y1025D01*
X1119Y1025D01*
X1118Y1025D01*
X1118Y1025D01*
X1117Y1026D01*
X1117Y1026D01*
X1116Y1026D01*
X1116Y1026D01*
X1116Y1026D01*
X1116Y1027D01*
X1115Y1027D01*
X1115Y1027D01*
X1115Y1027D01*
X1115Y1027D01*
X1115Y1027D01*
X1114Y1028D01*
X1114Y1028D01*
X1114Y1029D01*
X1113Y1029D01*
X1113Y1030D01*
X1113Y1031D01*
X1113Y1031D01*
X1113Y1031D01*
X1113Y1032D01*
X1113Y1032D01*
X1113Y1032D01*
Y1032D01*
Y1033D01*
Y1033D01*
X1113Y1033D01*
X1113Y1034D01*
X1113Y1035D01*
X1113Y1036D01*
X1114Y1036D01*
X1114Y1036D01*
X1114Y1037D01*
X1114Y1037D01*
X1114Y1037D01*
X1115Y1038D01*
X1116Y1038D01*
X1116Y1038D01*
X1117Y1039D01*
X1117Y1039D01*
X1117Y1039D01*
X1117Y1039D01*
X1117Y1039D01*
X1117D01*
X1117Y1039D01*
X1116Y1040D01*
X1116Y1040D01*
X1116Y1040D01*
X1115Y1041D01*
X1115Y1041D01*
X1115Y1041D01*
X1115Y1041D01*
X1115Y1042D01*
X1114Y1042D01*
X1114Y1043D01*
X1114Y1043D01*
X1114Y1043D01*
X1114Y1044D01*
Y1044D01*
Y1044D01*
X1114Y1045D01*
X1114Y1045D01*
X1114Y1046D01*
X1114Y1046D01*
X1115Y1047D01*
X1115Y1047D01*
X1115Y1047D01*
X1115Y1047D01*
X1115Y1048D01*
X1116Y1048D01*
X1116Y1049D01*
X1117Y1049D01*
X1117Y1049D01*
X1117Y1050D01*
X1118Y1050D01*
X1118Y1050D01*
X1118D01*
X1118Y1050D01*
X1119Y1050D01*
X1120Y1050D01*
X1120Y1051D01*
X1121Y1051D01*
X1121Y1051D01*
X1122D01*
X1123Y1051D01*
D02*
G37*
G36*
X1070Y345D02*
X1071Y345D01*
X1071Y345D01*
X1072Y344D01*
X1073Y344D01*
X1073Y344D01*
X1073Y344D01*
X1073Y344D01*
X1073Y344D01*
X1073D01*
X1074Y343D01*
X1074Y343D01*
X1075Y342D01*
X1075Y342D01*
X1076Y341D01*
X1076Y341D01*
X1076Y341D01*
X1076Y341D01*
X1076Y341D01*
Y341D01*
X1076Y340D01*
X1077Y339D01*
X1077Y338D01*
X1077Y338D01*
X1077Y337D01*
Y337D01*
X1077Y337D01*
Y336D01*
Y336D01*
Y336D01*
Y336D01*
X1077Y336D01*
X1077Y335D01*
X1077Y334D01*
X1077Y334D01*
X1077Y333D01*
X1076Y333D01*
X1076Y332D01*
X1076Y332D01*
X1076Y331D01*
X1076Y331D01*
X1075Y331D01*
X1075Y331D01*
X1075Y330D01*
X1075Y330D01*
X1075Y330D01*
X1075Y330D01*
X1075Y330D01*
X1074Y329D01*
X1074Y329D01*
X1073Y329D01*
X1073Y329D01*
X1072Y328D01*
X1071Y328D01*
X1071Y328D01*
X1071Y328D01*
X1070Y328D01*
X1070Y328D01*
X1070Y328D01*
X1070D01*
X1069Y328D01*
X1068Y328D01*
X1068Y328D01*
X1067Y328D01*
X1067Y328D01*
X1066Y329D01*
X1066Y329D01*
X1066Y329D01*
X1066D01*
X1066Y329D01*
X1065Y329D01*
X1065Y330D01*
X1064Y330D01*
X1064Y331D01*
X1064Y331D01*
X1063Y331D01*
X1063Y331D01*
Y331D01*
X1063Y330D01*
X1063Y329D01*
X1064Y329D01*
X1064Y328D01*
X1064Y328D01*
X1064Y327D01*
X1064Y327D01*
X1064Y327D01*
X1064Y326D01*
X1064Y326D01*
X1064Y326D01*
X1064Y326D01*
X1064Y325D01*
X1064Y325D01*
Y325D01*
X1065Y325D01*
X1065Y324D01*
X1065Y323D01*
X1066Y323D01*
X1066Y323D01*
X1066Y322D01*
X1067Y322D01*
X1067Y322D01*
X1067Y322D01*
X1067Y322D01*
X1068Y322D01*
X1068Y321D01*
X1069Y321D01*
X1069Y321D01*
X1069D01*
X1070Y321D01*
X1071Y322D01*
X1071Y322D01*
X1072Y322D01*
X1072Y322D01*
X1072Y322D01*
X1072Y323D01*
X1072Y323D01*
X1073Y323D01*
X1073Y323D01*
X1073Y324D01*
X1073Y324D01*
X1073Y325D01*
X1074Y325D01*
X1074Y325D01*
X1074Y325D01*
Y325D01*
X1077Y325D01*
X1077Y324D01*
X1076Y323D01*
X1076Y322D01*
X1075Y322D01*
X1075Y321D01*
X1075Y321D01*
X1075Y321D01*
X1075Y321D01*
X1074Y321D01*
X1074Y320D01*
X1074Y320D01*
X1074Y320D01*
X1074Y320D01*
X1073Y319D01*
X1072Y319D01*
X1071Y319D01*
X1071Y319D01*
X1070Y319D01*
X1070D01*
X1070Y319D01*
X1069D01*
X1069Y319D01*
X1068Y319D01*
X1067Y319D01*
X1067Y319D01*
X1066Y319D01*
X1066Y320D01*
X1065Y320D01*
X1065Y320D01*
X1064Y320D01*
X1064Y321D01*
X1064Y321D01*
X1063Y321D01*
X1063Y321D01*
X1063Y322D01*
X1063Y322D01*
X1063Y322D01*
X1062Y322D01*
X1062Y323D01*
X1062Y324D01*
X1061Y325D01*
X1061Y326D01*
X1061Y327D01*
X1061Y328D01*
X1061Y328D01*
X1060Y329D01*
X1060Y330D01*
X1060Y331D01*
X1060Y331D01*
Y332D01*
X1060Y332D01*
Y332D01*
Y332D01*
Y332D01*
Y333D01*
X1060Y334D01*
X1060Y335D01*
X1060Y336D01*
X1061Y337D01*
X1061Y338D01*
X1061Y338D01*
X1061Y339D01*
X1061Y340D01*
X1062Y340D01*
X1062Y341D01*
X1062Y341D01*
X1062Y341D01*
X1062Y342D01*
X1063Y342D01*
X1063Y342D01*
X1063Y342D01*
X1063Y343D01*
X1064Y343D01*
X1064Y343D01*
X1065Y344D01*
X1065Y344D01*
X1066Y344D01*
X1066Y344D01*
X1067Y345D01*
X1067Y345D01*
X1068Y345D01*
X1068Y345D01*
X1068Y345D01*
X1069D01*
X1069Y345D01*
X1069D01*
X1070Y345D01*
D02*
G37*
G36*
X1048D02*
X1048Y345D01*
X1049Y345D01*
X1050Y345D01*
X1050Y344D01*
X1051Y344D01*
X1051Y344D01*
X1052Y344D01*
X1052Y344D01*
X1053Y343D01*
X1053Y343D01*
X1053Y343D01*
X1053Y343D01*
X1054Y343D01*
X1054Y343D01*
X1054Y343D01*
X1054Y342D01*
X1055Y342D01*
X1055Y341D01*
X1055Y341D01*
X1056Y340D01*
X1057Y339D01*
X1057Y338D01*
X1057Y338D01*
X1057Y337D01*
X1057Y337D01*
X1057Y337D01*
X1057Y337D01*
X1057Y336D01*
Y336D01*
X1054Y336D01*
X1054Y336D01*
X1054Y337D01*
X1054Y337D01*
X1053Y338D01*
X1053Y338D01*
X1053Y338D01*
X1053Y339D01*
X1052Y339D01*
X1052Y339D01*
X1052Y340D01*
X1052Y340D01*
X1052Y340D01*
X1052Y340D01*
X1051Y340D01*
X1051Y340D01*
X1051Y340D01*
X1051Y341D01*
X1051Y341D01*
X1050Y341D01*
X1049Y342D01*
X1048Y342D01*
X1048Y342D01*
X1047Y342D01*
X1047D01*
X1047Y342D01*
X1047D01*
X1046Y342D01*
X1045Y342D01*
X1044Y342D01*
X1043Y341D01*
X1043Y341D01*
X1043Y341D01*
X1043Y341D01*
X1042Y341D01*
X1042Y341D01*
X1042Y341D01*
X1042D01*
X1041Y340D01*
X1041Y340D01*
X1040Y339D01*
X1040Y339D01*
X1040Y338D01*
X1039Y338D01*
X1039Y337D01*
X1039Y337D01*
X1039Y337D01*
Y337D01*
X1039Y336D01*
X1039Y335D01*
X1039Y334D01*
X1038Y333D01*
X1038Y333D01*
X1038Y333D01*
Y332D01*
X1038Y332D01*
Y332D01*
Y332D01*
Y332D01*
Y331D01*
X1038Y331D01*
X1038Y330D01*
X1039Y329D01*
X1039Y328D01*
X1039Y327D01*
X1039Y327D01*
X1039Y327D01*
X1039Y327D01*
X1039Y327D01*
X1039Y327D01*
Y327D01*
X1039Y326D01*
X1040Y325D01*
X1040Y324D01*
X1041Y324D01*
X1041Y323D01*
X1042Y323D01*
X1042Y323D01*
X1042Y323D01*
X1042D01*
X1043Y322D01*
X1043Y322D01*
X1044Y322D01*
X1045Y321D01*
X1046Y321D01*
X1046Y321D01*
X1046D01*
X1047Y321D01*
X1047D01*
X1048Y321D01*
X1049Y321D01*
X1049Y322D01*
X1050Y322D01*
X1050Y322D01*
X1051Y322D01*
X1051Y323D01*
X1051Y323D01*
X1052Y323D01*
X1052Y324D01*
X1053Y324D01*
X1053Y325D01*
X1053Y326D01*
X1053Y326D01*
X1054Y326D01*
X1054Y326D01*
X1054Y327D01*
X1054Y327D01*
Y327D01*
X1057Y326D01*
X1057Y325D01*
X1057Y325D01*
X1056Y324D01*
X1056Y324D01*
X1056Y323D01*
X1055Y323D01*
X1055Y322D01*
X1055Y322D01*
X1055Y321D01*
X1054Y321D01*
X1054Y321D01*
X1054Y321D01*
X1054Y321D01*
X1053Y320D01*
X1053Y320D01*
X1053Y320D01*
X1053Y320D01*
X1052Y320D01*
X1052Y319D01*
X1051Y319D01*
X1050Y319D01*
X1049Y319D01*
X1049Y319D01*
X1048Y319D01*
X1048Y318D01*
X1048Y318D01*
X1047Y318D01*
X1047D01*
X1046Y318D01*
X1044Y319D01*
X1043Y319D01*
X1043Y319D01*
X1043Y319D01*
X1042Y319D01*
X1042Y319D01*
X1041Y320D01*
X1041Y320D01*
X1041Y320D01*
X1041Y320D01*
X1041Y320D01*
X1041Y320D01*
X1040Y321D01*
X1039Y321D01*
X1038Y322D01*
X1037Y323D01*
X1037Y323D01*
X1037Y324D01*
X1037Y324D01*
X1037Y324D01*
X1036Y324D01*
X1036Y324D01*
X1036Y325D01*
X1036Y326D01*
X1035Y327D01*
X1035Y328D01*
X1035Y329D01*
X1035Y330D01*
X1035Y330D01*
X1035Y330D01*
Y331D01*
X1035Y331D01*
Y331D01*
Y331D01*
Y331D01*
X1035Y333D01*
X1035Y334D01*
X1035Y335D01*
X1035Y336D01*
X1036Y336D01*
X1036Y337D01*
X1036Y337D01*
X1036Y338D01*
X1036Y338D01*
X1036Y338D01*
X1036Y338D01*
X1036Y338D01*
Y338D01*
X1037Y339D01*
X1037Y340D01*
X1038Y341D01*
X1038Y342D01*
X1039Y342D01*
X1039Y342D01*
X1039Y343D01*
X1039Y343D01*
X1040Y343D01*
X1040Y343D01*
X1040Y343D01*
X1040Y343D01*
X1040Y343D01*
X1041Y344D01*
X1041Y344D01*
X1042Y344D01*
X1043Y345D01*
X1044Y345D01*
X1045Y345D01*
X1045Y345D01*
X1046Y345D01*
X1046D01*
X1046Y345D01*
X1047D01*
X1048Y345D01*
D02*
G37*
G36*
X1199Y338D02*
X1202D01*
Y335D01*
X1199D01*
Y319D01*
X1196D01*
X1184Y335D01*
Y338D01*
X1195D01*
Y344D01*
X1199D01*
Y338D01*
D02*
G37*
G36*
X981Y1100D02*
X980Y1100D01*
X979Y1100D01*
X979Y1099D01*
X978Y1099D01*
X978Y1098D01*
X978Y1098D01*
X977Y1098D01*
X977Y1098D01*
X977Y1098D01*
X977Y1098D01*
X977Y1097D01*
X976Y1096D01*
X976Y1095D01*
X975Y1094D01*
X975Y1094D01*
X975Y1094D01*
X974Y1093D01*
X974Y1093D01*
X974Y1093D01*
X974Y1093D01*
Y1093D01*
X971D01*
X971Y1093D01*
X972Y1094D01*
X972Y1095D01*
X972Y1095D01*
X972Y1096D01*
X973Y1096D01*
X973Y1096D01*
X973Y1096D01*
Y1096D01*
X973Y1097D01*
X974Y1097D01*
X974Y1098D01*
X974Y1098D01*
X975Y1099D01*
X975Y1099D01*
X975Y1099D01*
X975Y1099D01*
X955D01*
Y1102D01*
X981D01*
Y1100D01*
D02*
G37*
G36*
X1026Y1049D02*
X1026Y1049D01*
X1027Y1048D01*
X1028Y1048D01*
X1028Y1048D01*
X1029Y1048D01*
X1029Y1048D01*
X1029Y1047D01*
X1030Y1047D01*
X1030Y1047D01*
X1030Y1047D01*
X1030Y1047D01*
X1030Y1047D01*
X1030Y1047D01*
X1031Y1047D01*
X1031Y1046D01*
X1031Y1046D01*
X1031Y1046D01*
X1032Y1045D01*
X1032Y1044D01*
X1032Y1044D01*
X1032Y1043D01*
X1032Y1043D01*
X1032Y1043D01*
X1033Y1042D01*
Y1042D01*
Y1042D01*
Y1042D01*
X1032Y1041D01*
X1032Y1041D01*
X1032Y1040D01*
X1032Y1040D01*
X1032Y1039D01*
X1032Y1039D01*
X1032Y1039D01*
X1032Y1039D01*
X1031Y1038D01*
X1031Y1038D01*
X1030Y1038D01*
X1030Y1037D01*
X1029Y1037D01*
X1029Y1037D01*
X1029Y1037D01*
X1029Y1037D01*
X1029Y1037D01*
X1029D01*
X1030Y1037D01*
X1030Y1036D01*
X1031Y1036D01*
X1031Y1035D01*
X1032Y1035D01*
X1032Y1035D01*
X1032Y1035D01*
X1032Y1035D01*
Y1034D01*
X1033Y1034D01*
X1033Y1033D01*
X1033Y1032D01*
X1033Y1032D01*
X1033Y1031D01*
X1034Y1031D01*
Y1031D01*
X1034Y1031D01*
Y1030D01*
Y1030D01*
Y1030D01*
X1034Y1030D01*
X1033Y1029D01*
X1033Y1029D01*
X1033Y1028D01*
X1033Y1027D01*
X1033Y1027D01*
X1032Y1026D01*
X1032Y1026D01*
X1032Y1026D01*
X1032Y1025D01*
X1032Y1025D01*
X1031Y1025D01*
X1031Y1025D01*
X1031Y1025D01*
X1031Y1025D01*
X1031Y1024D01*
X1030Y1024D01*
X1030Y1024D01*
X1029Y1023D01*
X1029Y1023D01*
X1028Y1023D01*
X1027Y1023D01*
X1027Y1023D01*
X1026Y1023D01*
X1026Y1023D01*
X1026Y1023D01*
X1025Y1022D01*
X1025D01*
X1024Y1023D01*
X1024Y1023D01*
X1023Y1023D01*
X1023Y1023D01*
X1022Y1023D01*
X1022Y1023D01*
X1021Y1023D01*
X1021Y1024D01*
X1020Y1024D01*
X1020Y1024D01*
X1020Y1024D01*
X1019Y1024D01*
X1019Y1024D01*
X1019Y1025D01*
X1019Y1025D01*
X1019Y1025D01*
X1019Y1025D01*
X1018Y1026D01*
X1018Y1026D01*
X1018Y1027D01*
X1017Y1027D01*
X1017Y1027D01*
X1017Y1028D01*
X1017Y1029D01*
X1017Y1029D01*
X1017Y1029D01*
X1017Y1030D01*
X1017Y1030D01*
Y1030D01*
Y1030D01*
Y1030D01*
X1017Y1031D01*
X1017Y1032D01*
X1017Y1033D01*
X1017Y1033D01*
X1018Y1034D01*
X1018Y1034D01*
X1018Y1034D01*
X1018Y1034D01*
Y1034D01*
X1018Y1035D01*
X1019Y1035D01*
X1020Y1036D01*
X1020Y1036D01*
X1021Y1036D01*
X1021Y1037D01*
X1021Y1037D01*
X1021Y1037D01*
X1021Y1037D01*
X1021D01*
X1021Y1037D01*
X1020Y1037D01*
X1020Y1038D01*
X1019Y1038D01*
X1019Y1038D01*
X1019Y1039D01*
X1019Y1039D01*
X1019Y1039D01*
X1018Y1039D01*
X1018Y1040D01*
X1018Y1040D01*
X1018Y1041D01*
X1018Y1041D01*
X1018Y1042D01*
Y1042D01*
Y1042D01*
Y1042D01*
X1018Y1042D01*
X1018Y1043D01*
X1018Y1044D01*
X1018Y1045D01*
X1019Y1045D01*
X1019Y1046D01*
X1019Y1046D01*
X1019Y1046D01*
X1020Y1046D01*
X1020Y1047D01*
X1020Y1047D01*
X1020Y1047D01*
X1020Y1047D01*
X1021Y1047D01*
X1021Y1048D01*
X1021Y1048D01*
X1022Y1048D01*
X1023Y1048D01*
X1024Y1048D01*
X1024Y1049D01*
X1024Y1049D01*
X1025Y1049D01*
X1025Y1049D01*
X1025D01*
X1026Y1049D01*
D02*
G37*
G36*
X1173Y345D02*
X1173Y345D01*
X1174Y345D01*
X1175Y345D01*
X1175Y344D01*
X1176Y344D01*
X1176Y344D01*
X1177Y344D01*
X1177Y344D01*
X1178Y343D01*
X1178Y343D01*
X1178Y343D01*
X1178Y343D01*
X1179Y343D01*
X1179Y343D01*
X1179Y343D01*
X1179Y342D01*
X1180Y342D01*
X1180Y341D01*
X1180Y341D01*
X1181Y340D01*
X1182Y339D01*
X1182Y338D01*
X1182Y338D01*
X1182Y337D01*
X1182Y337D01*
X1182Y337D01*
X1182Y337D01*
X1182Y336D01*
Y336D01*
X1179Y336D01*
X1179Y336D01*
X1179Y337D01*
X1179Y337D01*
X1178Y338D01*
X1178Y338D01*
X1178Y338D01*
X1178Y339D01*
X1177Y339D01*
X1177Y339D01*
X1177Y340D01*
X1177Y340D01*
X1177Y340D01*
X1177Y340D01*
X1176Y340D01*
X1176Y340D01*
X1176Y340D01*
X1176Y341D01*
X1176Y341D01*
X1175Y341D01*
X1174Y342D01*
X1173Y342D01*
X1173Y342D01*
X1172Y342D01*
X1172D01*
X1172Y342D01*
X1172D01*
X1171Y342D01*
X1170Y342D01*
X1169Y342D01*
X1168Y341D01*
X1168Y341D01*
X1168Y341D01*
X1168Y341D01*
X1167Y341D01*
X1167Y341D01*
X1167Y341D01*
X1167D01*
X1166Y340D01*
X1166Y340D01*
X1165Y339D01*
X1165Y339D01*
X1165Y338D01*
X1164Y338D01*
X1164Y337D01*
X1164Y337D01*
X1164Y337D01*
Y337D01*
X1164Y336D01*
X1164Y335D01*
X1164Y334D01*
X1163Y333D01*
X1163Y333D01*
X1163Y333D01*
Y332D01*
X1163Y332D01*
Y332D01*
Y332D01*
Y332D01*
Y331D01*
X1163Y331D01*
X1163Y330D01*
X1164Y329D01*
X1164Y328D01*
X1164Y327D01*
X1164Y327D01*
X1164Y327D01*
X1164Y327D01*
X1164Y327D01*
X1164Y327D01*
Y327D01*
X1164Y326D01*
X1165Y325D01*
X1165Y324D01*
X1166Y324D01*
X1166Y323D01*
X1167Y323D01*
X1167Y323D01*
X1167Y323D01*
X1167D01*
X1168Y322D01*
X1168Y322D01*
X1169Y322D01*
X1170Y321D01*
X1171Y321D01*
X1171Y321D01*
X1171D01*
X1172Y321D01*
X1172D01*
X1173Y321D01*
X1174Y321D01*
X1174Y322D01*
X1175Y322D01*
X1175Y322D01*
X1176Y322D01*
X1176Y323D01*
X1176Y323D01*
X1177Y323D01*
X1177Y324D01*
X1178Y324D01*
X1178Y325D01*
X1178Y326D01*
X1178Y326D01*
X1179Y326D01*
X1179Y326D01*
X1179Y327D01*
X1179Y327D01*
Y327D01*
X1182Y326D01*
X1182Y325D01*
X1182Y325D01*
X1181Y324D01*
X1181Y324D01*
X1181Y323D01*
X1180Y323D01*
X1180Y322D01*
X1180Y322D01*
X1180Y321D01*
X1179Y321D01*
X1179Y321D01*
X1179Y321D01*
X1179Y321D01*
X1178Y320D01*
X1178Y320D01*
X1178Y320D01*
X1178Y320D01*
X1177Y320D01*
X1177Y319D01*
X1176Y319D01*
X1175Y319D01*
X1174Y319D01*
X1174Y319D01*
X1173Y319D01*
X1173Y318D01*
X1173Y318D01*
X1172Y318D01*
X1172D01*
X1171Y318D01*
X1169Y319D01*
X1168Y319D01*
X1168Y319D01*
X1168Y319D01*
X1167Y319D01*
X1167Y319D01*
X1166Y320D01*
X1166Y320D01*
X1166Y320D01*
X1166Y320D01*
X1166Y320D01*
X1166Y320D01*
X1165Y321D01*
X1164Y321D01*
X1163Y322D01*
X1162Y323D01*
X1162Y323D01*
X1162Y324D01*
X1162Y324D01*
X1162Y324D01*
X1161Y324D01*
X1161Y324D01*
X1161Y325D01*
X1161Y326D01*
X1160Y327D01*
X1160Y328D01*
X1160Y329D01*
X1160Y330D01*
X1160Y330D01*
X1160Y330D01*
Y331D01*
X1160Y331D01*
Y331D01*
Y331D01*
Y331D01*
X1160Y333D01*
X1160Y334D01*
X1160Y335D01*
X1160Y336D01*
X1161Y336D01*
X1161Y337D01*
X1161Y337D01*
X1161Y338D01*
X1161Y338D01*
X1161Y338D01*
X1161Y338D01*
X1161Y338D01*
Y338D01*
X1162Y339D01*
X1162Y340D01*
X1163Y341D01*
X1163Y342D01*
X1164Y342D01*
X1164Y342D01*
X1164Y343D01*
X1164Y343D01*
X1165Y343D01*
X1165Y343D01*
X1165Y343D01*
X1165Y343D01*
X1165Y343D01*
X1166Y344D01*
X1166Y344D01*
X1167Y344D01*
X1168Y345D01*
X1169Y345D01*
X1170Y345D01*
X1170Y345D01*
X1171Y345D01*
X1171D01*
X1171Y345D01*
X1172D01*
X1173Y345D01*
D02*
G37*
G36*
X964Y1084D02*
X963Y1084D01*
X963Y1084D01*
X962Y1084D01*
X962Y1084D01*
X961Y1083D01*
X961Y1083D01*
X961Y1083D01*
X960Y1083D01*
X960Y1082D01*
X960Y1082D01*
X960Y1082D01*
X959Y1082D01*
X959Y1082D01*
X959Y1082D01*
X959Y1082D01*
X959Y1082D01*
X959Y1081D01*
X959Y1081D01*
X958Y1080D01*
X958Y1079D01*
X958Y1078D01*
X958Y1078D01*
X957Y1077D01*
Y1077D01*
X957Y1077D01*
Y1077D01*
Y1077D01*
Y1077D01*
X957Y1076D01*
X958Y1075D01*
X958Y1074D01*
X958Y1074D01*
X958Y1073D01*
X958Y1073D01*
X958Y1073D01*
X959Y1073D01*
X959Y1072D01*
X959Y1072D01*
Y1072D01*
X959Y1072D01*
X960Y1071D01*
X960Y1071D01*
X961Y1070D01*
X961Y1070D01*
X962Y1070D01*
X962Y1070D01*
X962Y1069D01*
X962Y1069D01*
X962D01*
X963Y1069D01*
X964Y1069D01*
X965Y1069D01*
X966Y1069D01*
X966Y1069D01*
X967Y1069D01*
X967D01*
X967Y1068D01*
X968D01*
X969Y1069D01*
X970Y1069D01*
X971Y1069D01*
X971Y1069D01*
X972Y1069D01*
X972Y1069D01*
X973Y1069D01*
X973Y1069D01*
X973Y1069D01*
X973Y1069D01*
X973D01*
X974Y1070D01*
X975Y1070D01*
X975Y1070D01*
X976Y1071D01*
X976Y1071D01*
X976Y1072D01*
X977Y1072D01*
X977Y1072D01*
Y1072D01*
X977Y1073D01*
X978Y1074D01*
X978Y1074D01*
X978Y1075D01*
X978Y1076D01*
X978Y1076D01*
Y1077D01*
X978Y1077D01*
Y1077D01*
Y1077D01*
Y1077D01*
X978Y1078D01*
X978Y1079D01*
X978Y1079D01*
X978Y1080D01*
X977Y1081D01*
X977Y1081D01*
X977Y1081D01*
X977Y1081D01*
X976Y1082D01*
X976Y1082D01*
X975Y1083D01*
X974Y1083D01*
X974Y1084D01*
X973Y1084D01*
X973Y1084D01*
X973Y1084D01*
X973Y1084D01*
X973Y1084D01*
X973D01*
X974Y1087D01*
X974Y1087D01*
X975Y1087D01*
X975Y1086D01*
X976Y1086D01*
X976Y1086D01*
X977Y1086D01*
X977Y1085D01*
X978Y1085D01*
X978Y1085D01*
X978Y1084D01*
X979Y1084D01*
X979Y1084D01*
X979Y1084D01*
X979Y1084D01*
X979Y1084D01*
X979Y1084D01*
X979Y1083D01*
X980Y1083D01*
X980Y1082D01*
X980Y1081D01*
X981Y1080D01*
X981Y1079D01*
X981Y1079D01*
X981Y1078D01*
X981Y1078D01*
X981Y1078D01*
X981Y1077D01*
Y1077D01*
Y1077D01*
Y1077D01*
X981Y1076D01*
X981Y1075D01*
X981Y1074D01*
X980Y1073D01*
X980Y1073D01*
X980Y1072D01*
X980Y1072D01*
X980Y1072D01*
X980Y1071D01*
X980Y1071D01*
X980Y1071D01*
X980Y1071D01*
X979Y1071D01*
X979Y1070D01*
X978Y1069D01*
X977Y1068D01*
X977Y1068D01*
X976Y1067D01*
X976Y1067D01*
X975Y1067D01*
X975Y1067D01*
X975Y1067D01*
X975Y1067D01*
X975Y1067D01*
X974Y1066D01*
X973Y1066D01*
X971Y1065D01*
X970Y1065D01*
X970Y1065D01*
X969Y1065D01*
X969Y1065D01*
X969D01*
X968Y1065D01*
X968D01*
X967Y1065D01*
X965Y1065D01*
X964Y1065D01*
X964Y1066D01*
X963Y1066D01*
X963Y1066D01*
X962Y1066D01*
X962Y1066D01*
X962Y1066D01*
X961Y1066D01*
X961Y1066D01*
X961Y1066D01*
X961D01*
X960Y1067D01*
X959Y1068D01*
X958Y1068D01*
X958Y1069D01*
X957Y1069D01*
X957Y1069D01*
X957Y1069D01*
X957Y1070D01*
X957Y1070D01*
X956Y1070D01*
X956Y1070D01*
X956Y1070D01*
X956Y1070D01*
X956Y1071D01*
X956Y1071D01*
X955Y1072D01*
X955Y1074D01*
X955Y1075D01*
X955Y1075D01*
X955Y1076D01*
X955Y1076D01*
Y1076D01*
X955Y1077D01*
Y1077D01*
Y1077D01*
Y1077D01*
X955Y1078D01*
X955Y1078D01*
X955Y1079D01*
X955Y1080D01*
X955Y1080D01*
X955Y1081D01*
X955Y1081D01*
X956Y1082D01*
X956Y1082D01*
X956Y1083D01*
X956Y1083D01*
X956Y1083D01*
X957Y1084D01*
X957Y1084D01*
X957Y1084D01*
X957Y1084D01*
X957Y1084D01*
X958Y1085D01*
X958Y1085D01*
X959Y1086D01*
X960Y1086D01*
X961Y1087D01*
X961Y1087D01*
X962Y1087D01*
X962Y1087D01*
X962Y1087D01*
X963Y1088D01*
X963Y1088D01*
X963Y1088D01*
X963D01*
X964Y1084D01*
D02*
G37*
G36*
X779Y345D02*
X780Y345D01*
X781Y345D01*
X782Y345D01*
X782Y345D01*
X782Y344D01*
X783Y344D01*
X783Y344D01*
X783Y344D01*
X783Y344D01*
X783Y344D01*
X783D01*
X784Y343D01*
X785Y343D01*
X785Y342D01*
X785Y341D01*
X786Y341D01*
X786Y340D01*
X786Y340D01*
X786Y340D01*
X786Y340D01*
X786Y340D01*
Y340D01*
X786Y339D01*
X787Y338D01*
X787Y337D01*
X787Y336D01*
X787Y334D01*
X787Y334D01*
X787Y333D01*
Y333D01*
X787Y332D01*
Y332D01*
Y332D01*
Y332D01*
Y332D01*
Y331D01*
X787Y330D01*
X787Y329D01*
X787Y329D01*
X787Y328D01*
X787Y327D01*
X787Y327D01*
X787Y326D01*
X787Y326D01*
X787Y326D01*
X787Y325D01*
X786Y325D01*
X786Y325D01*
X786Y325D01*
X786Y325D01*
Y325D01*
X786Y324D01*
X785Y323D01*
X785Y322D01*
X784Y322D01*
X784Y321D01*
X783Y321D01*
X783Y321D01*
X783Y321D01*
X783Y321D01*
X783D01*
X782Y320D01*
X782Y320D01*
X781Y320D01*
X780Y319D01*
X779Y319D01*
X779Y319D01*
X779D01*
X779Y319D01*
X779D01*
X778Y319D01*
X777Y319D01*
X777Y320D01*
X776Y320D01*
X775Y320D01*
X775Y320D01*
X774Y320D01*
X774Y321D01*
X774Y321D01*
X773Y321D01*
X773Y321D01*
X773Y321D01*
X773Y322D01*
X773Y322D01*
X773Y322D01*
X772Y322D01*
X772Y323D01*
X772Y323D01*
X771Y324D01*
X771Y324D01*
X771Y325D01*
X771Y326D01*
X771Y326D01*
X771Y327D01*
X771Y327D01*
X771Y327D01*
X771Y328D01*
Y328D01*
Y328D01*
Y328D01*
X771Y329D01*
X771Y329D01*
X771Y330D01*
X771Y330D01*
X771Y331D01*
X771Y332D01*
X771Y332D01*
X772Y332D01*
X772Y333D01*
X772Y333D01*
X772Y333D01*
X772Y334D01*
X773Y334D01*
X773Y334D01*
X773Y334D01*
X773Y334D01*
X773Y334D01*
X774Y335D01*
X774Y335D01*
X774Y335D01*
X775Y336D01*
X775Y336D01*
X776Y336D01*
X777Y336D01*
X777Y336D01*
X777Y336D01*
X778Y336D01*
X778Y336D01*
X778D01*
X779Y336D01*
X779Y336D01*
X780Y336D01*
X781Y336D01*
X781Y336D01*
X781Y336D01*
X782Y335D01*
X782Y335D01*
X782Y335D01*
X783Y335D01*
X783Y334D01*
X784Y334D01*
X784Y333D01*
X784Y333D01*
X784Y333D01*
X784Y333D01*
Y333D01*
Y333D01*
Y334D01*
Y334D01*
X784Y334D01*
X784Y335D01*
X784Y336D01*
X784Y336D01*
X784Y337D01*
X784Y337D01*
X784Y337D01*
Y337D01*
X784Y337D01*
Y337D01*
X784Y338D01*
X783Y339D01*
X783Y339D01*
X783Y340D01*
X783Y340D01*
X783Y340D01*
X783Y340D01*
X783Y340D01*
X782Y341D01*
X782Y341D01*
X782Y341D01*
X781Y342D01*
X781Y342D01*
X781Y342D01*
X781Y342D01*
X781Y342D01*
X780Y342D01*
X780Y343D01*
X780Y343D01*
X779Y343D01*
X779Y343D01*
X779Y343D01*
X778D01*
X778Y343D01*
X777Y343D01*
X777Y343D01*
X776Y342D01*
X776Y342D01*
X776Y342D01*
X776Y342D01*
X775Y342D01*
X775Y342D01*
X775Y341D01*
X775Y341D01*
X774Y340D01*
X774Y340D01*
X774Y339D01*
X774Y339D01*
Y339D01*
X774Y339D01*
Y339D01*
X771Y339D01*
X771Y340D01*
X772Y341D01*
X772Y342D01*
X772Y343D01*
X773Y343D01*
X773Y343D01*
X773Y343D01*
X773Y344D01*
X773Y344D01*
X773Y344D01*
X773Y344D01*
X774Y344D01*
X774Y344D01*
X775Y345D01*
X776Y345D01*
X776Y345D01*
X777Y345D01*
X777Y345D01*
X778D01*
X778Y345D01*
X778D01*
X779Y345D01*
D02*
G37*
G36*
X758Y345D02*
X758Y345D01*
X759Y345D01*
X760Y345D01*
X760Y345D01*
X761Y345D01*
X761Y345D01*
X762Y344D01*
X762Y344D01*
X763Y344D01*
X763Y344D01*
X763Y344D01*
X763Y343D01*
X764Y343D01*
X764Y343D01*
X764Y343D01*
X764Y343D01*
X765Y342D01*
X765Y342D01*
X766Y341D01*
X766Y340D01*
X767Y339D01*
X767Y339D01*
X767Y338D01*
X767Y338D01*
X767Y338D01*
X768Y337D01*
X768Y337D01*
X768Y337D01*
Y337D01*
X764Y336D01*
X764Y337D01*
X764Y337D01*
X764Y338D01*
X764Y338D01*
X763Y339D01*
X763Y339D01*
X763Y339D01*
X763Y340D01*
X762Y340D01*
X762Y340D01*
X762Y340D01*
X762Y341D01*
X762Y341D01*
X762Y341D01*
X762Y341D01*
X762Y341D01*
X761Y341D01*
X761Y341D01*
X760Y342D01*
X759Y342D01*
X758Y342D01*
X758Y342D01*
X757Y343D01*
X757D01*
X757Y343D01*
X757D01*
X756Y343D01*
X755Y342D01*
X754Y342D01*
X754Y342D01*
X753Y342D01*
X753Y342D01*
X753Y342D01*
X753Y341D01*
X752Y341D01*
X752Y341D01*
X752D01*
X752Y341D01*
X751Y340D01*
X751Y340D01*
X750Y339D01*
X750Y339D01*
X750Y338D01*
X750Y338D01*
X749Y338D01*
X749Y338D01*
Y338D01*
X749Y337D01*
X749Y336D01*
X749Y335D01*
X749Y334D01*
X749Y334D01*
X749Y333D01*
Y333D01*
X748Y333D01*
Y332D01*
Y332D01*
Y332D01*
Y332D01*
X749Y331D01*
X749Y330D01*
X749Y329D01*
X749Y329D01*
X749Y328D01*
X749Y328D01*
X749Y327D01*
X749Y327D01*
X749Y327D01*
X749Y327D01*
Y327D01*
X750Y326D01*
X750Y325D01*
X750Y325D01*
X751Y324D01*
X751Y324D01*
X752Y324D01*
X752Y323D01*
X752Y323D01*
X752D01*
X753Y323D01*
X754Y322D01*
X754Y322D01*
X755Y322D01*
X756Y322D01*
X756Y322D01*
X757D01*
X757Y322D01*
X757D01*
X758Y322D01*
X759Y322D01*
X759Y322D01*
X760Y322D01*
X761Y323D01*
X761Y323D01*
X761Y323D01*
X761Y323D01*
X762Y324D01*
X762Y324D01*
X763Y325D01*
X763Y326D01*
X763Y326D01*
X764Y327D01*
X764Y327D01*
X764Y327D01*
X764Y327D01*
X764Y327D01*
Y327D01*
X767Y326D01*
X767Y326D01*
X767Y325D01*
X766Y325D01*
X766Y324D01*
X766Y324D01*
X766Y323D01*
X765Y323D01*
X765Y322D01*
X765Y322D01*
X764Y322D01*
X764Y321D01*
X764Y321D01*
X764Y321D01*
X764Y321D01*
X764Y321D01*
X764Y321D01*
X763Y321D01*
X763Y320D01*
X762Y320D01*
X761Y320D01*
X760Y319D01*
X759Y319D01*
X759Y319D01*
X758Y319D01*
X758Y319D01*
X758Y319D01*
X757Y319D01*
X757D01*
X756Y319D01*
X755Y319D01*
X754Y319D01*
X753Y320D01*
X753Y320D01*
X752Y320D01*
X752Y320D01*
X752Y320D01*
X751Y320D01*
X751Y320D01*
X751Y320D01*
X751Y320D01*
X751Y321D01*
X750Y321D01*
X749Y322D01*
X748Y323D01*
X748Y323D01*
X747Y324D01*
X747Y324D01*
X747Y325D01*
X747Y325D01*
X747Y325D01*
X747Y325D01*
X747Y325D01*
X746Y326D01*
X746Y327D01*
X745Y329D01*
X745Y330D01*
X745Y330D01*
X745Y331D01*
X745Y331D01*
Y331D01*
X745Y332D01*
Y332D01*
Y332D01*
Y332D01*
X745Y333D01*
X745Y335D01*
X745Y336D01*
X746Y336D01*
X746Y337D01*
X746Y337D01*
X746Y338D01*
X746Y338D01*
X746Y338D01*
X746Y339D01*
X746Y339D01*
X746Y339D01*
Y339D01*
X747Y340D01*
X748Y341D01*
X748Y342D01*
X749Y342D01*
X749Y343D01*
X749Y343D01*
X749Y343D01*
X750Y343D01*
X750Y343D01*
X750Y344D01*
X750Y344D01*
X750Y344D01*
X750Y344D01*
X751Y344D01*
X751Y344D01*
X752Y345D01*
X754Y345D01*
X755Y345D01*
X755Y345D01*
X756Y345D01*
X756Y345D01*
X756D01*
X757Y345D01*
X757D01*
X758Y345D01*
D02*
G37*
G36*
X970D02*
X970Y345D01*
X971Y345D01*
X972Y345D01*
X972Y345D01*
X973Y344D01*
X973Y344D01*
X974Y344D01*
X974Y344D01*
X974Y343D01*
X975Y343D01*
X975Y343D01*
X975Y343D01*
X975Y342D01*
X975Y342D01*
X975Y342D01*
X976Y342D01*
X976Y341D01*
X976Y341D01*
X977Y340D01*
X977Y339D01*
X977Y338D01*
X977Y338D01*
X977Y338D01*
X977Y337D01*
X977Y337D01*
X978Y337D01*
Y336D01*
Y336D01*
Y336D01*
X977Y336D01*
X977Y335D01*
X977Y334D01*
X977Y334D01*
X977Y333D01*
X977Y333D01*
X977Y332D01*
X976Y332D01*
X976Y332D01*
X976Y331D01*
X976Y331D01*
X976Y331D01*
X975Y331D01*
X975Y330D01*
X975Y330D01*
X975Y330D01*
X975Y330D01*
X974Y330D01*
X974Y329D01*
X973Y329D01*
X973Y329D01*
X972Y329D01*
X971Y328D01*
X971Y328D01*
X971Y328D01*
X970Y328D01*
X970Y328D01*
X970Y328D01*
X969D01*
X969Y328D01*
X968Y328D01*
X967Y329D01*
X966Y329D01*
X966Y329D01*
X965Y329D01*
X965Y329D01*
X965Y329D01*
X965Y330D01*
X965Y330D01*
X965Y330D01*
X966Y323D01*
X976D01*
Y320D01*
X964D01*
X961Y333D01*
X964Y333D01*
X964Y333D01*
X965Y333D01*
X965Y332D01*
X965Y332D01*
X966Y332D01*
X966Y332D01*
X966Y332D01*
X966Y331D01*
X966Y331D01*
X967Y331D01*
X967Y331D01*
X968Y331D01*
X968Y331D01*
X968Y331D01*
X969D01*
X970Y331D01*
X970Y331D01*
X971Y331D01*
X972Y332D01*
X972Y332D01*
X972Y332D01*
X973Y332D01*
X973Y332D01*
Y332D01*
X973Y333D01*
X974Y334D01*
X974Y334D01*
X974Y335D01*
X974Y336D01*
X974Y336D01*
Y336D01*
X974Y336D01*
Y336D01*
Y337D01*
Y337D01*
Y337D01*
X974Y338D01*
X974Y339D01*
X974Y339D01*
X973Y340D01*
X973Y340D01*
X973Y341D01*
X973Y341D01*
X973Y341D01*
X973Y341D01*
X973Y341D01*
X972Y341D01*
X972Y342D01*
X971Y342D01*
X971Y342D01*
X970Y343D01*
X970Y343D01*
X969Y343D01*
X969Y343D01*
X969D01*
X968Y343D01*
X967Y343D01*
X967Y342D01*
X966Y342D01*
X966Y342D01*
X966Y342D01*
X966Y342D01*
X965Y342D01*
X965Y341D01*
X965Y341D01*
X964Y340D01*
X964Y339D01*
X964Y339D01*
X964Y338D01*
X964Y338D01*
X964Y338D01*
Y338D01*
Y338D01*
X961Y338D01*
X961Y339D01*
X961Y339D01*
X961Y340D01*
X961Y341D01*
X962Y342D01*
X962Y342D01*
X962Y342D01*
X962Y343D01*
X962Y343D01*
X963Y343D01*
X963Y343D01*
X963Y343D01*
X963Y343D01*
X963Y344D01*
X963Y344D01*
X964Y344D01*
X964Y344D01*
X965Y345D01*
X966Y345D01*
X967Y345D01*
X967Y345D01*
X968Y345D01*
X968Y345D01*
X968Y345D01*
X968Y345D01*
X969D01*
X970Y345D01*
D02*
G37*
G36*
X948D02*
X948Y345D01*
X949Y345D01*
X950Y345D01*
X950Y345D01*
X951Y345D01*
X951Y345D01*
X952Y344D01*
X952Y344D01*
X953Y344D01*
X953Y344D01*
X953Y344D01*
X953Y343D01*
X954Y343D01*
X954Y343D01*
X954Y343D01*
X954Y343D01*
X955Y342D01*
X955Y342D01*
X956Y341D01*
X956Y340D01*
X957Y339D01*
X957Y339D01*
X957Y338D01*
X957Y338D01*
X957Y338D01*
X958Y337D01*
X958Y337D01*
X958Y337D01*
Y337D01*
X954Y336D01*
X954Y337D01*
X954Y337D01*
X954Y338D01*
X954Y338D01*
X953Y339D01*
X953Y339D01*
X953Y339D01*
X953Y340D01*
X952Y340D01*
X952Y340D01*
X952Y340D01*
X952Y341D01*
X952Y341D01*
X952Y341D01*
X952Y341D01*
X952Y341D01*
X951Y341D01*
X951Y341D01*
X950Y342D01*
X949Y342D01*
X948Y342D01*
X948Y342D01*
X947Y343D01*
X947D01*
X947Y343D01*
X947D01*
X946Y343D01*
X945Y342D01*
X944Y342D01*
X944Y342D01*
X943Y342D01*
X943Y342D01*
X943Y342D01*
X943Y341D01*
X942Y341D01*
X942Y341D01*
X942D01*
X942Y341D01*
X941Y340D01*
X941Y340D01*
X940Y339D01*
X940Y339D01*
X940Y338D01*
X940Y338D01*
X939Y338D01*
X939Y338D01*
Y338D01*
X939Y337D01*
X939Y336D01*
X939Y335D01*
X939Y334D01*
X939Y334D01*
X939Y333D01*
Y333D01*
X938Y333D01*
Y332D01*
Y332D01*
Y332D01*
Y332D01*
X939Y331D01*
X939Y330D01*
X939Y329D01*
X939Y329D01*
X939Y328D01*
X939Y328D01*
X939Y327D01*
X939Y327D01*
X939Y327D01*
X939Y327D01*
Y327D01*
X940Y326D01*
X940Y325D01*
X940Y325D01*
X941Y324D01*
X941Y324D01*
X942Y324D01*
X942Y323D01*
X942Y323D01*
X942D01*
X943Y323D01*
X944Y322D01*
X944Y322D01*
X945Y322D01*
X946Y322D01*
X946Y322D01*
X947D01*
X947Y322D01*
X947D01*
X948Y322D01*
X949Y322D01*
X949Y322D01*
X950Y322D01*
X951Y323D01*
X951Y323D01*
X951Y323D01*
X951Y323D01*
X952Y324D01*
X952Y324D01*
X953Y325D01*
X953Y326D01*
X953Y326D01*
X954Y327D01*
X954Y327D01*
X954Y327D01*
X954Y327D01*
X954Y327D01*
Y327D01*
X957Y326D01*
X957Y326D01*
X957Y325D01*
X956Y325D01*
X956Y324D01*
X956Y324D01*
X956Y323D01*
X955Y323D01*
X955Y322D01*
X955Y322D01*
X954Y322D01*
X954Y321D01*
X954Y321D01*
X954Y321D01*
X954Y321D01*
X954Y321D01*
X954Y321D01*
X953Y321D01*
X953Y320D01*
X952Y320D01*
X951Y320D01*
X950Y319D01*
X949Y319D01*
X949Y319D01*
X948Y319D01*
X948Y319D01*
X948Y319D01*
X947Y319D01*
X947D01*
X946Y319D01*
X945Y319D01*
X944Y319D01*
X943Y320D01*
X943Y320D01*
X942Y320D01*
X942Y320D01*
X942Y320D01*
X941Y320D01*
X941Y320D01*
X941Y320D01*
X941Y320D01*
X941Y321D01*
X940Y321D01*
X939Y322D01*
X938Y323D01*
X938Y323D01*
X937Y324D01*
X937Y324D01*
X937Y325D01*
X937Y325D01*
X937Y325D01*
X937Y325D01*
X937Y325D01*
X936Y326D01*
X936Y327D01*
X935Y329D01*
X935Y330D01*
X935Y330D01*
X935Y331D01*
X935Y331D01*
Y331D01*
X935Y332D01*
Y332D01*
Y332D01*
Y332D01*
X935Y333D01*
X935Y335D01*
X935Y336D01*
X936Y336D01*
X936Y337D01*
X936Y337D01*
X936Y338D01*
X936Y338D01*
X936Y338D01*
X936Y339D01*
X936Y339D01*
X936Y339D01*
Y339D01*
X937Y340D01*
X938Y341D01*
X938Y342D01*
X939Y342D01*
X939Y343D01*
X939Y343D01*
X939Y343D01*
X940Y343D01*
X940Y343D01*
X940Y344D01*
X940Y344D01*
X940Y344D01*
X940Y344D01*
X941Y344D01*
X941Y344D01*
X942Y345D01*
X944Y345D01*
X945Y345D01*
X945Y345D01*
X946Y345D01*
X946Y345D01*
X946D01*
X947Y345D01*
X947D01*
X948Y345D01*
D02*
G37*
G36*
X593Y344D02*
X593Y342D01*
X593Y341D01*
X593Y341D01*
X593Y340D01*
X593Y340D01*
X593Y339D01*
X594Y339D01*
X594Y339D01*
X594Y338D01*
X594Y338D01*
X594Y338D01*
Y338D01*
X594Y336D01*
X595Y335D01*
X595Y334D01*
X595Y333D01*
X596Y332D01*
X596Y332D01*
X596Y331D01*
X597Y331D01*
X597Y330D01*
X597Y330D01*
X597Y330D01*
X597Y329D01*
X597Y329D01*
X597Y329D01*
X598Y328D01*
X598Y328D01*
X599Y327D01*
X599Y326D01*
X600Y326D01*
X600Y325D01*
X600Y325D01*
X601Y324D01*
X601Y324D01*
X601Y323D01*
X602Y323D01*
X602Y323D01*
X602Y322D01*
X602Y322D01*
X602Y322D01*
X602Y322D01*
Y320D01*
X586D01*
Y323D01*
X598D01*
X597Y324D01*
X597Y325D01*
X596Y326D01*
X595Y327D01*
X595Y328D01*
X595Y328D01*
X594Y328D01*
X594Y329D01*
X594Y329D01*
X594Y329D01*
X594Y329D01*
X594Y329D01*
X593Y331D01*
X592Y332D01*
X592Y334D01*
X592Y334D01*
X591Y335D01*
X591Y336D01*
X591Y336D01*
X591Y337D01*
X591Y337D01*
X591Y337D01*
X591Y338D01*
X590Y338D01*
Y338D01*
X590Y339D01*
X590Y340D01*
X590Y341D01*
X590Y341D01*
X590Y342D01*
X590Y342D01*
X589Y343D01*
X589Y343D01*
X589Y344D01*
X589Y344D01*
Y344D01*
X589Y345D01*
Y345D01*
Y345D01*
Y345D01*
X593D01*
X593Y344D01*
D02*
G37*
G36*
X872Y319D02*
X870D01*
X870Y319D01*
X869Y320D01*
X869Y321D01*
X868Y321D01*
X868Y322D01*
X868Y322D01*
X868Y322D01*
X867Y322D01*
X867Y322D01*
X867Y322D01*
X867Y323D01*
X866Y323D01*
X865Y324D01*
X864Y324D01*
X864Y325D01*
X863Y325D01*
X863Y325D01*
X863Y325D01*
X863Y325D01*
X863Y325D01*
X863D01*
Y328D01*
X863Y328D01*
X864Y328D01*
X864Y327D01*
X865Y327D01*
X865Y327D01*
X866Y327D01*
X866Y327D01*
X866Y327D01*
X866D01*
X867Y326D01*
X867Y326D01*
X868Y325D01*
X868Y325D01*
X869Y325D01*
X869Y325D01*
X869Y324D01*
X869Y324D01*
Y344D01*
X872D01*
Y319D01*
D02*
G37*
G36*
X848Y345D02*
X848Y345D01*
X849Y345D01*
X850Y345D01*
X850Y344D01*
X851Y344D01*
X851Y344D01*
X852Y344D01*
X852Y344D01*
X853Y343D01*
X853Y343D01*
X853Y343D01*
X853Y343D01*
X854Y343D01*
X854Y343D01*
X854Y343D01*
X854Y342D01*
X855Y342D01*
X855Y341D01*
X855Y341D01*
X856Y340D01*
X857Y339D01*
X857Y338D01*
X857Y338D01*
X857Y337D01*
X857Y337D01*
X857Y337D01*
X857Y337D01*
X857Y336D01*
Y336D01*
X854Y336D01*
X854Y336D01*
X854Y337D01*
X854Y337D01*
X853Y338D01*
X853Y338D01*
X853Y338D01*
X853Y339D01*
X852Y339D01*
X852Y339D01*
X852Y340D01*
X852Y340D01*
X852Y340D01*
X852Y340D01*
X851Y340D01*
X851Y340D01*
X851Y340D01*
X851Y341D01*
X851Y341D01*
X850Y341D01*
X849Y342D01*
X848Y342D01*
X848Y342D01*
X847Y342D01*
X847D01*
X847Y342D01*
X847D01*
X846Y342D01*
X845Y342D01*
X844Y342D01*
X843Y341D01*
X843Y341D01*
X843Y341D01*
X843Y341D01*
X842Y341D01*
X842Y341D01*
X842Y341D01*
X842D01*
X841Y340D01*
X841Y340D01*
X840Y339D01*
X840Y339D01*
X840Y338D01*
X839Y338D01*
X839Y337D01*
X839Y337D01*
X839Y337D01*
Y337D01*
X839Y336D01*
X839Y335D01*
X839Y334D01*
X838Y333D01*
X838Y333D01*
X838Y333D01*
Y332D01*
X838Y332D01*
Y332D01*
Y332D01*
Y332D01*
Y331D01*
X838Y331D01*
X838Y330D01*
X839Y329D01*
X839Y328D01*
X839Y327D01*
X839Y327D01*
X839Y327D01*
X839Y327D01*
X839Y327D01*
X839Y327D01*
Y327D01*
X839Y326D01*
X840Y325D01*
X840Y324D01*
X841Y324D01*
X841Y323D01*
X842Y323D01*
X842Y323D01*
X842Y323D01*
X842D01*
X843Y322D01*
X843Y322D01*
X844Y322D01*
X845Y321D01*
X846Y321D01*
X846Y321D01*
X846D01*
X847Y321D01*
X847D01*
X848Y321D01*
X849Y321D01*
X849Y322D01*
X850Y322D01*
X850Y322D01*
X851Y322D01*
X851Y323D01*
X851Y323D01*
X852Y323D01*
X852Y324D01*
X853Y324D01*
X853Y325D01*
X853Y326D01*
X853Y326D01*
X854Y326D01*
X854Y326D01*
X854Y327D01*
X854Y327D01*
Y327D01*
X857Y326D01*
X857Y325D01*
X857Y325D01*
X856Y324D01*
X856Y324D01*
X856Y323D01*
X855Y323D01*
X855Y322D01*
X855Y322D01*
X855Y321D01*
X854Y321D01*
X854Y321D01*
X854Y321D01*
X854Y321D01*
X853Y320D01*
X853Y320D01*
X853Y320D01*
X853Y320D01*
X852Y320D01*
X852Y319D01*
X851Y319D01*
X850Y319D01*
X849Y319D01*
X849Y319D01*
X848Y319D01*
X848Y318D01*
X848Y318D01*
X847Y318D01*
X847D01*
X846Y318D01*
X844Y319D01*
X843Y319D01*
X843Y319D01*
X843Y319D01*
X842Y319D01*
X842Y319D01*
X841Y320D01*
X841Y320D01*
X841Y320D01*
X841Y320D01*
X841Y320D01*
X841Y320D01*
X840Y321D01*
X839Y321D01*
X838Y322D01*
X837Y323D01*
X837Y323D01*
X837Y324D01*
X837Y324D01*
X837Y324D01*
X836Y324D01*
X836Y324D01*
X836Y325D01*
X836Y326D01*
X835Y327D01*
X835Y328D01*
X835Y329D01*
X835Y330D01*
X835Y330D01*
X835Y330D01*
Y331D01*
X835Y331D01*
Y331D01*
Y331D01*
Y331D01*
X835Y333D01*
X835Y334D01*
X835Y335D01*
X835Y336D01*
X836Y336D01*
X836Y337D01*
X836Y337D01*
X836Y338D01*
X836Y338D01*
X836Y338D01*
X836Y338D01*
X836Y338D01*
Y338D01*
X837Y339D01*
X837Y340D01*
X838Y341D01*
X838Y342D01*
X839Y342D01*
X839Y342D01*
X839Y343D01*
X839Y343D01*
X840Y343D01*
X840Y343D01*
X840Y343D01*
X840Y343D01*
X840Y343D01*
X841Y344D01*
X841Y344D01*
X842Y344D01*
X843Y345D01*
X844Y345D01*
X845Y345D01*
X845Y345D01*
X846Y345D01*
X846D01*
X846Y345D01*
X847D01*
X848Y345D01*
D02*
G37*
G36*
X573Y345D02*
X573Y345D01*
X574Y345D01*
X575Y345D01*
X575Y345D01*
X576Y345D01*
X576Y345D01*
X577Y344D01*
X577Y344D01*
X578Y344D01*
X578Y344D01*
X578Y344D01*
X578Y343D01*
X579Y343D01*
X579Y343D01*
X579Y343D01*
X579Y343D01*
X580Y342D01*
X580Y342D01*
X581Y341D01*
X581Y340D01*
X582Y339D01*
X582Y339D01*
X582Y338D01*
X582Y338D01*
X582Y338D01*
X583Y337D01*
X583Y337D01*
X583Y337D01*
Y337D01*
X579Y336D01*
X579Y337D01*
X579Y337D01*
X579Y338D01*
X579Y338D01*
X578Y339D01*
X578Y339D01*
X578Y339D01*
X578Y340D01*
X577Y340D01*
X577Y340D01*
X577Y340D01*
X577Y341D01*
X577Y341D01*
X577Y341D01*
X577Y341D01*
X577Y341D01*
X576Y341D01*
X576Y341D01*
X575Y342D01*
X574Y342D01*
X573Y342D01*
X573Y342D01*
X572Y343D01*
X572D01*
X572Y343D01*
X572D01*
X571Y343D01*
X570Y342D01*
X569Y342D01*
X569Y342D01*
X568Y342D01*
X568Y342D01*
X568Y342D01*
X568Y341D01*
X567Y341D01*
X567Y341D01*
X567D01*
X567Y341D01*
X566Y340D01*
X566Y340D01*
X565Y339D01*
X565Y339D01*
X565Y338D01*
X565Y338D01*
X564Y338D01*
X564Y338D01*
Y338D01*
X564Y337D01*
X564Y336D01*
X564Y335D01*
X564Y334D01*
X564Y334D01*
X564Y333D01*
Y333D01*
X563Y333D01*
Y332D01*
Y332D01*
Y332D01*
Y332D01*
X564Y331D01*
X564Y330D01*
X564Y329D01*
X564Y329D01*
X564Y328D01*
X564Y328D01*
X564Y327D01*
X564Y327D01*
X564Y327D01*
X564Y327D01*
Y327D01*
X565Y326D01*
X565Y325D01*
X565Y325D01*
X566Y324D01*
X566Y324D01*
X567Y324D01*
X567Y323D01*
X567Y323D01*
X567D01*
X568Y323D01*
X569Y322D01*
X569Y322D01*
X570Y322D01*
X571Y322D01*
X571Y322D01*
X572D01*
X572Y322D01*
X572D01*
X573Y322D01*
X574Y322D01*
X574Y322D01*
X575Y322D01*
X576Y323D01*
X576Y323D01*
X576Y323D01*
X576Y323D01*
X577Y324D01*
X577Y324D01*
X578Y325D01*
X578Y326D01*
X578Y326D01*
X579Y327D01*
X579Y327D01*
X579Y327D01*
X579Y327D01*
X579Y327D01*
Y327D01*
X582Y326D01*
X582Y326D01*
X582Y325D01*
X581Y325D01*
X581Y324D01*
X581Y324D01*
X581Y323D01*
X580Y323D01*
X580Y322D01*
X580Y322D01*
X579Y322D01*
X579Y321D01*
X579Y321D01*
X579Y321D01*
X579Y321D01*
X579Y321D01*
X579Y321D01*
X578Y321D01*
X578Y320D01*
X577Y320D01*
X576Y320D01*
X575Y319D01*
X574Y319D01*
X574Y319D01*
X573Y319D01*
X573Y319D01*
X573Y319D01*
X572Y319D01*
X572D01*
X571Y319D01*
X570Y319D01*
X569Y319D01*
X568Y320D01*
X568Y320D01*
X567Y320D01*
X567Y320D01*
X567Y320D01*
X566Y320D01*
X566Y320D01*
X566Y320D01*
X566Y320D01*
X566Y321D01*
X565Y321D01*
X564Y322D01*
X563Y323D01*
X563Y323D01*
X562Y324D01*
X562Y324D01*
X562Y325D01*
X562Y325D01*
X562Y325D01*
X562Y325D01*
X562Y325D01*
X561Y326D01*
X561Y327D01*
X560Y329D01*
X560Y330D01*
X560Y330D01*
X560Y331D01*
X560Y331D01*
Y331D01*
X560Y332D01*
Y332D01*
Y332D01*
Y332D01*
X560Y333D01*
X560Y335D01*
X560Y336D01*
X561Y336D01*
X561Y337D01*
X561Y337D01*
X561Y338D01*
X561Y338D01*
X561Y338D01*
X561Y339D01*
X561Y339D01*
X561Y339D01*
Y339D01*
X562Y340D01*
X563Y341D01*
X563Y342D01*
X564Y342D01*
X564Y343D01*
X564Y343D01*
X564Y343D01*
X565Y343D01*
X565Y343D01*
X565Y344D01*
X565Y344D01*
X565Y344D01*
X565Y344D01*
X566Y344D01*
X566Y344D01*
X567Y345D01*
X569Y345D01*
X570Y345D01*
X570Y345D01*
X571Y345D01*
X571Y345D01*
X571D01*
X572Y345D01*
X572D01*
X573Y345D01*
D02*
G37*
G36*
X890Y345D02*
X891Y345D01*
X891Y344D01*
X892Y344D01*
X893Y344D01*
X893Y344D01*
X893Y344D01*
X893Y344D01*
X893Y344D01*
X893Y343D01*
X893D01*
X894Y343D01*
X894Y342D01*
X895Y341D01*
X895Y341D01*
X896Y340D01*
X896Y340D01*
X896Y340D01*
X896Y339D01*
X896Y339D01*
X896Y339D01*
Y339D01*
X896Y339D01*
X896Y338D01*
X897Y337D01*
X897Y336D01*
X897Y334D01*
X897Y334D01*
X897Y333D01*
Y333D01*
X897Y333D01*
Y332D01*
Y332D01*
Y332D01*
Y332D01*
Y331D01*
X897Y330D01*
Y330D01*
X897Y329D01*
X897Y329D01*
X897Y328D01*
X897Y328D01*
X897Y327D01*
X897Y327D01*
X897Y327D01*
X897Y326D01*
X897Y326D01*
X896Y326D01*
X896Y326D01*
X896Y326D01*
Y326D01*
X896Y325D01*
X896Y324D01*
X896Y324D01*
X895Y323D01*
X895Y323D01*
X895Y322D01*
X895Y322D01*
X895Y322D01*
X894Y321D01*
X894Y321D01*
X894Y321D01*
X893Y320D01*
X893Y320D01*
X892Y320D01*
X892Y320D01*
X892Y320D01*
X892D01*
X892Y319D01*
X891Y319D01*
X890Y319D01*
X890Y319D01*
X889Y319D01*
X889Y319D01*
X889D01*
X888Y319D01*
X887Y319D01*
X886Y319D01*
X885Y319D01*
X885Y320D01*
X884Y320D01*
X884Y320D01*
X884Y320D01*
X884Y320D01*
X884Y320D01*
X884D01*
X883Y321D01*
X883Y322D01*
X882Y322D01*
X882Y323D01*
X882Y324D01*
X881Y324D01*
X881Y324D01*
X881Y324D01*
X881Y324D01*
X881Y324D01*
Y325D01*
X881Y325D01*
X881Y326D01*
X881Y327D01*
X880Y328D01*
X880Y329D01*
X880Y330D01*
X880Y330D01*
Y331D01*
X880Y331D01*
Y331D01*
Y332D01*
Y332D01*
Y332D01*
X880Y333D01*
X880Y334D01*
X880Y335D01*
X881Y337D01*
X881Y337D01*
X881Y338D01*
X881Y339D01*
X882Y340D01*
X882Y340D01*
X882Y341D01*
X882Y341D01*
X882Y342D01*
X883Y342D01*
X883Y342D01*
X883Y342D01*
X883Y342D01*
X883Y343D01*
X884Y343D01*
X884Y344D01*
X885Y344D01*
X885Y344D01*
X886Y344D01*
X886Y344D01*
X886Y345D01*
X887Y345D01*
X887Y345D01*
X888Y345D01*
X888Y345D01*
X888Y345D01*
X889D01*
X890Y345D01*
D02*
G37*
G36*
X1048Y1049D02*
X1049Y1049D01*
X1050Y1048D01*
X1051Y1048D01*
X1051Y1048D01*
X1052Y1048D01*
X1052Y1048D01*
X1052Y1048D01*
X1053Y1048D01*
X1053Y1048D01*
X1053Y1047D01*
X1053Y1047D01*
X1053Y1047D01*
X1054Y1047D01*
X1055Y1046D01*
X1056Y1045D01*
X1056Y1045D01*
X1057Y1044D01*
X1057Y1044D01*
X1057Y1043D01*
X1057Y1043D01*
X1057Y1043D01*
X1057Y1043D01*
X1058Y1043D01*
X1058Y1042D01*
X1058Y1041D01*
X1059Y1039D01*
X1059Y1038D01*
X1059Y1038D01*
X1059Y1037D01*
X1059Y1037D01*
Y1037D01*
X1059Y1036D01*
Y1036D01*
Y1036D01*
Y1036D01*
X1059Y1035D01*
X1059Y1033D01*
X1059Y1032D01*
X1058Y1032D01*
X1058Y1031D01*
X1058Y1031D01*
X1058Y1030D01*
X1058Y1030D01*
X1058Y1030D01*
X1058Y1029D01*
X1058Y1029D01*
X1058Y1029D01*
Y1029D01*
X1057Y1028D01*
X1057Y1027D01*
X1056Y1026D01*
X1056Y1026D01*
X1055Y1025D01*
X1055Y1025D01*
X1055Y1025D01*
X1054Y1025D01*
X1054Y1024D01*
X1054Y1024D01*
X1054Y1024D01*
X1054Y1024D01*
X1054Y1024D01*
X1053Y1024D01*
X1053Y1024D01*
X1052Y1023D01*
X1051Y1023D01*
X1049Y1023D01*
X1049Y1023D01*
X1048Y1023D01*
X1048Y1023D01*
X1048D01*
X1047Y1022D01*
X1047D01*
X1046Y1023D01*
X1046Y1023D01*
X1045Y1023D01*
X1044Y1023D01*
X1044Y1023D01*
X1043Y1023D01*
X1043Y1023D01*
X1042Y1024D01*
X1042Y1024D01*
X1041Y1024D01*
X1041Y1024D01*
X1041Y1024D01*
X1041Y1024D01*
X1040Y1025D01*
X1040Y1025D01*
X1040Y1025D01*
X1040Y1025D01*
X1039Y1026D01*
X1039Y1026D01*
X1038Y1027D01*
X1038Y1028D01*
X1037Y1029D01*
X1037Y1029D01*
X1037Y1030D01*
X1037Y1030D01*
X1037Y1030D01*
X1037Y1031D01*
X1036Y1031D01*
X1036Y1031D01*
Y1031D01*
X1040Y1032D01*
X1040Y1031D01*
X1040Y1031D01*
X1040Y1030D01*
X1041Y1030D01*
X1041Y1029D01*
X1041Y1029D01*
X1041Y1029D01*
X1041Y1028D01*
X1042Y1028D01*
X1042Y1028D01*
X1042Y1027D01*
X1042Y1027D01*
X1042Y1027D01*
X1042Y1027D01*
X1042Y1027D01*
X1043Y1027D01*
X1043Y1027D01*
X1043Y1026D01*
X1044Y1026D01*
X1045Y1026D01*
X1046Y1026D01*
X1046Y1025D01*
X1047Y1025D01*
X1047D01*
X1047Y1025D01*
X1047D01*
X1048Y1025D01*
X1049Y1026D01*
X1050Y1026D01*
X1050Y1026D01*
X1051Y1026D01*
X1051Y1026D01*
X1051Y1026D01*
X1051Y1026D01*
X1052Y1027D01*
X1052Y1027D01*
X1052D01*
X1052Y1027D01*
X1053Y1028D01*
X1054Y1028D01*
X1054Y1029D01*
X1054Y1029D01*
X1054Y1030D01*
X1055Y1030D01*
X1055Y1030D01*
X1055Y1030D01*
Y1030D01*
X1055Y1031D01*
X1055Y1032D01*
X1055Y1033D01*
X1055Y1034D01*
X1055Y1034D01*
X1056Y1035D01*
Y1035D01*
X1056Y1035D01*
Y1036D01*
Y1036D01*
Y1036D01*
Y1036D01*
X1056Y1037D01*
X1055Y1038D01*
X1055Y1039D01*
X1055Y1039D01*
X1055Y1040D01*
X1055Y1040D01*
X1055Y1040D01*
X1055Y1041D01*
X1055Y1041D01*
X1055Y1041D01*
Y1041D01*
X1054Y1042D01*
X1054Y1042D01*
X1054Y1043D01*
X1053Y1044D01*
X1053Y1044D01*
X1052Y1044D01*
X1052Y1045D01*
X1052Y1045D01*
X1052D01*
X1051Y1045D01*
X1050Y1045D01*
X1050Y1046D01*
X1049Y1046D01*
X1048Y1046D01*
X1048Y1046D01*
X1048D01*
X1047Y1046D01*
X1047D01*
X1046Y1046D01*
X1045Y1046D01*
X1045Y1046D01*
X1044Y1045D01*
X1043Y1045D01*
X1043Y1045D01*
X1043Y1045D01*
X1043Y1045D01*
X1042Y1044D01*
X1042Y1044D01*
X1041Y1043D01*
X1041Y1042D01*
X1041Y1042D01*
X1040Y1041D01*
X1040Y1041D01*
X1040Y1041D01*
X1040Y1041D01*
X1040Y1041D01*
Y1041D01*
X1037Y1042D01*
X1037Y1042D01*
X1037Y1043D01*
X1038Y1043D01*
X1038Y1044D01*
X1038Y1044D01*
X1038Y1045D01*
X1039Y1045D01*
X1039Y1046D01*
X1039Y1046D01*
X1040Y1046D01*
X1040Y1046D01*
X1040Y1047D01*
X1040Y1047D01*
X1040Y1047D01*
X1040Y1047D01*
X1041Y1047D01*
X1041Y1047D01*
X1042Y1048D01*
X1042Y1048D01*
X1043Y1048D01*
X1044Y1048D01*
X1045Y1049D01*
X1045Y1049D01*
X1046Y1049D01*
X1046Y1049D01*
X1046Y1049D01*
X1047Y1049D01*
X1047D01*
X1048Y1049D01*
D02*
G37*
G36*
X832Y993D02*
X833Y993D01*
X833Y992D01*
X834Y992D01*
X834Y991D01*
X835Y991D01*
X835Y991D01*
X835Y990D01*
X835Y990D01*
X836Y990D01*
X836Y990D01*
X836Y989D01*
X836Y989D01*
X837Y988D01*
X837Y988D01*
X837Y988D01*
X837Y989D01*
X837Y990D01*
X837Y990D01*
X837Y991D01*
X837Y991D01*
X838Y992D01*
X838Y992D01*
X838Y992D01*
X838Y993D01*
X838Y993D01*
X839Y993D01*
X839Y993D01*
X839Y993D01*
X839Y994D01*
X839Y994D01*
X839Y994D01*
X839Y994D01*
X840Y994D01*
X841Y995D01*
X841Y995D01*
X842Y995D01*
X843Y995D01*
X843Y995D01*
X843D01*
X843Y995D01*
X844D01*
X844Y995D01*
X845Y995D01*
X846Y995D01*
X846Y995D01*
X847Y995D01*
X847Y995D01*
X847Y994D01*
X847Y994D01*
X847D01*
X848Y994D01*
X849Y993D01*
X849Y993D01*
X849Y993D01*
X850Y992D01*
X850Y992D01*
X850Y992D01*
X850Y992D01*
Y992D01*
X850Y991D01*
X850Y991D01*
X850Y990D01*
X850Y989D01*
X851Y988D01*
X851Y988D01*
Y987D01*
X851Y987D01*
Y987D01*
Y986D01*
Y986D01*
Y986D01*
Y975D01*
X825D01*
Y978D01*
X836D01*
Y982D01*
Y983D01*
X836Y983D01*
Y983D01*
X836Y984D01*
X836Y984D01*
Y984D01*
X836Y984D01*
Y984D01*
X836Y985D01*
X836Y985D01*
X836Y985D01*
X836Y985D01*
X836Y986D01*
X836Y986D01*
X836Y986D01*
X835Y986D01*
X835Y986D01*
X835Y987D01*
X834Y987D01*
X834Y987D01*
X834Y987D01*
X834Y987D01*
X833Y988D01*
X833Y988D01*
X832Y989D01*
X832Y989D01*
X831Y989D01*
X831Y990D01*
X831Y990D01*
X830Y990D01*
X830Y990D01*
X830D01*
X825Y993D01*
Y997D01*
X832Y993D01*
D02*
G37*
G36*
Y1083D02*
X833Y1083D01*
X833Y1082D01*
X834Y1082D01*
X834Y1081D01*
X835Y1081D01*
X835Y1081D01*
X835Y1080D01*
X835Y1080D01*
X836Y1080D01*
X836Y1080D01*
X836Y1079D01*
X836Y1079D01*
X837Y1078D01*
X837Y1078D01*
X837Y1078D01*
X837Y1079D01*
X837Y1080D01*
X837Y1080D01*
X837Y1081D01*
X837Y1081D01*
X838Y1082D01*
X838Y1082D01*
X838Y1082D01*
X838Y1083D01*
X838Y1083D01*
X839Y1083D01*
X839Y1083D01*
X839Y1084D01*
X839Y1084D01*
X839Y1084D01*
X839Y1084D01*
X839Y1084D01*
X840Y1084D01*
X841Y1085D01*
X841Y1085D01*
X842Y1085D01*
X843Y1085D01*
X843Y1085D01*
X843D01*
X843Y1085D01*
X844D01*
X844Y1085D01*
X845Y1085D01*
X846Y1085D01*
X846Y1085D01*
X847Y1085D01*
X847Y1085D01*
X847Y1084D01*
X847Y1084D01*
X847D01*
X848Y1084D01*
X849Y1084D01*
X849Y1083D01*
X849Y1083D01*
X850Y1082D01*
X850Y1082D01*
X850Y1082D01*
X850Y1082D01*
Y1082D01*
X850Y1081D01*
X850Y1081D01*
X850Y1080D01*
X850Y1079D01*
X851Y1078D01*
X851Y1078D01*
Y1077D01*
X851Y1077D01*
Y1077D01*
Y1076D01*
Y1076D01*
Y1076D01*
Y1065D01*
X825D01*
Y1068D01*
X836D01*
Y1072D01*
Y1073D01*
X836Y1073D01*
Y1073D01*
X836Y1074D01*
X836Y1074D01*
Y1074D01*
X836Y1074D01*
Y1074D01*
X836Y1075D01*
X836Y1075D01*
X836Y1075D01*
X836Y1075D01*
X836Y1076D01*
X836Y1076D01*
X836Y1076D01*
X835Y1076D01*
X835Y1076D01*
X835Y1077D01*
X834Y1077D01*
X834Y1077D01*
X834Y1077D01*
X834Y1077D01*
X833Y1078D01*
X833Y1078D01*
X832Y1079D01*
X832Y1079D01*
X831Y1079D01*
X831Y1080D01*
X831Y1080D01*
X830Y1080D01*
X830Y1080D01*
X830D01*
X825Y1083D01*
Y1087D01*
X832Y1083D01*
D02*
G37*
G36*
X685Y345D02*
X686Y345D01*
X686Y345D01*
X687Y345D01*
X688Y345D01*
X688Y345D01*
X689Y344D01*
X689Y344D01*
X689Y344D01*
X690Y344D01*
X690Y344D01*
X690Y343D01*
X690Y343D01*
X691Y343D01*
X691Y343D01*
X691Y343D01*
X691Y343D01*
X691Y342D01*
X692Y342D01*
X692Y341D01*
X692Y341D01*
X693Y340D01*
X693Y339D01*
X693Y339D01*
X693Y339D01*
X693Y338D01*
X693Y338D01*
X693Y338D01*
Y338D01*
Y337D01*
Y337D01*
X693Y337D01*
X693Y336D01*
X693Y335D01*
X692Y334D01*
X692Y334D01*
X692Y334D01*
X692Y333D01*
X692Y333D01*
X691Y333D01*
X691Y332D01*
X690Y332D01*
X690Y332D01*
X689Y331D01*
X689Y331D01*
X689Y331D01*
X688Y331D01*
X688Y331D01*
X688D01*
X689Y331D01*
X689Y330D01*
X690Y330D01*
X690Y330D01*
X691Y329D01*
X691Y329D01*
X691Y329D01*
X691Y329D01*
X691Y328D01*
X691Y328D01*
X692Y327D01*
X692Y327D01*
X692Y327D01*
X692Y326D01*
Y326D01*
Y326D01*
X692Y325D01*
X692Y325D01*
X692Y324D01*
X691Y324D01*
X691Y323D01*
X691Y323D01*
X691Y323D01*
X691Y323D01*
X691Y322D01*
X690Y322D01*
X690Y321D01*
X689Y321D01*
X689Y321D01*
X688Y320D01*
X688Y320D01*
X688Y320D01*
X688D01*
X688Y320D01*
X687Y320D01*
X686Y320D01*
X686Y319D01*
X685Y319D01*
X685Y319D01*
X684D01*
X683Y319D01*
X682Y320D01*
X681Y320D01*
X681Y320D01*
X680Y320D01*
X680Y320D01*
X680Y321D01*
X680Y321D01*
X679Y321D01*
X679Y321D01*
X679Y321D01*
X679Y321D01*
X679Y322D01*
X678Y323D01*
X678Y323D01*
X677Y324D01*
X677Y325D01*
X677Y325D01*
X677Y325D01*
X677Y326D01*
X677Y326D01*
X677Y326D01*
Y326D01*
X680Y326D01*
X680Y326D01*
X680Y325D01*
X680Y324D01*
X681Y324D01*
X681Y324D01*
X681Y323D01*
X681Y323D01*
X681Y323D01*
X682Y323D01*
X682Y322D01*
X683Y322D01*
X683Y322D01*
X684Y322D01*
X684Y322D01*
X684D01*
X685Y322D01*
X686Y322D01*
X686Y322D01*
X687Y322D01*
X687Y323D01*
X687Y323D01*
X687Y323D01*
X687Y323D01*
X688Y323D01*
X688Y324D01*
X688Y324D01*
X688Y325D01*
X689Y325D01*
X689Y326D01*
Y326D01*
Y326D01*
Y326D01*
Y326D01*
X689Y327D01*
X688Y327D01*
X688Y328D01*
X688Y328D01*
X688Y329D01*
X687Y329D01*
X687Y329D01*
X687Y329D01*
X687D01*
X686Y329D01*
X686Y330D01*
X685Y330D01*
X685Y330D01*
X684Y330D01*
X684Y330D01*
X683D01*
X683Y330D01*
X683D01*
X683Y333D01*
X683Y333D01*
X683Y333D01*
X684Y333D01*
X684Y333D01*
X684Y333D01*
X685D01*
X686Y333D01*
X686Y333D01*
X687Y333D01*
X687Y333D01*
X688Y333D01*
X688Y334D01*
X688Y334D01*
X688Y334D01*
X689Y334D01*
X689Y335D01*
X689Y336D01*
X690Y336D01*
X690Y337D01*
X690Y337D01*
X690Y337D01*
Y337D01*
Y337D01*
Y338D01*
X690Y338D01*
X690Y339D01*
X689Y340D01*
X689Y340D01*
X689Y341D01*
X688Y341D01*
X688Y341D01*
X688Y341D01*
X688Y342D01*
X687Y342D01*
X686Y342D01*
X686Y343D01*
X685Y343D01*
X685Y343D01*
X685Y343D01*
X684D01*
X684Y343D01*
X683Y343D01*
X683Y342D01*
X682Y342D01*
X682Y342D01*
X682Y342D01*
X681Y342D01*
X681Y342D01*
X681Y341D01*
X680Y341D01*
X680Y340D01*
X680Y339D01*
X680Y339D01*
X680Y338D01*
X680Y338D01*
X680Y338D01*
X680Y338D01*
X679Y338D01*
Y338D01*
X676Y338D01*
X676Y339D01*
X677Y339D01*
X677Y340D01*
X677Y341D01*
X677Y342D01*
X678Y342D01*
X678Y342D01*
X678Y343D01*
X678Y343D01*
X679Y343D01*
X679Y343D01*
X679Y343D01*
X679Y343D01*
X679Y343D01*
X679Y344D01*
X680Y344D01*
X680Y344D01*
X681Y345D01*
X682Y345D01*
X682Y345D01*
X683Y345D01*
X683Y345D01*
X684Y345D01*
X684Y345D01*
X684Y345D01*
X684D01*
X685Y345D01*
D02*
G37*
G36*
X965Y996D02*
X965Y996D01*
X964Y995D01*
X963Y995D01*
X963Y995D01*
X963Y995D01*
X962Y995D01*
X962Y994D01*
X961Y994D01*
X961Y994D01*
X961Y994D01*
X961Y994D01*
X961Y993D01*
X960Y993D01*
X960Y993D01*
X960Y993D01*
X960Y993D01*
X960Y993D01*
X960Y992D01*
X959Y992D01*
X959Y991D01*
X959Y990D01*
X959Y989D01*
X959Y989D01*
Y989D01*
X959Y989D01*
Y988D01*
Y988D01*
Y988D01*
X959Y987D01*
X959Y987D01*
X959Y986D01*
X959Y985D01*
X959Y985D01*
X960Y985D01*
X960Y984D01*
X960Y984D01*
X960Y984D01*
X960Y984D01*
Y984D01*
X960Y983D01*
X961Y983D01*
X962Y982D01*
X962Y982D01*
X963Y981D01*
X963Y981D01*
X963Y981D01*
X963Y981D01*
X963Y981D01*
X963D01*
X964Y981D01*
X965Y980D01*
X966Y980D01*
X967Y980D01*
X968Y980D01*
X968Y980D01*
X968D01*
X969Y980D01*
X969D01*
X970Y980D01*
X971Y980D01*
X972Y980D01*
X973Y980D01*
X973Y981D01*
X973Y981D01*
X974Y981D01*
X974Y981D01*
X974Y981D01*
X974Y981D01*
X974D01*
X975Y981D01*
X976Y982D01*
X976Y982D01*
X977Y983D01*
X977Y983D01*
X978Y983D01*
X978Y984D01*
X978Y984D01*
Y984D01*
X978Y984D01*
X979Y985D01*
X979Y986D01*
X979Y987D01*
X979Y988D01*
X979Y988D01*
Y988D01*
X979Y988D01*
Y988D01*
Y989D01*
Y989D01*
X979Y990D01*
X979Y990D01*
X979Y991D01*
X979Y992D01*
X978Y992D01*
X978Y993D01*
X978Y993D01*
X978Y993D01*
X977Y993D01*
X977Y994D01*
X976Y994D01*
X976Y995D01*
X975Y995D01*
X975Y995D01*
X974Y995D01*
X974Y995D01*
X974Y995D01*
X974Y995D01*
X974D01*
X975Y999D01*
X975Y999D01*
X976Y998D01*
X977Y998D01*
X977Y998D01*
X978Y997D01*
X978Y997D01*
X978Y997D01*
X979Y997D01*
X979Y996D01*
X979Y996D01*
X980Y996D01*
X980Y996D01*
X980Y995D01*
X980Y995D01*
X980Y995D01*
X980Y995D01*
X981Y995D01*
X981Y994D01*
X981Y994D01*
X981Y993D01*
X982Y992D01*
X982Y991D01*
X982Y990D01*
X982Y990D01*
X982Y990D01*
X982Y989D01*
X982Y989D01*
Y989D01*
Y989D01*
Y989D01*
X982Y987D01*
X982Y986D01*
X982Y985D01*
X982Y985D01*
X981Y984D01*
X981Y984D01*
X981Y984D01*
X981Y983D01*
X981Y983D01*
X981Y983D01*
X981Y983D01*
X981Y982D01*
X981Y982D01*
X980Y981D01*
X979Y981D01*
X979Y980D01*
X978Y979D01*
X977Y979D01*
X977Y979D01*
X977Y978D01*
X976Y978D01*
X976Y978D01*
X976Y978D01*
X976Y978D01*
X975Y978D01*
X974Y977D01*
X973Y977D01*
X972Y977D01*
X971Y977D01*
X971Y977D01*
X970Y977D01*
X970D01*
X970Y977D01*
X969D01*
X968Y977D01*
X967Y977D01*
X965Y977D01*
X965Y977D01*
X964Y977D01*
X964Y977D01*
X964Y978D01*
X963Y978D01*
X963Y978D01*
X963Y978D01*
X962Y978D01*
X962Y978D01*
X962D01*
X961Y978D01*
X960Y979D01*
X959Y980D01*
X959Y980D01*
X959Y980D01*
X958Y981D01*
X958Y981D01*
X958Y981D01*
X958Y981D01*
X958Y982D01*
X957Y982D01*
X957Y982D01*
X957Y982D01*
X957Y982D01*
X957Y983D01*
X956Y984D01*
X956Y985D01*
X956Y986D01*
X956Y987D01*
X956Y987D01*
X956Y988D01*
Y988D01*
X956Y988D01*
Y988D01*
Y989D01*
Y989D01*
X956Y989D01*
X956Y990D01*
X956Y991D01*
X956Y991D01*
X956Y992D01*
X956Y993D01*
X957Y993D01*
X957Y993D01*
X957Y994D01*
X957Y994D01*
X957Y995D01*
X958Y995D01*
X958Y995D01*
X958Y995D01*
X958Y995D01*
X958Y995D01*
X958Y996D01*
X959Y996D01*
X959Y997D01*
X960Y997D01*
X961Y998D01*
X962Y998D01*
X962Y999D01*
X963Y999D01*
X963Y999D01*
X964Y999D01*
X964Y999D01*
X964Y999D01*
X964Y999D01*
X964D01*
X965Y996D01*
D02*
G37*
G36*
X959Y1006D02*
X960Y1006D01*
X960Y1007D01*
X960Y1007D01*
X961Y1007D01*
X961Y1007D01*
X961Y1007D01*
X961Y1007D01*
X961Y1008D01*
X961Y1008D01*
X962Y1008D01*
X962Y1009D01*
X963Y1010D01*
X963Y1010D01*
X964Y1010D01*
X964Y1011D01*
X964Y1011D01*
X964Y1011D01*
X964Y1011D01*
X964Y1011D01*
X965Y1012D01*
X965Y1012D01*
X966Y1013D01*
X966Y1013D01*
X966Y1014D01*
X967Y1014D01*
X967Y1014D01*
X967Y1015D01*
X968Y1015D01*
X968Y1015D01*
X968Y1015D01*
X968Y1016D01*
X969Y1016D01*
X969Y1016D01*
X969Y1016D01*
X970Y1017D01*
X970Y1017D01*
X971Y1017D01*
X971Y1018D01*
X971Y1018D01*
X972Y1018D01*
X972Y1018D01*
X972Y1018D01*
X973Y1018D01*
X973Y1018D01*
X974Y1019D01*
X974Y1019D01*
X975Y1019D01*
X975D01*
X975Y1019D01*
X976Y1019D01*
X976Y1018D01*
X977Y1018D01*
X978Y1018D01*
X978Y1018D01*
X979Y1017D01*
X979Y1017D01*
X979Y1017D01*
X979Y1017D01*
X980Y1017D01*
X980Y1017D01*
X980Y1016D01*
X980Y1016D01*
X980Y1016D01*
X981Y1016D01*
X981Y1015D01*
X981Y1015D01*
X981Y1014D01*
X982Y1013D01*
X982Y1012D01*
X982Y1012D01*
X982Y1012D01*
X982Y1011D01*
X982Y1011D01*
Y1011D01*
Y1011D01*
Y1011D01*
X982Y1010D01*
X982Y1009D01*
X982Y1009D01*
X982Y1008D01*
X981Y1008D01*
X981Y1007D01*
X981Y1007D01*
X981Y1006D01*
X981Y1006D01*
X981Y1006D01*
X980Y1005D01*
X980Y1005D01*
X980Y1005D01*
X980Y1005D01*
X980Y1005D01*
X980Y1005D01*
X980Y1004D01*
X979Y1004D01*
X979Y1004D01*
X978Y1003D01*
X977Y1003D01*
X977Y1003D01*
X976Y1003D01*
X976Y1002D01*
X975Y1002D01*
X975Y1002D01*
X975Y1002D01*
X975D01*
X975Y1002D01*
X974D01*
X974Y1005D01*
X975Y1006D01*
X976Y1006D01*
X976Y1006D01*
X977Y1006D01*
X977Y1006D01*
X978Y1007D01*
X978Y1007D01*
X978Y1007D01*
X978Y1007D01*
X979Y1008D01*
X979Y1009D01*
X979Y1009D01*
X979Y1010D01*
X979Y1010D01*
X979Y1010D01*
Y1010D01*
Y1010D01*
Y1011D01*
X979Y1011D01*
X979Y1012D01*
X979Y1013D01*
X979Y1013D01*
X978Y1014D01*
X978Y1014D01*
X978Y1014D01*
X978Y1014D01*
X977Y1014D01*
X977Y1015D01*
X976Y1015D01*
X976Y1015D01*
X976Y1015D01*
X975Y1015D01*
X975Y1015D01*
X975D01*
X974Y1015D01*
X973Y1015D01*
X973Y1015D01*
X972Y1015D01*
X972Y1014D01*
X971Y1014D01*
X971Y1014D01*
X971Y1014D01*
X971Y1014D01*
X971D01*
X971Y1014D01*
X970Y1013D01*
X970Y1013D01*
X969Y1012D01*
X968Y1011D01*
X968Y1011D01*
X967Y1010D01*
X967Y1010D01*
X966Y1009D01*
X966Y1009D01*
X966Y1009D01*
X966Y1008D01*
X966Y1008D01*
X966Y1008D01*
X965Y1007D01*
X964Y1006D01*
X963Y1006D01*
X963Y1005D01*
X962Y1005D01*
X962Y1004D01*
X962Y1004D01*
X962Y1004D01*
X962D01*
X961Y1004D01*
X961Y1003D01*
X960Y1003D01*
X959Y1003D01*
X959Y1002D01*
X959Y1002D01*
X958Y1002D01*
X958Y1002D01*
X958D01*
X958Y1002D01*
X958Y1002D01*
X957Y1002D01*
X957Y1002D01*
X957Y1002D01*
X956D01*
Y1019D01*
X959D01*
Y1006D01*
D02*
G37*
G36*
X851Y1099D02*
X850Y1099D01*
X849Y1099D01*
X849Y1098D01*
X848Y1098D01*
X848Y1097D01*
X848Y1097D01*
X847Y1097D01*
X847Y1097D01*
X847Y1097D01*
X847Y1096D01*
X847Y1096D01*
X846Y1095D01*
X846Y1094D01*
X845Y1093D01*
X845Y1093D01*
X845Y1093D01*
X844Y1092D01*
X844Y1092D01*
X844Y1092D01*
X844Y1092D01*
Y1092D01*
X841D01*
X841Y1092D01*
X842Y1093D01*
X842Y1094D01*
X842Y1094D01*
X842Y1095D01*
X843Y1095D01*
X843Y1095D01*
X843Y1095D01*
Y1095D01*
X843Y1096D01*
X844Y1096D01*
X844Y1097D01*
X844Y1097D01*
X845Y1098D01*
X845Y1098D01*
X845Y1098D01*
X845Y1098D01*
X825D01*
Y1101D01*
X851D01*
Y1099D01*
D02*
G37*
G36*
X757Y1009D02*
Y1006D01*
X745D01*
Y1000D01*
X742D01*
Y1006D01*
X739D01*
Y1009D01*
X742D01*
Y1026D01*
X745D01*
X757Y1009D01*
D02*
G37*
G36*
X1240Y536D02*
Y535D01*
X1240Y534D01*
X1240Y534D01*
X1240Y533D01*
X1240Y533D01*
X1240Y532D01*
X1240Y532D01*
X1240Y531D01*
X1239Y531D01*
X1239Y530D01*
X1239Y530D01*
X1239Y530D01*
X1239Y530D01*
X1239Y529D01*
X1239Y529D01*
Y529D01*
X1239Y529D01*
X1238Y528D01*
X1238Y527D01*
X1237Y527D01*
X1237Y526D01*
X1236Y526D01*
X1236Y526D01*
X1236Y526D01*
X1236Y526D01*
X1236D01*
X1235Y525D01*
X1234Y525D01*
X1233Y525D01*
X1232Y525D01*
X1232Y525D01*
X1231Y525D01*
X1231Y525D01*
X1230D01*
X1230Y525D01*
X1230D01*
X1229Y525D01*
X1228Y525D01*
X1227Y525D01*
X1227Y525D01*
X1226Y525D01*
X1226Y525D01*
X1226Y525D01*
X1225Y525D01*
X1225Y526D01*
X1225Y526D01*
X1224Y526D01*
X1224Y526D01*
X1224Y526D01*
X1224Y526D01*
X1224D01*
X1223Y527D01*
X1222Y527D01*
X1222Y528D01*
X1222Y528D01*
X1221Y529D01*
X1221Y529D01*
X1221Y529D01*
X1221Y530D01*
X1221Y530D01*
Y530D01*
X1221Y530D01*
X1220Y531D01*
X1220Y532D01*
X1220Y533D01*
X1220Y534D01*
X1220Y534D01*
X1220Y534D01*
Y535D01*
X1220Y535D01*
Y535D01*
Y536D01*
Y536D01*
Y536D01*
Y551D01*
X1223D01*
Y536D01*
Y535D01*
X1223Y534D01*
X1223Y533D01*
X1224Y533D01*
X1224Y532D01*
X1224Y532D01*
X1224Y531D01*
X1224Y531D01*
X1224Y530D01*
X1224Y530D01*
X1224Y530D01*
X1225Y530D01*
X1225Y529D01*
X1225Y529D01*
X1225Y529D01*
X1225Y529D01*
X1225Y529D01*
X1226Y529D01*
X1226Y528D01*
X1227Y528D01*
X1228Y528D01*
X1229Y528D01*
X1229Y528D01*
X1230D01*
X1230Y528D01*
X1230D01*
X1231Y528D01*
X1232Y528D01*
X1232Y528D01*
X1233Y528D01*
X1233Y528D01*
X1234Y528D01*
X1234Y528D01*
X1234Y528D01*
X1234Y529D01*
X1235Y529D01*
X1235Y530D01*
X1235Y530D01*
X1236Y530D01*
X1236Y531D01*
X1236Y531D01*
X1236Y531D01*
X1236Y531D01*
X1236Y532D01*
X1236Y532D01*
X1236Y533D01*
X1237Y534D01*
X1237Y535D01*
Y535D01*
X1237Y535D01*
Y535D01*
Y536D01*
Y536D01*
Y536D01*
Y551D01*
X1240D01*
Y536D01*
D02*
G37*
G36*
X1208Y551D02*
X1208Y551D01*
X1209Y551D01*
X1209Y550D01*
X1210Y550D01*
X1210Y550D01*
X1211Y550D01*
X1211Y550D01*
X1212Y550D01*
X1212Y549D01*
X1212Y549D01*
X1212Y549D01*
X1213Y549D01*
X1213Y549D01*
X1213Y549D01*
X1213Y549D01*
X1213Y548D01*
X1214Y548D01*
X1214Y548D01*
X1214Y547D01*
X1215Y546D01*
X1215Y545D01*
X1215Y545D01*
X1215Y545D01*
X1215Y544D01*
X1215Y544D01*
X1215Y544D01*
Y543D01*
X1215Y543D01*
Y543D01*
X1212Y543D01*
X1212Y544D01*
X1212Y545D01*
X1212Y545D01*
X1211Y546D01*
X1211Y546D01*
X1211Y546D01*
X1211Y547D01*
X1211Y547D01*
X1210Y547D01*
X1210Y548D01*
X1209Y548D01*
X1208Y548D01*
X1208Y548D01*
X1207Y548D01*
X1207Y548D01*
X1207D01*
X1206Y548D01*
X1206Y548D01*
X1205Y548D01*
X1205Y547D01*
X1204Y547D01*
X1204Y547D01*
X1204Y547D01*
X1204Y547D01*
X1203Y546D01*
X1203Y546D01*
X1203Y545D01*
X1202Y545D01*
X1202Y544D01*
X1202Y544D01*
X1202Y544D01*
Y544D01*
Y544D01*
X1202Y543D01*
X1202Y542D01*
X1203Y542D01*
X1203Y541D01*
X1203Y541D01*
X1204Y540D01*
X1204Y540D01*
X1204Y540D01*
X1204Y540D01*
Y540D01*
X1204Y539D01*
X1204Y539D01*
X1205Y539D01*
X1205Y538D01*
X1206Y537D01*
X1207Y536D01*
X1208Y536D01*
X1208Y536D01*
X1208Y535D01*
X1209Y535D01*
X1209Y535D01*
X1209Y535D01*
X1209Y534D01*
X1209Y534D01*
X1210Y534D01*
X1211Y533D01*
X1212Y532D01*
X1212Y532D01*
X1213Y531D01*
X1213Y531D01*
X1213Y531D01*
X1214Y531D01*
Y531D01*
X1214Y530D01*
X1214Y529D01*
X1215Y529D01*
X1215Y528D01*
X1215Y528D01*
X1215Y527D01*
X1216Y527D01*
X1216Y527D01*
Y527D01*
X1216Y527D01*
X1216Y526D01*
X1216Y526D01*
X1216Y526D01*
X1216Y525D01*
Y525D01*
Y525D01*
Y525D01*
X1199D01*
Y528D01*
X1212D01*
X1211Y529D01*
X1211Y529D01*
X1211Y529D01*
X1211Y529D01*
X1210Y530D01*
X1210Y530D01*
X1210Y530D01*
X1210Y530D01*
X1210Y530D01*
X1209Y531D01*
X1209Y531D01*
X1208Y532D01*
X1208Y532D01*
X1207Y532D01*
X1207Y533D01*
X1207Y533D01*
X1207Y533D01*
X1207Y533D01*
X1207Y533D01*
X1206Y533D01*
X1205Y534D01*
X1205Y534D01*
X1204Y535D01*
X1204Y535D01*
X1204Y536D01*
X1203Y536D01*
X1203Y536D01*
X1203Y537D01*
X1202Y537D01*
X1202Y537D01*
X1202Y537D01*
X1202Y537D01*
X1202Y537D01*
X1201Y538D01*
X1201Y539D01*
X1200Y539D01*
X1200Y540D01*
X1200Y540D01*
X1200Y540D01*
X1200Y541D01*
X1200Y541D01*
X1199Y541D01*
X1199Y542D01*
X1199Y542D01*
X1199Y543D01*
X1199Y543D01*
X1199Y543D01*
Y544D01*
Y544D01*
X1199Y544D01*
X1199Y545D01*
X1199Y545D01*
X1199Y546D01*
X1200Y547D01*
X1200Y547D01*
X1200Y548D01*
X1200Y548D01*
X1201Y548D01*
X1201Y548D01*
X1201Y548D01*
X1201Y549D01*
X1201Y549D01*
X1201Y549D01*
X1202Y549D01*
X1202Y549D01*
X1203Y550D01*
X1203Y550D01*
X1204Y550D01*
X1205Y550D01*
X1205Y551D01*
X1206Y551D01*
X1206Y551D01*
X1206Y551D01*
X1207Y551D01*
X1207D01*
X1208Y551D01*
D02*
G37*
G36*
X828Y1003D02*
X829Y1004D01*
X829Y1004D01*
X829Y1004D01*
X829Y1004D01*
X830Y1005D01*
X830Y1005D01*
X830Y1005D01*
X830Y1005D01*
X830Y1005D01*
X831Y1006D01*
X831Y1006D01*
X832Y1007D01*
X832Y1007D01*
X832Y1008D01*
X833Y1008D01*
X833Y1008D01*
X833Y1008D01*
X833Y1008D01*
X833Y1008D01*
X833Y1009D01*
X834Y1010D01*
X834Y1010D01*
X835Y1011D01*
X835Y1011D01*
X836Y1011D01*
X836Y1012D01*
X836Y1012D01*
X837Y1012D01*
X837Y1013D01*
X837Y1013D01*
X837Y1013D01*
X837Y1013D01*
X837Y1013D01*
X838Y1014D01*
X839Y1014D01*
X839Y1015D01*
X840Y1015D01*
X840Y1015D01*
X840Y1015D01*
X841Y1015D01*
X841Y1015D01*
X841Y1016D01*
X842Y1016D01*
X842Y1016D01*
X843Y1016D01*
X843Y1016D01*
X843Y1016D01*
X844D01*
X844Y1016D01*
X845Y1016D01*
X845Y1016D01*
X846Y1016D01*
X847Y1015D01*
X847Y1015D01*
X848Y1015D01*
X848Y1015D01*
X848Y1014D01*
X848Y1014D01*
X848Y1014D01*
X849Y1014D01*
X849Y1014D01*
X849Y1014D01*
X849Y1013D01*
X849Y1013D01*
X850Y1012D01*
X850Y1012D01*
X850Y1011D01*
X850Y1010D01*
X851Y1010D01*
X851Y1009D01*
X851Y1009D01*
X851Y1009D01*
X851Y1008D01*
Y1008D01*
Y1008D01*
Y1008D01*
X851Y1007D01*
X851Y1007D01*
X851Y1006D01*
X850Y1006D01*
X850Y1005D01*
X850Y1005D01*
X850Y1004D01*
X850Y1004D01*
X850Y1003D01*
X849Y1003D01*
X849Y1003D01*
X849Y1003D01*
X849Y1002D01*
X849Y1002D01*
X849Y1002D01*
X849Y1002D01*
X848Y1002D01*
X848Y1001D01*
X848Y1001D01*
X847Y1001D01*
X846Y1000D01*
X845Y1000D01*
X845Y1000D01*
X845Y1000D01*
X844Y1000D01*
X844Y1000D01*
X844Y1000D01*
X843D01*
X843Y1000D01*
X843D01*
X843Y1003D01*
X844Y1003D01*
X845Y1003D01*
X845Y1003D01*
X846Y1004D01*
X846Y1004D01*
X846Y1004D01*
X847Y1004D01*
X847Y1004D01*
X847Y1005D01*
X848Y1005D01*
X848Y1006D01*
X848Y1007D01*
X848Y1007D01*
X848Y1008D01*
X848Y1008D01*
Y1008D01*
Y1008D01*
Y1008D01*
X848Y1009D01*
X848Y1009D01*
X848Y1010D01*
X847Y1010D01*
X847Y1011D01*
X847Y1011D01*
X847Y1011D01*
X847Y1011D01*
X846Y1012D01*
X846Y1012D01*
X845Y1012D01*
X845Y1013D01*
X844Y1013D01*
X844Y1013D01*
X844Y1013D01*
X844D01*
X843Y1013D01*
X842Y1013D01*
X842Y1012D01*
X841Y1012D01*
X841Y1012D01*
X840Y1011D01*
X840Y1011D01*
X840Y1011D01*
X840Y1011D01*
X840D01*
X839Y1011D01*
X839Y1011D01*
X839Y1010D01*
X838Y1010D01*
X837Y1009D01*
X836Y1008D01*
X836Y1007D01*
X836Y1007D01*
X835Y1007D01*
X835Y1006D01*
X835Y1006D01*
X835Y1006D01*
X834Y1006D01*
X834Y1006D01*
X834Y1005D01*
X833Y1004D01*
X832Y1003D01*
X832Y1003D01*
X831Y1002D01*
X831Y1002D01*
X831Y1002D01*
X831Y1001D01*
X831D01*
X830Y1001D01*
X829Y1001D01*
X829Y1000D01*
X828Y1000D01*
X828Y1000D01*
X827Y1000D01*
X827Y999D01*
X827Y999D01*
X827D01*
X827Y999D01*
X826Y999D01*
X826Y999D01*
X826Y999D01*
X825Y999D01*
X825D01*
Y1016D01*
X828D01*
Y1003D01*
D02*
G37*
G36*
X670Y338D02*
X669Y337D01*
X669Y337D01*
X668Y336D01*
X668Y336D01*
X668Y335D01*
X667Y335D01*
X667Y335D01*
X667Y335D01*
X667Y334D01*
X666Y334D01*
X666Y334D01*
X665Y334D01*
X665Y333D01*
X665Y333D01*
X665Y333D01*
X666Y333D01*
X666Y333D01*
X667Y333D01*
X667Y333D01*
X668Y333D01*
X668Y332D01*
X669Y332D01*
X669Y332D01*
X669Y332D01*
X670Y332D01*
X670Y331D01*
X670Y331D01*
X670Y331D01*
X670Y331D01*
X670Y331D01*
X670Y331D01*
X671Y331D01*
X671Y330D01*
X672Y329D01*
X672Y329D01*
X672Y328D01*
X672Y327D01*
X672Y327D01*
Y327D01*
X672Y327D01*
Y326D01*
Y326D01*
Y326D01*
X672Y326D01*
X672Y325D01*
X672Y324D01*
X672Y324D01*
X672Y323D01*
X671Y323D01*
X671Y323D01*
X671Y323D01*
Y323D01*
X671Y322D01*
X670Y321D01*
X670Y321D01*
X669Y321D01*
X669Y320D01*
X669Y320D01*
X668Y320D01*
X668Y320D01*
X668D01*
X668Y320D01*
X668Y320D01*
X667Y320D01*
X666Y320D01*
X665Y319D01*
X664Y319D01*
X664D01*
X664Y319D01*
X652D01*
Y345D01*
X655D01*
Y334D01*
X660D01*
X660Y334D01*
X660D01*
X661Y334D01*
X661Y334D01*
X661D01*
X661Y334D01*
X661D01*
X662Y334D01*
X662Y334D01*
X662Y334D01*
X662Y334D01*
X662Y334D01*
X662Y334D01*
X663Y334D01*
X663Y335D01*
X663Y335D01*
X664Y335D01*
X664Y336D01*
X664Y336D01*
X664Y336D01*
X664Y336D01*
X665Y337D01*
X665Y337D01*
X665Y338D01*
X666Y338D01*
X666Y339D01*
X666Y339D01*
X667Y339D01*
X667Y340D01*
X667Y340D01*
Y340D01*
X670Y345D01*
X674D01*
X670Y338D01*
D02*
G37*
G36*
X780Y1000D02*
X777D01*
Y1011D01*
X772D01*
X772Y1011D01*
X772D01*
X771Y1011D01*
X771Y1011D01*
X771D01*
X771Y1011D01*
X771D01*
X770Y1011D01*
X770Y1011D01*
X770Y1011D01*
X770Y1011D01*
X769Y1011D01*
X769Y1011D01*
X769Y1011D01*
X769Y1010D01*
X769Y1010D01*
X768Y1010D01*
X768Y1009D01*
X768Y1009D01*
X768Y1009D01*
X768Y1009D01*
X767Y1008D01*
X767Y1008D01*
X766Y1007D01*
X766Y1007D01*
X766Y1006D01*
X765Y1006D01*
X765Y1006D01*
X765Y1005D01*
X765Y1005D01*
Y1005D01*
X762Y1000D01*
X758D01*
X762Y1007D01*
X762Y1008D01*
X763Y1008D01*
X763Y1009D01*
X764Y1009D01*
X764Y1010D01*
X764Y1010D01*
X765Y1010D01*
X765Y1010D01*
X765Y1011D01*
X765Y1011D01*
X766Y1011D01*
X766Y1011D01*
X767Y1012D01*
X767Y1012D01*
X767Y1012D01*
X766Y1012D01*
X765Y1012D01*
X765Y1012D01*
X764Y1012D01*
X764Y1012D01*
X763Y1013D01*
X763Y1013D01*
X763Y1013D01*
X762Y1013D01*
X762Y1013D01*
X762Y1014D01*
X762Y1014D01*
X762Y1014D01*
X761Y1014D01*
X761Y1014D01*
X761Y1014D01*
X761Y1014D01*
X761Y1015D01*
X760Y1016D01*
X760Y1016D01*
X760Y1017D01*
X760Y1018D01*
X760Y1018D01*
Y1018D01*
X760Y1018D01*
Y1018D01*
Y1019D01*
Y1019D01*
X760Y1019D01*
X760Y1020D01*
X760Y1021D01*
X760Y1021D01*
X760Y1022D01*
X760Y1022D01*
X761Y1022D01*
X761Y1022D01*
Y1022D01*
X761Y1023D01*
X762Y1024D01*
X762Y1024D01*
X762Y1024D01*
X763Y1025D01*
X763Y1025D01*
X763Y1025D01*
X763Y1025D01*
X763D01*
X764Y1025D01*
X764Y1025D01*
X765Y1025D01*
X766Y1025D01*
X767Y1026D01*
X767Y1026D01*
X768D01*
X768Y1026D01*
X780D01*
Y1000D01*
D02*
G37*
%LPC*%
G36*
X779Y334D02*
X779D01*
X778Y333D01*
X777Y333D01*
X777Y333D01*
X776Y333D01*
X776Y332D01*
X775Y332D01*
X775Y332D01*
X775Y332D01*
X775Y331D01*
X774Y331D01*
X774Y330D01*
X774Y329D01*
X774Y329D01*
X774Y329D01*
Y328D01*
X774Y328D01*
Y328D01*
Y328D01*
Y328D01*
X774Y327D01*
X774Y326D01*
X774Y325D01*
X775Y325D01*
X775Y324D01*
X775Y324D01*
X775Y324D01*
X775Y324D01*
X775Y324D01*
Y324D01*
X776Y323D01*
X776Y323D01*
X776Y323D01*
X777Y322D01*
X778Y322D01*
X778Y322D01*
X779Y322D01*
X779Y322D01*
X779D01*
X780Y322D01*
X780Y322D01*
X781Y322D01*
X781Y323D01*
X782Y323D01*
X782Y323D01*
X782Y323D01*
X782Y323D01*
Y323D01*
X783Y324D01*
X783Y325D01*
X784Y326D01*
X784Y326D01*
X784Y327D01*
X784Y327D01*
Y327D01*
X784Y328D01*
Y328D01*
Y328D01*
Y328D01*
X784Y329D01*
X784Y330D01*
X783Y330D01*
X783Y331D01*
X783Y331D01*
X783Y332D01*
X783Y332D01*
X782Y332D01*
X782Y333D01*
X781Y333D01*
X781Y333D01*
X780Y333D01*
X780Y333D01*
X779Y333D01*
X779Y334D01*
D02*
G37*
G36*
X844Y992D02*
X844D01*
X843Y992D01*
X843Y992D01*
X842Y992D01*
X842Y992D01*
X842Y992D01*
X841Y991D01*
X841Y991D01*
X841Y991D01*
X841Y991D01*
X841Y991D01*
X840Y990D01*
X840Y990D01*
X840Y990D01*
X840Y990D01*
X840Y989D01*
X840Y989D01*
X840Y989D01*
X839Y988D01*
X839Y988D01*
X839Y987D01*
X839Y986D01*
X839Y986D01*
Y986D01*
Y986D01*
Y986D01*
Y986D01*
Y978D01*
X848D01*
Y986D01*
X848Y987D01*
X848Y988D01*
X847Y989D01*
X847Y990D01*
X847Y990D01*
X847Y990D01*
X847Y991D01*
X847Y991D01*
X846Y991D01*
X846Y991D01*
X845Y992D01*
X845Y992D01*
X844Y992D01*
X844Y992D01*
X844Y992D01*
D02*
G37*
G36*
X889Y342D02*
X889D01*
X888Y342D01*
X888Y342D01*
X887Y342D01*
X887Y342D01*
X886Y341D01*
X886Y341D01*
X885Y341D01*
X885Y340D01*
X885Y340D01*
Y340D01*
X885Y340D01*
X884Y339D01*
X884Y339D01*
X884Y338D01*
X884Y337D01*
X884Y337D01*
X884Y335D01*
X884Y335D01*
X884Y334D01*
X884Y333D01*
Y333D01*
X883Y332D01*
Y332D01*
Y332D01*
Y332D01*
X884Y331D01*
X884Y330D01*
X884Y329D01*
X884Y328D01*
X884Y327D01*
X884Y326D01*
X884Y326D01*
X884Y325D01*
X884Y325D01*
X885Y324D01*
X885Y324D01*
X885Y324D01*
X885Y323D01*
X885Y323D01*
X885Y323D01*
Y323D01*
X885Y323D01*
X886Y323D01*
X886Y322D01*
X886Y322D01*
X887Y322D01*
X887Y322D01*
X888Y321D01*
X888Y321D01*
X888Y321D01*
X889D01*
X889Y321D01*
X889Y321D01*
X890Y322D01*
X890Y322D01*
X891Y322D01*
X891Y322D01*
X892Y323D01*
X892Y323D01*
X892Y323D01*
X892Y323D01*
X892Y323D01*
Y323D01*
X893Y324D01*
X893Y324D01*
X893Y325D01*
X893Y326D01*
X893Y326D01*
X893Y327D01*
X894Y328D01*
X894Y329D01*
X894Y330D01*
X894Y330D01*
Y331D01*
X894Y331D01*
Y332D01*
Y332D01*
Y332D01*
Y332D01*
Y333D01*
X894Y334D01*
X894Y335D01*
X894Y336D01*
X893Y337D01*
X893Y337D01*
X893Y338D01*
X893Y338D01*
X893Y339D01*
X893Y339D01*
X893Y340D01*
X892Y340D01*
X892Y340D01*
X892Y340D01*
X892Y340D01*
Y340D01*
X892Y341D01*
X892Y341D01*
X891Y341D01*
X891Y341D01*
X890Y342D01*
X890Y342D01*
X889Y342D01*
X889Y342D01*
X889Y342D01*
D02*
G37*
G36*
X745Y1020D02*
Y1009D01*
X754D01*
X745Y1020D01*
D02*
G37*
G36*
X1195Y335D02*
X1187D01*
X1195Y324D01*
Y335D01*
D02*
G37*
G36*
X1025Y1035D02*
X1025D01*
X1024Y1035D01*
X1024Y1035D01*
X1023Y1035D01*
X1022Y1035D01*
X1022Y1034D01*
X1022Y1034D01*
X1021Y1034D01*
X1021Y1034D01*
X1021Y1033D01*
X1021Y1033D01*
X1020Y1032D01*
X1020Y1032D01*
X1020Y1031D01*
X1020Y1031D01*
X1020Y1030D01*
Y1030D01*
Y1030D01*
Y1030D01*
X1020Y1029D01*
X1020Y1029D01*
X1020Y1028D01*
X1021Y1028D01*
X1021Y1027D01*
X1021Y1027D01*
X1021Y1027D01*
X1021Y1027D01*
X1022Y1026D01*
X1023Y1026D01*
X1023Y1025D01*
X1024Y1025D01*
X1024Y1025D01*
X1025Y1025D01*
X1025Y1025D01*
X1025D01*
X1026Y1025D01*
X1026Y1025D01*
X1027Y1025D01*
X1027Y1025D01*
X1027Y1026D01*
X1028Y1026D01*
X1028Y1026D01*
X1028Y1026D01*
X1028Y1026D01*
X1029Y1026D01*
X1029Y1027D01*
X1029Y1027D01*
X1029Y1027D01*
X1030Y1027D01*
X1030Y1028D01*
X1030Y1028D01*
X1030Y1028D01*
X1030Y1029D01*
X1030Y1029D01*
X1030Y1029D01*
X1030Y1030D01*
X1030Y1030D01*
Y1030D01*
Y1030D01*
X1030Y1031D01*
X1030Y1032D01*
X1030Y1032D01*
X1030Y1033D01*
X1029Y1033D01*
X1029Y1034D01*
X1029Y1034D01*
X1029Y1034D01*
X1028Y1034D01*
X1028Y1035D01*
X1027Y1035D01*
X1027Y1035D01*
X1026Y1035D01*
X1026Y1035D01*
X1025Y1035D01*
D02*
G37*
G36*
X1025Y1046D02*
X1025D01*
X1024Y1046D01*
X1024Y1046D01*
X1023Y1046D01*
X1023Y1045D01*
X1023Y1045D01*
X1022Y1045D01*
X1022Y1045D01*
X1022Y1045D01*
X1022Y1044D01*
X1021Y1044D01*
X1021Y1043D01*
X1021Y1043D01*
X1021Y1043D01*
X1021Y1042D01*
Y1042D01*
Y1042D01*
Y1042D01*
X1021Y1041D01*
X1021Y1041D01*
X1021Y1040D01*
X1022Y1040D01*
X1022Y1040D01*
X1022Y1039D01*
X1022Y1039D01*
X1022Y1039D01*
X1023Y1039D01*
X1023Y1038D01*
X1024Y1038D01*
X1024Y1038D01*
X1024Y1038D01*
X1025Y1038D01*
X1025Y1038D01*
X1025D01*
X1026Y1038D01*
X1026Y1038D01*
X1027Y1038D01*
X1027Y1039D01*
X1028Y1039D01*
X1028Y1039D01*
X1028Y1039D01*
X1028Y1039D01*
X1029Y1040D01*
X1029Y1040D01*
X1029Y1041D01*
X1029Y1041D01*
X1029Y1041D01*
X1029Y1042D01*
X1029Y1042D01*
Y1042D01*
Y1042D01*
X1029Y1043D01*
X1029Y1043D01*
X1029Y1044D01*
X1029Y1044D01*
X1029Y1044D01*
X1028Y1045D01*
X1028Y1045D01*
X1028Y1045D01*
X1028Y1045D01*
X1027Y1046D01*
X1027Y1046D01*
X1026Y1046D01*
X1026Y1046D01*
X1025Y1046D01*
D02*
G37*
G36*
X1069Y342D02*
X1069D01*
X1069Y342D01*
X1068Y342D01*
X1068Y342D01*
X1067Y342D01*
X1067Y342D01*
X1067Y342D01*
X1067Y342D01*
X1066Y342D01*
X1066Y341D01*
X1066Y341D01*
X1065Y340D01*
X1065Y340D01*
X1065Y340D01*
X1065Y340D01*
X1065Y339D01*
X1065Y339D01*
X1064Y339D01*
X1064Y338D01*
X1064Y338D01*
X1064Y337D01*
X1064Y337D01*
X1064Y336D01*
Y336D01*
Y336D01*
X1064Y335D01*
X1064Y335D01*
X1064Y334D01*
X1065Y333D01*
X1065Y333D01*
X1065Y332D01*
X1065Y332D01*
X1065Y332D01*
X1066Y332D01*
X1067Y331D01*
X1067Y331D01*
X1068Y331D01*
X1068Y331D01*
X1069Y331D01*
X1069Y331D01*
X1069D01*
X1070Y331D01*
X1070Y331D01*
X1071Y331D01*
X1072Y331D01*
X1072Y332D01*
X1072Y332D01*
X1072Y332D01*
X1073Y332D01*
X1073Y333D01*
X1073Y333D01*
X1074Y334D01*
X1074Y335D01*
X1074Y335D01*
X1074Y336D01*
Y336D01*
X1074Y336D01*
Y336D01*
Y336D01*
Y336D01*
X1074Y337D01*
X1074Y338D01*
X1074Y339D01*
X1073Y340D01*
X1073Y340D01*
X1073Y340D01*
X1073Y341D01*
X1073Y341D01*
Y341D01*
X1072Y341D01*
X1072Y341D01*
X1071Y342D01*
X1071Y342D01*
X1070Y342D01*
X1070Y342D01*
X1069Y342D01*
X1069Y342D01*
D02*
G37*
G36*
X663Y331D02*
X655D01*
Y322D01*
X663D01*
X664Y322D01*
X665Y322D01*
X666Y323D01*
X666Y323D01*
X667Y323D01*
X667Y323D01*
X667Y323D01*
X667Y323D01*
X668Y324D01*
X668Y324D01*
X668Y325D01*
X669Y325D01*
X669Y326D01*
X669Y326D01*
X669Y326D01*
Y326D01*
Y326D01*
X669Y327D01*
X669Y327D01*
X669Y328D01*
X668Y328D01*
X668Y328D01*
X668Y329D01*
X668Y329D01*
X668Y329D01*
X668Y329D01*
X667Y329D01*
X667Y330D01*
X667Y330D01*
X667Y330D01*
X666Y330D01*
X666Y330D01*
X666Y330D01*
X666Y330D01*
X665Y331D01*
X664Y331D01*
X664Y331D01*
X663Y331D01*
X663Y331D01*
D02*
G37*
G36*
X777Y1023D02*
X769D01*
X768Y1023D01*
X767Y1023D01*
X766Y1022D01*
X765Y1022D01*
X765Y1022D01*
X765Y1022D01*
X764Y1022D01*
X764Y1022D01*
X764Y1021D01*
X764Y1021D01*
X763Y1020D01*
X763Y1020D01*
X763Y1019D01*
X763Y1019D01*
X763Y1019D01*
Y1019D01*
Y1019D01*
X763Y1018D01*
X763Y1018D01*
X763Y1017D01*
X763Y1017D01*
X763Y1017D01*
X764Y1016D01*
X764Y1016D01*
X764Y1016D01*
X764Y1016D01*
X764Y1016D01*
X765Y1015D01*
X765Y1015D01*
X765Y1015D01*
X765Y1015D01*
X766Y1015D01*
X766Y1015D01*
X766Y1015D01*
X767Y1014D01*
X767Y1014D01*
X768Y1014D01*
X769Y1014D01*
X769Y1014D01*
X777D01*
Y1023D01*
D02*
G37*
G36*
X844Y1082D02*
X844D01*
X843Y1082D01*
X843Y1082D01*
X842Y1082D01*
X842Y1082D01*
X842Y1082D01*
X841Y1081D01*
X841Y1081D01*
X841Y1081D01*
X841Y1081D01*
X841Y1081D01*
X840Y1080D01*
X840Y1080D01*
X840Y1080D01*
X840Y1080D01*
X840Y1079D01*
X840Y1079D01*
X840Y1079D01*
X839Y1078D01*
X839Y1078D01*
X839Y1077D01*
X839Y1076D01*
X839Y1076D01*
Y1076D01*
Y1076D01*
Y1076D01*
Y1076D01*
Y1068D01*
X848D01*
Y1076D01*
X848Y1077D01*
X848Y1078D01*
X847Y1079D01*
X847Y1080D01*
X847Y1080D01*
X847Y1080D01*
X847Y1081D01*
X847Y1081D01*
X846Y1081D01*
X846Y1081D01*
X845Y1082D01*
X845Y1082D01*
X844Y1082D01*
X844Y1082D01*
X844Y1082D01*
D02*
G37*
%LPD*%
D45*
X1318Y463D02*
G03*
X1318Y463I-5J0D01*
G01*
D46*
X1286Y546D02*
G03*
X1286Y546I-12J0D01*
G01*
D47*
X435Y507D02*
Y865D01*
X1313Y507D02*
Y865D01*
X435D02*
X1313D01*
X435Y507D02*
X1313D01*
M02*
