G04 Layer_Physical_Order=1*
G04 Layer_Color=25308*
%FSLAX23Y23*%
%MOIN*%
G70*
G01*
G75*
%ADD10R,0.057X0.079*%
%ADD11R,0.031X0.059*%
%ADD12R,0.030X0.033*%
%ADD13R,0.041X0.053*%
%ADD14R,0.053X0.041*%
%ADD15C,0.030*%
%ADD16R,0.028X0.033*%
%ADD17R,0.031X0.031*%
%ADD18O,0.008X0.059*%
%ADD19O,0.059X0.008*%
%ADD20R,0.033X0.028*%
%ADD21R,0.057X0.028*%
%ADD22R,0.035X0.031*%
%ADD23C,0.008*%
%ADD24C,0.000*%
%ADD25C,0.020*%
%ADD26C,0.060*%
%ADD27C,0.035*%
%ADD28C,0.030*%
%ADD29C,0.040*%
%ADD30C,0.010*%
%ADD31C,0.006*%
%ADD32C,0.014*%
%ADD33C,0.012*%
%ADD34C,0.061*%
%ADD35R,0.061X0.061*%
%ADD36C,0.048*%
%ADD37C,0.026*%
%ADD38C,0.158*%
%ADD39C,0.050*%
%ADD40C,0.024*%
G36*
X1905Y1967D02*
X1920Y1963D01*
X1934Y1956D01*
X1946Y1946D01*
X1956Y1934D01*
X1963Y1920D01*
X1967Y1905D01*
X1969Y1890D01*
X1969Y1890D01*
Y1888D01*
X1969Y79D01*
X1967Y63D01*
X1963Y48D01*
X1956Y35D01*
X1946Y23D01*
X1934Y13D01*
X1920Y6D01*
X1905Y1D01*
X1890Y-0D01*
X1890Y-0D01*
Y-0D01*
X79D01*
X79Y-0D01*
Y-0D01*
X78Y-0D01*
X63Y1D01*
X48Y6D01*
X35Y13D01*
X23Y23D01*
X13Y35D01*
X6Y48D01*
X1Y63D01*
X-0Y78D01*
X-0Y79D01*
X-0D01*
X-0Y1890D01*
X1Y1905D01*
X6Y1920D01*
X13Y1934D01*
X23Y1946D01*
X35Y1956D01*
X48Y1963D01*
X63Y1967D01*
X73Y1968D01*
X79Y1969D01*
D01*
X79Y1969D01*
X81D01*
X85Y1969D01*
X85D01*
X1890Y1969D01*
X1905Y1967D01*
D02*
G37*
%LPC*%
G36*
X255Y830D02*
X220D01*
Y795D01*
X226Y796D01*
X235Y800D01*
X244Y806D01*
X250Y815D01*
X254Y824D01*
X255Y830D01*
D02*
G37*
G36*
X210D02*
X175D01*
X176Y824D01*
X180Y815D01*
X186Y806D01*
X195Y800D01*
X204Y796D01*
X210Y795D01*
Y830D01*
D02*
G37*
G36*
X1750D02*
X1715D01*
X1716Y824D01*
X1720Y815D01*
X1726Y806D01*
X1735Y800D01*
X1744Y796D01*
X1750Y795D01*
Y830D01*
D02*
G37*
G36*
X210Y875D02*
X204Y874D01*
X195Y870D01*
X186Y864D01*
X180Y855D01*
X176Y846D01*
X175Y840D01*
X210D01*
Y875D01*
D02*
G37*
G36*
X1795Y830D02*
X1760D01*
Y795D01*
X1766Y796D01*
X1775Y800D01*
X1784Y806D01*
X1790Y815D01*
X1794Y824D01*
X1795Y830D01*
D02*
G37*
G36*
X1755Y772D02*
X1745Y771D01*
X1737Y767D01*
X1729Y761D01*
X1723Y753D01*
X1719Y745D01*
X1718Y735D01*
X1719Y725D01*
X1723Y717D01*
X1729Y709D01*
X1737Y703D01*
X1745Y699D01*
X1755Y698D01*
X1765Y699D01*
X1773Y703D01*
X1781Y709D01*
X1787Y717D01*
X1791Y725D01*
X1792Y735D01*
X1791Y745D01*
X1787Y753D01*
X1781Y761D01*
X1773Y767D01*
X1765Y771D01*
X1755Y772D01*
D02*
G37*
G36*
X1760Y575D02*
Y540D01*
X1795D01*
X1794Y546D01*
X1790Y555D01*
X1784Y564D01*
X1775Y570D01*
X1766Y574D01*
X1760Y575D01*
D02*
G37*
G36*
X1750D02*
X1744Y574D01*
X1735Y570D01*
X1726Y564D01*
X1720Y555D01*
X1716Y546D01*
X1715Y540D01*
X1750D01*
Y575D01*
D02*
G37*
G36*
X1755Y672D02*
X1745Y671D01*
X1737Y667D01*
X1729Y661D01*
X1723Y653D01*
X1719Y645D01*
X1718Y635D01*
X1719Y625D01*
X1723Y617D01*
X1729Y609D01*
X1737Y603D01*
X1745Y599D01*
X1755Y598D01*
X1765Y599D01*
X1773Y603D01*
X1781Y609D01*
X1787Y617D01*
X1791Y625D01*
X1792Y635D01*
X1791Y645D01*
X1787Y653D01*
X1781Y661D01*
X1773Y667D01*
X1765Y671D01*
X1755Y672D01*
D02*
G37*
G36*
X1405Y697D02*
Y675D01*
X1424D01*
Y697D01*
X1405D01*
D02*
G37*
G36*
X1424Y665D02*
X1405D01*
Y643D01*
X1424D01*
Y665D01*
D02*
G37*
G36*
X1795Y1130D02*
X1760D01*
Y1095D01*
X1766Y1096D01*
X1775Y1100D01*
X1784Y1106D01*
X1790Y1115D01*
X1794Y1124D01*
X1795Y1130D01*
D02*
G37*
G36*
X1750D02*
X1715D01*
X1716Y1124D01*
X1720Y1115D01*
X1726Y1106D01*
X1735Y1100D01*
X1744Y1096D01*
X1750Y1095D01*
Y1130D01*
D02*
G37*
G36*
X215Y1172D02*
X205Y1171D01*
X197Y1167D01*
X189Y1161D01*
X183Y1153D01*
X179Y1145D01*
X178Y1135D01*
X179Y1125D01*
X183Y1117D01*
X189Y1109D01*
X197Y1103D01*
X205Y1099D01*
X215Y1098D01*
X225Y1099D01*
X233Y1103D01*
X241Y1109D01*
X247Y1117D01*
X251Y1125D01*
X252Y1135D01*
X251Y1145D01*
X247Y1153D01*
X241Y1161D01*
X233Y1167D01*
X225Y1171D01*
X215Y1172D01*
D02*
G37*
G36*
X1750Y1175D02*
X1744Y1174D01*
X1735Y1170D01*
X1726Y1164D01*
X1720Y1155D01*
X1716Y1146D01*
X1715Y1140D01*
X1750D01*
Y1175D01*
D02*
G37*
G36*
X590Y1165D02*
X558D01*
Y1140D01*
X590D01*
Y1165D01*
D02*
G37*
G36*
X215Y1072D02*
X205Y1071D01*
X197Y1067D01*
X189Y1061D01*
X183Y1053D01*
X179Y1045D01*
X178Y1035D01*
X179Y1025D01*
X183Y1017D01*
X189Y1009D01*
X197Y1003D01*
X205Y999D01*
X215Y998D01*
X225Y999D01*
X233Y1003D01*
X241Y1009D01*
X247Y1017D01*
X251Y1025D01*
X252Y1035D01*
X251Y1045D01*
X247Y1053D01*
X241Y1061D01*
X233Y1067D01*
X225Y1071D01*
X215Y1072D01*
D02*
G37*
G36*
X1750Y875D02*
X1744Y874D01*
X1735Y870D01*
X1726Y864D01*
X1720Y855D01*
X1716Y846D01*
X1715Y840D01*
X1750D01*
Y875D01*
D02*
G37*
G36*
X220D02*
Y840D01*
X255D01*
X254Y846D01*
X250Y855D01*
X244Y864D01*
X235Y870D01*
X226Y874D01*
X220Y875D01*
D02*
G37*
G36*
X1760D02*
Y840D01*
X1795D01*
X1794Y846D01*
X1790Y855D01*
X1784Y864D01*
X1775Y870D01*
X1766Y874D01*
X1760Y875D01*
D02*
G37*
G36*
X410Y952D02*
X385D01*
Y920D01*
X410D01*
Y952D01*
D02*
G37*
G36*
X215Y972D02*
X205Y971D01*
X197Y967D01*
X189Y961D01*
X183Y953D01*
X179Y945D01*
X178Y935D01*
X179Y925D01*
X183Y917D01*
X189Y909D01*
X197Y903D01*
X205Y899D01*
X215Y898D01*
X225Y899D01*
X233Y903D01*
X241Y909D01*
X247Y917D01*
X251Y925D01*
X252Y935D01*
X251Y945D01*
X247Y953D01*
X241Y961D01*
X233Y967D01*
X225Y971D01*
X215Y972D01*
D02*
G37*
G36*
X220Y575D02*
Y540D01*
X255D01*
X254Y546D01*
X250Y555D01*
X244Y564D01*
X235Y570D01*
X226Y574D01*
X220Y575D01*
D02*
G37*
G36*
X256Y276D02*
X220D01*
Y240D01*
X256D01*
Y276D01*
D02*
G37*
G36*
X210D02*
X174D01*
Y240D01*
X210D01*
Y276D01*
D02*
G37*
G36*
X1750D02*
X1714D01*
Y240D01*
X1750D01*
Y276D01*
D02*
G37*
G36*
X480Y371D02*
X455D01*
Y340D01*
X480D01*
Y371D01*
D02*
G37*
G36*
X1796Y276D02*
X1760D01*
Y240D01*
X1796D01*
Y276D01*
D02*
G37*
G36*
X937Y230D02*
X905D01*
Y205D01*
X937D01*
Y230D01*
D02*
G37*
G36*
X256Y230D02*
X220D01*
Y194D01*
X256D01*
Y230D01*
D02*
G37*
G36*
X210D02*
X174D01*
Y194D01*
X210D01*
Y230D01*
D02*
G37*
G36*
X1750D02*
X1714D01*
Y194D01*
X1750D01*
Y230D01*
D02*
G37*
G36*
X895Y230D02*
X863D01*
Y205D01*
X895D01*
Y230D01*
D02*
G37*
G36*
X1796Y230D02*
X1760D01*
Y194D01*
X1796D01*
Y230D01*
D02*
G37*
G36*
X1750Y530D02*
X1715D01*
X1716Y524D01*
X1720Y515D01*
X1726Y506D01*
X1735Y500D01*
X1744Y496D01*
X1750Y495D01*
Y530D01*
D02*
G37*
G36*
X255D02*
X220D01*
Y495D01*
X226Y496D01*
X235Y500D01*
X244Y506D01*
X250Y515D01*
X254Y524D01*
X255Y530D01*
D02*
G37*
G36*
X1795D02*
X1760D01*
Y495D01*
X1766Y496D01*
X1775Y500D01*
X1784Y506D01*
X1790Y515D01*
X1794Y524D01*
X1795Y530D01*
D02*
G37*
G36*
X210Y575D02*
X204Y574D01*
X195Y570D01*
X186Y564D01*
X180Y555D01*
X176Y546D01*
X175Y540D01*
X210D01*
Y575D01*
D02*
G37*
G36*
X1352Y537D02*
Y505D01*
X1377D01*
Y537D01*
X1352D01*
D02*
G37*
G36*
X210Y530D02*
X175D01*
X176Y524D01*
X180Y515D01*
X186Y506D01*
X195Y500D01*
X204Y496D01*
X210Y495D01*
Y530D01*
D02*
G37*
G36*
X1369Y425D02*
X1350D01*
Y403D01*
X1369D01*
Y425D01*
D02*
G37*
G36*
X480Y413D02*
X455D01*
Y381D01*
X480D01*
Y413D01*
D02*
G37*
G36*
X1218Y466D02*
X1141D01*
X1141Y466D01*
X1144Y461D01*
X1144Y461D01*
X1145Y460D01*
X1144Y456D01*
X1145Y452D01*
X1147Y449D01*
Y447D01*
X1145Y444D01*
X1144Y440D01*
X1145Y436D01*
X1147Y433D01*
X1150Y431D01*
X1154Y430D01*
X1205D01*
X1209Y431D01*
X1212Y433D01*
X1215Y436D01*
X1215Y440D01*
X1215Y444D01*
X1212Y447D01*
Y449D01*
X1215Y452D01*
X1215Y456D01*
X1215Y460D01*
X1215Y461D01*
X1215Y461D01*
X1218Y466D01*
X1218Y466D01*
D02*
G37*
G36*
X1377Y495D02*
X1352D01*
Y463D01*
X1377D01*
Y495D01*
D02*
G37*
G36*
X1350Y457D02*
Y435D01*
X1369D01*
Y457D01*
X1350D01*
D02*
G37*
G36*
X644Y1389D02*
X611D01*
Y1345D01*
X644D01*
Y1389D01*
D02*
G37*
G36*
X601D02*
X567D01*
Y1345D01*
X601D01*
Y1389D01*
D02*
G37*
G36*
X1144D02*
X1110D01*
Y1345D01*
X1144D01*
Y1389D01*
D02*
G37*
G36*
X509Y1570D02*
X490D01*
Y1548D01*
X509D01*
Y1570D01*
D02*
G37*
G36*
X490Y1602D02*
Y1580D01*
X509D01*
Y1602D01*
X490D01*
D02*
G37*
G36*
X644Y1661D02*
X611D01*
Y1617D01*
X644D01*
Y1661D01*
D02*
G37*
G36*
X215Y1372D02*
X205Y1371D01*
X197Y1367D01*
X189Y1361D01*
X183Y1353D01*
X179Y1345D01*
X178Y1335D01*
X179Y1325D01*
X183Y1317D01*
X189Y1309D01*
X197Y1303D01*
X205Y1299D01*
X215Y1298D01*
X225Y1299D01*
X233Y1303D01*
X241Y1309D01*
X247Y1317D01*
X251Y1325D01*
X252Y1335D01*
X251Y1345D01*
X247Y1353D01*
X241Y1361D01*
X233Y1367D01*
X225Y1371D01*
X215Y1372D01*
D02*
G37*
G36*
X1755D02*
X1745Y1371D01*
X1737Y1367D01*
X1729Y1361D01*
X1723Y1353D01*
X1719Y1345D01*
X1718Y1335D01*
X1719Y1325D01*
X1723Y1317D01*
X1729Y1309D01*
X1737Y1303D01*
X1745Y1299D01*
X1755Y1298D01*
X1765Y1299D01*
X1773Y1303D01*
X1781Y1309D01*
X1787Y1317D01*
X1791Y1325D01*
X1792Y1335D01*
X1791Y1345D01*
X1787Y1353D01*
X1781Y1361D01*
X1773Y1367D01*
X1765Y1371D01*
X1755Y1372D01*
D02*
G37*
G36*
X601Y1661D02*
X567D01*
Y1617D01*
X601D01*
Y1661D01*
D02*
G37*
G36*
X1760Y1475D02*
Y1440D01*
X1795D01*
X1794Y1446D01*
X1790Y1455D01*
X1784Y1464D01*
X1775Y1470D01*
X1766Y1474D01*
X1760Y1475D01*
D02*
G37*
G36*
X220D02*
Y1440D01*
X255D01*
X254Y1446D01*
X250Y1455D01*
X244Y1464D01*
X235Y1470D01*
X226Y1474D01*
X220Y1475D01*
D02*
G37*
G36*
X1795Y1430D02*
X1760D01*
Y1395D01*
X1766Y1396D01*
X1775Y1400D01*
X1784Y1406D01*
X1790Y1415D01*
X1794Y1424D01*
X1795Y1430D01*
D02*
G37*
G36*
X210Y1475D02*
X204Y1474D01*
X195Y1470D01*
X186Y1464D01*
X180Y1455D01*
X176Y1446D01*
X175Y1440D01*
X210D01*
Y1475D01*
D02*
G37*
G36*
X786Y1481D02*
X765D01*
Y1477D01*
X682D01*
Y1406D01*
X694D01*
Y1369D01*
X690Y1367D01*
X686Y1361D01*
X685Y1353D01*
X686Y1346D01*
X690Y1340D01*
X697Y1336D01*
X704Y1334D01*
X711Y1336D01*
X718Y1340D01*
X722Y1346D01*
X723Y1350D01*
X729D01*
X729Y1348D01*
X734Y1341D01*
X740Y1337D01*
X747Y1336D01*
X755Y1337D01*
X761Y1341D01*
X765Y1348D01*
X767Y1355D01*
X765Y1362D01*
X761Y1369D01*
X758Y1371D01*
Y1406D01*
X765D01*
Y1402D01*
X786D01*
Y1442D01*
Y1481D01*
D02*
G37*
G36*
X1750Y1430D02*
X1715D01*
X1716Y1424D01*
X1720Y1415D01*
X1726Y1406D01*
X1735Y1400D01*
X1744Y1396D01*
X1750Y1395D01*
Y1430D01*
D02*
G37*
G36*
X1187Y1389D02*
X1154D01*
Y1345D01*
X1187D01*
Y1389D01*
D02*
G37*
G36*
X1750Y1475D02*
X1744Y1474D01*
X1735Y1470D01*
X1726Y1464D01*
X1720Y1455D01*
X1716Y1446D01*
X1715Y1440D01*
X1750D01*
Y1475D01*
D02*
G37*
G36*
X255Y1430D02*
X220D01*
Y1395D01*
X226Y1396D01*
X235Y1400D01*
X244Y1406D01*
X250Y1415D01*
X254Y1424D01*
X255Y1430D01*
D02*
G37*
G36*
X210D02*
X175D01*
X176Y1424D01*
X180Y1415D01*
X186Y1406D01*
X195Y1400D01*
X204Y1396D01*
X210Y1395D01*
Y1430D01*
D02*
G37*
G36*
X1144Y1661D02*
X1110D01*
Y1617D01*
X1144D01*
Y1661D01*
D02*
G37*
G36*
Y1716D02*
X1110D01*
Y1671D01*
X1144D01*
Y1716D01*
D02*
G37*
G36*
X1187D02*
X1154D01*
Y1671D01*
X1187D01*
Y1716D01*
D02*
G37*
G36*
X1457Y1235D02*
X1439D01*
Y1213D01*
X1457D01*
Y1235D01*
D02*
G37*
G36*
X215Y1272D02*
X205Y1271D01*
X197Y1267D01*
X189Y1261D01*
X183Y1253D01*
X179Y1245D01*
X178Y1235D01*
X179Y1225D01*
X183Y1217D01*
X189Y1209D01*
X197Y1203D01*
X205Y1199D01*
X215Y1198D01*
X225Y1199D01*
X233Y1203D01*
X241Y1209D01*
X247Y1217D01*
X251Y1225D01*
X252Y1235D01*
X251Y1245D01*
X247Y1253D01*
X241Y1261D01*
X233Y1267D01*
X225Y1271D01*
X215Y1272D01*
D02*
G37*
G36*
X322Y1770D02*
X304D01*
Y1748D01*
X322D01*
Y1770D01*
D02*
G37*
G36*
X1683Y1847D02*
X1640D01*
Y1808D01*
X1640Y1803D01*
X1634Y1802D01*
X1626D01*
X1620Y1803D01*
X1620Y1806D01*
Y1808D01*
Y1847D01*
X1577D01*
Y1803D01*
X1577Y1803D01*
X1577D01*
X1577Y1803D01*
X1577D01*
X1578Y1798D01*
Y1798D01*
X1578D01*
X1578Y1798D01*
Y1752D01*
X1613D01*
X1615Y1752D01*
X1619Y1748D01*
D01*
X1620D01*
X1621Y1748D01*
X1638D01*
Y1775D01*
X1643D01*
Y1780D01*
X1666D01*
Y1797D01*
X1672Y1800D01*
X1722Y1750D01*
X1719Y1745D01*
X1718Y1735D01*
X1719Y1731D01*
Y1639D01*
X1718Y1635D01*
X1719Y1631D01*
Y1601D01*
X1656D01*
X1651Y1605D01*
X1643Y1606D01*
X1635Y1605D01*
X1628Y1600D01*
X1623Y1593D01*
X1622Y1585D01*
X1623Y1577D01*
X1628Y1570D01*
X1635Y1565D01*
X1643Y1564D01*
X1651Y1565D01*
X1656Y1569D01*
X1719D01*
Y1539D01*
X1718Y1535D01*
X1719Y1525D01*
X1723Y1517D01*
X1729Y1509D01*
X1737Y1503D01*
X1745Y1499D01*
X1755Y1498D01*
X1765Y1499D01*
X1773Y1503D01*
X1781Y1509D01*
X1787Y1517D01*
X1791Y1525D01*
X1792Y1535D01*
X1791Y1539D01*
Y1585D01*
Y1631D01*
X1792Y1635D01*
X1791Y1639D01*
Y1731D01*
X1792Y1735D01*
X1791Y1745D01*
X1787Y1753D01*
X1781Y1761D01*
X1773Y1767D01*
X1765Y1771D01*
X1755Y1772D01*
X1745Y1771D01*
X1737Y1767D01*
X1735Y1766D01*
X1683Y1818D01*
Y1847D01*
D02*
G37*
G36*
X1760Y1175D02*
Y1140D01*
X1795D01*
X1794Y1146D01*
X1790Y1155D01*
X1784Y1164D01*
X1775Y1170D01*
X1766Y1174D01*
X1760Y1175D01*
D02*
G37*
G36*
X1666Y1770D02*
X1648D01*
Y1748D01*
X1666D01*
Y1770D01*
D02*
G37*
G36*
X393Y1847D02*
X350D01*
Y1808D01*
Y1806D01*
X350Y1803D01*
X344Y1802D01*
X344Y1802D01*
X336D01*
X330Y1803D01*
X330Y1808D01*
Y1847D01*
X287D01*
Y1818D01*
X235Y1766D01*
X233Y1767D01*
X225Y1771D01*
X215Y1772D01*
X205Y1771D01*
X197Y1767D01*
X189Y1761D01*
X183Y1753D01*
X179Y1745D01*
X178Y1735D01*
X179Y1731D01*
Y1639D01*
X178Y1635D01*
X179Y1631D01*
Y1539D01*
X178Y1535D01*
X179Y1525D01*
X183Y1517D01*
X189Y1509D01*
X197Y1503D01*
X205Y1499D01*
X215Y1498D01*
X225Y1499D01*
X233Y1503D01*
X241Y1509D01*
X247Y1517D01*
X251Y1525D01*
X252Y1535D01*
X251Y1539D01*
Y1609D01*
X302D01*
X350Y1560D01*
Y1054D01*
X350Y1054D01*
X351Y1047D01*
X354Y1041D01*
X358Y1035D01*
X360Y1033D01*
Y998D01*
X355Y995D01*
X350Y988D01*
X349Y980D01*
X350Y972D01*
X355Y965D01*
X362Y960D01*
X370Y959D01*
X378Y960D01*
X385Y965D01*
X390Y972D01*
X391Y980D01*
X390Y988D01*
X385Y995D01*
X380Y998D01*
Y1005D01*
X386Y1007D01*
X436Y957D01*
X433Y952D01*
X420D01*
Y915D01*
X415D01*
Y910D01*
X385D01*
Y878D01*
X396D01*
X401Y874D01*
Y860D01*
X425D01*
Y850D01*
X401D01*
Y828D01*
X395Y827D01*
X385D01*
Y795D01*
X415D01*
Y785D01*
X385D01*
Y775D01*
X379Y770D01*
X375Y771D01*
X367Y770D01*
X361Y765D01*
X357Y759D01*
X355Y752D01*
X357Y744D01*
X361Y738D01*
X367Y734D01*
X375Y732D01*
X382Y734D01*
X388Y738D01*
X391Y742D01*
X401D01*
Y730D01*
X425D01*
Y720D01*
X401D01*
Y708D01*
X391D01*
X389Y712D01*
X382Y716D01*
X375Y718D01*
X368Y716D01*
X361Y712D01*
X357Y706D01*
X357Y705D01*
X351Y703D01*
X313Y741D01*
X314Y746D01*
X318Y753D01*
X319Y760D01*
X318Y767D01*
X314Y774D01*
X307Y778D01*
X300Y779D01*
X293Y778D01*
X286Y774D01*
X282Y767D01*
X281Y760D01*
X282Y753D01*
X286Y746D01*
X290Y744D01*
Y740D01*
X291Y736D01*
X293Y733D01*
X355Y670D01*
X355Y669D01*
X353Y664D01*
X348Y663D01*
X341Y659D01*
X337Y652D01*
X336Y645D01*
X337Y638D01*
X341Y631D01*
X348Y627D01*
X355Y626D01*
X359Y626D01*
X361Y625D01*
X364Y623D01*
X368Y622D01*
X401D01*
Y610D01*
X425D01*
Y600D01*
X401D01*
Y578D01*
Y560D01*
X425D01*
Y550D01*
X397D01*
X395Y549D01*
X241Y704D01*
X241Y709D01*
X247Y717D01*
X251Y725D01*
X252Y735D01*
X251Y745D01*
X247Y753D01*
X241Y761D01*
X233Y767D01*
X225Y771D01*
X215Y772D01*
X205Y771D01*
X197Y767D01*
X189Y761D01*
X183Y753D01*
X179Y745D01*
X178Y735D01*
X179Y725D01*
X183Y717D01*
X189Y709D01*
X197Y703D01*
X205Y699D01*
X215Y698D01*
X217Y698D01*
X265Y651D01*
X263Y645D01*
X250D01*
X247Y653D01*
X241Y661D01*
X233Y667D01*
X225Y671D01*
X215Y672D01*
X205Y671D01*
X197Y667D01*
X189Y661D01*
X183Y653D01*
X179Y645D01*
X178Y635D01*
X179Y625D01*
X183Y617D01*
X189Y609D01*
X197Y603D01*
X205Y599D01*
X215Y598D01*
X225Y599D01*
X233Y603D01*
X241Y609D01*
X247Y617D01*
X250Y625D01*
X271D01*
X400Y496D01*
X403Y494D01*
X407Y493D01*
X465D01*
X468Y487D01*
X431Y450D01*
X408D01*
Y464D01*
X365D01*
X354Y476D01*
X354Y480D01*
X353Y487D01*
X349Y494D01*
X342Y498D01*
X335Y499D01*
X328Y498D01*
X321Y494D01*
X317Y487D01*
X316Y480D01*
X317Y473D01*
X321Y466D01*
X328Y462D01*
X335Y461D01*
X339Y461D01*
X361Y440D01*
Y432D01*
X355Y429D01*
X342Y442D01*
X339Y444D01*
X335Y445D01*
X250D01*
X247Y453D01*
X241Y461D01*
X233Y467D01*
X225Y471D01*
X215Y472D01*
X205Y471D01*
X197Y467D01*
X189Y461D01*
X183Y453D01*
X179Y445D01*
X178Y435D01*
X179Y425D01*
X183Y417D01*
X189Y409D01*
X197Y403D01*
X205Y399D01*
X215Y398D01*
X225Y399D01*
X233Y403D01*
X241Y409D01*
X247Y417D01*
X250Y425D01*
X282D01*
Y415D01*
X281Y414D01*
X278Y412D01*
X233Y367D01*
X225Y371D01*
X215Y372D01*
X205Y371D01*
X197Y367D01*
X189Y361D01*
X183Y353D01*
X179Y345D01*
X178Y335D01*
X179Y325D01*
X183Y317D01*
X189Y309D01*
X197Y303D01*
X205Y299D01*
X215Y298D01*
X225Y299D01*
X233Y303D01*
X241Y309D01*
X247Y317D01*
X251Y325D01*
X252Y335D01*
X251Y345D01*
X247Y353D01*
X276Y382D01*
X282Y383D01*
Y383D01*
X282Y383D01*
X329D01*
Y418D01*
X335Y420D01*
X358Y398D01*
X361Y396D01*
X362Y395D01*
X362Y389D01*
X361D01*
Y346D01*
X408D01*
Y389D01*
X408Y389D01*
X409Y395D01*
X420D01*
X424Y396D01*
X427Y398D01*
X491Y461D01*
X529D01*
X532Y457D01*
X534Y452D01*
D01*
X535Y448D01*
X534Y444D01*
X534Y444D01*
Y444D01*
X534Y444D01*
X534Y440D01*
X534Y438D01*
Y438D01*
X534Y438D01*
X534Y436D01*
X536Y433D01*
X537Y433D01*
X540Y431D01*
X544Y430D01*
X595D01*
X596Y430D01*
X602Y427D01*
X602Y426D01*
Y397D01*
X597Y393D01*
X571D01*
Y409D01*
X522D01*
X520Y409D01*
X516Y413D01*
D01*
X514D01*
X513Y413D01*
X490D01*
Y376D01*
Y340D01*
X513D01*
X514Y340D01*
X516D01*
X516D01*
X520Y344D01*
X522Y344D01*
X571D01*
Y360D01*
X620D01*
Y353D01*
X621Y349D01*
X623Y346D01*
X626Y344D01*
X628Y344D01*
X631Y338D01*
X631Y338D01*
X606Y312D01*
X577D01*
Y273D01*
X577Y273D01*
Y270D01*
Y267D01*
X577Y267D01*
Y259D01*
X397D01*
Y273D01*
X358D01*
X358Y273D01*
X355D01*
X352D01*
X352Y273D01*
X345D01*
Y289D01*
X349Y291D01*
X353Y298D01*
X354Y305D01*
X353Y312D01*
X349Y319D01*
X342Y323D01*
X335Y324D01*
X328Y323D01*
X321Y319D01*
X317Y312D01*
X316Y305D01*
X317Y298D01*
X321Y291D01*
X325Y289D01*
Y273D01*
X313D01*
Y227D01*
X352D01*
X352Y227D01*
X355D01*
X358D01*
X358Y227D01*
X397D01*
Y236D01*
X577D01*
Y228D01*
X582D01*
X585Y222D01*
X582Y217D01*
X581Y210D01*
X582Y203D01*
X586Y196D01*
X593Y192D01*
X600Y191D01*
X607Y192D01*
X614Y196D01*
X618Y203D01*
X619Y210D01*
X618Y217D01*
X621Y224D01*
X623Y224D01*
X623Y224D01*
X623D01*
X626D01*
X627Y224D01*
X645D01*
Y247D01*
X655D01*
Y224D01*
X695D01*
Y247D01*
X705D01*
Y224D01*
X723D01*
X724Y224D01*
X727D01*
X727D01*
X731Y228D01*
X733D01*
X737D01*
X740Y222D01*
X737Y217D01*
X736Y210D01*
X737Y203D01*
X741Y196D01*
X748Y192D01*
X755Y191D01*
X762Y192D01*
X769Y196D01*
X773Y203D01*
X774Y210D01*
X773Y217D01*
X770Y222D01*
X773Y228D01*
X777D01*
Y228D01*
X823D01*
Y267D01*
X823Y267D01*
Y270D01*
Y273D01*
X823Y273D01*
Y301D01*
X834Y312D01*
X836Y316D01*
X837Y320D01*
Y335D01*
X842Y340D01*
X844Y342D01*
X849Y344D01*
X851Y343D01*
X855Y344D01*
X855Y344D01*
D01*
X855Y344D01*
X859Y345D01*
X862Y344D01*
X863Y344D01*
X863D01*
X863Y344D01*
X867Y343D01*
X868Y344D01*
X868D01*
X868Y344D01*
X870Y344D01*
X873Y346D01*
X874Y346D01*
X875D01*
X878Y344D01*
X882Y343D01*
X887Y338D01*
Y321D01*
X867D01*
Y270D01*
X867Y270D01*
X863Y266D01*
X863Y266D01*
X863D01*
X863Y266D01*
Y240D01*
X937D01*
Y243D01*
X938Y244D01*
X943Y245D01*
X948Y242D01*
X955Y241D01*
X962Y242D01*
X969Y246D01*
X973Y253D01*
X974Y260D01*
X974Y262D01*
X979Y265D01*
X1049Y196D01*
X1052Y194D01*
X1056Y193D01*
X1543D01*
X1547Y194D01*
X1550Y196D01*
X1679Y325D01*
X1720D01*
X1723Y317D01*
X1729Y309D01*
X1737Y303D01*
X1745Y299D01*
X1755Y298D01*
X1765Y299D01*
X1773Y303D01*
X1781Y309D01*
X1787Y317D01*
X1791Y325D01*
X1792Y335D01*
X1791Y345D01*
X1787Y353D01*
X1781Y361D01*
X1773Y367D01*
X1765Y371D01*
X1755Y372D01*
X1745Y371D01*
X1737Y367D01*
X1729Y361D01*
X1723Y353D01*
X1720Y345D01*
X1687D01*
X1685Y351D01*
X1737Y403D01*
X1745Y399D01*
X1755Y398D01*
X1765Y399D01*
X1773Y403D01*
X1781Y409D01*
X1787Y417D01*
X1791Y425D01*
X1792Y435D01*
X1791Y445D01*
X1787Y453D01*
X1781Y461D01*
X1773Y467D01*
X1765Y471D01*
X1755Y472D01*
X1745Y471D01*
X1737Y467D01*
X1729Y461D01*
X1723Y453D01*
X1719Y445D01*
X1718Y435D01*
X1719Y425D01*
X1723Y417D01*
X1533Y227D01*
X1066D01*
X957Y337D01*
X957Y338D01*
X957Y339D01*
X961Y343D01*
X965Y344D01*
X965Y344D01*
D01*
X965Y344D01*
X969Y345D01*
X973Y344D01*
X973D01*
D01*
D01*
X977Y343D01*
X981Y344D01*
D01*
X981D01*
D01*
X985Y345D01*
X988Y344D01*
X989Y344D01*
X989D01*
X989Y344D01*
X993Y343D01*
X994Y344D01*
X994D01*
X994Y344D01*
X996Y344D01*
X999Y346D01*
X1000Y346D01*
X1001D01*
X1002Y346D01*
X1004Y344D01*
X1007Y344D01*
Y344D01*
D01*
X1008Y343D01*
X1012Y344D01*
X1012Y344D01*
D01*
X1012Y344D01*
X1016Y345D01*
X1020Y344D01*
X1020Y344D01*
X1020D01*
X1020Y344D01*
X1024Y343D01*
X1026Y344D01*
X1026D01*
X1026Y344D01*
X1028Y344D01*
X1031Y346D01*
X1031Y346D01*
X1033D01*
X1036Y344D01*
X1040Y343D01*
X1045Y338D01*
Y299D01*
X1046Y295D01*
X1048Y292D01*
X1074Y266D01*
X1078Y264D01*
X1082Y263D01*
X1513D01*
X1517Y264D01*
X1520Y266D01*
X1702Y448D01*
X1704Y451D01*
X1705Y455D01*
Y891D01*
X1724Y909D01*
X1729Y909D01*
X1737Y903D01*
X1745Y899D01*
X1755Y898D01*
X1765Y899D01*
X1773Y903D01*
X1781Y909D01*
X1787Y917D01*
X1791Y925D01*
X1792Y935D01*
X1791Y945D01*
X1787Y953D01*
X1781Y961D01*
X1773Y967D01*
X1765Y971D01*
X1755Y972D01*
X1745Y971D01*
X1737Y967D01*
X1729Y961D01*
X1726Y957D01*
X1720Y959D01*
Y986D01*
X1737Y1003D01*
X1745Y999D01*
X1755Y998D01*
X1765Y999D01*
X1773Y1003D01*
X1781Y1009D01*
X1787Y1017D01*
X1791Y1025D01*
X1792Y1035D01*
X1791Y1045D01*
X1787Y1053D01*
X1781Y1061D01*
X1773Y1067D01*
X1765Y1071D01*
X1755Y1072D01*
X1745Y1071D01*
X1737Y1067D01*
X1729Y1061D01*
X1723Y1053D01*
X1719Y1045D01*
X1718Y1035D01*
X1719Y1025D01*
X1723Y1017D01*
X1703Y997D01*
X1701Y994D01*
X1700Y990D01*
Y934D01*
X1674Y908D01*
X1672Y905D01*
X1671Y901D01*
Y465D01*
X1503Y297D01*
X1092D01*
X1081Y307D01*
Y334D01*
X1087Y339D01*
X1092Y340D01*
X1096Y342D01*
X1101Y344D01*
X1103Y343D01*
X1107Y344D01*
X1107Y344D01*
D01*
X1107Y344D01*
X1111Y345D01*
X1114Y344D01*
X1115Y344D01*
X1115D01*
X1115Y344D01*
X1119Y343D01*
X1120Y344D01*
X1120D01*
X1120Y344D01*
X1122Y344D01*
X1125Y346D01*
X1126Y346D01*
X1128Y349D01*
X1129Y353D01*
Y405D01*
X1128Y408D01*
X1126Y412D01*
X1125Y412D01*
X1122Y414D01*
X1120Y414D01*
Y414D01*
D01*
X1119Y415D01*
X1115Y414D01*
X1115Y414D01*
D01*
X1114Y414D01*
X1111Y413D01*
X1107Y414D01*
X1107Y414D01*
X1107D01*
X1107Y414D01*
X1103Y415D01*
X1101Y414D01*
X1101D01*
X1096Y416D01*
X1092Y418D01*
X1092Y418D01*
Y379D01*
X1082D01*
Y418D01*
X1082Y418D01*
X1077Y415D01*
X1077Y414D01*
X1075Y414D01*
X1071Y415D01*
X1067Y414D01*
X1064Y412D01*
X1063D01*
X1062Y412D01*
X1059Y414D01*
X1057Y414D01*
Y414D01*
D01*
X1056Y415D01*
X1052Y414D01*
X1052Y414D01*
D01*
X1051Y414D01*
X1048Y413D01*
X1044Y414D01*
X1044Y414D01*
X1044D01*
X1044Y414D01*
X1040Y415D01*
X1038Y414D01*
X1038D01*
X1038Y414D01*
X1036Y414D01*
X1033Y412D01*
X1033Y412D01*
X1031D01*
X1031Y412D01*
X1028Y414D01*
X1026Y414D01*
Y414D01*
D01*
X1024Y415D01*
X1020Y414D01*
X1020Y414D01*
D01*
X1020Y414D01*
X1016Y413D01*
X1012Y414D01*
X1012Y414D01*
X1012D01*
X1012Y414D01*
X1008Y415D01*
X1007Y414D01*
X1007D01*
X1007Y414D01*
X1004Y414D01*
X1002Y412D01*
X1001Y412D01*
X1000D01*
X999Y412D01*
X996Y414D01*
X994Y414D01*
Y414D01*
D01*
X993Y415D01*
X989Y414D01*
X989Y414D01*
D01*
X988Y414D01*
X985Y413D01*
X981Y414D01*
X981D01*
D01*
D01*
X977Y415D01*
X973Y414D01*
D01*
X973D01*
D01*
X969Y413D01*
X965Y414D01*
X965Y414D01*
X965D01*
X965Y414D01*
X961Y415D01*
X959Y414D01*
X959D01*
X959Y414D01*
X957Y414D01*
X954Y412D01*
X954Y412D01*
X952D01*
X952Y412D01*
X949Y414D01*
X947Y414D01*
Y414D01*
D01*
X945Y415D01*
X941Y414D01*
X941Y414D01*
D01*
X941Y414D01*
X937Y413D01*
X934Y414D01*
X933Y414D01*
X933D01*
X933Y414D01*
X930Y415D01*
X928Y414D01*
X928D01*
X928Y414D01*
X926Y414D01*
X923Y412D01*
X922Y412D01*
X921D01*
X921Y412D01*
X918Y414D01*
X915Y414D01*
Y414D01*
D01*
X914Y415D01*
X910Y414D01*
X910Y414D01*
D01*
X910Y414D01*
X906Y413D01*
X902Y414D01*
X902D01*
D01*
D01*
X898Y415D01*
X894Y414D01*
D01*
X894D01*
D01*
X890Y413D01*
X886Y414D01*
X886Y414D01*
X886D01*
X886Y414D01*
X882Y415D01*
X881Y414D01*
X881D01*
X881Y414D01*
X878Y414D01*
X876Y412D01*
X875Y412D01*
X874D01*
X873Y412D01*
X870Y414D01*
X868Y414D01*
Y414D01*
D01*
X867Y415D01*
X863Y414D01*
X863Y414D01*
D01*
X862Y414D01*
X859Y413D01*
X855Y414D01*
X855Y414D01*
X855D01*
X855Y414D01*
X851Y415D01*
X849Y414D01*
X849D01*
X849Y414D01*
X847Y414D01*
X844Y412D01*
X844Y412D01*
X842D01*
X842Y412D01*
X839Y414D01*
X837Y414D01*
Y414D01*
D01*
X835Y415D01*
X831Y414D01*
X831Y414D01*
D01*
X831Y414D01*
X827Y413D01*
X823Y414D01*
X823D01*
D01*
D01*
X819Y415D01*
X815Y414D01*
D01*
X815D01*
D01*
X811Y413D01*
X808Y414D01*
X807Y414D01*
X807D01*
X807Y414D01*
X804Y415D01*
X802Y414D01*
X802D01*
X802Y414D01*
X800Y414D01*
X797Y412D01*
X796Y412D01*
X795D01*
X795Y412D01*
X792Y414D01*
X790Y414D01*
Y414D01*
D01*
X788Y415D01*
X784Y414D01*
X784Y414D01*
D01*
X784Y414D01*
X780Y413D01*
X776Y414D01*
X776D01*
D01*
D01*
X772Y415D01*
X768Y414D01*
D01*
X768D01*
D01*
X764Y413D01*
X760Y414D01*
X760Y414D01*
X760D01*
X760Y414D01*
X756Y415D01*
X755Y414D01*
X755D01*
X755Y414D01*
X752Y414D01*
X750Y412D01*
X749Y412D01*
X748D01*
X747Y412D01*
X744Y414D01*
X742Y414D01*
Y414D01*
D01*
X741Y415D01*
X737Y414D01*
X737Y414D01*
D01*
X736Y414D01*
X733Y413D01*
X729Y414D01*
X729D01*
D01*
D01*
X725Y415D01*
X721Y414D01*
D01*
X721D01*
D01*
X717Y413D01*
X713Y414D01*
X713D01*
D01*
D01*
X709Y415D01*
X705Y414D01*
D01*
X705D01*
D01*
X701Y413D01*
X697Y414D01*
X697D01*
D01*
D01*
X693Y415D01*
X689Y414D01*
D01*
X689D01*
D01*
X685Y413D01*
X682Y414D01*
X681Y414D01*
X681D01*
X681Y414D01*
X678Y415D01*
X676Y414D01*
X676D01*
X676Y414D01*
X674Y414D01*
X671Y412D01*
X670Y412D01*
X669D01*
X666Y414D01*
X662Y415D01*
X658Y414D01*
X655Y412D01*
X653D01*
X653Y412D01*
X650Y414D01*
X648Y414D01*
Y414D01*
D01*
X646Y415D01*
X642Y414D01*
X642Y414D01*
D01*
X642Y414D01*
X638Y413D01*
X634Y414D01*
X634Y414D01*
X634D01*
X634Y414D01*
X630Y415D01*
X629Y414D01*
X629D01*
X624Y417D01*
X624Y417D01*
X623Y419D01*
Y493D01*
X627Y495D01*
X629Y495D01*
X635Y494D01*
X643Y495D01*
X648Y498D01*
X654Y498D01*
X660Y494D01*
X667Y493D01*
X675Y494D01*
X681Y498D01*
X685Y505D01*
X687Y512D01*
X686Y518D01*
X719Y552D01*
X721Y555D01*
X722Y559D01*
Y859D01*
X723Y860D01*
X728Y862D01*
X732Y859D01*
X738Y858D01*
Y582D01*
X739Y578D01*
X741Y575D01*
X836Y480D01*
X840Y478D01*
X844Y477D01*
X1136D01*
X1136Y476D01*
X1218D01*
X1218Y477D01*
X1218Y478D01*
X1222Y482D01*
X1225Y480D01*
X1233Y478D01*
X1240Y480D01*
X1242Y481D01*
X1261D01*
Y467D01*
X1279D01*
Y453D01*
X1275D01*
Y407D01*
X1279D01*
Y398D01*
X1275Y393D01*
X1274Y385D01*
X1275Y377D01*
X1280Y370D01*
X1287Y365D01*
X1295Y364D01*
X1303Y365D01*
X1310Y370D01*
X1315Y377D01*
X1316Y385D01*
X1315Y393D01*
X1312Y398D01*
X1313Y404D01*
X1318Y405D01*
X1320Y403D01*
D01*
X1320D01*
X1321Y403D01*
X1340D01*
Y430D01*
Y457D01*
X1321D01*
X1320Y457D01*
X1320D01*
X1320D01*
X1318Y455D01*
X1316Y455D01*
X1315Y463D01*
X1316Y463D01*
X1317D01*
X1318Y463D01*
X1342D01*
Y500D01*
Y537D01*
X1318D01*
X1317Y537D01*
X1316D01*
X1316D01*
X1312Y533D01*
X1310Y533D01*
X1261D01*
Y514D01*
X1243D01*
X1241Y517D01*
X1231Y527D01*
X1228Y529D01*
X1223Y530D01*
X1223Y530D01*
X1221D01*
X1215Y534D01*
X1215Y538D01*
X1213Y541D01*
X1215Y546D01*
X1220Y548D01*
X1267D01*
X1271Y549D01*
X1274Y551D01*
X1285Y563D01*
X1289Y562D01*
X1297Y563D01*
X1303Y567D01*
X1307Y574D01*
X1309Y581D01*
X1307Y589D01*
X1303Y595D01*
X1297Y599D01*
X1289Y601D01*
X1285Y600D01*
X1281Y600D01*
X1279Y604D01*
X1278Y607D01*
X1278Y608D01*
X1281Y613D01*
X1304D01*
X1306Y609D01*
X1313Y605D01*
X1320Y604D01*
X1327Y605D01*
X1334Y609D01*
X1335Y612D01*
X1336D01*
X1336Y612D01*
X1340Y613D01*
X1344Y615D01*
X1358Y630D01*
X1358Y630D01*
X1361Y633D01*
X1362Y638D01*
X1362Y638D01*
Y643D01*
X1366Y647D01*
X1369D01*
X1370Y647D01*
X1375Y643D01*
D01*
X1375D01*
X1376Y643D01*
X1395D01*
Y670D01*
Y697D01*
X1376D01*
X1375Y697D01*
X1375D01*
X1375D01*
X1370Y693D01*
X1369Y693D01*
X1337D01*
X1334Y699D01*
X1359Y724D01*
X1361Y727D01*
X1362Y731D01*
Y863D01*
X1361Y867D01*
X1359Y870D01*
X1300Y929D01*
X1296Y932D01*
X1293Y932D01*
X1225D01*
X1219Y932D01*
X1219D01*
X1214Y934D01*
X1212Y935D01*
X1209Y938D01*
X1205Y938D01*
X1180D01*
X1180Y938D01*
X1150D01*
X1146Y938D01*
X1143Y935D01*
X1134Y927D01*
X1129Y929D01*
Y989D01*
X1129Y989D01*
Y1015D01*
X1128Y1019D01*
X1126Y1022D01*
X1125Y1022D01*
X1122Y1024D01*
X1120Y1025D01*
Y1025D01*
D01*
X1119Y1025D01*
X1115Y1024D01*
X1115Y1024D01*
D01*
X1114Y1024D01*
X1111Y1023D01*
X1107Y1024D01*
X1107D01*
D01*
D01*
X1103Y1025D01*
X1099Y1024D01*
D01*
X1099D01*
D01*
X1095Y1023D01*
X1091Y1024D01*
X1091D01*
D01*
D01*
X1087Y1025D01*
X1083Y1024D01*
D01*
X1083D01*
D01*
X1079Y1023D01*
X1075Y1024D01*
X1075D01*
D01*
D01*
X1071Y1025D01*
X1067Y1024D01*
D01*
X1067D01*
D01*
X1063Y1023D01*
X1059Y1024D01*
X1059D01*
D01*
D01*
X1056Y1025D01*
X1052Y1024D01*
D01*
X1052D01*
D01*
X1048Y1023D01*
X1044Y1024D01*
X1044D01*
D01*
D01*
X1040Y1025D01*
X1036Y1024D01*
D01*
X1036D01*
D01*
X1032Y1023D01*
X1028Y1024D01*
X1028Y1024D01*
X1028D01*
X1028Y1024D01*
X1024Y1025D01*
X1022Y1025D01*
X1022D01*
X1022Y1025D01*
X1020Y1024D01*
X1017Y1022D01*
X1017Y1022D01*
Y1022D01*
X1015D01*
X1015Y1022D01*
X1012Y1024D01*
X1010Y1025D01*
Y1025D01*
D01*
X1008Y1025D01*
X1004Y1024D01*
X1004Y1024D01*
D01*
X1004Y1024D01*
X1000Y1023D01*
X997Y1024D01*
X996Y1024D01*
X996D01*
X996Y1024D01*
X993Y1025D01*
X991Y1025D01*
X991D01*
X991Y1025D01*
X989Y1024D01*
X986Y1022D01*
X985Y1022D01*
Y1022D01*
X984D01*
X984Y1022D01*
X981Y1024D01*
X978Y1025D01*
Y1025D01*
D01*
X977Y1025D01*
X973Y1024D01*
X973Y1024D01*
D01*
X973Y1024D01*
X969Y1023D01*
X965Y1024D01*
X965Y1024D01*
X965D01*
X965Y1024D01*
X961Y1025D01*
X959Y1025D01*
X959D01*
X959Y1025D01*
X957Y1024D01*
X954Y1022D01*
X954Y1022D01*
Y1022D01*
X952D01*
X949Y1024D01*
X947Y1025D01*
X947D01*
X945Y1025D01*
X941Y1024D01*
D01*
X941D01*
D01*
X936Y1022D01*
X933Y1024D01*
X930Y1025D01*
X926Y1024D01*
X922Y1022D01*
X921D01*
X921Y1022D01*
X918Y1024D01*
X915Y1025D01*
Y1025D01*
D01*
X914Y1025D01*
X910Y1024D01*
X910Y1024D01*
D01*
X910Y1024D01*
X906Y1023D01*
X902Y1024D01*
X902Y1024D01*
X902D01*
X902Y1024D01*
X898Y1025D01*
X896Y1025D01*
X896D01*
X896D01*
X891Y1025D01*
X890Y1025D01*
X888Y1032D01*
X895Y1038D01*
X926D01*
X930Y1039D01*
X933Y1041D01*
X939Y1047D01*
X941Y1051D01*
X942Y1054D01*
Y1058D01*
X983D01*
Y1058D01*
X988Y1057D01*
Y1050D01*
X1020D01*
Y1080D01*
X1030D01*
Y1050D01*
X1090D01*
Y1080D01*
X1100D01*
Y1050D01*
X1132D01*
Y1061D01*
X1157D01*
X1157Y1061D01*
X1165Y1059D01*
X1215D01*
X1223Y1061D01*
X1230Y1065D01*
X1232Y1069D01*
X1241D01*
X1244Y1064D01*
X1251Y1059D01*
X1259Y1058D01*
X1267Y1059D01*
X1274Y1064D01*
X1279Y1071D01*
X1280Y1079D01*
X1279Y1087D01*
X1274Y1094D01*
X1267Y1099D01*
X1259Y1100D01*
X1251Y1099D01*
X1244Y1094D01*
X1241Y1089D01*
X1234D01*
X1230Y1096D01*
X1223Y1100D01*
X1215Y1102D01*
X1165D01*
X1157Y1100D01*
X1157Y1100D01*
X1136D01*
X1132Y1104D01*
Y1111D01*
X1135Y1116D01*
X1165D01*
X1165Y1116D01*
X1174Y1117D01*
X1178Y1120D01*
X1200D01*
Y1159D01*
X1178D01*
X1174Y1162D01*
X1165Y1163D01*
X1165Y1163D01*
X1128D01*
Y1166D01*
X1089D01*
Y1475D01*
X1087Y1484D01*
X1082Y1492D01*
X1052Y1522D01*
X1044Y1527D01*
X1035Y1529D01*
X1035Y1529D01*
X905D01*
X905Y1529D01*
X896Y1527D01*
X888Y1522D01*
X888Y1522D01*
X860Y1494D01*
X855Y1486D01*
X853Y1477D01*
X816D01*
Y1481D01*
X796D01*
Y1442D01*
Y1402D01*
X816D01*
Y1406D01*
X824D01*
Y1368D01*
X704Y1249D01*
X702Y1245D01*
X701Y1241D01*
Y1180D01*
X680D01*
Y1150D01*
X670D01*
Y1180D01*
X658D01*
X654Y1186D01*
X655Y1191D01*
X653Y1198D01*
X649Y1205D01*
X643Y1209D01*
X635Y1210D01*
X628Y1209D01*
X622Y1205D01*
X618Y1198D01*
X616Y1191D01*
X618Y1183D01*
X622Y1177D01*
X622Y1177D01*
Y1165D01*
X600D01*
Y1135D01*
X595D01*
Y1130D01*
X558D01*
Y1104D01*
X558D01*
X562Y1102D01*
Y1049D01*
X578D01*
X579Y1043D01*
X575Y1040D01*
X570Y1033D01*
X569Y1028D01*
X563Y1026D01*
X550Y1038D01*
Y1330D01*
X549Y1334D01*
X547Y1337D01*
X465Y1420D01*
X465Y1425D01*
X464Y1433D01*
X461Y1440D01*
X456Y1446D01*
X450Y1451D01*
X446Y1453D01*
Y1548D01*
X450Y1552D01*
X454D01*
X455Y1552D01*
X460Y1548D01*
D01*
X460D01*
X461Y1548D01*
X480D01*
Y1575D01*
Y1602D01*
X461D01*
X460Y1602D01*
X460D01*
X460D01*
X455Y1598D01*
X454Y1598D01*
X415D01*
Y1552D01*
X425D01*
Y1453D01*
X420Y1451D01*
X414Y1446D01*
X409Y1440D01*
X408Y1439D01*
X402Y1440D01*
Y1571D01*
X402Y1571D01*
X402Y1578D01*
X399Y1584D01*
X395Y1590D01*
X395Y1590D01*
X331Y1654D01*
X326Y1658D01*
X319Y1660D01*
X312Y1661D01*
X312Y1661D01*
X251D01*
Y1731D01*
X252Y1735D01*
X251Y1745D01*
X248Y1750D01*
X298Y1800D01*
X304Y1797D01*
Y1780D01*
X327D01*
Y1775D01*
X332D01*
Y1748D01*
X349D01*
X350Y1748D01*
X351D01*
X351D01*
X355Y1752D01*
X357Y1752D01*
X392D01*
Y1798D01*
X392Y1798D01*
D01*
X392Y1798D01*
X393Y1803D01*
Y1803D01*
X393D01*
X393Y1803D01*
X393D01*
X393Y1803D01*
Y1847D01*
D02*
G37*
G36*
X1486Y1267D02*
Y1267D01*
X1467D01*
Y1240D01*
Y1213D01*
X1486D01*
Y1213D01*
X1488Y1217D01*
X1527D01*
Y1228D01*
X1542D01*
Y1218D01*
X1585D01*
Y1262D01*
X1542D01*
Y1252D01*
X1527D01*
Y1263D01*
X1490D01*
X1486Y1267D01*
Y1267D01*
D02*
G37*
G36*
X1187Y1661D02*
X1154D01*
Y1617D01*
X1187D01*
Y1661D01*
D02*
G37*
G36*
X644Y1335D02*
X611D01*
Y1290D01*
X644D01*
Y1335D01*
D02*
G37*
G36*
X1187D02*
X1154D01*
Y1290D01*
X1187D01*
Y1335D01*
D02*
G37*
G36*
X1144D02*
X1110D01*
Y1290D01*
X1144D01*
Y1335D01*
D02*
G37*
G36*
X601D02*
X567D01*
Y1290D01*
X601D01*
Y1335D01*
D02*
G37*
G36*
X601Y1716D02*
X567D01*
Y1671D01*
X601D01*
Y1716D01*
D02*
G37*
G36*
X644D02*
X611D01*
Y1671D01*
X644D01*
Y1716D01*
D02*
G37*
G36*
X1755Y1272D02*
X1745Y1271D01*
X1737Y1267D01*
X1729Y1261D01*
X1723Y1253D01*
X1723Y1252D01*
X1648D01*
Y1262D01*
X1605D01*
Y1218D01*
X1648D01*
Y1228D01*
X1719D01*
X1719Y1225D01*
X1723Y1217D01*
X1729Y1209D01*
X1737Y1203D01*
X1745Y1199D01*
X1755Y1198D01*
X1765Y1199D01*
X1773Y1203D01*
X1781Y1209D01*
X1787Y1217D01*
X1791Y1225D01*
X1792Y1235D01*
X1791Y1245D01*
X1787Y1253D01*
X1781Y1261D01*
X1773Y1267D01*
X1765Y1271D01*
X1755Y1272D01*
D02*
G37*
G36*
X1457Y1267D02*
X1439D01*
Y1245D01*
X1457D01*
Y1267D01*
D02*
G37*
%LPD*%
G36*
X849Y920D02*
X800Y871D01*
X794Y874D01*
X795Y876D01*
X793Y883D01*
X789Y889D01*
X783Y893D01*
X776Y895D01*
X769Y893D01*
X763Y889D01*
X761Y886D01*
X754D01*
X752Y889D01*
X748Y892D01*
X746Y899D01*
X772Y925D01*
X846D01*
X849Y920D01*
D02*
G37*
G36*
X500Y870D02*
X519D01*
X535Y854D01*
X535Y845D01*
X528Y838D01*
X460Y838D01*
X454Y843D01*
X454Y880D01*
X490Y880D01*
X500Y870D01*
D02*
G37*
G36*
X997Y1312D02*
X981Y1296D01*
X948D01*
X946Y1302D01*
X971Y1327D01*
X973Y1330D01*
X974Y1334D01*
Y1406D01*
X997D01*
Y1312D01*
D02*
G37*
G36*
X908Y1270D02*
X906Y1269D01*
X902Y1262D01*
X901Y1255D01*
X902Y1248D01*
X906Y1241D01*
X913Y1237D01*
X920Y1236D01*
X924Y1236D01*
X933Y1228D01*
X936Y1226D01*
X940Y1225D01*
X966D01*
X977Y1214D01*
Y1174D01*
X971Y1171D01*
X967Y1173D01*
X960Y1174D01*
X953Y1173D01*
X948Y1170D01*
X943Y1172D01*
X943Y1173D01*
X943Y1178D01*
X945Y1180D01*
X950Y1186D01*
X951Y1193D01*
X950Y1201D01*
X945Y1207D01*
X939Y1211D01*
X932Y1213D01*
X924Y1211D01*
X918Y1207D01*
X914Y1201D01*
X912Y1193D01*
X914Y1186D01*
X918Y1180D01*
X919Y1179D01*
X918Y1176D01*
X912Y1173D01*
X905Y1174D01*
X898Y1173D01*
X893Y1170D01*
X888Y1172D01*
X887Y1172D01*
Y1178D01*
X886Y1182D01*
X884Y1185D01*
X874Y1196D01*
X874Y1200D01*
X873Y1207D01*
X869Y1214D01*
X862Y1218D01*
X855Y1219D01*
X848Y1218D01*
X841Y1214D01*
X839Y1211D01*
X833Y1213D01*
Y1235D01*
X874Y1276D01*
X906D01*
X908Y1270D01*
D02*
G37*
G36*
X409Y1410D02*
X414Y1404D01*
X420Y1399D01*
X427Y1396D01*
X435Y1395D01*
X443Y1396D01*
X450Y1399D01*
X454Y1402D01*
X530Y1326D01*
Y1162D01*
X524Y1160D01*
X462Y1222D01*
X464Y1227D01*
X465Y1235D01*
X464Y1243D01*
X461Y1250D01*
X456Y1256D01*
X450Y1261D01*
X443Y1264D01*
X435Y1265D01*
X427Y1264D01*
X420Y1261D01*
X414Y1256D01*
X409Y1250D01*
X408Y1249D01*
X402Y1250D01*
Y1410D01*
X408Y1411D01*
X409Y1410D01*
D02*
G37*
G36*
X1041Y1465D02*
Y1166D01*
X997D01*
Y1218D01*
X996Y1222D01*
X994Y1225D01*
X977Y1242D01*
X974Y1244D01*
X970Y1245D01*
X944D01*
X939Y1251D01*
X939Y1255D01*
X938Y1262D01*
X934Y1269D01*
X932Y1270D01*
X934Y1276D01*
X985D01*
X989Y1277D01*
X993Y1279D01*
X1014Y1301D01*
X1017Y1304D01*
X1017Y1308D01*
Y1406D01*
X1029D01*
Y1469D01*
X1034Y1472D01*
X1041Y1465D01*
D02*
G37*
G36*
X854Y1284D02*
X816Y1247D01*
X814Y1243D01*
X813Y1239D01*
Y1172D01*
X812Y1172D01*
X807Y1170D01*
X802Y1173D01*
X795Y1174D01*
X788Y1173D01*
X783Y1170D01*
X778Y1172D01*
X777Y1172D01*
Y1228D01*
X839Y1290D01*
X851D01*
X854Y1284D01*
D02*
G37*
G36*
X538Y600D02*
Y579D01*
X536Y577D01*
X502Y577D01*
Y603D01*
X535D01*
X538Y600D01*
D02*
G37*
G36*
X409Y1220D02*
X414Y1214D01*
X420Y1209D01*
X425Y1207D01*
Y1108D01*
X415D01*
Y1062D01*
X454D01*
X455Y1062D01*
X460Y1058D01*
D01*
X460D01*
X461Y1058D01*
X480D01*
Y1085D01*
Y1112D01*
X461D01*
X460Y1112D01*
X460D01*
X460D01*
X455Y1108D01*
X454Y1108D01*
X445D01*
Y1202D01*
X451Y1204D01*
X516Y1140D01*
Y1028D01*
X517Y1024D01*
X519Y1021D01*
X596Y944D01*
X596Y943D01*
X593Y938D01*
X544D01*
X540Y938D01*
X537Y935D01*
X534Y932D01*
X534Y928D01*
X534Y924D01*
X534Y923D01*
X534Y922D01*
X531Y918D01*
X531Y917D01*
X608D01*
X608Y918D01*
X606Y921D01*
X607Y925D01*
X612Y927D01*
X613Y927D01*
X636Y904D01*
Y601D01*
X615Y581D01*
X613Y581D01*
X609Y583D01*
X608Y587D01*
X606Y590D01*
X608Y592D01*
X608Y592D01*
X569D01*
Y602D01*
X608D01*
X608Y603D01*
X606Y606D01*
X605Y612D01*
X605Y613D01*
X604Y617D01*
X604Y617D01*
D01*
X604Y617D01*
X603Y621D01*
X604Y625D01*
X604Y625D01*
Y625D01*
X604Y625D01*
X605Y629D01*
X605Y631D01*
Y631D01*
X605Y631D01*
X604Y633D01*
X603Y636D01*
X604Y641D01*
Y641D01*
X604Y641D01*
X605Y643D01*
X605Y645D01*
X604Y649D01*
X604Y649D01*
D01*
X604Y649D01*
X603Y653D01*
X604Y656D01*
X604Y657D01*
Y657D01*
X604Y657D01*
X605Y660D01*
X605Y662D01*
Y662D01*
X605Y662D01*
X604Y664D01*
X602Y667D01*
X602Y668D01*
Y669D01*
X604Y672D01*
X605Y676D01*
X604Y680D01*
X605Y682D01*
X605Y682D01*
X608Y686D01*
X608Y687D01*
X569D01*
Y697D01*
X608D01*
X608Y697D01*
X605Y702D01*
X605Y702D01*
X604Y704D01*
X605Y708D01*
X604Y712D01*
X602Y715D01*
Y716D01*
X602Y717D01*
X604Y720D01*
X605Y722D01*
X605D01*
D01*
X605Y723D01*
X604Y727D01*
X604Y727D01*
D01*
X604Y728D01*
X603Y731D01*
X604Y735D01*
Y735D01*
D01*
D01*
X605Y739D01*
X604Y743D01*
D01*
Y743D01*
D01*
X603Y748D01*
X604Y751D01*
X605Y755D01*
X604Y759D01*
X602Y762D01*
Y763D01*
X602Y764D01*
X604Y767D01*
X605Y769D01*
X605D01*
D01*
X605Y771D01*
X604Y775D01*
X604Y775D01*
D01*
X604Y775D01*
X603Y779D01*
X604Y782D01*
X604Y783D01*
Y783D01*
X604Y783D01*
X605Y786D01*
X605Y788D01*
Y788D01*
X606Y794D01*
X608Y797D01*
X608Y797D01*
X572D01*
X569Y798D01*
Y807D01*
X608D01*
X608Y808D01*
X605Y812D01*
X605Y812D01*
X604Y814D01*
X605Y818D01*
X604Y822D01*
X605Y823D01*
X605Y824D01*
X608Y828D01*
X608Y829D01*
X569D01*
Y838D01*
X572Y839D01*
X608D01*
X608Y839D01*
X606Y842D01*
X605Y848D01*
X605Y849D01*
X604Y853D01*
X604Y853D01*
D01*
X604Y854D01*
X603Y857D01*
X604Y861D01*
X604Y861D01*
Y861D01*
X604Y861D01*
X605Y865D01*
X605Y867D01*
Y867D01*
X606Y872D01*
X608Y875D01*
X608Y876D01*
X530D01*
X524Y875D01*
X519Y876D01*
X503D01*
X502Y877D01*
X501Y882D01*
X501Y882D01*
X501Y882D01*
Y948D01*
X500D01*
Y956D01*
X500Y956D01*
X499Y963D01*
X497Y969D01*
X493Y975D01*
X493Y975D01*
X402Y1065D01*
Y1220D01*
X408Y1221D01*
X409Y1220D01*
D02*
G37*
G36*
X968Y543D02*
X969Y542D01*
X967Y536D01*
X945D01*
X943Y540D01*
X937Y544D01*
X929Y546D01*
X922Y544D01*
X916Y540D01*
X912Y534D01*
X910Y526D01*
X911Y519D01*
X911Y518D01*
X909Y513D01*
X857D01*
X778Y592D01*
X779Y593D01*
X785Y595D01*
X826Y554D01*
X829Y552D01*
X833Y551D01*
X876D01*
X879Y547D01*
X885Y543D01*
X892Y542D01*
X900Y543D01*
X906Y547D01*
X910Y554D01*
X912Y561D01*
X910Y569D01*
X906Y575D01*
X900Y579D01*
X892Y581D01*
X885Y579D01*
X879Y575D01*
X876Y571D01*
X837D01*
X797Y612D01*
Y631D01*
X801Y633D01*
X803Y633D01*
X809Y632D01*
X817Y633D01*
X823Y637D01*
X830Y637D01*
X834Y634D01*
X841Y632D01*
X849Y634D01*
X855Y638D01*
X859Y644D01*
X860Y645D01*
X865Y646D01*
X968Y543D01*
D02*
G37*
G36*
X910Y1356D02*
X906Y1354D01*
X902Y1347D01*
X901Y1340D01*
X902Y1333D01*
X906Y1326D01*
X913Y1322D01*
X920Y1321D01*
X927Y1322D01*
X933Y1326D01*
X937Y1321D01*
X926Y1310D01*
X835D01*
X831Y1309D01*
X828Y1307D01*
X760Y1239D01*
X757Y1236D01*
X757Y1232D01*
Y1181D01*
X745D01*
Y1158D01*
X735D01*
Y1181D01*
X722D01*
Y1237D01*
X841Y1357D01*
X843Y1360D01*
X844Y1364D01*
Y1406D01*
X858D01*
X860Y1403D01*
X868Y1398D01*
X877Y1396D01*
X886Y1398D01*
X894Y1403D01*
X896Y1406D01*
X910D01*
Y1356D01*
D02*
G37*
G36*
X541Y791D02*
Y783D01*
X529Y771D01*
X525D01*
X525Y780D01*
Y795D01*
X541Y791D01*
D02*
G37*
G36*
X1228Y723D02*
X1231Y720D01*
X1235Y720D01*
X1260D01*
X1263Y714D01*
X1255Y706D01*
X1253Y703D01*
X1252Y699D01*
Y678D01*
X1238Y664D01*
X1237Y664D01*
X1231Y660D01*
X1227Y654D01*
X1225Y646D01*
X1220Y643D01*
X1217Y643D01*
X1215Y645D01*
X1215Y649D01*
X1212Y652D01*
Y653D01*
X1215Y657D01*
X1215Y660D01*
X1215Y664D01*
X1212Y668D01*
Y669D01*
X1215Y672D01*
X1215Y674D01*
Y674D01*
X1215Y676D01*
X1215Y680D01*
D01*
Y680D01*
D01*
X1213Y685D01*
X1215Y688D01*
X1215Y692D01*
X1215Y696D01*
X1212Y699D01*
X1212D01*
Y700D01*
X1215Y704D01*
X1215Y706D01*
Y706D01*
X1215Y708D01*
X1215Y712D01*
D01*
Y712D01*
D01*
X1213Y717D01*
X1215Y720D01*
X1215Y723D01*
X1215Y727D01*
X1219Y731D01*
X1228Y723D01*
D02*
G37*
G36*
X966Y697D02*
X972Y693D01*
X979Y692D01*
X987Y693D01*
X990Y695D01*
X993Y697D01*
X997Y694D01*
X998Y692D01*
X1005Y688D01*
X1012Y687D01*
X1019Y688D01*
X1026Y692D01*
X1027Y694D01*
X1033D01*
X1034Y692D01*
X1040Y688D01*
X1043Y688D01*
X1045Y681D01*
X1009Y645D01*
X1007Y642D01*
X1006Y638D01*
Y594D01*
X1001Y590D01*
X997Y584D01*
X995Y576D01*
X997Y569D01*
X998Y566D01*
X995Y560D01*
X980D01*
X914Y627D01*
X916Y633D01*
X917Y633D01*
X923Y637D01*
X924Y639D01*
X930D01*
X931Y637D01*
X937Y633D01*
X944Y632D01*
X952Y633D01*
X958Y637D01*
X962Y644D01*
X964Y651D01*
X962Y659D01*
X958Y665D01*
X954Y667D01*
X954Y670D01*
X952Y673D01*
X938Y687D01*
X941Y692D01*
X944Y692D01*
X952Y693D01*
X958Y697D01*
X959Y699D01*
X965D01*
X966Y697D01*
D02*
G37*
%LPC*%
G36*
X608Y907D02*
X531D01*
X531Y907D01*
X534Y902D01*
X534Y902D01*
X534Y901D01*
X534Y897D01*
X534Y893D01*
X534Y891D01*
X534Y891D01*
X531Y886D01*
X531Y886D01*
X608D01*
X608Y886D01*
X605Y891D01*
X605Y891D01*
X604Y893D01*
X605Y897D01*
X604Y901D01*
X605Y902D01*
X605Y902D01*
X608Y907D01*
X608Y907D01*
D02*
G37*
G36*
X509Y1080D02*
X490D01*
Y1058D01*
X509D01*
Y1080D01*
D02*
G37*
G36*
X490Y1112D02*
Y1090D01*
X509D01*
Y1112D01*
X490D01*
D02*
G37*
%LPD*%
D10*
X606Y1666D02*
D03*
X606Y1340D02*
D03*
X1149Y1666D02*
D03*
X1149Y1340D02*
D03*
D11*
X704Y1442D02*
D03*
X747D02*
D03*
X791D02*
D03*
X834D02*
D03*
X877D02*
D03*
X921D02*
D03*
X964D02*
D03*
X1007D02*
D03*
D12*
X475Y855D02*
D03*
X425D02*
D03*
X1350Y670D02*
D03*
X1400D02*
D03*
X1295Y430D02*
D03*
X1345D02*
D03*
X475Y725D02*
D03*
X425D02*
D03*
X475Y605D02*
D03*
X425D02*
D03*
X475Y555D02*
D03*
X425D02*
D03*
X485Y1575D02*
D03*
X435D02*
D03*
X485Y1085D02*
D03*
X435D02*
D03*
D13*
X415Y915D02*
D03*
X475D02*
D03*
X485Y376D02*
D03*
X544D02*
D03*
X415Y790D02*
D03*
X475D02*
D03*
X1347Y500D02*
D03*
X1287D02*
D03*
D14*
X595Y1135D02*
D03*
Y1075D02*
D03*
X675Y1150D02*
D03*
Y1090D02*
D03*
X900Y235D02*
D03*
Y295D02*
D03*
X1095Y1140D02*
D03*
Y1080D02*
D03*
X1025Y1140D02*
D03*
Y1080D02*
D03*
D15*
X590Y1025D02*
D03*
X494Y701D02*
D03*
X1295Y385D02*
D03*
X1259Y1079D02*
D03*
X370Y980D02*
D03*
X1643Y1585D02*
D03*
D16*
X1508Y1240D02*
D03*
X1462D02*
D03*
X373Y1775D02*
D03*
X327D02*
D03*
X1597D02*
D03*
X1643D02*
D03*
X378Y250D02*
D03*
X332D02*
D03*
D17*
X1626Y1240D02*
D03*
X1564D02*
D03*
X309Y1825D02*
D03*
X371D02*
D03*
X1661D02*
D03*
X1599D02*
D03*
D18*
X630Y379D02*
D03*
X646D02*
D03*
X662D02*
D03*
X678D02*
D03*
X693D02*
D03*
X709D02*
D03*
X725D02*
D03*
X741D02*
D03*
X756D02*
D03*
X772D02*
D03*
X788D02*
D03*
X804D02*
D03*
X819D02*
D03*
X835D02*
D03*
X851D02*
D03*
X867D02*
D03*
X882D02*
D03*
X898D02*
D03*
X914D02*
D03*
X930D02*
D03*
X945D02*
D03*
X961D02*
D03*
X977D02*
D03*
X993D02*
D03*
X1008D02*
D03*
X1024D02*
D03*
X1040D02*
D03*
X1056D02*
D03*
X1071D02*
D03*
X1087D02*
D03*
X1103D02*
D03*
X1119D02*
D03*
Y989D02*
D03*
X1103D02*
D03*
X1087D02*
D03*
X1071D02*
D03*
X1056Y989D02*
D03*
X1040D02*
D03*
X1024D02*
D03*
X1008Y989D02*
D03*
X993Y989D02*
D03*
X977Y989D02*
D03*
X961D02*
D03*
X945Y989D02*
D03*
X930Y989D02*
D03*
X914D02*
D03*
X898D02*
D03*
X882D02*
D03*
X867Y989D02*
D03*
X851Y989D02*
D03*
X835Y989D02*
D03*
X819Y989D02*
D03*
X804Y989D02*
D03*
X788Y989D02*
D03*
X772Y989D02*
D03*
X756Y989D02*
D03*
X741D02*
D03*
X725D02*
D03*
X709D02*
D03*
X693D02*
D03*
X678Y989D02*
D03*
X662D02*
D03*
X646D02*
D03*
X630D02*
D03*
D19*
X1180Y440D02*
D03*
Y456D02*
D03*
Y471D02*
D03*
Y487D02*
D03*
Y519D02*
D03*
Y534D02*
D03*
Y550D02*
D03*
Y566D02*
D03*
Y582D02*
D03*
X1180Y597D02*
D03*
Y613D02*
D03*
X1180Y629D02*
D03*
Y645D02*
D03*
Y660D02*
D03*
Y676D02*
D03*
X1180Y692D02*
D03*
X1180Y708D02*
D03*
X1180Y723D02*
D03*
X1180Y739D02*
D03*
X1180Y755D02*
D03*
X1180Y771D02*
D03*
X1180Y786D02*
D03*
X1180Y802D02*
D03*
X1180Y818D02*
D03*
X1180Y834D02*
D03*
Y849D02*
D03*
Y865D02*
D03*
Y881D02*
D03*
Y897D02*
D03*
X1180Y912D02*
D03*
X1180Y928D02*
D03*
X569Y928D02*
D03*
Y912D02*
D03*
Y897D02*
D03*
X569Y881D02*
D03*
Y865D02*
D03*
Y849D02*
D03*
X569Y834D02*
D03*
Y818D02*
D03*
Y802D02*
D03*
Y786D02*
D03*
X569Y771D02*
D03*
Y755D02*
D03*
X569Y739D02*
D03*
Y723D02*
D03*
Y708D02*
D03*
Y692D02*
D03*
X569Y676D02*
D03*
Y660D02*
D03*
Y645D02*
D03*
X569Y629D02*
D03*
X569Y613D02*
D03*
X569Y597D02*
D03*
X569Y582D02*
D03*
X569Y566D02*
D03*
X569Y550D02*
D03*
X569Y534D02*
D03*
X569Y519D02*
D03*
X569Y503D02*
D03*
X569Y487D02*
D03*
X569Y471D02*
D03*
X569Y456D02*
D03*
X569Y440D02*
D03*
X1180Y503D02*
D03*
D20*
X740Y1112D02*
D03*
Y1158D02*
D03*
X795Y1077D02*
D03*
Y1123D02*
D03*
X850Y1077D02*
D03*
Y1123D02*
D03*
X905Y1077D02*
D03*
Y1123D02*
D03*
X960Y1077D02*
D03*
Y1123D02*
D03*
X600Y247D02*
D03*
Y293D02*
D03*
X650D02*
D03*
Y247D02*
D03*
X700Y293D02*
D03*
Y247D02*
D03*
X750D02*
D03*
Y293D02*
D03*
X800Y247D02*
D03*
Y293D02*
D03*
D21*
X1165Y1080D02*
D03*
Y1140D02*
D03*
D22*
X306Y405D02*
D03*
X384Y442D02*
D03*
Y368D02*
D03*
D23*
X635Y513D02*
X636D01*
X1675Y335D02*
X1755D01*
X1543Y203D02*
X1675Y335D01*
X1056Y203D02*
X1543D01*
X1062Y217D02*
X1537D01*
X932Y1087D02*
Y1193D01*
X1229Y629D02*
X1235Y623D01*
X1320D01*
X1244Y600D02*
X1260D01*
X1267Y559D02*
X1289Y581D01*
X1180Y629D02*
X1229D01*
X1239Y605D02*
X1244Y600D01*
X1244Y646D02*
Y656D01*
X1262Y674D01*
X1220Y605D02*
X1239D01*
X1213Y597D02*
X1220Y605D01*
X1180Y582D02*
X1230D01*
X1180Y597D02*
X1213D01*
Y566D02*
X1220Y559D01*
X1180Y566D02*
X1213D01*
X1220Y559D02*
X1267D01*
X1288Y752D02*
X1301D01*
X1293Y922D02*
X1352Y863D01*
X1287Y908D02*
X1338Y857D01*
X1281Y894D02*
X1324Y851D01*
Y742D02*
Y851D01*
X1338Y737D02*
Y857D01*
X1352Y731D02*
Y863D01*
X1304Y683D02*
X1352Y731D01*
X1316Y715D02*
X1338Y737D01*
X1298Y715D02*
X1316D01*
X1276Y693D02*
X1298Y715D01*
X1311Y729D02*
X1324Y742D01*
X1292Y729D02*
X1311D01*
X1262Y699D02*
X1292Y729D01*
X1265Y730D02*
X1288Y752D01*
X1235Y730D02*
X1265D01*
X1210Y755D02*
X1235Y730D01*
X1180Y755D02*
X1210D01*
X1232Y753D02*
X1255D01*
X1214Y771D02*
X1232Y753D01*
X1180Y771D02*
X1214D01*
X1278Y772D02*
Y775D01*
X1246Y804D02*
X1278Y772D01*
X1279Y805D02*
Y807D01*
X1231Y786D02*
X1236Y781D01*
X1226Y804D02*
X1246D01*
X1225Y802D02*
X1226Y804D01*
X1180Y802D02*
X1225D01*
X1169Y818D02*
X1259D01*
X1223Y833D02*
X1261D01*
X1222Y834D02*
X1223Y833D01*
X1180Y834D02*
X1222D01*
X1255Y847D02*
X1271Y863D01*
X1229Y847D02*
X1255D01*
X1226Y849D02*
X1229Y847D01*
X1180Y849D02*
X1226D01*
X1239Y865D02*
Y870D01*
X1271Y863D02*
Y871D01*
X1231Y894D02*
X1281D01*
X1225Y908D02*
X1287D01*
X1219Y922D02*
X1293D01*
X1267Y839D02*
X1280D01*
X1261Y833D02*
X1267Y839D01*
X1114Y623D02*
Y626D01*
X1089Y600D02*
Y651D01*
X1066Y578D02*
Y648D01*
X1039Y600D02*
Y641D01*
X1016Y578D02*
Y638D01*
X1180Y786D02*
X1231D01*
X1259Y818D02*
X1276Y802D01*
X1279Y805D01*
X1180Y881D02*
X1217D01*
X1231Y894D01*
X1180Y897D02*
X1213D01*
X1225Y908D01*
X1180Y912D02*
X1209D01*
X1219Y922D01*
X1276Y653D02*
Y693D01*
X1262Y674D02*
Y699D01*
X764Y866D02*
X774Y876D01*
X644Y521D02*
Y522D01*
X636Y513D02*
X644Y521D01*
X1150Y613D02*
X1180D01*
X1150Y928D02*
X1180D01*
X1134Y912D02*
X1150Y928D01*
X1012Y706D02*
Y711D01*
X844Y487D02*
X1179D01*
X748Y582D02*
X844Y487D01*
X764Y592D02*
X853Y503D01*
X884Y795D02*
X884Y795D01*
X907Y653D02*
X909Y651D01*
X907Y664D02*
X907Y664D01*
X907Y653D02*
Y664D01*
X833Y561D02*
X892D01*
X921Y689D02*
X944Y666D01*
X959Y731D02*
X979Y711D01*
X1133Y645D02*
X1180D01*
X1090Y692D02*
X1180D01*
X1086Y708D02*
X1180D01*
X907Y664D02*
Y693D01*
X907Y693D02*
X907Y693D01*
X1089Y651D02*
X1099Y660D01*
X1180D01*
X1039Y641D02*
X1090Y692D01*
X1016Y638D02*
X1086Y708D01*
X1047Y706D02*
X1051Y710D01*
X1012Y711D02*
X1037Y737D01*
X996Y764D02*
X1014Y746D01*
X748Y582D02*
Y867D01*
X764Y592D02*
Y866D01*
X786Y608D02*
X833Y561D01*
X898Y956D02*
Y989D01*
X914Y951D02*
Y989D01*
X930Y947D02*
Y989D01*
X945Y943D02*
Y989D01*
X961Y939D02*
Y989D01*
X977Y934D02*
Y989D01*
X1063Y861D02*
X1103Y901D01*
Y989D01*
X1073Y851D02*
X1119Y896D01*
X993Y930D02*
Y989D01*
X1008Y925D02*
Y989D01*
X1024Y921D02*
Y989D01*
X1040Y917D02*
Y989D01*
X1056Y913D02*
Y989D01*
X1071Y909D02*
Y989D01*
X1087Y905D02*
Y989D01*
X1119Y896D02*
Y989D01*
X1134Y892D02*
Y912D01*
X1047Y845D02*
X1063Y861D01*
X1061Y839D02*
X1073Y851D01*
X1051Y710D02*
Y756D01*
X1061Y766D01*
Y839D01*
X1037Y737D02*
Y762D01*
X1047Y772D01*
Y845D01*
X996Y764D02*
Y788D01*
X982Y743D02*
Y794D01*
X786Y608D02*
Y808D01*
X996Y788D02*
X1010Y802D01*
X982Y794D02*
X996Y808D01*
X959Y731D02*
Y791D01*
X982Y814D01*
X944Y711D02*
Y795D01*
X968Y819D01*
X921Y689D02*
Y792D01*
X954Y825D01*
X907Y693D02*
Y798D01*
X940Y831D01*
X884Y795D02*
X926Y837D01*
X1024Y781D02*
Y842D01*
X1087Y905D01*
X1010Y802D02*
Y848D01*
X1071Y909D01*
X996Y808D02*
Y854D01*
X1056Y913D01*
X982Y814D02*
Y859D01*
X1040Y917D01*
X968Y819D02*
Y865D01*
X1024Y921D01*
X954Y825D02*
Y871D01*
X1008Y925D01*
X940Y831D02*
Y877D01*
X993Y930D01*
X926Y837D02*
Y883D01*
X977Y934D01*
X871Y854D02*
Y866D01*
X857Y859D02*
Y872D01*
X843Y865D02*
Y877D01*
X861Y818D02*
X889Y846D01*
X841Y824D02*
X871Y854D01*
X809Y811D02*
X857Y859D01*
X786Y808D02*
X843Y865D01*
X774Y876D02*
X776D01*
X1075Y735D02*
Y834D01*
X1134Y892D01*
X1075Y735D02*
X1079Y731D01*
X1106Y739D02*
Y779D01*
Y739D02*
X1122Y723D01*
X1180D01*
X1129Y751D02*
Y816D01*
Y751D02*
X1141Y739D01*
X1180D01*
X1114Y626D02*
X1133Y645D01*
X857Y950D02*
X857Y950D01*
X872D01*
X862Y936D02*
X862Y936D01*
X878D01*
X898Y956D01*
X789Y846D02*
X865Y922D01*
X884D01*
X914Y951D01*
X843Y877D02*
X874Y908D01*
X890D01*
X930Y947D01*
X857Y872D02*
X880Y894D01*
X896D01*
X945Y943D01*
X871Y866D02*
X885Y880D01*
X901D01*
X961Y939D01*
X841Y652D02*
Y824D01*
X861Y664D02*
X976Y550D01*
X861Y664D02*
Y818D01*
X884Y674D02*
Y795D01*
X944Y651D02*
Y666D01*
X1114Y576D02*
Y578D01*
X1064Y576D02*
X1066Y578D01*
X1114Y578D02*
X1150Y613D01*
X1180Y865D02*
X1239D01*
X853Y503D02*
X1179D01*
X976Y550D02*
X1180D01*
X809Y651D02*
Y811D01*
X739Y876D02*
X748Y867D01*
X872Y950D02*
X882Y960D01*
Y989D01*
X1066Y648D02*
X1094Y676D01*
X1180D01*
X929Y526D02*
X1061D01*
X1070Y534D01*
X1180D01*
X600Y293D02*
X600D01*
X700D02*
Y310D01*
X693Y342D02*
Y379D01*
Y342D02*
X705Y330D01*
X720D01*
X750Y300D01*
Y293D02*
Y300D01*
Y247D02*
X800D01*
X650Y293D02*
Y323D01*
X662Y335D01*
X600Y293D02*
X646Y339D01*
X678Y332D02*
X700Y310D01*
X678Y332D02*
Y379D01*
X662Y335D02*
Y379D01*
X646Y339D02*
Y379D01*
X750Y247D02*
X755Y242D01*
Y210D02*
Y242D01*
X600Y210D02*
Y247D01*
X650D02*
X700D01*
X827Y340D02*
X835Y348D01*
Y379D01*
X800Y293D02*
X827Y320D01*
Y340D01*
X768Y936D02*
X862D01*
X762Y950D02*
X857D01*
X822Y1067D02*
X830Y1075D01*
X842D01*
X877Y1067D02*
X885Y1075D01*
X897D01*
X871Y1049D02*
X877Y1054D01*
Y1067D01*
X844Y1049D02*
X871D01*
X891D02*
X926D01*
X872Y1030D02*
X891Y1049D01*
X926D02*
X932Y1054D01*
Y1067D01*
X937Y1072D01*
X842Y1075D02*
X850Y1067D01*
Y1072D02*
X862D01*
X877Y1087D01*
X897Y1075D02*
X905Y1067D01*
Y1072D02*
X917D01*
X932Y1087D01*
X937Y1072D02*
X974D01*
X987Y1085D01*
Y1218D01*
X930Y1300D02*
X964Y1334D01*
Y1412D01*
X1007Y1308D02*
Y1412D01*
X985Y1286D02*
X1007Y1308D01*
X970Y1235D02*
X987Y1218D01*
X940Y1235D02*
X970D01*
X920Y1255D02*
X940Y1235D01*
X920Y1340D02*
Y1411D01*
X921Y1412D01*
X704Y1353D02*
Y1412D01*
X855Y1200D02*
X877Y1178D01*
Y1087D02*
Y1178D01*
X747Y1355D02*
Y1412D01*
X795Y1118D02*
Y1155D01*
X850Y1118D02*
Y1155D01*
X905Y1118D02*
Y1155D01*
X960Y1118D02*
Y1155D01*
X835Y1300D02*
X930D01*
X834Y1364D02*
Y1412D01*
X823Y1239D02*
X870Y1286D01*
X985D01*
X475Y560D02*
X481Y566D01*
X530Y590D02*
X537Y597D01*
X569D01*
X481Y566D02*
X569D01*
X475Y610D02*
X478Y613D01*
X569D01*
X665Y512D02*
X667D01*
X612Y397D02*
X630Y379D01*
X644Y522D02*
X658Y535D01*
X658D01*
X1216Y1079D02*
X1259D01*
X1215Y1080D02*
X1215Y1080D01*
X1216Y1079D01*
X533Y660D02*
X569D01*
X518Y646D02*
X533Y660D01*
X415Y660D02*
X512D01*
X524Y632D02*
X537Y645D01*
X569D01*
X512Y660D02*
X529Y676D01*
X569D01*
X375Y698D02*
X375Y698D01*
X434Y674D02*
X506D01*
X540Y708D01*
X569D01*
X506Y739D02*
X569D01*
X375Y752D02*
X494D01*
X506Y739D01*
X1301Y683D02*
X1304D01*
X215Y635D02*
X275D01*
X215Y715D02*
Y735D01*
Y715D02*
X411Y519D01*
X569D01*
X275Y635D02*
X407Y503D01*
X569D01*
X385Y440D02*
X435D01*
X482Y487D01*
X569D01*
X420Y405D02*
X486Y471D01*
X569D01*
X365Y405D02*
X420D01*
X373Y442D02*
X384D01*
X335Y480D02*
X373Y442D01*
X300Y740D02*
Y760D01*
X375Y698D02*
X410D01*
X434Y674D01*
X400Y675D02*
X415Y660D01*
X355Y645D02*
X368Y632D01*
X300Y740D02*
X394Y646D01*
X518D01*
X368Y632D02*
X524D01*
X335Y262D02*
Y305D01*
Y262D02*
X337Y260D01*
X538Y582D02*
X569D01*
X530Y590D02*
X538Y582D01*
X335Y435D02*
X365Y405D01*
X215Y435D02*
X335D01*
X285Y405D02*
X306D01*
X215Y335D02*
X285Y405D01*
X665Y512D02*
X712Y559D01*
Y880D01*
X768Y936D01*
X658Y535D02*
X698Y575D01*
Y886D01*
X762Y950D01*
X678Y588D02*
Y989D01*
X612Y397D02*
Y523D01*
X678Y588D01*
X569Y534D02*
X603D01*
X660Y591D01*
X569Y550D02*
X599D01*
X646Y597D01*
X569Y582D02*
X605D01*
X618Y595D01*
X660Y591D02*
Y914D01*
X646Y597D02*
Y908D01*
X370Y980D02*
Y1048D01*
X376Y1054D01*
X590Y1025D02*
Y1070D01*
X595Y1075D01*
Y1065D02*
Y1075D01*
X435Y1085D02*
Y1235D01*
X435Y1425D02*
Y1575D01*
X435Y1425D02*
X435Y1425D01*
X435Y1425D02*
X445D01*
X435Y1085D02*
X435Y1085D01*
X445Y1425D02*
X540Y1330D01*
X435Y1235D02*
X526Y1144D01*
X795Y1077D02*
X823Y1106D01*
Y1239D01*
X822Y1047D02*
Y1067D01*
X844Y1030D02*
X872D01*
X748Y1112D02*
X767Y1094D01*
X740Y1112D02*
X748D01*
X767Y1232D02*
X835Y1300D01*
X767Y1094D02*
X768Y1093D01*
X767Y1094D02*
Y1232D01*
X526Y1028D02*
Y1144D01*
X540Y1034D02*
Y1330D01*
X526Y1028D02*
X646Y908D01*
X540Y1034D02*
X660Y914D01*
X595Y1065D02*
X625Y1035D01*
X662D01*
X835Y989D02*
Y1020D01*
X844Y1030D01*
X795Y1040D02*
Y1077D01*
X741Y989D02*
Y1023D01*
X725Y989D02*
X725Y989D01*
X712Y1241D02*
X834Y1364D01*
X735Y1029D02*
X741Y1023D01*
X662Y1035D02*
X678Y1019D01*
Y989D02*
Y1019D01*
X819Y989D02*
Y1024D01*
X844Y1049D01*
X804Y989D02*
Y1029D01*
X822Y1047D01*
X788Y989D02*
Y1033D01*
X795Y1040D01*
X772Y989D02*
Y1056D01*
X768Y1059D02*
X772Y1056D01*
X768Y1059D02*
Y1093D01*
X725Y989D02*
Y1019D01*
X712Y1032D02*
X725Y1019D01*
X712Y1032D02*
Y1241D01*
X735Y1029D02*
Y1043D01*
X1750Y1240D02*
X1755Y1235D01*
X371Y1776D02*
Y1825D01*
Y1776D02*
X373Y1775D01*
X215Y1735D02*
X219D01*
X309Y1825D01*
X1599Y1776D02*
Y1825D01*
X1597Y1775D02*
X1599Y1776D01*
X1661Y1825D02*
X1751Y1735D01*
X1735Y935D02*
X1755D01*
X1710Y930D02*
Y990D01*
X1755Y1035D01*
X914Y345D02*
Y379D01*
X930Y349D02*
Y379D01*
X1537Y217D02*
X1755Y435D01*
X914Y345D02*
X1056Y203D01*
X930Y349D02*
X1062Y217D01*
X1071Y303D02*
Y379D01*
X1056Y299D02*
Y379D01*
X1071Y303D02*
X1087Y287D01*
X1507D01*
X1082Y273D02*
X1513D01*
X1056Y299D02*
X1082Y273D01*
X1513D02*
X1695Y455D01*
Y895D01*
X1735Y935D01*
X1507Y287D02*
X1681Y461D01*
Y901D01*
X1710Y930D01*
X675Y1075D02*
Y1090D01*
D24*
X1179Y487D02*
X1180Y487D01*
X1179Y503D02*
X1180Y503D01*
D25*
X544Y376D02*
X624D01*
X1643Y1585D02*
X1755D01*
X791Y1380D02*
Y1504D01*
X1233Y498D02*
X1285D01*
X482Y782D02*
X523D01*
X1295Y430D02*
Y488D01*
X1285Y498D02*
X1295Y488D01*
X1295Y385D02*
Y430D01*
X1295Y430D01*
X1751Y1735D02*
X1755D01*
X898Y295D02*
X935D01*
X955Y275D01*
Y260D02*
Y275D01*
D26*
X215Y1635D02*
Y1735D01*
Y1535D02*
Y1635D01*
X1755D02*
Y1735D01*
Y1535D02*
Y1585D01*
Y1635D01*
D27*
X877Y1420D02*
Y1477D01*
X905Y1505D01*
X1025Y1140D02*
X1095D01*
X1165D01*
X1165Y1140D01*
X905Y1505D02*
X1035D01*
X1065Y1475D01*
Y1140D02*
Y1475D01*
Y1140D02*
X1095D01*
D28*
X1165Y1080D02*
X1215D01*
D29*
X474Y916D02*
X475Y915D01*
Y866D02*
Y915D01*
Y866D02*
X475Y865D01*
X215Y1635D02*
X312D01*
X376Y1571D01*
Y1054D02*
Y1571D01*
Y1054D02*
X474Y956D01*
Y916D02*
Y956D01*
D30*
X425Y560D02*
Y605D01*
X475Y725D02*
X476Y723D01*
X527Y786D02*
X569D01*
X1233Y498D02*
X1233Y498D01*
X1180Y519D02*
X1223D01*
X1233Y509D01*
Y498D02*
Y509D01*
X494Y701D02*
Y723D01*
X476D02*
X494D01*
X569D01*
X523Y782D02*
X527Y786D01*
X475Y849D02*
X569D01*
X475D02*
Y865D01*
X475Y790D02*
X482Y782D01*
X1320Y623D02*
X1336D01*
X1350Y638D01*
Y670D01*
X378Y255D02*
X385Y247D01*
X600D01*
X675Y1043D02*
Y1075D01*
Y1043D02*
X693Y1024D01*
Y989D02*
Y1024D01*
X898Y295D02*
Y379D01*
D31*
X415Y884D02*
Y915D01*
Y884D02*
X425Y874D01*
X371Y726D02*
X372Y725D01*
X536Y834D02*
X569D01*
X531Y813D02*
X539Y804D01*
X541D01*
X543Y802D01*
X569D01*
X531Y813D02*
Y828D01*
X536Y834D01*
X415Y790D02*
Y820D01*
Y790D02*
X415Y790D01*
X425Y830D02*
Y855D01*
X415Y820D02*
X424Y829D01*
X425Y830D01*
Y855D02*
Y874D01*
X424Y829D02*
X532D01*
X396D02*
X424D01*
X390Y835D02*
X396Y829D01*
X744Y1065D02*
Y1075D01*
Y1065D02*
X757Y1052D01*
X756Y989D02*
X757Y990D01*
Y1052D01*
D32*
X372Y725D02*
X425D01*
X635Y1105D02*
X635Y1105D01*
Y1191D01*
X635Y1105D02*
X650Y1090D01*
X675D01*
D33*
X1498Y1240D02*
X1564D01*
X1626D02*
X1750D01*
D34*
X1755Y1735D02*
D03*
Y1635D02*
D03*
Y1535D02*
D03*
Y1435D02*
D03*
Y1335D02*
D03*
Y1235D02*
D03*
Y1135D02*
D03*
Y1035D02*
D03*
Y935D02*
D03*
Y835D02*
D03*
Y735D02*
D03*
Y635D02*
D03*
Y535D02*
D03*
Y435D02*
D03*
Y335D02*
D03*
X215Y1735D02*
D03*
Y1635D02*
D03*
Y1535D02*
D03*
Y1435D02*
D03*
Y1335D02*
D03*
Y1235D02*
D03*
Y1135D02*
D03*
Y1035D02*
D03*
Y935D02*
D03*
Y835D02*
D03*
Y735D02*
D03*
Y635D02*
D03*
Y535D02*
D03*
Y435D02*
D03*
Y335D02*
D03*
D35*
X1755Y235D02*
D03*
X215D02*
D03*
D36*
X435Y1235D02*
D03*
Y1425D02*
D03*
D37*
X635Y513D02*
D03*
X285Y680D02*
D03*
X932Y1193D02*
D03*
X1320Y623D02*
D03*
X1260Y600D02*
D03*
X1289Y581D02*
D03*
X1244Y646D02*
D03*
X1230Y582D02*
D03*
X1301Y752D02*
D03*
X1255Y753D02*
D03*
X1278Y775D02*
D03*
X1279Y807D02*
D03*
X1236Y781D02*
D03*
X1239Y870D02*
D03*
X1271Y871D02*
D03*
X1280Y839D02*
D03*
X1284Y966D02*
D03*
X1301Y683D02*
D03*
X1114Y623D02*
D03*
X1089Y600D02*
D03*
X1039D02*
D03*
X1276Y653D02*
D03*
X979Y711D02*
D03*
X1012Y706D02*
D03*
X909Y651D02*
D03*
X929Y526D02*
D03*
X892Y561D02*
D03*
X982Y743D02*
D03*
X944Y711D02*
D03*
X1014Y746D02*
D03*
X1047Y706D02*
D03*
X1079Y731D02*
D03*
X1129Y816D02*
D03*
X1104Y781D02*
D03*
X1024D02*
D03*
X789Y846D02*
D03*
X894Y856D02*
D03*
X841Y652D02*
D03*
X884Y674D02*
D03*
X944Y651D02*
D03*
X1114Y576D02*
D03*
X1064D02*
D03*
X1014D02*
D03*
X1155Y327D02*
D03*
X809Y651D02*
D03*
X1233Y966D02*
D03*
X1064Y1042D02*
D03*
X605Y330D02*
D03*
X755Y210D02*
D03*
X600D02*
D03*
X850Y330D02*
D03*
X985Y1040D02*
D03*
X920Y1255D02*
D03*
Y1340D02*
D03*
X704Y1353D02*
D03*
X855Y1200D02*
D03*
X747Y1355D02*
D03*
X740Y1200D02*
D03*
X795Y1155D02*
D03*
X850D02*
D03*
X905D02*
D03*
X960D02*
D03*
X1215Y1080D02*
D03*
X515Y590D02*
D03*
X300Y760D02*
D03*
X375Y698D02*
D03*
X667Y512D02*
D03*
X1233Y498D02*
D03*
X375Y752D02*
D03*
X523Y782D02*
D03*
X425Y475D02*
D03*
X335Y480D02*
D03*
Y305D02*
D03*
X320Y555D02*
D03*
X400Y675D02*
D03*
X355Y645D02*
D03*
X360Y515D02*
D03*
X285Y590D02*
D03*
X385Y580D02*
D03*
X320Y645D02*
D03*
X744Y1075D02*
D03*
X735Y1043D02*
D03*
X685Y1200D02*
D03*
X700Y1287D02*
D03*
X1113Y1499D02*
D03*
X704Y1602D02*
D03*
X830Y1510D02*
D03*
X911Y1670D02*
D03*
X1215Y1215D02*
D03*
X1252Y1603D02*
D03*
X1221Y1390D02*
D03*
X728Y1731D02*
D03*
X1035Y1733D02*
D03*
X455Y1705D02*
D03*
X340Y1698D02*
D03*
X317Y1529D02*
D03*
X553Y1563D02*
D03*
X307Y1407D02*
D03*
X1320Y1285D02*
D03*
X738Y1510D02*
D03*
X1020Y1195D02*
D03*
X1040Y1595D02*
D03*
X1010Y178D02*
D03*
X1156Y165D02*
D03*
X1287Y167D02*
D03*
X1437Y173D02*
D03*
X1315Y322D02*
D03*
X1465Y421D02*
D03*
X1470Y555D02*
D03*
X1438Y330D02*
D03*
X1400Y1005D02*
D03*
X985Y330D02*
D03*
X955Y260D02*
D03*
X1260Y246D02*
D03*
X1384Y245D02*
D03*
X1671Y393D02*
D03*
X1563Y443D02*
D03*
X1630Y188D02*
D03*
X449Y302D02*
D03*
X518D02*
D03*
X635Y1191D02*
D03*
D38*
X79Y1890D02*
D03*
X79Y79D02*
D03*
X1890D02*
D03*
X1890Y1890D02*
D03*
D39*
X244Y59D02*
D03*
X429D02*
D03*
X614D02*
D03*
X799D02*
D03*
X984D02*
D03*
X1169D02*
D03*
X1354D02*
D03*
X1539D02*
D03*
X1724D02*
D03*
X1909Y244D02*
D03*
Y429D02*
D03*
Y614D02*
D03*
Y799D02*
D03*
Y984D02*
D03*
Y1169D02*
D03*
Y1354D02*
D03*
Y1539D02*
D03*
Y1724D02*
D03*
X1724Y1909D02*
D03*
X1539D02*
D03*
X1354D02*
D03*
X1169D02*
D03*
X984D02*
D03*
X799D02*
D03*
X614D02*
D03*
X429D02*
D03*
X244D02*
D03*
X59Y1539D02*
D03*
Y1354D02*
D03*
Y1169D02*
D03*
Y984D02*
D03*
Y799D02*
D03*
Y614D02*
D03*
Y429D02*
D03*
Y244D02*
D03*
X59Y1724D02*
D03*
D40*
X776Y876D02*
D03*
X739D02*
D03*
M02*
