G04 Layer_Color=20142*
%FSLAX23Y23*%
%MOIN*%
G70*
G01*
G75*
%ADD38C,0.158*%
%ADD48R,0.065X0.087*%
%ADD49R,0.039X0.067*%
%ADD50R,0.038X0.041*%
%ADD51R,0.049X0.061*%
%ADD52R,0.061X0.049*%
%ADD53C,0.038*%
%ADD54R,0.036X0.041*%
%ADD55R,0.039X0.039*%
%ADD56O,0.016X0.067*%
%ADD57O,0.067X0.016*%
%ADD58R,0.041X0.036*%
%ADD59R,0.065X0.036*%
%ADD60R,0.043X0.039*%
%ADD61C,0.069*%
%ADD62R,0.069X0.069*%
%ADD63C,0.056*%
%ADD64C,0.058*%
G36*
X1890Y1969D02*
X1890Y1890D01*
X1969D01*
X1969Y79D01*
X1890D01*
Y-0D01*
X79Y-0D01*
Y79D01*
X-0Y79D01*
X-0Y1890D01*
X79Y1890D01*
X79Y1969D01*
X1890Y1969D01*
D02*
G37*
%LPC*%
G36*
X1850Y118D02*
X1850Y118D01*
X1850D01*
Y118D01*
D02*
G37*
G36*
X118Y1850D02*
D01*
Y1794D01*
D01*
Y1791D01*
D01*
X118Y174D01*
X119Y166D01*
X122Y154D01*
X128Y144D01*
X135Y135D01*
X144Y128D01*
X154Y122D01*
X166Y119D01*
X174Y118D01*
X177D01*
D01*
X1794Y118D01*
X1803Y119D01*
X1814Y122D01*
X1824Y128D01*
X1833Y135D01*
X1841Y144D01*
X1846Y154D01*
X1850Y166D01*
X1850Y174D01*
X1850Y1794D01*
X1850Y1803D01*
X1846Y1814D01*
X1841Y1824D01*
X1833Y1833D01*
X1824Y1841D01*
X1814Y1846D01*
X1803Y1850D01*
X1794Y1850D01*
X174Y1850D01*
X166Y1850D01*
X154Y1846D01*
X144Y1841D01*
X135Y1833D01*
X128Y1824D01*
X122Y1814D01*
X119Y1803D01*
X118Y1794D01*
Y1850D01*
D02*
G37*
G36*
X118Y118D02*
Y118D01*
X174D01*
D01*
X118D01*
X118Y118D01*
D02*
G37*
%LPD*%
D38*
X79Y1890D02*
D03*
X79Y79D02*
D03*
X1890D02*
D03*
X1890Y1890D02*
D03*
D48*
X606Y1666D02*
D03*
X606Y1340D02*
D03*
X1149Y1666D02*
D03*
X1149Y1340D02*
D03*
D49*
X704Y1442D02*
D03*
X747D02*
D03*
X791D02*
D03*
X834D02*
D03*
X877D02*
D03*
X921D02*
D03*
X964D02*
D03*
X1007D02*
D03*
D50*
X475Y855D02*
D03*
X425D02*
D03*
X1350Y670D02*
D03*
X1400D02*
D03*
X1295Y430D02*
D03*
X1345D02*
D03*
X475Y725D02*
D03*
X425D02*
D03*
X475Y605D02*
D03*
X425D02*
D03*
X475Y555D02*
D03*
X425D02*
D03*
X485Y1575D02*
D03*
X435D02*
D03*
X485Y1085D02*
D03*
X435D02*
D03*
D51*
X415Y915D02*
D03*
X475D02*
D03*
X485Y376D02*
D03*
X544D02*
D03*
X415Y790D02*
D03*
X475D02*
D03*
X1347Y500D02*
D03*
X1287D02*
D03*
D52*
X595Y1135D02*
D03*
Y1075D02*
D03*
X675Y1150D02*
D03*
Y1090D02*
D03*
X900Y235D02*
D03*
Y295D02*
D03*
X1095Y1140D02*
D03*
Y1080D02*
D03*
X1025Y1140D02*
D03*
Y1080D02*
D03*
D53*
X590Y1025D02*
D03*
X494Y701D02*
D03*
X1295Y385D02*
D03*
X1259Y1079D02*
D03*
X370Y980D02*
D03*
X1643Y1585D02*
D03*
D54*
X1508Y1240D02*
D03*
X1462D02*
D03*
X373Y1775D02*
D03*
X327D02*
D03*
X1597D02*
D03*
X1643D02*
D03*
X378Y250D02*
D03*
X332D02*
D03*
D55*
X1626Y1240D02*
D03*
X1564D02*
D03*
X309Y1825D02*
D03*
X371D02*
D03*
X1661D02*
D03*
X1599D02*
D03*
D56*
X630Y379D02*
D03*
X646D02*
D03*
X662D02*
D03*
X678D02*
D03*
X693D02*
D03*
X709D02*
D03*
X725D02*
D03*
X741D02*
D03*
X756D02*
D03*
X772D02*
D03*
X788D02*
D03*
X804D02*
D03*
X819D02*
D03*
X835D02*
D03*
X851D02*
D03*
X867D02*
D03*
X882D02*
D03*
X898D02*
D03*
X914D02*
D03*
X930D02*
D03*
X945D02*
D03*
X961D02*
D03*
X977D02*
D03*
X993D02*
D03*
X1008D02*
D03*
X1024D02*
D03*
X1040D02*
D03*
X1056D02*
D03*
X1071D02*
D03*
X1087D02*
D03*
X1103D02*
D03*
X1119D02*
D03*
Y989D02*
D03*
X1103D02*
D03*
X1087D02*
D03*
X1071D02*
D03*
X1056Y989D02*
D03*
X1040D02*
D03*
X1024D02*
D03*
X1008Y989D02*
D03*
X993Y989D02*
D03*
X977Y989D02*
D03*
X961D02*
D03*
X945Y989D02*
D03*
X930Y989D02*
D03*
X914D02*
D03*
X898D02*
D03*
X882D02*
D03*
X867Y989D02*
D03*
X851Y989D02*
D03*
X835Y989D02*
D03*
X819Y989D02*
D03*
X804Y989D02*
D03*
X788Y989D02*
D03*
X772Y989D02*
D03*
X756Y989D02*
D03*
X741D02*
D03*
X725D02*
D03*
X709D02*
D03*
X693D02*
D03*
X678Y989D02*
D03*
X662D02*
D03*
X646D02*
D03*
X630D02*
D03*
D57*
X1180Y440D02*
D03*
Y456D02*
D03*
Y471D02*
D03*
Y487D02*
D03*
Y519D02*
D03*
Y534D02*
D03*
Y550D02*
D03*
Y566D02*
D03*
Y582D02*
D03*
X1180Y597D02*
D03*
Y613D02*
D03*
X1180Y629D02*
D03*
Y645D02*
D03*
Y660D02*
D03*
Y676D02*
D03*
X1180Y692D02*
D03*
X1180Y708D02*
D03*
X1180Y723D02*
D03*
X1180Y739D02*
D03*
X1180Y755D02*
D03*
X1180Y771D02*
D03*
X1180Y786D02*
D03*
X1180Y802D02*
D03*
X1180Y818D02*
D03*
X1180Y834D02*
D03*
Y849D02*
D03*
Y865D02*
D03*
Y881D02*
D03*
Y897D02*
D03*
X1180Y912D02*
D03*
X1180Y928D02*
D03*
X569Y928D02*
D03*
Y912D02*
D03*
Y897D02*
D03*
X569Y881D02*
D03*
Y865D02*
D03*
Y849D02*
D03*
X569Y834D02*
D03*
Y818D02*
D03*
Y802D02*
D03*
Y786D02*
D03*
X569Y771D02*
D03*
Y755D02*
D03*
X569Y739D02*
D03*
Y723D02*
D03*
Y708D02*
D03*
Y692D02*
D03*
X569Y676D02*
D03*
Y660D02*
D03*
Y645D02*
D03*
X569Y629D02*
D03*
X569Y613D02*
D03*
X569Y597D02*
D03*
X569Y582D02*
D03*
X569Y566D02*
D03*
X569Y550D02*
D03*
X569Y534D02*
D03*
X569Y519D02*
D03*
X569Y503D02*
D03*
X569Y487D02*
D03*
X569Y471D02*
D03*
X569Y456D02*
D03*
X569Y440D02*
D03*
X1180Y503D02*
D03*
D58*
X740Y1112D02*
D03*
Y1158D02*
D03*
X795Y1077D02*
D03*
Y1123D02*
D03*
X850Y1077D02*
D03*
Y1123D02*
D03*
X905Y1077D02*
D03*
Y1123D02*
D03*
X960Y1077D02*
D03*
Y1123D02*
D03*
X600Y247D02*
D03*
Y293D02*
D03*
X650D02*
D03*
Y247D02*
D03*
X700Y293D02*
D03*
Y247D02*
D03*
X750D02*
D03*
Y293D02*
D03*
X800Y247D02*
D03*
Y293D02*
D03*
D59*
X1165Y1080D02*
D03*
Y1140D02*
D03*
D60*
X306Y405D02*
D03*
X384Y442D02*
D03*
Y368D02*
D03*
D61*
X1755Y1735D02*
D03*
Y1635D02*
D03*
Y1535D02*
D03*
Y1435D02*
D03*
Y1335D02*
D03*
Y1235D02*
D03*
Y1135D02*
D03*
Y1035D02*
D03*
Y935D02*
D03*
Y835D02*
D03*
Y735D02*
D03*
Y635D02*
D03*
Y535D02*
D03*
Y435D02*
D03*
Y335D02*
D03*
X215Y1735D02*
D03*
Y1635D02*
D03*
Y1535D02*
D03*
Y1435D02*
D03*
Y1335D02*
D03*
Y1235D02*
D03*
Y1135D02*
D03*
Y1035D02*
D03*
Y935D02*
D03*
Y835D02*
D03*
Y735D02*
D03*
Y635D02*
D03*
Y535D02*
D03*
Y435D02*
D03*
Y335D02*
D03*
D62*
X1755Y235D02*
D03*
X215D02*
D03*
D63*
X435Y1235D02*
D03*
Y1425D02*
D03*
D64*
X244Y59D02*
D03*
X429D02*
D03*
X614D02*
D03*
X799D02*
D03*
X984D02*
D03*
X1169D02*
D03*
X1354D02*
D03*
X1539D02*
D03*
X1724D02*
D03*
X1909Y244D02*
D03*
Y429D02*
D03*
Y614D02*
D03*
Y799D02*
D03*
Y984D02*
D03*
Y1169D02*
D03*
Y1354D02*
D03*
Y1539D02*
D03*
Y1724D02*
D03*
X1724Y1909D02*
D03*
X1539D02*
D03*
X1354D02*
D03*
X1169D02*
D03*
X984D02*
D03*
X799D02*
D03*
X614D02*
D03*
X429D02*
D03*
X244D02*
D03*
X59Y1539D02*
D03*
Y1354D02*
D03*
Y1169D02*
D03*
Y984D02*
D03*
Y799D02*
D03*
Y614D02*
D03*
Y429D02*
D03*
Y244D02*
D03*
X59Y1724D02*
D03*
M02*
