G04 Layer_Color=8150272*
%FSLAX23Y23*%
%MOIN*%
G70*
G01*
G75*
%ADD38C,0.158*%
%ADD50R,0.038X0.041*%
%ADD54R,0.036X0.041*%
%ADD58R,0.041X0.036*%
%ADD61C,0.069*%
%ADD62R,0.069X0.069*%
%ADD63C,0.056*%
%ADD64C,0.058*%
%ADD65R,0.041X0.038*%
%ADD66O,0.024X0.063*%
G36*
X1890Y1969D02*
X1890Y1890D01*
X1969D01*
X1969Y79D01*
X1890D01*
Y-0D01*
X79Y-0D01*
Y79D01*
X-0Y79D01*
X-0Y1890D01*
X79Y1890D01*
X79Y1969D01*
X1890Y1969D01*
D02*
G37*
%LPC*%
G36*
X174Y1850D02*
X166Y1850D01*
X154Y1846D01*
X144Y1841D01*
X135Y1833D01*
X128Y1824D01*
X122Y1814D01*
X119Y1803D01*
X118Y1794D01*
X118Y177D01*
X118D01*
Y174D01*
X119Y166D01*
X122Y154D01*
X128Y144D01*
X135Y135D01*
X144Y128D01*
X154Y122D01*
X166Y119D01*
X174Y118D01*
X1791Y118D01*
Y118D01*
X1794D01*
X1803Y119D01*
X1814Y122D01*
X1824Y128D01*
X1833Y135D01*
X1841Y144D01*
X1846Y154D01*
X1850Y166D01*
X1850Y174D01*
X1850Y1794D01*
X1850Y1803D01*
X1846Y1814D01*
X1841Y1824D01*
X1833Y1833D01*
X1824Y1841D01*
X1814Y1846D01*
X1803Y1850D01*
X1794Y1850D01*
X174Y1850D01*
D02*
G37*
G36*
X1850Y118D02*
X1794D01*
X1794Y118D01*
X1850D01*
Y118D01*
D02*
G37*
G36*
X118Y1850D02*
Y1850D01*
X118Y1850D01*
X118D01*
D02*
G37*
G36*
X118Y174D02*
Y118D01*
X118D01*
X118Y118D01*
Y174D01*
X118Y174D01*
D02*
G37*
%LPD*%
D38*
X79Y1890D02*
D03*
X79Y79D02*
D03*
X1890D02*
D03*
X1890Y1890D02*
D03*
D50*
X1159Y996D02*
D03*
X1110D02*
D03*
X1204Y371D02*
D03*
X1155D02*
D03*
X935D02*
D03*
X984D02*
D03*
X1079D02*
D03*
X1030D02*
D03*
X555D02*
D03*
X604D02*
D03*
X1015Y996D02*
D03*
X1064D02*
D03*
X745Y371D02*
D03*
X794D02*
D03*
X889D02*
D03*
X840D02*
D03*
D54*
X697D02*
D03*
X652D02*
D03*
X737Y975D02*
D03*
X783D02*
D03*
D58*
X879Y1064D02*
D03*
Y1109D02*
D03*
Y974D02*
D03*
Y1019D02*
D03*
D61*
X1755Y1735D02*
D03*
Y1635D02*
D03*
Y1535D02*
D03*
Y1435D02*
D03*
Y1335D02*
D03*
Y1235D02*
D03*
Y1135D02*
D03*
Y1035D02*
D03*
Y935D02*
D03*
Y835D02*
D03*
Y735D02*
D03*
Y635D02*
D03*
Y535D02*
D03*
Y435D02*
D03*
Y335D02*
D03*
X215Y1735D02*
D03*
Y1635D02*
D03*
Y1535D02*
D03*
Y1435D02*
D03*
Y1335D02*
D03*
Y1235D02*
D03*
Y1135D02*
D03*
Y1035D02*
D03*
Y935D02*
D03*
Y835D02*
D03*
Y735D02*
D03*
Y635D02*
D03*
Y535D02*
D03*
Y435D02*
D03*
Y335D02*
D03*
D62*
X1755Y235D02*
D03*
X215D02*
D03*
D63*
X435Y1235D02*
D03*
Y1425D02*
D03*
D64*
X244Y59D02*
D03*
X429D02*
D03*
X614D02*
D03*
X799D02*
D03*
X984D02*
D03*
X1169D02*
D03*
X1354D02*
D03*
X1539D02*
D03*
X1724D02*
D03*
X1909Y244D02*
D03*
Y429D02*
D03*
Y614D02*
D03*
Y799D02*
D03*
Y984D02*
D03*
Y1169D02*
D03*
Y1354D02*
D03*
Y1539D02*
D03*
Y1724D02*
D03*
X1724Y1909D02*
D03*
X1539D02*
D03*
X1354D02*
D03*
X1169D02*
D03*
X984D02*
D03*
X799D02*
D03*
X614D02*
D03*
X429D02*
D03*
X244D02*
D03*
X59Y1539D02*
D03*
Y1354D02*
D03*
Y1169D02*
D03*
Y984D02*
D03*
Y799D02*
D03*
Y614D02*
D03*
Y429D02*
D03*
Y244D02*
D03*
X59Y1724D02*
D03*
D65*
X929Y1111D02*
D03*
Y1062D02*
D03*
Y1021D02*
D03*
Y972D02*
D03*
D66*
X465Y916D02*
D03*
X491D02*
D03*
X516D02*
D03*
X542D02*
D03*
X567D02*
D03*
X593D02*
D03*
X619D02*
D03*
X644D02*
D03*
X670D02*
D03*
X695D02*
D03*
X721D02*
D03*
X746D02*
D03*
X772D02*
D03*
X798D02*
D03*
X823D02*
D03*
X849D02*
D03*
X874D02*
D03*
X900D02*
D03*
X926D02*
D03*
X951D02*
D03*
X977D02*
D03*
X1002D02*
D03*
X1028D02*
D03*
X1054D02*
D03*
X1079D02*
D03*
X1105D02*
D03*
X1130D02*
D03*
X1156D02*
D03*
X1182D02*
D03*
X1207D02*
D03*
X1233D02*
D03*
X1258D02*
D03*
X1284D02*
D03*
X465Y450D02*
D03*
X491D02*
D03*
X516D02*
D03*
X542D02*
D03*
X567D02*
D03*
X593D02*
D03*
X619D02*
D03*
X644D02*
D03*
X670D02*
D03*
X695D02*
D03*
X721D02*
D03*
X746D02*
D03*
X772D02*
D03*
X798D02*
D03*
X823D02*
D03*
X849D02*
D03*
X874D02*
D03*
X900D02*
D03*
X926D02*
D03*
X951D02*
D03*
X977D02*
D03*
X1002D02*
D03*
X1028D02*
D03*
X1054D02*
D03*
X1079D02*
D03*
X1105D02*
D03*
X1130D02*
D03*
X1156D02*
D03*
X1182D02*
D03*
X1207D02*
D03*
X1233D02*
D03*
X1258D02*
D03*
X1284D02*
D03*
M02*
