M48
;Layer_Color=6321
;FILE_FORMAT=2:3
INCH,LZ
;TYPE=PLATED
T1F00S00C0.012
T2F00S00C0.014
T3F00S00C0.032
T4F00S00C0.041
T5F00S00C0.080
%
T01
X00739Y00876
X00776
T02
X00244Y00059
X00429
X00449Y00302
X00518
X00335Y00305
Y0048
X0036Y00515
X0032Y00555
X00425Y00475
X00059Y00429
Y00244
X006Y0021
X00605Y0033
X00635Y00513
X00667Y00512
X00892Y00561
X00929Y00526
X00985Y0033
X00955Y0026
X0101Y00178
X00984Y00059
X01169
X01156Y00165
X01287Y00167
X0126Y00246
X01384Y00245
X01437Y00173
X01438Y0033
X01465Y00421
X01563Y00443
X01671Y00393
X0163Y00188
X01539Y00059
X01724
X01354
X01315Y00322
X01155Y00327
X01233Y00498
X0147Y00555
X01909Y00429
Y00244
X0085Y0033
X00755Y0021
X00799Y00059
X00614
X00809Y00651
X00841Y00652
X00884Y00674
X00909Y00651
X00944
Y00711
X00979
X00982Y00743
X01014Y00746
X01012Y00706
X01047
X01079Y00731
X01104Y00781
X01129Y00816
X01024Y00781
X01039Y006
X01064Y00576
X01089Y006
X01114Y00623
Y00576
X01014
X0123Y00582
X0126Y006
X01289Y00581
X0132Y00623
X01276Y00653
X01244Y00646
X01301Y00683
X01301Y00752
X01278Y00775
X01279Y00807
X0128Y00839
X01271Y00871
X01239Y0087
X01236Y00781
X01255Y00753
X01233Y00966
X01284
X014Y01005
X01215Y0108
Y01215
X0132Y01285
X01221Y0139
X01113Y01499
X0104Y01595
X01035Y01733
X00911Y0167
X0083Y0151
X00738
X00704Y01602
X00728Y01731
X00799Y01909
X00984
X01169
X01354
X01539
X01724
X01909Y01724
Y01539
Y01354
Y01169
Y00984
Y00799
Y00614
X00894Y00856
X00789Y00846
X00735Y01043
X00744Y01075
X0074Y012
X00685
X00635Y01191
X007Y01287
X00704Y01353
X00747Y01355
X0092Y0134
Y01255
X00932Y01193
X00905Y01155
X0085
X00855Y012
X00795Y01155
X0096
X0102Y01195
X00985Y0104
X01064Y01042
X01252Y01603
X00614Y01909
X00429
X00244
X0034Y01698
X00455Y01705
X00553Y01563
X00317Y01529
X00307Y01407
X00059Y01354
Y01539
X00059Y01724
X00059Y01169
Y00984
Y00799
Y00614
X00285Y0059
Y0068
X0032Y00645
X00355
X00375Y00698
X004Y00675
X00375Y00752
X003Y0076
X00523Y00782
X00515Y0059
X00385Y0058
T03
X00435Y01235
Y01425
T04
X00215Y00235
Y00335
Y00435
Y00535
X01755
Y00435
Y00335
Y00235
Y00635
Y00735
Y00835
Y00935
Y01035
Y01135
Y01235
Y01335
Y01435
Y01535
Y01635
Y01735
X00215
Y01635
Y01535
Y01435
Y01335
Y01235
Y01135
Y01035
Y00935
Y00835
Y00735
Y00635
T05
X00079Y00079
X0189
X0189Y0189
X00079Y0189
M30
