G04 Layer_Physical_Order=2*
G04 Layer_Color=11436288*
%FSLAX23Y23*%
%MOIN*%
G70*
G01*
G75*
%ADD12R,0.030X0.033*%
%ADD16R,0.028X0.033*%
%ADD20R,0.033X0.028*%
%ADD23C,0.008*%
%ADD25C,0.020*%
%ADD26C,0.060*%
%ADD28C,0.030*%
%ADD30C,0.010*%
%ADD33C,0.012*%
%ADD34C,0.061*%
%ADD35R,0.061X0.061*%
%ADD36C,0.048*%
%ADD37C,0.026*%
%ADD38C,0.158*%
%ADD39C,0.050*%
%ADD40C,0.024*%
%ADD41R,0.033X0.030*%
%ADD42O,0.016X0.055*%
G36*
X1905Y1967D02*
X1920Y1963D01*
X1934Y1956D01*
X1946Y1946D01*
X1956Y1934D01*
X1963Y1920D01*
X1967Y1905D01*
X1969Y1890D01*
X1969Y1890D01*
X1969Y1890D01*
Y1884D01*
X1969Y79D01*
X1967Y63D01*
X1963Y48D01*
X1956Y35D01*
X1946Y23D01*
X1934Y13D01*
X1920Y6D01*
X1905Y1D01*
X1890Y-0D01*
X1890Y-0D01*
Y-0D01*
X79D01*
X79Y-0D01*
Y-0D01*
X78Y-0D01*
X63Y1D01*
X48Y6D01*
X35Y13D01*
X23Y23D01*
X13Y35D01*
X6Y48D01*
X1Y63D01*
X-0Y78D01*
X-0Y79D01*
X-0D01*
X-0Y1890D01*
X1Y1905D01*
X6Y1920D01*
X13Y1934D01*
X23Y1946D01*
X35Y1956D01*
X48Y1963D01*
X63Y1967D01*
X73Y1968D01*
X79Y1969D01*
X79Y1969D01*
X84D01*
X85Y1969D01*
X85D01*
X1890Y1969D01*
X1905Y1967D01*
D02*
G37*
%LPC*%
G36*
X1760Y575D02*
Y540D01*
X1795D01*
X1794Y546D01*
X1790Y555D01*
X1784Y564D01*
X1775Y570D01*
X1766Y574D01*
X1760Y575D01*
D02*
G37*
G36*
X215Y672D02*
X205Y671D01*
X197Y667D01*
X189Y661D01*
X183Y653D01*
X179Y645D01*
X178Y635D01*
X179Y625D01*
X183Y617D01*
X189Y609D01*
X197Y603D01*
X205Y599D01*
X215Y598D01*
X225Y599D01*
X233Y603D01*
X241Y609D01*
X247Y617D01*
X251Y625D01*
X252Y635D01*
X251Y645D01*
X247Y653D01*
X241Y661D01*
X233Y667D01*
X225Y671D01*
X215Y672D01*
D02*
G37*
G36*
X1755D02*
X1745Y671D01*
X1737Y667D01*
X1729Y661D01*
X1723Y653D01*
X1719Y645D01*
X1718Y635D01*
X1719Y625D01*
X1723Y617D01*
X1729Y609D01*
X1737Y603D01*
X1745Y599D01*
X1755Y598D01*
X1765Y599D01*
X1773Y603D01*
X1781Y609D01*
X1787Y617D01*
X1791Y625D01*
X1792Y635D01*
X1791Y645D01*
X1787Y653D01*
X1781Y661D01*
X1773Y667D01*
X1765Y671D01*
X1755Y672D01*
D02*
G37*
G36*
X1750Y575D02*
X1744Y574D01*
X1735Y570D01*
X1726Y564D01*
X1720Y555D01*
X1716Y546D01*
X1715Y540D01*
X1750D01*
Y575D01*
D02*
G37*
G36*
X1795Y530D02*
X1760D01*
Y495D01*
X1766Y496D01*
X1775Y500D01*
X1784Y506D01*
X1790Y515D01*
X1794Y524D01*
X1795Y530D01*
D02*
G37*
G36*
X210Y575D02*
X204Y574D01*
X195Y570D01*
X186Y564D01*
X180Y555D01*
X176Y546D01*
X175Y540D01*
X210D01*
Y575D01*
D02*
G37*
G36*
X220D02*
Y540D01*
X255D01*
X254Y546D01*
X250Y555D01*
X244Y564D01*
X235Y570D01*
X226Y574D01*
X220Y575D01*
D02*
G37*
G36*
X215Y772D02*
X205Y771D01*
X197Y767D01*
X189Y761D01*
X183Y753D01*
X179Y745D01*
X178Y735D01*
X179Y725D01*
X183Y717D01*
X189Y709D01*
X197Y703D01*
X205Y699D01*
X215Y698D01*
X225Y699D01*
X233Y703D01*
X241Y709D01*
X247Y717D01*
X251Y725D01*
X252Y735D01*
X251Y745D01*
X247Y753D01*
X241Y761D01*
X233Y767D01*
X225Y771D01*
X215Y772D01*
D02*
G37*
G36*
X1795Y830D02*
X1760D01*
Y795D01*
X1766Y796D01*
X1775Y800D01*
X1784Y806D01*
X1790Y815D01*
X1794Y824D01*
X1795Y830D01*
D02*
G37*
G36*
X210Y875D02*
X204Y874D01*
X195Y870D01*
X186Y864D01*
X180Y855D01*
X176Y846D01*
X175Y840D01*
X210D01*
Y875D01*
D02*
G37*
G36*
X220D02*
Y840D01*
X255D01*
X254Y846D01*
X250Y855D01*
X244Y864D01*
X235Y870D01*
X226Y874D01*
X220Y875D01*
D02*
G37*
G36*
X1750Y830D02*
X1715D01*
X1716Y824D01*
X1720Y815D01*
X1726Y806D01*
X1735Y800D01*
X1744Y796D01*
X1750Y795D01*
Y830D01*
D02*
G37*
G36*
X1755Y772D02*
X1745Y771D01*
X1737Y767D01*
X1729Y761D01*
X1723Y753D01*
X1719Y745D01*
X1718Y735D01*
X1719Y725D01*
X1723Y717D01*
X1729Y709D01*
X1737Y703D01*
X1745Y699D01*
X1755Y698D01*
X1765Y699D01*
X1773Y703D01*
X1781Y709D01*
X1787Y717D01*
X1791Y725D01*
X1792Y735D01*
X1791Y745D01*
X1787Y753D01*
X1781Y761D01*
X1773Y767D01*
X1765Y771D01*
X1755Y772D01*
D02*
G37*
G36*
X210Y830D02*
X175D01*
X176Y824D01*
X180Y815D01*
X186Y806D01*
X195Y800D01*
X204Y796D01*
X210Y795D01*
Y830D01*
D02*
G37*
G36*
X255D02*
X220D01*
Y795D01*
X226Y796D01*
X235Y800D01*
X244Y806D01*
X250Y815D01*
X254Y824D01*
X255Y830D01*
D02*
G37*
G36*
X1750Y530D02*
X1715D01*
X1716Y524D01*
X1720Y515D01*
X1726Y506D01*
X1735Y500D01*
X1744Y496D01*
X1750Y495D01*
Y530D01*
D02*
G37*
G36*
X210Y276D02*
X174D01*
Y240D01*
X210D01*
Y276D01*
D02*
G37*
G36*
X256D02*
X220D01*
Y240D01*
X256D01*
Y276D01*
D02*
G37*
G36*
X1750D02*
X1714D01*
Y240D01*
X1750D01*
Y276D01*
D02*
G37*
G36*
X1796Y230D02*
X1760D01*
Y194D01*
X1796D01*
Y230D01*
D02*
G37*
G36*
X210D02*
X174D01*
Y194D01*
X210D01*
Y230D01*
D02*
G37*
G36*
X256D02*
X220D01*
Y194D01*
X256D01*
Y230D01*
D02*
G37*
G36*
X1750D02*
X1714D01*
Y194D01*
X1750D01*
Y230D01*
D02*
G37*
G36*
X1796Y276D02*
X1760D01*
Y240D01*
X1796D01*
Y276D01*
D02*
G37*
G36*
X1755Y472D02*
X1745Y471D01*
X1737Y467D01*
X1729Y461D01*
X1723Y453D01*
X1719Y445D01*
X1718Y435D01*
X1719Y425D01*
X1723Y417D01*
X1729Y409D01*
X1737Y403D01*
X1745Y399D01*
X1755Y398D01*
X1765Y399D01*
X1773Y403D01*
X1781Y409D01*
X1787Y417D01*
X1791Y425D01*
X1792Y435D01*
X1791Y445D01*
X1787Y453D01*
X1781Y461D01*
X1773Y467D01*
X1765Y471D01*
X1755Y472D01*
D02*
G37*
G36*
X210Y530D02*
X175D01*
X176Y524D01*
X180Y515D01*
X186Y506D01*
X195Y500D01*
X204Y496D01*
X210Y495D01*
Y530D01*
D02*
G37*
G36*
X255D02*
X220D01*
Y495D01*
X226Y496D01*
X235Y500D01*
X244Y506D01*
X250Y515D01*
X254Y524D01*
X255Y530D01*
D02*
G37*
G36*
X215Y472D02*
X205Y471D01*
X197Y467D01*
X189Y461D01*
X183Y453D01*
X179Y445D01*
X178Y435D01*
X179Y425D01*
X183Y417D01*
X189Y409D01*
X197Y403D01*
X205Y399D01*
X215Y398D01*
X225Y399D01*
X233Y403D01*
X241Y409D01*
X247Y417D01*
X251Y425D01*
X252Y435D01*
X251Y445D01*
X247Y453D01*
X241Y461D01*
X233Y467D01*
X225Y471D01*
X215Y472D01*
D02*
G37*
G36*
X335Y499D02*
X328Y498D01*
X321Y494D01*
X317Y487D01*
X316Y480D01*
X317Y473D01*
X321Y466D01*
X325Y464D01*
Y321D01*
X321Y319D01*
X317Y312D01*
X316Y305D01*
X317Y298D01*
X321Y291D01*
X328Y287D01*
X335Y286D01*
X342Y287D01*
X349Y291D01*
X353Y298D01*
X354Y305D01*
X353Y312D01*
X349Y319D01*
X345Y321D01*
Y464D01*
X349Y466D01*
X353Y473D01*
X354Y480D01*
X353Y487D01*
X349Y494D01*
X342Y498D01*
X335Y499D01*
D02*
G37*
G36*
X215Y372D02*
X205Y371D01*
X197Y367D01*
X189Y361D01*
X183Y353D01*
X179Y345D01*
X178Y335D01*
X179Y325D01*
X183Y317D01*
X189Y309D01*
X197Y303D01*
X205Y299D01*
X215Y298D01*
X225Y299D01*
X233Y303D01*
X241Y309D01*
X247Y317D01*
X251Y325D01*
X252Y335D01*
X251Y345D01*
X247Y353D01*
X241Y361D01*
X233Y367D01*
X225Y371D01*
X215Y372D01*
D02*
G37*
G36*
X1755D02*
X1745Y371D01*
X1737Y367D01*
X1729Y361D01*
X1723Y353D01*
X1719Y345D01*
X1718Y335D01*
X1719Y325D01*
X1723Y317D01*
X1729Y309D01*
X1737Y303D01*
X1745Y299D01*
X1755Y298D01*
X1765Y299D01*
X1773Y303D01*
X1781Y309D01*
X1787Y317D01*
X1791Y325D01*
X1792Y335D01*
X1791Y345D01*
X1787Y353D01*
X1781Y361D01*
X1773Y367D01*
X1765Y371D01*
X1755Y372D01*
D02*
G37*
G36*
X747Y1374D02*
X740Y1373D01*
X734Y1369D01*
X729Y1362D01*
X729Y1358D01*
X722D01*
X722Y1361D01*
X718Y1367D01*
X711Y1371D01*
X704Y1373D01*
X697Y1371D01*
X690Y1367D01*
X686Y1361D01*
X685Y1353D01*
X686Y1346D01*
X690Y1340D01*
X697Y1336D01*
X704Y1334D01*
X706Y1334D01*
X836Y1204D01*
X836Y1200D01*
X837Y1193D01*
X841Y1186D01*
X842Y1186D01*
X844Y1177D01*
X843Y1176D01*
X669D01*
X657Y1188D01*
Y1191D01*
X655Y1199D01*
X651Y1206D01*
X644Y1211D01*
X635Y1212D01*
X627Y1211D01*
X620Y1206D01*
X616Y1199D01*
X614Y1191D01*
Y1180D01*
X616Y1171D01*
X620Y1164D01*
X645Y1140D01*
X652Y1135D01*
X660Y1134D01*
X854D01*
X857Y1129D01*
X857D01*
Y1089D01*
X857D01*
Y1083D01*
X857D01*
Y1044D01*
X857D01*
Y1039D01*
X857D01*
Y1011D01*
X842Y995D01*
X839Y992D01*
X839Y988D01*
Y955D01*
X833Y951D01*
X830Y953D01*
X828Y953D01*
Y916D01*
X818D01*
Y953D01*
X816Y953D01*
X810Y949D01*
X805Y949D01*
X802Y952D01*
X802Y953D01*
Y998D01*
X763D01*
X763Y998D01*
X763Y998D01*
X757D01*
Y998D01*
X757Y998D01*
X718D01*
Y955D01*
X718Y952D01*
X714Y948D01*
X712Y947D01*
X708Y946D01*
X704Y947D01*
X701Y949D01*
X695Y950D01*
X690Y949D01*
X685Y946D01*
X680D01*
X675Y949D01*
X670Y950D01*
X664Y949D01*
X661Y947D01*
X657Y946D01*
X653Y947D01*
X650Y949D01*
X644Y950D01*
X639Y949D01*
X634Y946D01*
X629D01*
X624Y949D01*
X619Y950D01*
X613Y949D01*
X610Y947D01*
X606Y946D01*
X602Y947D01*
X598Y949D01*
X593Y950D01*
X588Y949D01*
X584Y947D01*
X580Y946D01*
X576Y947D01*
X573Y949D01*
X567Y950D01*
X562Y949D01*
X558Y947D01*
X555Y946D01*
X551Y947D01*
X547Y949D01*
X542Y950D01*
X536Y949D01*
X532Y946D01*
X526D01*
X522Y949D01*
X516Y950D01*
X511Y949D01*
X507Y947D01*
X503Y946D01*
X499Y947D01*
X496Y949D01*
X491Y950D01*
X485Y949D01*
X485Y949D01*
X478Y949D01*
X472Y953D01*
X470Y953D01*
Y916D01*
Y880D01*
X472Y880D01*
X478Y884D01*
X485Y884D01*
X485Y884D01*
X488Y883D01*
X572Y799D01*
X568Y795D01*
X564Y797D01*
X558Y799D01*
X533D01*
X530Y800D01*
X523Y802D01*
X516Y800D01*
X509Y796D01*
X505Y790D01*
X504Y782D01*
X505Y775D01*
X509Y769D01*
X516Y764D01*
X523Y763D01*
X530Y764D01*
X533Y766D01*
X551D01*
X599Y718D01*
Y647D01*
X453Y502D01*
X450Y496D01*
X449Y490D01*
Y450D01*
Y406D01*
X450Y399D01*
X453Y394D01*
X488Y360D01*
X493Y356D01*
X499Y355D01*
X534D01*
Y348D01*
X539D01*
Y321D01*
X540Y315D01*
X543Y309D01*
X568Y285D01*
X573Y281D01*
X579Y280D01*
X679D01*
X679Y280D01*
X679Y280D01*
X936D01*
X938Y278D01*
X939Y274D01*
X935Y268D01*
X934Y260D01*
X935Y252D01*
X940Y245D01*
X940Y244D01*
X916Y220D01*
X771D01*
X769Y224D01*
X762Y228D01*
X755Y229D01*
X748Y228D01*
X741Y224D01*
X739Y220D01*
X616D01*
X614Y224D01*
X607Y228D01*
X600Y229D01*
X593Y228D01*
X586Y224D01*
X582Y217D01*
X581Y210D01*
X582Y203D01*
X586Y196D01*
X593Y192D01*
X600Y191D01*
X607Y192D01*
X614Y196D01*
X616Y200D01*
X739D01*
X741Y196D01*
X748Y192D01*
X755Y191D01*
X762Y192D01*
X769Y196D01*
X771Y200D01*
X920D01*
X924Y201D01*
X927Y203D01*
X962Y238D01*
X963Y239D01*
X1197D01*
X1205Y240D01*
X1212Y245D01*
X1396Y429D01*
X1401Y436D01*
X1402Y444D01*
Y954D01*
X1401Y962D01*
X1396Y969D01*
X1323Y1042D01*
X1316Y1047D01*
X1308Y1049D01*
X1277D01*
X1230Y1095D01*
X1230Y1095D01*
X1155Y1170D01*
X1148Y1175D01*
X1140Y1176D01*
X951D01*
X947Y1182D01*
X950Y1186D01*
X951Y1193D01*
X950Y1201D01*
X945Y1207D01*
X939Y1211D01*
X932Y1213D01*
X924Y1211D01*
X918Y1207D01*
X916Y1203D01*
X898D01*
X761Y1341D01*
X761Y1341D01*
X765Y1348D01*
X767Y1355D01*
X765Y1362D01*
X761Y1369D01*
X755Y1373D01*
X747Y1374D01*
D02*
G37*
G36*
X920Y1359D02*
X913Y1358D01*
X906Y1354D01*
X902Y1347D01*
X901Y1340D01*
X902Y1333D01*
X906Y1326D01*
X910Y1324D01*
Y1271D01*
X906Y1269D01*
X902Y1262D01*
X901Y1255D01*
X902Y1248D01*
X906Y1241D01*
X913Y1237D01*
X920Y1236D01*
X927Y1237D01*
X934Y1241D01*
X938Y1248D01*
X939Y1255D01*
X938Y1262D01*
X934Y1269D01*
X930Y1271D01*
Y1324D01*
X934Y1326D01*
X938Y1333D01*
X939Y1340D01*
X938Y1347D01*
X934Y1354D01*
X927Y1358D01*
X920Y1359D01*
D02*
G37*
G36*
X210Y1430D02*
X175D01*
X176Y1424D01*
X180Y1415D01*
X186Y1406D01*
X195Y1400D01*
X204Y1396D01*
X210Y1395D01*
Y1430D01*
D02*
G37*
G36*
X435Y1455D02*
X427Y1454D01*
X420Y1451D01*
X414Y1446D01*
X409Y1440D01*
X406Y1433D01*
X405Y1425D01*
X406Y1417D01*
X409Y1410D01*
X414Y1404D01*
X420Y1399D01*
X427Y1396D01*
X435Y1395D01*
X443Y1396D01*
X450Y1399D01*
X456Y1404D01*
X461Y1410D01*
X464Y1417D01*
X465Y1425D01*
X464Y1433D01*
X461Y1440D01*
X456Y1446D01*
X450Y1451D01*
X443Y1454D01*
X435Y1455D01*
D02*
G37*
G36*
X1538Y1562D02*
X618D01*
X614Y1561D01*
X611Y1559D01*
X562Y1510D01*
X560Y1507D01*
X559Y1503D01*
Y1157D01*
X560Y1153D01*
X562Y1150D01*
X676Y1036D01*
X679Y1034D01*
X683Y1033D01*
X719D01*
X721Y1029D01*
X728Y1025D01*
X735Y1024D01*
X742Y1025D01*
X749Y1029D01*
X753Y1036D01*
X754Y1043D01*
X753Y1050D01*
X750Y1054D01*
X751Y1057D01*
X758Y1061D01*
X762Y1068D01*
X763Y1075D01*
X762Y1082D01*
X758Y1089D01*
X751Y1093D01*
X744Y1094D01*
X737Y1093D01*
X730Y1089D01*
X728Y1085D01*
X675D01*
X593Y1167D01*
Y1493D01*
X628Y1528D01*
X1528D01*
X1704Y1351D01*
Y1318D01*
X1705Y1314D01*
X1707Y1311D01*
X1742Y1276D01*
X1741Y1269D01*
X1737Y1267D01*
X1729Y1261D01*
X1723Y1253D01*
X1719Y1245D01*
X1718Y1235D01*
X1719Y1225D01*
X1723Y1217D01*
X1729Y1209D01*
X1737Y1203D01*
X1745Y1199D01*
X1755Y1198D01*
X1765Y1199D01*
X1773Y1203D01*
X1781Y1209D01*
X1787Y1217D01*
X1791Y1225D01*
X1792Y1235D01*
X1791Y1245D01*
X1787Y1253D01*
X1781Y1261D01*
X1773Y1267D01*
X1765Y1270D01*
Y1278D01*
X1764Y1282D01*
X1762Y1285D01*
X1755Y1293D01*
X1757Y1298D01*
X1765Y1299D01*
X1773Y1303D01*
X1781Y1309D01*
X1787Y1317D01*
X1791Y1325D01*
X1792Y1335D01*
X1791Y1345D01*
X1787Y1353D01*
X1781Y1361D01*
X1773Y1367D01*
X1765Y1371D01*
X1755Y1372D01*
X1745Y1371D01*
X1737Y1367D01*
X1545Y1559D01*
X1542Y1561D01*
X1538Y1562D01*
D02*
G37*
G36*
X1760Y1175D02*
Y1140D01*
X1795D01*
X1794Y1146D01*
X1790Y1155D01*
X1784Y1164D01*
X1775Y1170D01*
X1766Y1174D01*
X1760Y1175D01*
D02*
G37*
G36*
X215Y1372D02*
X205Y1371D01*
X197Y1367D01*
X189Y1361D01*
X183Y1353D01*
X179Y1345D01*
X178Y1335D01*
X179Y1325D01*
X183Y1317D01*
X189Y1309D01*
X197Y1303D01*
X205Y1299D01*
X215Y1298D01*
X225Y1299D01*
X233Y1303D01*
X241Y1309D01*
X247Y1317D01*
X250Y1325D01*
X286D01*
X328Y1283D01*
Y1214D01*
X322Y1212D01*
X292Y1242D01*
X289Y1244D01*
X285Y1245D01*
X250D01*
X247Y1253D01*
X241Y1261D01*
X233Y1267D01*
X225Y1271D01*
X215Y1272D01*
X205Y1271D01*
X197Y1267D01*
X189Y1261D01*
X183Y1253D01*
X179Y1245D01*
X178Y1235D01*
X179Y1225D01*
X183Y1217D01*
X189Y1209D01*
X197Y1203D01*
X205Y1199D01*
X215Y1198D01*
X225Y1199D01*
X233Y1203D01*
X241Y1209D01*
X247Y1217D01*
X250Y1225D01*
X281D01*
X314Y1192D01*
Y1123D01*
X308Y1121D01*
X287Y1142D01*
X284Y1144D01*
X280Y1145D01*
X250D01*
X247Y1153D01*
X241Y1161D01*
X233Y1167D01*
X225Y1171D01*
X215Y1172D01*
X205Y1171D01*
X197Y1167D01*
X189Y1161D01*
X183Y1153D01*
X179Y1145D01*
X178Y1135D01*
X179Y1125D01*
X183Y1117D01*
X189Y1109D01*
X197Y1103D01*
X205Y1099D01*
X215Y1098D01*
X225Y1099D01*
X233Y1103D01*
X241Y1109D01*
X247Y1117D01*
X250Y1125D01*
X276D01*
X300Y1101D01*
Y1037D01*
X294Y1035D01*
X287Y1042D01*
X284Y1044D01*
X280Y1045D01*
X250D01*
X247Y1053D01*
X241Y1061D01*
X233Y1067D01*
X225Y1071D01*
X215Y1072D01*
X205Y1071D01*
X197Y1067D01*
X189Y1061D01*
X183Y1053D01*
X179Y1045D01*
X178Y1035D01*
X179Y1025D01*
X183Y1017D01*
X189Y1009D01*
X197Y1003D01*
X205Y999D01*
X215Y998D01*
X225Y999D01*
X233Y1003D01*
X241Y1009D01*
X247Y1017D01*
X250Y1025D01*
X276D01*
X286Y1015D01*
Y927D01*
X280Y925D01*
X263Y942D01*
X259Y944D01*
X256Y945D01*
X250D01*
X247Y953D01*
X241Y961D01*
X233Y967D01*
X225Y971D01*
X215Y972D01*
X205Y971D01*
X197Y967D01*
X189Y961D01*
X183Y953D01*
X179Y945D01*
X178Y935D01*
X179Y925D01*
X183Y917D01*
X189Y909D01*
X197Y903D01*
X205Y899D01*
X215Y898D01*
X225Y899D01*
X233Y903D01*
X241Y909D01*
X247Y917D01*
X248Y920D01*
X255Y921D01*
X272Y904D01*
Y778D01*
X273Y774D01*
X275Y771D01*
X281Y764D01*
X281Y760D01*
X282Y753D01*
X286Y746D01*
X293Y742D01*
X300Y741D01*
X307Y742D01*
X308Y742D01*
X313Y739D01*
Y712D01*
X314Y708D01*
X316Y705D01*
X345Y676D01*
Y661D01*
X341Y659D01*
X337Y652D01*
X336Y645D01*
X337Y638D01*
X341Y631D01*
X348Y627D01*
X355Y626D01*
X362Y627D01*
X369Y631D01*
X373Y638D01*
X374Y645D01*
X373Y652D01*
X369Y659D01*
X365Y661D01*
Y675D01*
X365Y675D01*
X371Y680D01*
X375Y679D01*
X376Y679D01*
X379Y677D01*
X381Y674D01*
X382Y668D01*
X386Y661D01*
X393Y657D01*
X400Y656D01*
X407Y657D01*
X414Y661D01*
X418Y668D01*
X419Y675D01*
X418Y682D01*
X414Y689D01*
X410Y691D01*
Y759D01*
X409Y763D01*
X407Y766D01*
X348Y825D01*
Y1287D01*
X347Y1291D01*
X345Y1294D01*
X297Y1342D01*
X294Y1344D01*
X290Y1345D01*
X250D01*
X247Y1353D01*
X241Y1361D01*
X233Y1367D01*
X225Y1371D01*
X215Y1372D01*
D02*
G37*
G36*
X435Y1265D02*
X427Y1264D01*
X420Y1261D01*
X414Y1256D01*
X409Y1250D01*
X406Y1243D01*
X405Y1235D01*
X406Y1227D01*
X409Y1220D01*
X414Y1214D01*
X420Y1209D01*
X427Y1206D01*
X435Y1205D01*
X443Y1206D01*
X450Y1209D01*
X456Y1214D01*
X461Y1220D01*
X464Y1227D01*
X465Y1235D01*
X464Y1243D01*
X461Y1250D01*
X456Y1256D01*
X450Y1261D01*
X443Y1264D01*
X435Y1265D01*
D02*
G37*
G36*
X255Y1430D02*
X220D01*
Y1395D01*
X226Y1396D01*
X235Y1400D01*
X244Y1406D01*
X250Y1415D01*
X254Y1424D01*
X255Y1430D01*
D02*
G37*
G36*
X1760Y1475D02*
Y1440D01*
X1795D01*
X1794Y1446D01*
X1790Y1455D01*
X1784Y1464D01*
X1775Y1470D01*
X1766Y1474D01*
X1760Y1475D01*
D02*
G37*
G36*
X1750D02*
X1744Y1474D01*
X1735Y1470D01*
X1726Y1464D01*
X1720Y1455D01*
X1716Y1446D01*
X1715Y1440D01*
X1750D01*
Y1475D01*
D02*
G37*
G36*
X1755Y1772D02*
X1745Y1771D01*
X1737Y1767D01*
X1729Y1761D01*
X1723Y1753D01*
X1719Y1745D01*
X1718Y1735D01*
X1719Y1731D01*
Y1639D01*
X1718Y1635D01*
X1719Y1631D01*
Y1539D01*
X1718Y1535D01*
X1719Y1525D01*
X1723Y1517D01*
X1729Y1509D01*
X1737Y1503D01*
X1745Y1499D01*
X1755Y1498D01*
X1765Y1499D01*
X1773Y1503D01*
X1781Y1509D01*
X1787Y1517D01*
X1791Y1525D01*
X1792Y1535D01*
X1791Y1539D01*
Y1631D01*
X1792Y1635D01*
X1791Y1639D01*
Y1731D01*
X1792Y1735D01*
X1791Y1745D01*
X1787Y1753D01*
X1781Y1761D01*
X1773Y1767D01*
X1765Y1771D01*
X1755Y1772D01*
D02*
G37*
G36*
X215D02*
X205Y1771D01*
X197Y1767D01*
X189Y1761D01*
X183Y1753D01*
X179Y1745D01*
X178Y1735D01*
X179Y1731D01*
Y1639D01*
X178Y1635D01*
X179Y1631D01*
Y1539D01*
X178Y1535D01*
X179Y1525D01*
X183Y1517D01*
X189Y1509D01*
X197Y1503D01*
X205Y1499D01*
X215Y1498D01*
X225Y1499D01*
X233Y1503D01*
X241Y1509D01*
X247Y1517D01*
X251Y1525D01*
X252Y1535D01*
X251Y1539D01*
Y1631D01*
X252Y1635D01*
X251Y1639D01*
Y1731D01*
X252Y1735D01*
X251Y1745D01*
X247Y1753D01*
X241Y1761D01*
X233Y1767D01*
X225Y1771D01*
X215Y1772D01*
D02*
G37*
G36*
X1795Y1430D02*
X1760D01*
Y1395D01*
X1766Y1396D01*
X1775Y1400D01*
X1784Y1406D01*
X1790Y1415D01*
X1794Y1424D01*
X1795Y1430D01*
D02*
G37*
G36*
X1750D02*
X1715D01*
X1716Y1424D01*
X1720Y1415D01*
X1726Y1406D01*
X1735Y1400D01*
X1744Y1396D01*
X1750Y1395D01*
Y1430D01*
D02*
G37*
G36*
X220Y1475D02*
Y1440D01*
X255D01*
X254Y1446D01*
X250Y1455D01*
X244Y1464D01*
X235Y1470D01*
X226Y1474D01*
X220Y1475D01*
D02*
G37*
G36*
X210D02*
X204Y1474D01*
X195Y1470D01*
X186Y1464D01*
X180Y1455D01*
X176Y1446D01*
X175Y1440D01*
X210D01*
Y1475D01*
D02*
G37*
G36*
X1750Y1175D02*
X1744Y1174D01*
X1735Y1170D01*
X1726Y1164D01*
X1720Y1155D01*
X1716Y1146D01*
X1715Y1140D01*
X1750D01*
Y1175D01*
D02*
G37*
G36*
X460Y953D02*
X458Y953D01*
X452Y949D01*
X448Y943D01*
X447Y936D01*
Y921D01*
X460D01*
Y953D01*
D02*
G37*
G36*
X1755Y972D02*
X1745Y971D01*
X1737Y967D01*
X1729Y961D01*
X1723Y953D01*
X1719Y945D01*
X1718Y935D01*
X1719Y925D01*
X1723Y917D01*
X1729Y909D01*
X1737Y903D01*
X1745Y899D01*
X1755Y898D01*
X1765Y899D01*
X1773Y903D01*
X1781Y909D01*
X1787Y917D01*
X1791Y925D01*
X1792Y935D01*
X1791Y945D01*
X1787Y953D01*
X1781Y961D01*
X1773Y967D01*
X1765Y971D01*
X1755Y972D01*
D02*
G37*
G36*
Y1072D02*
X1745Y1071D01*
X1737Y1067D01*
X1729Y1061D01*
X1723Y1053D01*
X1719Y1045D01*
X1718Y1035D01*
X1719Y1025D01*
X1723Y1017D01*
X1729Y1009D01*
X1737Y1003D01*
X1745Y999D01*
X1755Y998D01*
X1765Y999D01*
X1773Y1003D01*
X1781Y1009D01*
X1787Y1017D01*
X1791Y1025D01*
X1792Y1035D01*
X1791Y1045D01*
X1787Y1053D01*
X1781Y1061D01*
X1773Y1067D01*
X1765Y1071D01*
X1755Y1072D01*
D02*
G37*
G36*
X1750Y875D02*
X1744Y874D01*
X1735Y870D01*
X1726Y864D01*
X1720Y855D01*
X1716Y846D01*
X1715Y840D01*
X1750D01*
Y875D01*
D02*
G37*
G36*
X1795Y1130D02*
X1760D01*
Y1095D01*
X1766Y1096D01*
X1775Y1100D01*
X1784Y1106D01*
X1790Y1115D01*
X1794Y1124D01*
X1795Y1130D01*
D02*
G37*
G36*
X460Y911D02*
X447D01*
Y897D01*
X448Y890D01*
X452Y884D01*
X458Y880D01*
X460Y880D01*
Y911D01*
D02*
G37*
G36*
X1760Y875D02*
Y840D01*
X1795D01*
X1794Y846D01*
X1790Y855D01*
X1784Y864D01*
X1775Y870D01*
X1766Y874D01*
X1760Y875D01*
D02*
G37*
G36*
X1750Y1130D02*
X1715D01*
X1716Y1124D01*
X1720Y1115D01*
X1726Y1106D01*
X1735Y1100D01*
X1744Y1096D01*
X1750Y1095D01*
Y1130D01*
D02*
G37*
%LPD*%
G36*
X1016Y1076D02*
X1003Y1063D01*
X1000Y1058D01*
X999Y1052D01*
Y1019D01*
X994D01*
Y999D01*
X991Y995D01*
X987Y990D01*
X986Y984D01*
Y953D01*
X980Y950D01*
X977Y950D01*
X971Y949D01*
X968Y947D01*
X964Y946D01*
X960Y947D01*
X957Y949D01*
X956Y949D01*
Y967D01*
X929D01*
Y977D01*
X956D01*
Y996D01*
X956D01*
X952Y1000D01*
Y1041D01*
Y1082D01*
X907D01*
X907Y1082D01*
Y1082D01*
X907Y1082D01*
X906Y1089D01*
X908Y1090D01*
X952D01*
Y1093D01*
X1000D01*
X1016Y1076D01*
D02*
G37*
G36*
X1333Y935D02*
Y764D01*
X1316D01*
X1315Y766D01*
X1308Y770D01*
X1301Y771D01*
X1297Y775D01*
X1296Y782D01*
X1293Y786D01*
X1293Y792D01*
X1294Y795D01*
X1297Y800D01*
X1298Y807D01*
X1297Y814D01*
X1294Y818D01*
X1294Y824D01*
X1295Y827D01*
X1298Y832D01*
X1299Y839D01*
X1298Y846D01*
X1294Y853D01*
X1290Y855D01*
X1287Y857D01*
X1289Y863D01*
X1289Y864D01*
X1291Y871D01*
X1290Y874D01*
X1291Y880D01*
X1294Y882D01*
X1297Y884D01*
X1301Y890D01*
X1302Y897D01*
Y911D01*
X1284D01*
Y916D01*
X1279D01*
Y953D01*
X1277Y953D01*
X1271Y949D01*
X1264Y949D01*
X1264Y949D01*
X1258Y950D01*
X1253Y949D01*
X1253Y949D01*
X1246Y949D01*
X1240Y953D01*
X1238Y953D01*
Y916D01*
X1228D01*
Y953D01*
X1226Y953D01*
X1220Y949D01*
X1213Y949D01*
X1213Y949D01*
X1207Y950D01*
X1202Y949D01*
X1198Y947D01*
X1194Y946D01*
X1190Y947D01*
X1187Y949D01*
X1182Y950D01*
X1178Y950D01*
X1172Y953D01*
Y973D01*
X1180D01*
Y980D01*
X1288D01*
X1333Y935D01*
D02*
G37*
G36*
X931Y880D02*
X933Y880D01*
X939Y884D01*
X946Y884D01*
X946Y884D01*
X951Y883D01*
X957Y884D01*
X960Y886D01*
X961Y886D01*
X963Y886D01*
X967Y884D01*
Y879D01*
X967Y875D01*
X970Y872D01*
X992Y849D01*
X989Y843D01*
X915D01*
X913Y848D01*
X912Y849D01*
X914Y856D01*
X912Y864D01*
X910Y867D01*
Y878D01*
X916Y882D01*
X919Y880D01*
X921Y880D01*
Y916D01*
X931D01*
Y880D01*
D02*
G37*
G36*
X1222Y746D02*
X1225Y743D01*
X1229Y743D01*
X1239D01*
X1241Y739D01*
X1248Y735D01*
X1255Y733D01*
X1262Y735D01*
X1263Y734D01*
X1268Y732D01*
Y725D01*
X1254Y711D01*
X1156D01*
X1110Y758D01*
X1111Y762D01*
X1112Y764D01*
X1118Y767D01*
X1122Y774D01*
X1124Y781D01*
X1122Y789D01*
X1119Y793D01*
X1120Y795D01*
X1123Y798D01*
X1129Y797D01*
X1137Y798D01*
X1143Y802D01*
X1147Y809D01*
X1148Y811D01*
X1154Y813D01*
X1222Y746D01*
D02*
G37*
G36*
X1333Y644D02*
X1328Y641D01*
X1327Y641D01*
X1320Y642D01*
X1313Y641D01*
X1306Y637D01*
X1302Y630D01*
X1301Y623D01*
X1302Y616D01*
X1306Y609D01*
X1313Y605D01*
X1320Y604D01*
X1327Y605D01*
X1328Y605D01*
X1333Y602D01*
Y463D01*
X1306Y436D01*
X1300Y438D01*
Y450D01*
X1299Y456D01*
X1298Y458D01*
Y470D01*
X1297Y475D01*
X1294Y480D01*
X1289Y483D01*
X1284Y484D01*
X1278Y483D01*
X1274Y480D01*
X1272Y481D01*
X1268Y482D01*
Y546D01*
X1285Y563D01*
X1289Y562D01*
X1297Y563D01*
X1303Y567D01*
X1307Y574D01*
X1309Y581D01*
X1307Y589D01*
X1303Y595D01*
X1297Y599D01*
X1289Y601D01*
X1285Y600D01*
X1281Y600D01*
X1279Y604D01*
X1278Y607D01*
X1274Y614D01*
X1267Y618D01*
X1260Y619D01*
X1253Y618D01*
X1246Y614D01*
X1242Y607D01*
X1241Y604D01*
X1238Y600D01*
X1235Y600D01*
X1230Y601D01*
X1223Y600D01*
X1216Y595D01*
X1212Y589D01*
X1211Y582D01*
X1211Y578D01*
X1174Y540D01*
X1172Y537D01*
X1171Y533D01*
Y488D01*
X1165Y485D01*
X1163Y487D01*
X1161Y487D01*
Y450D01*
Y413D01*
X1163Y413D01*
X1169Y417D01*
X1176Y417D01*
X1176Y417D01*
X1182Y416D01*
X1187Y417D01*
X1192Y420D01*
X1197D01*
X1202Y417D01*
X1204Y417D01*
X1206Y410D01*
X1193Y398D01*
X1190Y394D01*
X1186D01*
X1184Y394D01*
X1180Y398D01*
D01*
X1179D01*
X1179Y398D01*
X1160D01*
Y371D01*
Y344D01*
X1179D01*
X1179Y344D01*
X1180D01*
X1180D01*
X1182Y346D01*
X1187Y345D01*
X1188Y344D01*
Y328D01*
X1173Y313D01*
X1097D01*
X1093Y319D01*
X1094Y320D01*
X1095Y326D01*
Y348D01*
X1100D01*
Y394D01*
X1095D01*
Y413D01*
X1101Y417D01*
X1105Y416D01*
X1110Y417D01*
X1114Y420D01*
X1118Y420D01*
X1121Y420D01*
X1125Y417D01*
X1130Y416D01*
X1136Y417D01*
X1136Y417D01*
X1143Y417D01*
X1149Y413D01*
X1151Y413D01*
Y450D01*
Y487D01*
X1149Y487D01*
X1147Y485D01*
X1141Y488D01*
Y560D01*
X1140Y564D01*
X1138Y567D01*
X1133Y572D01*
X1134Y576D01*
X1132Y584D01*
X1128Y590D01*
X1122Y594D01*
X1114Y596D01*
X1113Y595D01*
X1109Y599D01*
X1113Y604D01*
X1114Y604D01*
X1122Y605D01*
X1128Y609D01*
X1132Y616D01*
X1134Y623D01*
X1132Y630D01*
X1133Y632D01*
X1135Y636D01*
X1228D01*
X1231Y632D01*
X1237Y628D01*
X1244Y627D01*
X1252Y628D01*
X1258Y632D01*
X1260Y635D01*
X1262Y639D01*
X1267Y636D01*
X1269Y635D01*
X1276Y634D01*
X1284Y635D01*
X1290Y639D01*
X1294Y646D01*
X1296Y653D01*
X1295Y659D01*
X1297Y663D01*
X1299Y664D01*
X1301Y664D01*
X1309Y665D01*
X1315Y669D01*
X1319Y676D01*
X1321Y683D01*
X1319Y691D01*
X1315Y697D01*
X1309Y701D01*
X1301Y703D01*
X1294Y701D01*
X1288Y697D01*
X1285Y693D01*
X1273D01*
X1271Y699D01*
X1285Y714D01*
X1287Y717D01*
X1288Y721D01*
Y731D01*
X1293Y734D01*
X1294Y734D01*
X1301Y733D01*
X1308Y734D01*
X1315Y738D01*
X1316Y740D01*
X1333D01*
Y644D01*
D02*
G37*
G36*
X1035Y344D02*
X1054D01*
X1054Y344D01*
X1055D01*
X1055D01*
X1057Y346D01*
X1062Y344D01*
X1063Y343D01*
Y333D01*
X1043Y313D01*
X926D01*
X905Y333D01*
Y345D01*
X910Y348D01*
X914D01*
D01*
Y348D01*
X914Y348D01*
X953D01*
X955Y348D01*
X959Y344D01*
D01*
X960D01*
X960Y344D01*
X979D01*
Y371D01*
X989D01*
Y344D01*
X1025D01*
Y371D01*
X1035D01*
Y344D01*
D02*
G37*
G36*
X1200Y1065D02*
X1200Y1065D01*
X1247Y1018D01*
X1244Y1013D01*
X1180D01*
Y1019D01*
X1175D01*
Y1052D01*
X1174Y1058D01*
X1171Y1063D01*
X1146Y1088D01*
X1141Y1091D01*
X1134Y1093D01*
X1046D01*
X1018Y1120D01*
X1013Y1124D01*
X1007Y1125D01*
X956D01*
X955Y1126D01*
X957Y1133D01*
X957Y1134D01*
X1131D01*
X1200Y1065D01*
D02*
G37*
G36*
X811Y612D02*
X688Y489D01*
X686Y486D01*
X685Y482D01*
X684Y481D01*
X683Y481D01*
X679Y480D01*
X675Y483D01*
X670Y484D01*
X664Y483D01*
X664Y483D01*
X662Y483D01*
X657Y485D01*
X657Y488D01*
X663Y494D01*
X667Y493D01*
X675Y494D01*
X681Y498D01*
X685Y505D01*
X687Y512D01*
X685Y520D01*
X681Y526D01*
X675Y530D01*
X667Y532D01*
X660Y530D01*
X656Y527D01*
X649Y527D01*
X643Y531D01*
X638Y532D01*
X636Y538D01*
X716Y618D01*
X809D01*
X811Y612D01*
D02*
G37*
G36*
X979Y556D02*
X970Y546D01*
X967Y542D01*
X967Y539D01*
Y482D01*
X963Y481D01*
X961Y480D01*
X960Y480D01*
X957Y483D01*
X951Y484D01*
X946Y483D01*
X941Y480D01*
X936D01*
X931Y483D01*
X926Y484D01*
X920Y483D01*
X916Y480D01*
X913Y481D01*
X910Y482D01*
Y493D01*
X925Y508D01*
X929Y507D01*
X937Y508D01*
X943Y512D01*
X947Y519D01*
X949Y526D01*
X947Y534D01*
X943Y540D01*
X937Y544D01*
X936Y545D01*
X935Y550D01*
X946Y561D01*
X976D01*
X976Y561D01*
X979Y556D01*
D02*
G37*
G36*
X1143Y1045D02*
Y1024D01*
X1142Y1023D01*
X1137Y1021D01*
X1135Y1023D01*
D01*
X1134D01*
X1134Y1023D01*
X1115D01*
Y996D01*
X1105D01*
Y1023D01*
X1069D01*
Y996D01*
X1059D01*
Y1023D01*
X1040D01*
X1040Y1023D01*
X1039D01*
X1039D01*
X1037Y1021D01*
X1032Y1023D01*
X1031Y1024D01*
Y1045D01*
X1046Y1060D01*
X1128D01*
X1143Y1045D01*
D02*
G37*
G36*
X639Y417D02*
X644Y416D01*
X650Y417D01*
X653Y420D01*
X657Y420D01*
X661Y420D01*
X664Y417D01*
X670Y416D01*
X675Y417D01*
X679Y420D01*
X682Y419D01*
X685Y418D01*
Y394D01*
X677D01*
Y394D01*
X677Y394D01*
X672D01*
Y394D01*
X672Y394D01*
X635D01*
X633Y394D01*
X629Y398D01*
D01*
X628D01*
X628Y398D01*
X609D01*
Y371D01*
X599D01*
Y398D01*
X580D01*
X580Y398D01*
X579D01*
X579D01*
X575Y394D01*
X573Y394D01*
X534D01*
Y388D01*
X506D01*
X485Y408D01*
X486Y411D01*
X491Y416D01*
X496Y417D01*
X499Y420D01*
X503Y420D01*
X507Y420D01*
X511Y417D01*
X516Y416D01*
X522Y417D01*
X526Y420D01*
X532D01*
X536Y417D01*
X542Y416D01*
X547Y417D01*
X551Y420D01*
X555Y420D01*
X558Y420D01*
X562Y417D01*
X567Y416D01*
X573Y417D01*
X577Y420D01*
X583D01*
X588Y417D01*
X593Y416D01*
X598Y417D01*
X602Y420D01*
X606Y420D01*
X610Y420D01*
X613Y417D01*
X619Y416D01*
X624Y417D01*
X629Y420D01*
X634D01*
X639Y417D01*
D02*
G37*
G36*
X657Y714D02*
X661Y712D01*
X664Y711D01*
X692D01*
X694Y705D01*
X637Y648D01*
X631Y650D01*
Y725D01*
X630Y731D01*
X627Y736D01*
X632Y739D01*
X657Y714D01*
D02*
G37*
G36*
X902Y520D02*
X904Y515D01*
X893Y504D01*
X891Y501D01*
X890Y497D01*
Y482D01*
X887Y481D01*
X884Y480D01*
X880Y483D01*
X874Y484D01*
X869Y483D01*
X866Y480D01*
X862Y480D01*
X858Y480D01*
X854Y483D01*
X849Y484D01*
X843Y483D01*
X839Y480D01*
X833D01*
X829Y483D01*
X823Y484D01*
X819Y483D01*
X816Y487D01*
X816Y488D01*
X849Y521D01*
X901D01*
X902Y520D01*
D02*
G37*
G36*
X792Y417D02*
X798Y416D01*
X803Y417D01*
X807Y420D01*
X810Y420D01*
X814Y420D01*
X818Y417D01*
X823Y416D01*
X827Y417D01*
X833Y413D01*
Y412D01*
X834Y406D01*
X835Y404D01*
X832Y398D01*
X799D01*
Y371D01*
Y344D01*
X835D01*
Y371D01*
X845D01*
Y344D01*
X865D01*
Y344D01*
X867Y347D01*
X873Y345D01*
Y327D01*
X874Y320D01*
X875Y319D01*
X872Y313D01*
X781D01*
X761Y333D01*
Y344D01*
X762Y345D01*
X764Y345D01*
X769Y344D01*
X769D01*
X775Y344D01*
X789D01*
Y371D01*
Y398D01*
X769D01*
Y398D01*
X766Y394D01*
X724D01*
Y348D01*
X729D01*
Y326D01*
X730Y320D01*
X730Y319D01*
X727Y313D01*
X686D01*
X668Y331D01*
Y344D01*
X672Y348D01*
X677D01*
Y348D01*
X717D01*
Y394D01*
X706D01*
Y418D01*
X709Y419D01*
X712Y420D01*
X715Y417D01*
X721Y416D01*
X726Y417D01*
X731Y420D01*
X736D01*
X741Y417D01*
X746Y416D01*
X752Y417D01*
X755Y420D01*
X759Y420D01*
X763Y420D01*
X767Y417D01*
X772Y416D01*
X777Y417D01*
X782Y420D01*
X788D01*
X792Y417D01*
D02*
G37*
%LPC*%
G36*
X1150Y398D02*
X1130D01*
Y376D01*
X1150D01*
Y398D01*
D02*
G37*
G36*
Y366D02*
X1130D01*
Y344D01*
X1150D01*
Y366D01*
D02*
G37*
G36*
X1289Y953D02*
Y921D01*
X1302D01*
Y936D01*
X1301Y943D01*
X1297Y949D01*
X1291Y953D01*
X1289Y953D01*
D02*
G37*
%LPD*%
D12*
X1159Y996D02*
D03*
X1110D02*
D03*
X1204Y371D02*
D03*
X1155D02*
D03*
X935D02*
D03*
X984D02*
D03*
X1079D02*
D03*
X1030D02*
D03*
X555D02*
D03*
X604D02*
D03*
X1015Y996D02*
D03*
X1064D02*
D03*
X745Y371D02*
D03*
X794D02*
D03*
X889D02*
D03*
X840D02*
D03*
D16*
X697D02*
D03*
X652D02*
D03*
X737Y975D02*
D03*
X783D02*
D03*
D20*
X879Y1064D02*
D03*
Y1109D02*
D03*
Y974D02*
D03*
Y1019D02*
D03*
D23*
X516Y450D02*
Y493D01*
X567Y504D02*
X714Y651D01*
X567Y450D02*
Y504D01*
X711Y628D02*
X954D01*
X593Y510D02*
X711Y628D01*
X593Y450D02*
Y510D01*
X516Y493D02*
X713Y690D01*
X542Y498D02*
X720Y676D01*
X619Y496D02*
X635Y513D01*
X542Y450D02*
Y498D01*
X747Y1340D02*
X894Y1193D01*
X932D01*
X1260Y572D02*
Y600D01*
X1258Y550D02*
X1289Y581D01*
X1207Y519D02*
X1260Y572D01*
X1031Y646D02*
X1244D01*
X1015Y669D02*
X1260D01*
X1009Y683D02*
X1301D01*
X970Y585D02*
X1031Y646D01*
X1260Y669D02*
X1276Y653D01*
X1182Y533D02*
X1230Y582D01*
X1207Y450D02*
Y519D01*
X1278Y721D02*
Y775D01*
X1229Y753D02*
X1255D01*
X1279Y807D02*
Y807D01*
X1236Y779D02*
Y781D01*
X1233Y870D02*
X1239D01*
X1268Y868D02*
X1271Y871D01*
X1234Y839D02*
X1280D01*
X1259Y816D02*
X1274Y802D01*
X1205Y816D02*
X1259D01*
X1268Y866D02*
X1276Y874D01*
X1268Y866D02*
Y868D01*
X995Y650D02*
X1015Y669D01*
X1028Y623D02*
X1114D01*
X1089Y600D02*
X1090D01*
X1038D02*
X1039D01*
X1258Y701D02*
X1278Y721D01*
X1112Y889D02*
X1200Y802D01*
X1112Y889D02*
Y900D01*
X1105Y908D02*
X1112Y900D01*
X1211Y802D02*
X1235Y778D01*
X1200Y802D02*
X1211D01*
X1105Y908D02*
Y916D01*
X1235Y778D02*
X1236Y779D01*
X1103Y879D02*
X1229Y753D01*
X1182Y892D02*
X1234Y839D01*
X1152Y701D02*
X1258D01*
X1274Y802D02*
X1279Y807D01*
X1133Y888D02*
X1205Y816D01*
X977Y879D02*
Y916D01*
X1091Y567D02*
X1105Y553D01*
X1091Y567D02*
Y599D01*
X717Y867D02*
Y885D01*
X721Y889D01*
Y916D01*
Y478D02*
X841Y599D01*
X644Y450D02*
Y489D01*
X619Y450D02*
Y496D01*
X746Y450D02*
Y483D01*
X695Y450D02*
Y482D01*
X721Y450D02*
Y478D01*
X772Y450D02*
Y489D01*
X798Y450D02*
Y484D01*
X1130Y916D02*
X1133Y913D01*
X977Y450D02*
Y539D01*
X1105Y450D02*
Y553D01*
X1130Y450D02*
Y560D01*
X1182Y450D02*
Y533D01*
X619Y916D02*
X619Y916D01*
X746Y883D02*
Y916D01*
X772Y881D02*
Y916D01*
X1037Y567D02*
Y599D01*
X1207Y888D02*
Y916D01*
X1054Y450D02*
Y565D01*
X491Y450D02*
Y487D01*
X670Y895D02*
Y916D01*
X644Y897D02*
Y916D01*
X619Y896D02*
Y916D01*
X593Y897D02*
Y916D01*
X567Y897D02*
Y916D01*
X542Y897D02*
Y916D01*
X516Y911D02*
Y916D01*
Y911D02*
X517Y910D01*
Y898D02*
Y910D01*
X516Y897D02*
X517Y898D01*
X491Y895D02*
Y916D01*
X695Y373D02*
Y450D01*
Y373D02*
X697Y371D01*
X1054Y897D02*
Y916D01*
Y897D02*
X1072Y879D01*
X977Y879D02*
X1005Y851D01*
X1028Y450D02*
Y557D01*
X1037Y567D01*
X900Y450D02*
Y497D01*
X798Y484D02*
X844Y531D01*
X772Y489D02*
X844Y561D01*
X746Y483D02*
X848Y585D01*
X907Y653D02*
X909Y651D01*
X900Y497D02*
X929Y526D01*
X844Y531D02*
X902D01*
X942Y571D01*
X844Y561D02*
X892D01*
X848Y585D02*
X970D01*
X942Y571D02*
X976D01*
X982Y743D02*
Y744D01*
X944Y711D02*
Y726D01*
X963Y763D02*
X982Y744D01*
X983Y777D02*
X1014Y746D01*
X1028Y897D02*
Y916D01*
Y897D02*
X1060Y865D01*
X1097D01*
X1129Y833D01*
Y816D02*
Y833D01*
X1090Y851D02*
X1104Y836D01*
Y781D02*
Y836D01*
X1005Y851D02*
X1090D01*
X1047Y706D02*
Y793D01*
X1014Y791D02*
X1024Y781D01*
X834Y676D02*
X841Y669D01*
X885Y706D02*
X907Y683D01*
X889Y721D02*
X944Y666D01*
X935Y735D02*
X944Y726D01*
X941Y749D02*
X979Y711D01*
X900Y853D02*
Y916D01*
X894Y853D02*
X900D01*
X491Y895D02*
X664Y721D01*
X798Y888D02*
Y916D01*
X772Y881D02*
X776Y876D01*
X1035Y805D02*
X1047Y793D01*
X1061Y749D02*
X1079Y731D01*
X1061Y749D02*
Y799D01*
X1041Y819D02*
X1061Y799D01*
X1133Y888D02*
Y913D01*
X1090Y600D02*
X1091Y599D01*
X1037D02*
X1038Y600D01*
X894Y853D02*
Y856D01*
X798Y888D02*
X852Y833D01*
X1047D01*
X841Y652D02*
Y669D01*
X868Y690D02*
X884Y674D01*
X907Y653D02*
Y683D01*
X954Y628D02*
X967Y642D01*
Y662D01*
X1012Y706D01*
X944Y651D02*
Y666D01*
X960Y614D02*
X981Y636D01*
Y656D01*
X1009Y683D01*
X841Y599D02*
X965D01*
X995Y630D01*
Y650D01*
X976Y571D02*
X1028Y623D01*
X1081Y772D02*
Y799D01*
X1047Y833D02*
X1081Y799D01*
Y772D02*
X1152Y701D01*
X1182Y892D02*
Y916D01*
X1258Y892D02*
X1276Y874D01*
X1114Y576D02*
X1130Y560D01*
X1054Y565D02*
X1064Y576D01*
X977Y539D02*
X1014Y576D01*
X1207Y888D02*
X1229Y866D01*
X1233Y870D01*
X1072Y879D02*
X1103D01*
X695Y482D02*
X827Y614D01*
X960D01*
X714Y651D02*
X809D01*
X720Y676D02*
X834D01*
X713Y690D02*
X868D01*
X710Y706D02*
X885D01*
X664Y721D02*
X889D01*
X516Y897D02*
X678Y735D01*
X935D01*
X542Y897D02*
X690Y749D01*
X941D01*
X567Y897D02*
X701Y763D01*
X963D01*
X593Y897D02*
X713Y777D01*
X983D01*
X619Y896D02*
X724Y791D01*
X1014D01*
X644Y897D02*
X736Y805D01*
X1035D01*
X670Y895D02*
X746Y819D01*
X1041D01*
X738Y846D02*
X789D01*
X717Y867D02*
X738Y846D01*
X739Y876D02*
X746Y883D01*
Y916D02*
Y966D01*
X772Y916D02*
Y964D01*
X879Y1019D02*
X917D01*
X879D02*
Y1054D01*
X869Y1064D02*
X879Y1054D01*
X849Y916D02*
Y988D01*
X879Y1019D01*
X600Y210D02*
X755D01*
X920D01*
X917Y1019D02*
X929Y1031D01*
Y1052D01*
X919Y1062D02*
X929Y1052D01*
X920Y1255D02*
Y1340D01*
X704Y1351D02*
Y1353D01*
Y1351D02*
X855Y1200D01*
X747Y1340D02*
Y1355D01*
X920Y210D02*
X955Y245D01*
X215Y1335D02*
X290D01*
X215Y1035D02*
X280D01*
X215Y1135D02*
X280D01*
X644Y489D02*
X667Y512D01*
X491Y487D02*
X710Y706D01*
X1258Y450D02*
Y550D01*
X335Y305D02*
Y480D01*
X355Y645D02*
Y680D01*
X282Y778D02*
X300Y760D01*
X215Y935D02*
X256D01*
X282Y909D01*
Y778D02*
Y909D01*
X323Y712D02*
X355Y680D01*
X337Y736D02*
X375Y698D01*
X375Y752D02*
Y757D01*
X285Y1235D02*
X324Y1196D01*
X215Y1235D02*
X285D01*
X280Y1035D02*
X296Y1019D01*
X280Y1135D02*
X310Y1105D01*
X324Y808D02*
Y1196D01*
Y808D02*
X375Y757D01*
X323Y712D02*
Y770D01*
X296Y797D02*
X323Y770D01*
X296Y797D02*
Y1019D01*
X337Y736D02*
Y775D01*
X310Y802D02*
X337Y775D01*
X310Y802D02*
Y1105D01*
X338Y821D02*
Y1287D01*
X290Y1335D02*
X338Y1287D01*
X400Y675D02*
Y759D01*
X338Y821D02*
X400Y759D01*
X772Y964D02*
X783Y975D01*
X737D02*
X746Y966D01*
X683Y1043D02*
X735D01*
X671Y1075D02*
X744D01*
X618Y1552D02*
X1538D01*
X1755Y1335D01*
X624Y1538D02*
X1532D01*
X1755Y1235D02*
Y1278D01*
X1532Y1538D02*
X1714Y1356D01*
Y1318D02*
Y1356D01*
Y1318D02*
X1755Y1278D01*
X955Y245D02*
Y260D01*
X569Y1503D02*
X618Y1552D01*
X569Y1157D02*
X683Y1043D01*
X583Y1497D02*
X624Y1538D01*
X583Y1163D02*
X671Y1075D01*
X569Y1157D02*
Y1503D01*
X583Y1163D02*
Y1497D01*
D25*
X615Y640D02*
Y725D01*
X465Y490D02*
X615Y640D01*
X558Y782D02*
X615Y725D01*
X465Y450D02*
Y490D01*
X527Y782D02*
X558D01*
X1349Y623D02*
Y752D01*
Y456D02*
Y623D01*
Y752D02*
Y942D01*
X1284Y916D02*
Y966D01*
X1159Y996D02*
X1295D01*
X465Y406D02*
Y450D01*
Y406D02*
X499Y371D01*
X555D01*
X1079Y371D02*
Y450D01*
X1079Y371D02*
X1079Y371D01*
X652Y324D02*
Y371D01*
Y324D02*
X679Y296D01*
X699D01*
X555Y321D02*
Y371D01*
Y321D02*
X579Y296D01*
X1049D02*
X1079Y326D01*
Y371D01*
X889Y327D02*
Y371D01*
X935D01*
X889Y327D02*
X919Y296D01*
X849Y412D02*
X856Y405D01*
X849Y412D02*
Y450D01*
X794Y371D02*
X840D01*
X984D02*
X1030D01*
X984Y391D02*
X1002Y409D01*
Y450D01*
X856Y405D02*
X913D01*
X926Y417D01*
Y450D01*
X889Y371D02*
Y405D01*
X1284Y391D02*
Y450D01*
X1156Y385D02*
Y450D01*
X699Y296D02*
X774D01*
X1155Y327D02*
Y371D01*
X1049Y296D02*
X1179D01*
X1204Y321D01*
Y371D01*
X1264D01*
X1233Y414D02*
Y450D01*
X1204Y386D02*
X1233Y414D01*
X1204Y386D02*
Y386D01*
X1002Y916D02*
Y984D01*
X1079Y916D02*
Y981D01*
X1064Y996D02*
X1110D01*
X1064D02*
Y1042D01*
X1264Y371D02*
X1284Y391D01*
X1349Y456D01*
X1233Y916D02*
Y966D01*
X465Y916D02*
Y955D01*
X1039Y1076D02*
X1134D01*
X1159Y1052D01*
X1156Y916D02*
Y996D01*
X1159D02*
Y1052D01*
X1295Y996D02*
X1349Y942D01*
X926Y916D02*
Y968D01*
X929Y972D01*
X881D02*
X929D01*
X879Y974D02*
X881Y972D01*
X1007Y1109D02*
X1039Y1076D01*
X879Y1109D02*
X1007D01*
X1002Y984D02*
X1015Y996D01*
X604Y371D02*
X605Y370D01*
Y330D02*
Y370D01*
X579Y296D02*
X699D01*
X745Y326D02*
Y371D01*
Y326D02*
X774Y296D01*
X919D01*
X829Y371D02*
X840D01*
X829D02*
X850Y350D01*
Y330D02*
Y350D01*
X823Y916D02*
Y1032D01*
X929Y972D02*
X938D01*
X984Y1018D01*
Y1039D01*
X1015Y1052D02*
X1039Y1076D01*
X1015Y996D02*
Y1052D01*
X984Y1039D02*
X985Y1040D01*
X1233Y450D02*
Y498D01*
X919Y296D02*
X1049D01*
X984Y371D02*
X985Y371D01*
X985Y370D01*
Y330D02*
Y370D01*
D26*
X1755Y1635D02*
Y1735D01*
Y1535D02*
Y1635D01*
X215D02*
Y1735D01*
Y1535D02*
Y1635D01*
D28*
X1381Y444D02*
Y954D01*
X1308Y1027D02*
X1381Y954D01*
X1197Y260D02*
X1381Y444D01*
X1268Y1027D02*
X1308D01*
X1215Y1080D02*
X1268Y1027D01*
X660Y1155D02*
X795D01*
X850D01*
X905D01*
X960D01*
X1140D02*
X1215Y1080D01*
X960Y1155D02*
X1140D01*
X955Y260D02*
X1197D01*
X635Y1180D02*
X660Y1155D01*
X635Y1180D02*
Y1191D01*
D30*
X520Y775D02*
X527Y782D01*
X520Y775D02*
Y779D01*
X523Y782D01*
D33*
X1320Y623D02*
X1349D01*
X1301Y752D02*
X1349D01*
D34*
X1755Y1735D02*
D03*
Y1635D02*
D03*
Y1535D02*
D03*
Y1435D02*
D03*
Y1335D02*
D03*
Y1235D02*
D03*
Y1135D02*
D03*
Y1035D02*
D03*
Y935D02*
D03*
Y835D02*
D03*
Y735D02*
D03*
Y635D02*
D03*
Y535D02*
D03*
Y435D02*
D03*
Y335D02*
D03*
X215Y1735D02*
D03*
Y1635D02*
D03*
Y1535D02*
D03*
Y1435D02*
D03*
Y1335D02*
D03*
Y1235D02*
D03*
Y1135D02*
D03*
Y1035D02*
D03*
Y935D02*
D03*
Y835D02*
D03*
Y735D02*
D03*
Y635D02*
D03*
Y535D02*
D03*
Y435D02*
D03*
Y335D02*
D03*
D35*
X1755Y235D02*
D03*
X215D02*
D03*
D36*
X435Y1235D02*
D03*
Y1425D02*
D03*
D37*
X635Y513D02*
D03*
X285Y680D02*
D03*
X932Y1193D02*
D03*
X1320Y623D02*
D03*
X1260Y600D02*
D03*
X1289Y581D02*
D03*
X1244Y646D02*
D03*
X1230Y582D02*
D03*
X1301Y752D02*
D03*
X1255Y753D02*
D03*
X1278Y775D02*
D03*
X1279Y807D02*
D03*
X1236Y781D02*
D03*
X1239Y870D02*
D03*
X1271Y871D02*
D03*
X1280Y839D02*
D03*
X1284Y966D02*
D03*
X1301Y683D02*
D03*
X1114Y623D02*
D03*
X1089Y600D02*
D03*
X1039D02*
D03*
X1276Y653D02*
D03*
X979Y711D02*
D03*
X1012Y706D02*
D03*
X909Y651D02*
D03*
X929Y526D02*
D03*
X892Y561D02*
D03*
X982Y743D02*
D03*
X944Y711D02*
D03*
X1014Y746D02*
D03*
X1047Y706D02*
D03*
X1079Y731D02*
D03*
X1129Y816D02*
D03*
X1104Y781D02*
D03*
X1024D02*
D03*
X789Y846D02*
D03*
X894Y856D02*
D03*
X841Y652D02*
D03*
X884Y674D02*
D03*
X944Y651D02*
D03*
X1114Y576D02*
D03*
X1064D02*
D03*
X1014D02*
D03*
X1155Y327D02*
D03*
X809Y651D02*
D03*
X1233Y966D02*
D03*
X1064Y1042D02*
D03*
X605Y330D02*
D03*
X755Y210D02*
D03*
X600D02*
D03*
X850Y330D02*
D03*
X985Y1040D02*
D03*
X920Y1255D02*
D03*
Y1340D02*
D03*
X704Y1353D02*
D03*
X855Y1200D02*
D03*
X747Y1355D02*
D03*
X740Y1200D02*
D03*
X795Y1155D02*
D03*
X850D02*
D03*
X905D02*
D03*
X960D02*
D03*
X1215Y1080D02*
D03*
X515Y590D02*
D03*
X300Y760D02*
D03*
X375Y698D02*
D03*
X667Y512D02*
D03*
X1233Y498D02*
D03*
X375Y752D02*
D03*
X523Y782D02*
D03*
X425Y475D02*
D03*
X335Y480D02*
D03*
Y305D02*
D03*
X320Y555D02*
D03*
X400Y675D02*
D03*
X355Y645D02*
D03*
X360Y515D02*
D03*
X285Y590D02*
D03*
X385Y580D02*
D03*
X320Y645D02*
D03*
X744Y1075D02*
D03*
X735Y1043D02*
D03*
X685Y1200D02*
D03*
X700Y1287D02*
D03*
X1113Y1499D02*
D03*
X704Y1602D02*
D03*
X830Y1510D02*
D03*
X911Y1670D02*
D03*
X1215Y1215D02*
D03*
X1252Y1603D02*
D03*
X1221Y1390D02*
D03*
X728Y1731D02*
D03*
X1035Y1733D02*
D03*
X455Y1705D02*
D03*
X340Y1698D02*
D03*
X317Y1529D02*
D03*
X553Y1563D02*
D03*
X307Y1407D02*
D03*
X1320Y1285D02*
D03*
X738Y1510D02*
D03*
X1020Y1195D02*
D03*
X1040Y1595D02*
D03*
X1010Y178D02*
D03*
X1156Y165D02*
D03*
X1287Y167D02*
D03*
X1437Y173D02*
D03*
X1315Y322D02*
D03*
X1465Y421D02*
D03*
X1470Y555D02*
D03*
X1438Y330D02*
D03*
X1400Y1005D02*
D03*
X985Y330D02*
D03*
X955Y260D02*
D03*
X1260Y246D02*
D03*
X1384Y245D02*
D03*
X1671Y393D02*
D03*
X1563Y443D02*
D03*
X1630Y188D02*
D03*
X449Y302D02*
D03*
X518D02*
D03*
X635Y1191D02*
D03*
D38*
X79Y1890D02*
D03*
X79Y79D02*
D03*
X1890D02*
D03*
X1890Y1890D02*
D03*
D39*
X244Y59D02*
D03*
X429D02*
D03*
X614D02*
D03*
X799D02*
D03*
X984D02*
D03*
X1169D02*
D03*
X1354D02*
D03*
X1539D02*
D03*
X1724D02*
D03*
X1909Y244D02*
D03*
Y429D02*
D03*
Y614D02*
D03*
Y799D02*
D03*
Y984D02*
D03*
Y1169D02*
D03*
Y1354D02*
D03*
Y1539D02*
D03*
Y1724D02*
D03*
X1724Y1909D02*
D03*
X1539D02*
D03*
X1354D02*
D03*
X1169D02*
D03*
X984D02*
D03*
X799D02*
D03*
X614D02*
D03*
X429D02*
D03*
X244D02*
D03*
X59Y1539D02*
D03*
Y1354D02*
D03*
Y1169D02*
D03*
Y984D02*
D03*
Y799D02*
D03*
Y614D02*
D03*
Y429D02*
D03*
Y244D02*
D03*
X59Y1724D02*
D03*
D40*
X776Y876D02*
D03*
X739D02*
D03*
D41*
X929Y1111D02*
D03*
Y1062D02*
D03*
Y1021D02*
D03*
Y972D02*
D03*
D42*
X465Y916D02*
D03*
X491D02*
D03*
X516D02*
D03*
X542D02*
D03*
X567D02*
D03*
X593D02*
D03*
X619D02*
D03*
X644D02*
D03*
X670D02*
D03*
X695D02*
D03*
X721D02*
D03*
X746D02*
D03*
X772D02*
D03*
X798D02*
D03*
X823D02*
D03*
X849D02*
D03*
X874D02*
D03*
X900D02*
D03*
X926D02*
D03*
X951D02*
D03*
X977D02*
D03*
X1002D02*
D03*
X1028D02*
D03*
X1054D02*
D03*
X1079D02*
D03*
X1105D02*
D03*
X1130D02*
D03*
X1156D02*
D03*
X1182D02*
D03*
X1207D02*
D03*
X1233D02*
D03*
X1258D02*
D03*
X1284D02*
D03*
X465Y450D02*
D03*
X491D02*
D03*
X516D02*
D03*
X542D02*
D03*
X567D02*
D03*
X593D02*
D03*
X619D02*
D03*
X644D02*
D03*
X670D02*
D03*
X695D02*
D03*
X721D02*
D03*
X746D02*
D03*
X772D02*
D03*
X798D02*
D03*
X823D02*
D03*
X849D02*
D03*
X874D02*
D03*
X900D02*
D03*
X926D02*
D03*
X951D02*
D03*
X977D02*
D03*
X1002D02*
D03*
X1028D02*
D03*
X1054D02*
D03*
X1079D02*
D03*
X1105D02*
D03*
X1130D02*
D03*
X1156D02*
D03*
X1182D02*
D03*
X1207D02*
D03*
X1233D02*
D03*
X1258D02*
D03*
X1284D02*
D03*
M02*
